<?xml version="1.0" encoding="UTF-8"?>
<svg id="Layer_1" data-name="Layer 1" xmlns="http://www.w3.org/2000/svg" viewBox="0 0 1188.3 1259.48">
  <path d="M493.44,324.4c-4.96,0-8.98,4.02-8.98,8.98s4.02,8.98,8.98,8.98h72.67s.01,0,.02,0c.54,0,1.08-.07,1.61-.16.15-.03.3-.06.45-.1.4-.1.8-.22,1.19-.37.11-.04.23-.08.34-.12.47-.2.92-.45,1.34-.73.1-.07.2-.15.3-.22.33-.24.65-.5.95-.78.1-.1.2-.19.3-.29.31-.32.6-.67.86-1.04.04-.06.1-.12.14-.18.26-.38.49-.79.69-1.22.02-.04.02-.08.04-.12.14-.32.24-.65.34-.99.08-.24.17-.48.23-.73.05-.25.07-.51.1-.77.04-.34.1-.68.1-1.02,0-.04.01-.08.01-.13,0-.21-.05-.4-.06-.6-.02-.34-.04-.69-.1-1.02-.05-.29-.14-.56-.22-.83-.08-.28-.15-.56-.26-.83-.11-.28-.25-.54-.39-.8-.13-.25-.25-.51-.41-.75-.15-.24-.33-.46-.51-.68-.18-.24-.36-.47-.57-.69-.2-.21-.42-.39-.64-.57-.22-.19-.43-.38-.67-.55-.27-.19-.57-.35-.87-.51-.18-.1-.34-.23-.54-.32-21.09-9.72-34.71-31-34.71-54.22,0-32.92,26.78-59.71,59.71-59.71s59.69,26.78,59.69,59.71c0,23.21-13.62,44.5-34.7,54.22-.18.09-.34.21-.51.3-.3.17-.61.33-.89.53-.24.17-.44.36-.66.55-.22.19-.45.37-.65.58-.21.22-.38.45-.56.68-.18.22-.35.44-.51.68-.15.24-.28.5-.41.75-.14.26-.27.52-.38.8-.11.27-.18.55-.26.83-.08.28-.17.55-.22.83-.06.34-.08.68-.1,1.02-.01.2-.06.4-.06.6,0,.04.01.09.01.13,0,.34.06.68.1,1.02.03.26.05.52.1.77.05.25.15.49.23.73.1.33.2.67.34.98.02.04.02.08.04.12.09.19.21.34.31.52.17.3.32.61.52.89.17.24.37.45.56.67.19.22.36.44.57.63.22.21.46.39.7.58.22.17.43.34.66.49.25.16.51.29.77.42.25.13.5.27.77.37.28.11.57.18.85.26.27.08.53.16.81.21.34.06.68.08,1.03.1.2.01.4.06.6.06h71.22c4.96,0,8.98-4.02,8.98-8.98s-4.02-8.98-8.98-8.98h-43.69c13.42-14.2,21.36-33.22,21.36-53.4,0-42.83-34.83-77.67-77.65-77.67s-77.67,34.84-77.67,77.67c0,20.17,7.94,39.2,21.37,53.4h-45.16Z" style="stroke-width: 0px;"/>
  <path d="M694.86,366.46h-201.41c-4.96,0-8.98,4.02-8.98,8.98s4.02,8.98,8.98,8.98h201.41c4.96,0,8.98-4.02,8.98-8.98s-4.02-8.98-8.98-8.98Z" style="stroke-width: 0px;"/>
  <path d="M1075.8,623.19c0-128.65-50.1-249.6-141.07-340.57-90.97-90.97-211.92-141.07-340.57-141.07s-249.6,50.1-340.57,141.07c-90.97,90.97-141.07,211.92-141.07,340.57s50.1,249.6,141.07,340.57c90.97,90.97,211.92,141.07,340.57,141.07s249.6-50.1,340.57-141.07c90.97-90.97,141.07-211.92,141.07-340.57ZM733.9,303.21c0,77.06-62.69,139.75-139.75,139.75s-139.75-62.69-139.75-139.75,62.69-139.75,139.75-139.75,139.75,62.69,139.75,139.75ZM420.23,1036.21h347.85c8.81,0,11.28,12.15,3.14,15.52-54.58,22.64-114.39,35.14-177.07,35.14s-122.48-12.5-177.07-35.14c-8.14-3.37-5.67-15.52,3.14-15.52ZM810.01,1018.25h-431.73c-18.33,0-36.24-5.65-51.21-16.24-118.86-84.04-196.61-222.51-196.61-378.82,0-217.35,150.33-400.22,352.47-450.17,7.37-1.82,12.15,7.38,6.48,12.42-33.13,29.47-53.79,72.66-52.95,120.57,1.52,86.8,71.62,155.31,158.44,154.91,86.62-.41,156.96-71,156.96-157.71,0-46.85-20.55-88.97-53.1-117.88-5.62-4.99-.72-14.12,6.58-12.32,202.15,49.94,352.5,232.82,352.5,450.18,0,156.31-77.76,294.79-196.61,378.82-14.97,10.58-32.87,16.24-51.21,16.24Z" style="stroke-width: 0px;"/>
  <polygon points="253.48 189.9 254.46 196.96 268.88 186.45 262.45 183.35 245.59 160.23 260.28 149.51 277.14 172.64 278.13 179.7 292.55 169.18 286.03 166.15 247.13 112.83 246.24 105.71 231.82 116.22 238.25 119.32 255.18 142.53 240.49 153.25 223.56 130.03 222.57 122.97 208.16 133.49 214.58 136.58 253.48 189.9" style="stroke-width: 0px;"/>
  <path d="M325.38,136.51c3.4,6.71,7.68,8.44,14.59,4.94l16.92-8.57c6.91-3.5,8.14-8.03,4.74-14.73l-25.57-50.47c-3.4-6.71-7.78-8.39-14.68-4.89l-16.92,8.57c-6.91,3.5-8.04,7.98-4.64,14.68l25.57,50.47ZM313.16,76.64l7.21-3.65c3.2-1.62,5.67-.48,7.24,2.62l22.63,44.66c1.57,3.1,1.03,5.77-2.17,7.39l-7.21,3.65c-3.2,1.62-5.57.43-7.14-2.67l-22.63-44.66c-1.57-3.1-1.13-5.72,2.07-7.34Z" style="stroke-width: 0px;"/>
  <path d="M408.62,104.06l-1.31,7.01,17.02-5.39-5.11-4.98-8.68-27.4,3.96-1.25c4.71-1.49,7.14-.14,9.88,4.05l12.5,19,.4,6.47,17.66-5.6-6.61-4.5-17.67-24.9c4.87-2.84,5.96-7.19,3.9-13.72l-6.14-19.37c-2.27-7.17-6.21-9.57-13.6-7.23l-31.25,9.9,5.11,4.98,19.94,62.93ZM410.8,36.6c4.49-1.42,7.24.53,8.59,4.81l3.56,11.24c1.36,4.28.24,7.46-4.25,8.88l-10.81,3.43-7.9-24.94,10.81-3.43Z" style="stroke-width: 0px;"/>
  <path d="M491.77,76.74c1.11,7.44,4.62,10.43,12.28,9.3l18.76-2.79c7.66-1.14,10.26-5.04,9.15-12.48l-8.32-55.96c-1.11-7.44-4.73-10.42-12.39-9.28l-18.76,2.79c-7.66,1.14-10.15,5.03-9.04,12.47l8.32,55.96ZM499.09,16.07l7.99-1.19c3.55-.53,5.53,1.33,6.04,4.78l7.36,49.52c.51,3.44-.84,5.8-4.39,6.33l-7.99,1.19c-3.55.53-5.42-1.35-5.93-4.79l-7.36-49.52c-.51-3.44.73-5.78,4.28-6.31Z" style="stroke-width: 0px;"/>
  <path d="M589.48,78.56l18.96.31c7.74.12,10.94-3.3,11.07-10.82l.28-17.51c.07-4.38-1.78-7.77-5.79-9.97l-18.35-10.4c-3.78-2.08-4.77-3.78-4.69-8.38l.12-7.52c.06-3.48,1.77-5.58,5.36-5.53l7.07.12c3.59.06,5.13,2.22,5.07,5.69l-.14,8.42,10.68,5.9.28-17.39c.12-7.52-2.96-11.05-10.71-11.17L591.08,0c-7.74-.12-10.83,3.31-10.95,10.82l-.26,15.94c-.07,4.38,1.56,7.77,5.56,10.08l18.47,10.29c3.78,2.19,4.76,3.89,4.69,8.49l-.14,8.98c-.05,3.48-1.77,5.58-5.36,5.53l-8.3-.13c-3.48-.06-5.13-2.22-5.07-5.69l.17-10.55-10.68-5.9-.32,19.53c-.12,7.52,2.85,11.05,10.6,11.17Z" style="stroke-width: 0px;"/>
  <path d="M673.34,84.34l18.39,2.99c7.65,1.24,11.3-1.69,12.51-9.11l3.84-23.6-11.57,4.03-2.38,14.62c-.56,3.43-2.56,5.27-6.11,4.69l-7.98-1.3c-3.55-.58-4.75-2.93-4.19-6.37l8.04-49.41c.56-3.43,2.45-5.29,6-4.71l7.98,1.3c3.55.58,4.86,2.95,4.31,6.39l-2.88,17.73,11.57-4.03,2.47-15.18c1.21-7.42-1.34-11.36-8.98-12.61l-18.39-2.99c-7.65-1.24-11.19,1.7-12.4,9.13l-9.08,55.84c-1.21,7.42,1.23,11.34,8.87,12.59Z" style="stroke-width: 0px;"/>
  <path d="M756.55,103.25l18,5.97c7.35,2.44,11.43.12,13.8-7.01l17.8-53.7c2.37-7.14.48-11.43-6.87-13.87l-18-5.97c-7.35-2.44-11.32-.09-13.69,7.05l-17.8,53.69c-2.37,7.14-.59,11.4,6.77,13.83ZM761.25,89.79l15.75-47.52c1.09-3.3,3.26-4.83,6.67-3.7l7.67,2.54c3.41,1.13,4.34,3.68,3.24,6.99l-15.75,47.52c-1.09,3.3-3.36,4.8-6.77,3.67l-7.67-2.54c-3.41-1.13-4.23-3.65-3.14-6.95Z" style="stroke-width: 0px;"/>
  <path d="M841.1,130.7l12.8-24.72,15.95,8.26c6.88,3.56,11.17,1.86,14.63-4.81l10.32-19.94c3.46-6.68,2.37-11.16-4.51-14.73l-28.81-14.92.1,7.13-30.36,58.62-5.88,4.03,15.85,8.21-.1-7.13ZM870.37,74.18l9.77,5.06c4.19,2.17,4.74,5.49,2.68,9.48l-5.94,11.46c-2.01,3.89-5.1,5.45-9.28,3.28l-9.77-5.06,12.55-24.22Z" style="stroke-width: 0px;"/>
  <polygon points="939.63 183.28 927.21 181.44 915.43 172.83 930.93 151.62 941.44 159.3 944.98 165.5 953.58 153.71 946.61 152.23 936.09 144.55 951.59 123.34 963.37 131.95 968.9 143.22 977.44 131.52 944.99 107.82 944 114.88 905.07 168.18 898.64 171.27 931.09 194.97 939.63 183.28" style="stroke-width: 0px;"/>
  <polygon points="253.7 1046.09 202.15 1114.68 193.74 1118.58 233.4 1148.38 244.71 1133.34 228.49 1130.64 215.54 1120.91 265.25 1054.77 273.66 1050.87 255.11 1036.93 253.7 1046.09" style="stroke-width: 0px;"/>
  <polygon points="396.05 1128.5 365.8 1208.79 358.82 1214.9 380.53 1223.08 379.32 1213.89 409.57 1133.6 416.55 1127.49 394.84 1119.31 396.05 1128.5" style="stroke-width: 0px;"/>
  <path d="M574.67,1157.41l-42.24-2.55,3.88,8.42-5.18,85.65-4.86,7.89,43.12,2.6c10.05.61,14.26-3.67,14.85-13.43l1.45-24.03c.53-8.74-2.7-13.32-10.36-14.81,7.22-.88,10.68-4.91,11.2-13.5l1.28-21.12c.59-9.76-3.07-14.51-13.12-15.12ZM570.33,1238.86c-.35,5.83-3.19,9.16-9.3,8.8l-15.29-.93,2.16-35.69,15.29.92c6.12.37,8.52,4.17,8.18,9.85l-1.03,17.04ZM573.43,1177.94l-.85,14.13c-.34,5.68-3.19,9.16-9.16,8.8l-14.86-.9,1.98-32.77,14.86.9c5.97.36,8.38,4.01,8.03,9.84Z" style="stroke-width: 0px;"/>
  <path d="M774.29,1186c6.42-3.53,7.99-9.15,5.51-17.7l-7.35-25.37c-2.72-9.39-7.76-12.64-17.44-9.84l-40.93,11.85,6.48,6.63,23.87,82.42-1.93,9.07,22.29-6.45-6.48-6.63-10.39-35.89,5.19-1.5c6.17-1.79,9.28.05,12.71,5.59l15.63,25.1.31,8.42,23.13-6.7-8.44-6.06-22.15-32.94ZM758.91,1179.06l-14.16,4.1-9.46-32.66,14.16-4.1c5.89-1.7,9.39.93,11.01,6.54l4.26,14.72c1.62,5.61.08,9.7-5.81,11.41Z" style="stroke-width: 0px;"/>
  <path d="M914.78,1050.87l-16.33,11.78,39.74,87.22.64,9.62,18.81-13.58-7.74-4.49-5.79-12.02,19.17-13.83,9.7,9.2,1.83,8.76,19.05-13.75-8.81-3.72-70.26-65.18ZM938.95,1119.27l-24.8-51.56,41.13,39.78-16.33,11.78Z" style="stroke-width: 0px;"/>
  <path d="M1014.65,203.42c-3.5-3.51-9.19-3.52-12.7-.01-3.51,3.5-3.51,9.19-.01,12.7,108.6,108.78,168.4,253.35,168.4,407.08s-59.81,298.3-168.4,407.08c-3.5,3.51-3.5,9.2.01,12.7,1.75,1.75,4.05,2.62,6.34,2.62s4.6-.88,6.36-2.64c111.98-112.17,173.65-261.25,173.65-419.77s-61.67-307.6-173.65-419.77Z" style="stroke-width: 0px;"/>
  <path d="M17.96,623.19c0-153.73,59.81-298.3,168.4-407.08,3.5-3.51,3.5-9.2-.01-12.7-3.51-3.5-9.2-3.5-12.7.01C61.67,315.59,0,464.67,0,623.19s61.67,307.6,173.65,419.77c1.76,1.76,4.05,2.64,6.36,2.64s4.59-.87,6.34-2.62c3.51-3.5,3.51-9.19.01-12.7-108.6-108.78-168.4-253.35-168.4-407.08Z" style="stroke-width: 0px;"/>
  <path d="M808.69,580.77c27.91,14.27,52.55,22.57,73.74,24.9,4.74.52,7.7,5.36,6.06,9.83l-60.28,163.58c-1.41,3.83-.1,8.28,3.6,10.69,1.49.97,3.28,1.39,5.06,1.39h130.13c1.78,0,3.57-.42,5.06-1.39,3.7-2.42,5.01-6.87,3.6-10.69l-61.45-166.75c-1.46-3.96.73-8.27,4.74-9.56,1.06-.34,2.11-.71,3.14-1.1,21.88-8.3,28.6-24.92,28.87-25.62,1.81-4.62-.45-9.89-5.07-11.69-4.62-1.81-9.8.41-11.61,5.03-.18.42-4.58,10.42-19.2,15.72-15.6,5.65-45.29,6.72-98.21-20.33-46.4-23.71-100.2-26.82-155.58-9-16.63,5.35-31.02,11.79-42.37,17.65-7.21,3.72-15.78-1.53-15.78-9.64v-22.2h11.01c2.91,0,4.72-3.15,3.27-5.66l-19.99-34.62c-1.45-2.52-5.09-2.52-6.54,0l-19.99,34.62c-1.45,2.52.36,5.66,3.27,5.66h11.01v22.2c0,8.11-8.57,13.36-15.78,9.64-11.35-5.85-25.74-12.3-42.37-17.65-55.39-17.82-109.19-14.71-155.58,9-52.92,27.05-82.62,25.98-98.21,20.33-14.46-5.24-18.92-15.09-19.19-15.71-1.84-4.55-7.01-6.78-11.59-4.99-4.62,1.81-6.9,7.02-5.09,11.64.28.7,6.99,17.31,28.87,25.62,1.03.39,2.08.76,3.14,1.1,4.02,1.29,6.2,5.6,4.74,9.56l-61.45,166.75c-1.41,3.83-.1,8.28,3.6,10.69,1.49.97,3.28,1.39,5.06,1.39h130.13c1.78,0,3.57-.42,5.06-1.39,3.69-2.42,5.01-6.87,3.6-10.69l-60.28-163.58c-1.65-4.47,1.32-9.31,6.06-9.83,21.18-2.33,45.83-10.63,73.74-24.9,87.3-44.61,176.27,4.22,200.51,19.53,3.15,1.99,5.04,5.44,5.04,9.16v362.89h-159.18c-4.69,0-8.88,3.43-9.32,8.1-.51,5.36,3.69,9.86,8.94,9.86h336.71c4.69,0,8.88-3.43,9.32-8.1.51-5.36-3.69-9.86-8.94-9.86h-159.57v-362.89c0-3.72,1.9-7.17,5.04-9.16,24.26-15.32,113.22-64.14,200.51-19.53ZM849.5,773.2l52.42-142.24,52.42,142.24h-104.83ZM233.97,773.2l52.42-142.24,52.42,142.24h-104.84Z" style="stroke-width: 0px;"/>
  <path d="M351.68,801.65h-130.6c-4.96,0-8.98,4.02-8.98,8.98v18.76c0,40.96,33.32,74.28,74.28,74.28s74.28-33.32,74.28-74.28v-18.76c0-4.96-4.02-8.98-8.98-8.98ZM342.7,829.39c0,31.05-25.26,56.32-56.32,56.32s-56.32-25.26-56.32-56.32v-9.78h112.63v9.78Z" style="stroke-width: 0px;"/>
  <path d="M967.22,801.65h-130.59c-4.96,0-8.98,4.02-8.98,8.98v18.76c0,40.96,33.32,74.28,74.28,74.28s74.28-33.32,74.28-74.28v-18.76c0-4.96-4.02-8.98-8.98-8.98ZM958.24,829.39c0,31.05-25.26,56.32-56.32,56.32s-56.32-25.26-56.32-56.32v-9.78h112.63v9.78Z" style="stroke-width: 0px;"/>
  <path d="M214.02,477.57c1.4,5.98,3.29,11.96,7.06,17.94,3.77-5.98,5.66-11.96,7.06-17.94.22-.99.43-1.98.61-2.98.68-3.73,3.64-6.67,7.37-7.35.97-.18,1.94-.37,2.9-.58,5.98-1.41,11.96-3.29,17.94-7.04-5.98-3.75-11.96-5.63-17.94-7.04-.98-.22-1.96-.41-2.94-.59-3.74-.68-6.7-3.64-7.38-7.38-.18-.98-.37-1.96-.59-2.94-1.41-5.98-3.29-11.96-7.04-17.94-3.75,5.98-5.63,11.96-7.04,17.94-.21.97-.41,1.94-.58,2.9-.68,3.73-3.62,6.69-7.35,7.37-.99.18-1.98.38-2.98.61-5.98,1.4-11.96,3.29-17.94,7.06,5.98,3.77,11.96,5.66,17.94,7.06.98.22,1.96.42,2.94.6,3.71.68,6.66,3.62,7.34,7.34.18.98.38,1.96.6,2.94Z" style="stroke-width: 0px;"/>
  <path d="M360.57,467.29c3.71.68,6.66,3.62,7.34,7.34.18.98.38,1.96.6,2.94,1.4,5.98,3.29,11.96,7.06,17.94,3.77-5.98,5.66-11.96,7.06-17.94.22-.99.43-1.98.61-2.98.68-3.73,3.64-6.67,7.37-7.35.97-.18,1.94-.37,2.9-.58,5.98-1.41,11.96-3.29,17.94-7.04-5.98-3.75-11.96-5.63-17.94-7.04-.98-.22-1.96-.41-2.94-.59-3.74-.68-6.7-3.64-7.38-7.38-.18-.98-.37-1.96-.59-2.94-1.41-5.98-3.29-11.96-7.04-17.94-3.75,5.98-5.63,11.96-7.04,17.94-.21.97-.41,1.94-.58,2.9-.68,3.73-3.62,6.69-7.35,7.37-.99.18-1.98.38-2.98.61-5.98,1.4-11.96,3.29-17.94,7.06,5.98,3.77,11.96,5.66,17.94,7.06.98.22,1.96.42,2.94.6Z" style="stroke-width: 0px;"/>
  <path d="M360.57,290.13c3.71.68,6.66,3.62,7.34,7.34.18.98.38,1.96.6,2.94,1.4,5.98,3.29,11.96,7.06,17.94,3.77-5.98,5.66-11.96,7.06-17.94.22-.99.43-1.98.61-2.98.68-3.73,3.64-6.67,7.37-7.35.97-.18,1.94-.37,2.9-.58,5.98-1.41,11.96-3.29,17.94-7.04-5.98-3.75-11.96-5.63-17.94-7.04-.98-.22-1.96-.41-2.94-.59-3.74-.68-6.7-3.64-7.38-7.38-.18-.98-.37-1.96-.59-2.94-1.41-5.98-3.29-11.96-7.04-17.94-3.75,5.98-5.63,11.96-7.04,17.94-.21.97-.41,1.94-.58,2.9-.68,3.73-3.62,6.69-7.35,7.37-.99.18-1.98.38-2.98.61-5.98,1.4-11.96,3.29-17.94,7.06,5.98,3.77,11.96,5.66,17.94,7.06.98.22,1.96.42,2.94.6Z" style="stroke-width: 0px;"/>
  <path d="M977.81,452.56c-.99-.22-1.98-.43-2.98-.61-3.73-.68-6.67-3.64-7.35-7.37-.18-.97-.37-1.94-.58-2.9-1.41-5.98-3.29-11.96-7.04-17.94-3.75,5.98-5.63,11.96-7.04,17.94-.22.98-.41,1.96-.59,2.94-.68,3.74-3.64,6.7-7.38,7.38-.98.18-1.96.37-2.94.59-5.98,1.41-11.96,3.29-17.94,7.04,5.98,3.75,11.96,5.63,17.94,7.04.97.21,1.94.41,2.9.58,3.73.68,6.69,3.62,7.37,7.35.18.99.38,1.98.61,2.98,1.4,5.98,3.29,11.96,7.06,17.94,3.77-5.98,5.66-11.96,7.06-17.94.22-.98.42-1.96.6-2.94.68-3.71,3.62-6.66,7.34-7.34.98-.18,1.96-.38,2.94-.6,5.98-1.4,11.96-3.29,17.94-7.06-5.98-3.77-11.96-5.66-17.94-7.06Z" style="stroke-width: 0px;"/>
  <path d="M790.35,467.25c3.73.68,6.69,3.62,7.37,7.35.18.99.38,1.98.61,2.98,1.4,5.98,3.29,11.96,7.06,17.94,3.77-5.98,5.66-11.96,7.06-17.94.22-.98.42-1.96.6-2.94.68-3.71,3.62-6.66,7.34-7.34.98-.18,1.96-.38,2.94-.6,5.98-1.4,11.96-3.29,17.94-7.06-5.98-3.77-11.96-5.66-17.94-7.06-.99-.22-1.98-.43-2.98-.61-3.73-.68-6.67-3.64-7.35-7.37-.18-.97-.37-1.94-.58-2.9-1.41-5.98-3.29-11.96-7.04-17.94-3.75,5.98-5.63,11.96-7.04,17.94-.22.98-.41,1.96-.59,2.94-.68,3.74-3.64,6.7-7.38,7.38-.98.18-1.96.37-2.94.59-5.98,1.41-11.96,3.29-17.94,7.04,5.98,3.75,11.96,5.63,17.94,7.04.97.21,1.94.41,2.9.58Z" style="stroke-width: 0px;"/>
  <path d="M790.35,290.08c3.73.68,6.69,3.62,7.37,7.35.18.99.38,1.98.61,2.98,1.4,5.98,3.29,11.96,7.06,17.94,3.77-5.98,5.66-11.96,7.06-17.94.22-.98.42-1.96.6-2.94.68-3.71,3.62-6.66,7.34-7.34.98-.18,1.96-.38,2.94-.6,5.98-1.4,11.96-3.29,17.94-7.06-5.98-3.77-11.96-5.66-17.94-7.06-.99-.22-1.98-.43-2.98-.61-3.73-.68-6.67-3.64-7.35-7.37-.18-.97-.37-1.94-.58-2.9-1.41-5.98-3.29-11.96-7.04-17.94-3.75,5.98-5.63,11.96-7.04,17.94-.22.98-.41,1.96-.59,2.94-.68,3.74-3.64,6.7-7.38,7.38-.98.18-1.96.37-2.94.59-5.98,1.41-11.96,3.29-17.94,7.04,5.98,3.75,11.96,5.63,17.94,7.04.97.21,1.94.41,2.9.58Z" style="stroke-width: 0px;"/>
</svg>