<?xml version="1.0" encoding="UTF-8"?>
<svg id="Layer_1" data-name="Layer 1" xmlns="http://www.w3.org/2000/svg" viewBox="0 0 1183.7 1259.47">
  <path d="M512.19,236.78c2.16-5.02,4.41-9.99,7.13-14.51,1.36-2.25,2.84-4.38,4.46-6.16,1.59-1.77,3.45-3.14,4.79-3.4.67-.14,1.12-.07,1.65.1.53.18,1.19.57,1.88,1.17,1.4,1.2,2.81,3.14,4.03,5.22,2.46,4.25,4.39,9.2,6.07,14.23,1.66,5.06,3.15,10.24,4.49,15.49.67,2.63,1.3,5.26,1.92,7.92l1.91,8.1c5.09,21.58,10.41,43.11,15.85,64.61l8.29,32.21,8.53,32.15c1,3.77,4.44,6.55,8.52,6.53h.09s.09,0,.09,0h.18c3.72-.01,7.15-2.41,8.32-6.15.94-3.03,1.65-5.54,2.44-8.3l2.26-8.06,4.38-16.1c2.8-10.75,5.63-21.48,8.31-32.25,5.4-21.52,10.56-43.1,15.49-64.73l1.84-8.11c.6-2.66,1.21-5.3,1.87-7.93,1.32-5.25,2.76-10.45,4.4-15.52,1.66-5.04,3.57-10,6.01-14.26,1.21-2.09,2.61-4.02,4.01-5.2.69-.6,1.33-.95,1.85-1.13.52-.15.99-.22,1.67-.07,1.37.3,3.24,1.71,4.83,3.49,1.62,1.79,3.1,3.94,4.47,6.18,2.73,4.52,5,9.49,7.18,14.5,2.15,5.04,4.06,10.21,5.86,15.44,1.85,5.22,3.51,10.51,5.11,15.83-1.29-11.06-3.36-22.03-6.36-32.88-1.49-5.44-3.31-10.81-5.75-16.1-1.24-2.64-2.63-5.27-4.46-7.81-1.86-2.49-4.08-5.16-7.96-6.81-1.92-.79-4.32-1.09-6.51-.66-2.19.42-4.06,1.38-5.58,2.44-3.05,2.17-5.07,4.72-6.89,7.25-3.53,5.1-6.04,10.38-8.32,15.68-4.54,10.55-7.67,21.63-10.77,32.15-6.23,21.27-12.31,42.58-18.32,63.89l-8.98,31.96-.37,1.31-.39-1.44-8.97-31.97c-6.07-21.29-12.26-42.55-18.67-63.75-3.18-10.49-6.39-21.54-10.98-32.06-2.31-5.29-4.85-10.55-8.4-15.62-1.82-2.52-3.84-5.05-6.86-7.22-1.51-1.06-3.33-2.04-5.51-2.49-2.16-.47-4.58-.26-6.53.52-3.95,1.59-6.2,4.28-8.08,6.77-1.84,2.55-3.23,5.18-4.46,7.83-2.43,5.3-4.23,10.68-5.69,16.12-2.94,10.86-4.96,21.84-6.18,32.9,1.58-5.33,3.21-10.63,5.03-15.85,1.77-5.23,3.67-10.41,5.8-15.45Z" style="stroke-width: 0px;"/>
  <path d="M591.85,141c-128.15,0-248.63,49.9-339.25,140.52-90.62,90.62-140.52,211.1-140.52,339.25s47.44,242.55,133.78,332.34c.2.23.41.45.64.66,2.02,2.09,4.04,4.19,6.11,6.26,90.62,90.62,211.1,140.52,339.25,140.52s248.63-49.9,339.25-140.52c2.07-2.07,4.09-4.16,6.11-6.26.22-.2.43-.42.63-.65,86.34-89.79,133.78-207.42,133.78-332.35s-49.9-248.63-140.52-339.25c-90.62-90.62-211.1-140.52-339.25-140.52ZM731.06,302.03c0,76.76-62.45,139.21-139.21,139.21s-139.21-62.45-139.21-139.21,62.45-139.21,139.21-139.21,139.21,62.45,139.21,139.21ZM419.55,679.87c-.01-.09-.7-9.22,28.34-29.93,14.02-10,27.32-21.06,39.53-32.84.03-.03.05-.05.08-.08.05-.05.1-.09.15-.14,1.06-1.02,2.11-2.04,3.14-3.06,3.78,6.84,8.57,13.24,14.32,19.12,0,0,0,0,0,0,11.41,11.7,38.95,32.19,64.52,41.15.28.1.55.15.83.21.18.04.35.1.53.14.53.1,1.05.15,1.58.15,0,0,.01,0,.02,0h0s.04,0,.06,0c.43,0,.85-.03,1.27-.1.16-.02.3-.07.46-.1.28-.06.57-.11.84-.2.17-.05.33-.13.49-.19.25-.09.5-.18.74-.3.16-.08.32-.18.47-.26.23-.13.46-.25.68-.4.15-.1.29-.23.44-.34.21-.16.41-.32.6-.49.14-.13.27-.28.41-.42.17-.18.35-.36.51-.56.13-.16.24-.34.36-.51.14-.2.28-.41.4-.62.11-.19.2-.38.29-.58.07-.16.17-.3.23-.46,3.62-8.82,7.56-16.67,11.77-23.67,1.3.9,2.84,1.49,4.53,1.59.81.05,81.36,6.18,131.42,123.4,11.2,26.21,22.6,47.83,33.64,65.66.08.13.16.27.24.39,19.63,31.61,38.1,51.21,52.17,63.1,2.82,2.38,2.59,5.42,2.37,6.62-.22,1.19-1.12,4.08-4.57,5.25l-29.37,9.98c-11.16,3.79-21.05,10.9-28.26,20.14-.24.29-.48.59-.68.91-.49.66-1.01,1.3-1.48,1.98-28.47,41.54-58.95,59.83-88.17,52.9-36.86-8.74-69.52-58.49-77.65-118.3-.05-.36-.12-.72-.21-1.07-30.82-117.16-118.71-108.36-155.06-99.13-.16.04-.3.12-.46.17-.29.09-.58.19-.86.31-.27.12-.53.24-.78.38-.25.14-.49.28-.73.45-.24.17-.48.34-.7.53-.22.18-.43.37-.63.58-.21.21-.4.43-.59.66-.18.22-.34.44-.5.68-.17.26-.33.54-.47.82-.07.14-.17.26-.24.41-9.05,19.99-28.6,17.53-33.23,16.64-15.55-7.62-24.17-16.1-25.61-25.2-2.65-16.66,18.36-36.73,30.91-48.73l2.24-2.15c.89-.85,1.72-1.7,2.56-2.55.03-.03.05-.05.08-.08,3.73-3.8,6.99-7.58,9.65-11.27,6.04-8.38,8.64-19.24,7.33-30.6ZM699.05,583.59c.06,0,.12,0,.19,0,4.84,0,8.82-3.86,8.94-8.72l.18-7.34c9.48,12.41,16.61,26.6,20.88,41.88,1.09,3.89-3.53,6.78-6.58,4.13-19.02-16.51-43.69-26.12-69.9-26.12-33.37,0-61.14,20.26-81.04,58.81-2.29,4.44-7.71,6.23-12.14,3.92-15.34-7.99-29.94-18.8-38.43-26.6,2.79-14.4,8.11-27.87,15.46-39.98l17.28,17.29c1.75,1.75,4.04,2.62,6.33,2.62s4.58-.87,6.32-2.62c3.49-3.49,3.5-9.16,0-12.65l-19.44-19.45c5.64-6.82,12.01-13.03,18.94-18.51l14.78,22.06c1.73,2.58,4.56,3.97,7.44,3.97,1.71,0,3.44-.49,4.97-1.51,4.11-2.75,5.2-8.31,2.45-12.41l-14.84-22.16c5.68-3.3,11.62-6.17,17.78-8.54.08.14.13.3.22.44l15.24,23.65c1.71,2.66,4.59,4.1,7.53,4.1,1.95,0,3.93-.64,5.61-1.98,3.61-2.89,4.27-8.14,1.76-12.02l-12.58-19.53c8.48-1.87,17.23-2.87,26.17-2.87.19,0,.37,0,.56,0,.08.02.16.05.25.07,0,.69.06,1.38.22,2.08l6.5,27.37c.98,4.11,4.65,6.88,8.7,6.88.68,0,1.38-.08,2.07-.24,4.81-1.14,7.78-5.96,6.64-10.77l-4.25-17.89c10.09,4.8,19.37,10.89,27.66,18.05l-.63,25.32c-.12,4.94,3.82,9.15,8.76,9.26ZM550.02,539.99c-19.45,16.82-33.85,38.51-41.84,62.57-.45,1.36-2.33,1.51-2.97.23-1.19-2.37-2.23-4.8-3.11-7.28-.03-.11-.07-.22-.11-.33-.87-2.51-1.55-5.15-2.11-7.85-.08-.37-.02-.76.15-1.09,12.04-23.45,31.21-42.08,54.07-53.74,1.75-.89,3.27,1.53,1.72,2.73-1.98,1.53-3.91,3.11-5.81,4.75ZM992.28,822.38h-214.61c-1.76,0-3.38-.91-4.27-2.42-9.31-15.75-18.88-34.43-28.35-56.61-4.9-11.47-10.08-21.96-15.45-31.55-1.86-3.32.52-7.4,4.33-7.4h277.29c15.86,0,27.27,15.32,22.65,30.49-5.59,18.38-12.3,36.27-20.04,53.61-3.79,8.48-12.27,13.88-21.55,13.88ZM916.67,938.24h-97.51c-5.62,0-6.92-7.87-1.6-9.68h0c8.34-2.84,14.94-9.64,16.87-18.24,2.06-9.21-1.06-18.42-8.23-24.47-9.58-8.09-21.38-20.09-34.27-37.65-2.41-3.29-.08-7.94,4-7.94h160.34c18.82,0,30.22,21,19.76,36.64-12.61,18.85-26.57,36.72-41.74,53.48-4.51,4.98-10.9,7.85-17.62,7.85ZM249.4,930.39c-15.17-16.76-29.13-34.63-41.74-53.48-10.46-15.64.94-36.64,19.76-36.64h270.94c3.44,0,5.84,3.39,4.68,6.63-9.49,26.48-21.55,60.29-30.05,84.79-.76,2.2-1.36,4.39-1.83,6.56h-204.15c-6.72,0-13.11-2.87-17.62-7.85ZM487.87,947.74c.01-.18.06-.36.06-.55,0-.03,0-.05,0-.07.22-3.1.85-6.3,1.99-9.56,13.87-39.97,37.25-104.86,43.4-121.9,14.78,13.84,27.56,34.92,35.9,66.32,2.92,21.1,8.56,40.91,16.3,58.52-.45,1.08-.91,2.14-1.38,3.18,0,.02-.02.04-.03.06-19.28,42.86-49.25,49.43-69.5,41.72-14.9-5.67-27.66-20.1-26.72-37.72ZM349.11,778.06c2.45,15.41,14.7,28.51,36.39,38.93.57.27,1.16.5,1.77.65,3.04.76,6.89,1.27,11.17,1.27,13.42,0,31.09-5.08,41.44-23.68,21.95-4.97,51.98-6.73,78.56,9.19-.15.31-.33.6-.44.93-.07.2-1.94,5.38-4.95,13.74-.71,1.97-2.59,3.3-4.68,3.3H191.41c-9.28,0-17.76-5.41-21.55-13.88-7.74-17.34-14.45-35.23-20.04-53.61-4.61-15.17,6.8-30.49,22.65-30.49h190.57c4.22,0,6.54,4.95,3.8,8.16-11.19,13.1-20.4,28.72-17.73,45.49ZM340.81,956.13h125.46c2.34,0,4.35,1.64,4.84,3.93,4.17,19.49,19.3,35.33,37.11,42.11,6.78,2.58,14.08,3.97,21.57,3.97,21.5,0,44.61-11.43,61.9-38.8,1.92-3.03,6.34-2.99,8.32,0,16.31,24.71,37.4,41.93,60.35,47.37,4.99,1.19,10.5,1.94,16.44,1.93,24.11,0,55.32-12.41,88-58.41.93-1.31,2.44-2.11,4.05-2.11h74.01c23,0,32.57,29.67,13.74,42.89-75.02,52.68-166.35,83.63-264.78,83.63s-189.75-30.95-264.78-83.63c-18.83-13.22-9.26-42.89,13.74-42.89ZM1025.66,706.51h-309.48c-1.59,0-3.08-.78-4.02-2.07-43.18-59.4-92.13-72.03-108.43-74.66,13.9-16.26,30.29-24.48,49.03-24.48,35.21,0,67.1,20.82,81.24,53.04.05.11.12.21.18.32.14.28.3.55.46.82.15.24.3.48.47.7.17.23.37.44.56.65.2.22.4.43.62.62.21.19.44.35.67.52.23.17.47.33.71.48.25.15.51.27.77.39.27.12.53.24.81.34.25.09.51.15.77.22.32.08.65.15.98.19.11.01.21.05.33.06.29.03.58.04.86.04.01,0,.02,0,.04,0,.28,0,.56-.05.84-.08.3-.03.6-.04.89-.1.21-.04.41-.12.62-.18.36-.1.71-.2,1.05-.34.05-.02.11-.03.16-.05.16-.07.29-.17.44-.25.31-.16.62-.32.91-.51.22-.14.41-.3.62-.46.24-.19.47-.38.68-.59.19-.19.37-.38.54-.58.19-.23.38-.46.55-.7.15-.21.28-.43.41-.65.15-.26.28-.53.41-.81.11-.24.21-.48.29-.73.09-.27.17-.55.24-.83.07-.29.13-.57.17-.86.02-.12.06-.23.07-.35.4-4.17.6-8.52.6-12.95,0-64.04-43.15-120.28-104.92-136.78-.06-.02-.12-.03-.18-.05-.02,0-.03,0-.05-.01-11.81-3.14-24.06-4.74-36.41-4.74-54.25,0-104.42,31.63-127.8,80.58-.01.02-.02.04-.03.07,0,.02-.02.04-.03.06-3.65,7.65-6.57,15.66-8.77,23.83-11.18,10.66-23.26,20.68-36,29.76-25.55,18.22-37.24,33.44-35.72,46.55.57,4.89.32,12-4.07,18.08-1.12,1.55-2.39,3.14-3.79,4.75-.96,1.1-2.33,1.76-3.79,1.76h-232.09c-11.78,0-21.76-8.67-23.43-20.33-3.05-21.37-4.65-43.21-4.65-65.41,0-215.39,148.2-396.78,347.98-447.64,8.03-2.04,13.43,7.99,7.35,13.61-31.69,29.29-51.34,71.44-50.52,118.08,1.51,86.47,71.34,154.71,157.82,154.3,86.28-.4,156.35-70.72,156.35-157.1,0-45.49-19.45-86.51-50.47-115.22-6.11-5.66-.77-15.73,7.3-13.67,199.76,50.87,347.95,232.26,347.95,447.63,0,22.2-1.59,44.04-4.65,65.41-1.67,11.66-11.65,20.33-23.43,20.33Z" style="stroke-width: 0px;"/>
  <path d="M190.06,1106.08l-10.32,4.03,21.4,15.91,2.24-10.04,11.16-10.51,21.8,16.22-6.72,13.81-8.97,5.03,21.67,16.12,1.03-10.94,47.09-99.58-18.57-13.81-81.82,73.76ZM242.44,1110.13l-18.57-13.81,47.92-45.04-29.35,58.86Z" style="stroke-width: 0px;"/>
  <path d="M458.25,1124.85l-46.98-13.82,2.18,10.43-27.83,94.61-7.48,7.59,25.58,7.53-2.18-10.43,12.12-41.19,5.95,1.75c7.08,2.08,8.96,5.78,8.86,13.27l-.38,33.98-4.9,8.35,26.55,7.81-4.43-11.09-1.1-45.6c8.4.55,13.39-3.93,16.28-13.74l8.57-29.12c3.17-10.78.29-17.05-10.81-20.31ZM451.26,1147.44l-4.97,16.89c-1.89,6.44-5.92,9.45-12.68,7.46l-16.25-4.78,11.03-37.49,16.25,4.78c6.76,1.99,8.52,6.7,6.62,13.14Z" style="stroke-width: 0px;"/>
  <polygon points="609.78 1151.09 614.64 1141.61 587.97 1142.09 593.18 1151.39 594.96 1249.98 590.1 1259.47 616.76 1258.98 611.56 1249.68 609.78 1151.09" style="stroke-width: 0px;"/>
  <polygon points="796.26 1212.36 775.5 1219.05 763.47 1181.7 781.99 1175.73 792.58 1176.9 785.9 1156.15 777.98 1163.28 759.46 1169.24 747.43 1131.89 768.18 1125.21 786.66 1128.41 780.02 1107.82 722.87 1126.23 730.54 1133.63 760.78 1227.49 758.87 1237.98 816.02 1219.56 809.38 1198.97 796.26 1212.36" style="stroke-width: 0px;"/>
  <path d="M977.3,1076.34c-3.97-5.2-9.28-7.48-16.02-6.35l-31.16,4.77c-6.37,1.06-9.09-.03-13.26-5.5l-6.81-8.94c-3.15-4.14-3.08-8.2,1.19-11.45l8.4-6.41c4.27-3.25,8.07-2.14,11.22,1.99l7.63,10,17.99-2.96-15.76-20.68c-6.81-8.94-13.7-10.23-22.9-3.21l-20.94,15.96c-9.2,7.02-9.65,13.9-2.84,22.84l14.44,18.94c3.97,5.2,9.02,7.68,15.85,6.69l31.19-5.01c6.47-.92,9.19.16,13.36,5.63l8.14,10.67c3.15,4.14,3.08,8.2-1.19,11.45l-9.87,7.52c-4.13,3.15-8.07,2.14-11.22-1.99l-9.56-12.54-17.99,2.96,17.69,23.21c6.81,8.94,13.57,10.33,22.77,3.31l22.54-17.19c9.21-7.02,9.79-14,2.97-22.94l-15.86-20.81Z" style="stroke-width: 0px;"/>
  <polygon points="252.49 189.16 253.48 196.2 267.84 185.72 261.44 182.64 244.63 159.61 259.27 148.93 276.07 171.97 277.05 179 291.41 168.52 284.92 165.51 246.18 112.4 245.29 105.3 230.93 115.77 237.32 118.85 254.19 141.98 239.56 152.65 222.69 129.53 221.71 122.49 207.35 132.97 213.75 136.05 252.49 189.16" style="stroke-width: 0px;"/>
  <path d="M324.12,135.98c3.39,6.68,7.65,8.41,14.53,4.92l16.86-8.54c6.88-3.49,8.11-7.99,4.72-14.68l-25.47-50.27c-3.39-6.68-7.75-8.36-14.63-4.87l-16.86,8.54c-6.88,3.49-8.01,7.94-4.62,14.63l25.47,50.27ZM311.95,76.34l7.18-3.64c3.19-1.62,5.65-.48,7.21,2.61l22.54,44.49c1.57,3.09,1.03,5.75-2.16,7.36l-7.18,3.64c-3.19,1.62-5.55.43-7.11-2.66l-22.54-44.49c-1.57-3.09-1.13-5.69,2.06-7.31Z" style="stroke-width: 0px;"/>
  <path d="M407.04,103.66l-1.31,6.98,16.95-5.37-5.09-4.96-8.65-27.29,3.94-1.25c4.69-1.49,7.11-.14,9.84,4.04l12.45,18.93.4,6.44,17.59-5.57-6.58-4.48-17.6-24.81c4.85-2.83,5.94-7.16,3.88-13.66l-6.11-19.3c-2.26-7.14-6.19-9.53-13.54-7.2l-31.13,9.86,5.09,4.96,19.86,62.68ZM409.21,36.46c4.48-1.42,7.21.53,8.56,4.8l3.55,11.19c1.35,4.26.24,7.43-4.23,8.85l-10.77,3.41-7.87-24.84,10.77-3.41Z" style="stroke-width: 0px;"/>
  <path d="M489.87,76.44c1.1,7.41,4.6,10.39,12.23,9.26l18.69-2.78c7.63-1.13,10.22-5.02,9.12-12.43l-8.29-55.74c-1.1-7.41-4.71-10.38-12.34-9.24l-18.69,2.78c-7.63,1.13-10.11,5.01-9,12.42l8.29,55.74ZM497.16,16.01l7.96-1.18c3.54-.53,5.51,1.33,6.02,4.76l7.34,49.33c.51,3.43-.84,5.78-4.38,6.3l-7.96,1.18c-3.54.53-5.4-1.35-5.91-4.77l-7.34-49.33c-.51-3.43.73-5.76,4.27-6.29Z" style="stroke-width: 0px;"/>
  <path d="M587.19,78.25l18.89.31c7.71.12,10.9-3.29,11.02-10.78l.28-17.44c.07-4.36-1.78-7.74-5.77-9.93l-18.28-10.36c-3.77-2.07-4.75-3.77-4.67-8.35l.12-7.49c.06-3.46,1.77-5.56,5.34-5.5l7.04.11c3.58.06,5.11,2.21,5.05,5.67l-.14,8.38,10.64,5.87.28-17.33c.12-7.49-2.95-11.01-10.67-11.13L588.79,0c-7.71-.12-10.79,3.29-10.91,10.78l-.26,15.87c-.07,4.36,1.55,7.74,5.54,10.04l18.4,10.25c3.77,2.19,4.74,3.88,4.67,8.46l-.14,8.94c-.05,3.46-1.77,5.56-5.34,5.5l-8.27-.13c-3.46-.06-5.11-2.21-5.05-5.67l.17-10.51-10.64-5.87-.31,19.45c-.12,7.49,2.84,11,10.55,11.13Z" style="stroke-width: 0px;"/>
  <path d="M670.73,84.01l18.32,2.98c7.62,1.24,11.26-1.68,12.46-9.07l3.82-23.51-11.53,4.02-2.37,14.57c-.56,3.42-2.55,5.25-6.08,4.67l-7.95-1.29c-3.53-.57-4.73-2.92-4.18-6.34l8-49.22c.56-3.42,2.44-5.27,5.97-4.69l7.95,1.29c3.53.57,4.85,2.94,4.29,6.36l-2.87,17.66,11.53-4.02,2.46-15.12c1.2-7.39-1.33-11.32-8.95-12.56l-18.32-2.98c-7.62-1.24-11.15,1.7-12.35,9.09l-9.05,55.62c-1.2,7.39,1.22,11.3,8.84,12.54Z" style="stroke-width: 0px;"/>
  <path d="M753.62,102.85l17.93,5.95c7.32,2.43,11.38.12,13.74-6.99l17.73-53.49c2.36-7.11.48-11.38-6.85-13.81l-17.93-5.95c-7.32-2.43-11.28-.09-13.64,7.02l-17.73,53.49c-2.36,7.11-.58,11.35,6.74,13.78ZM758.3,89.44l15.69-47.33c1.09-3.29,3.25-4.81,6.64-3.69l7.64,2.53c3.4,1.13,4.32,3.67,3.23,6.96l-15.69,47.33c-1.09,3.29-3.35,4.78-6.75,3.65l-7.64-2.53c-3.4-1.13-4.21-3.64-3.12-6.93Z" style="stroke-width: 0px;"/>
  <path d="M837.83,130.19l12.75-24.63,15.89,8.23c6.85,3.55,11.13,1.86,14.57-4.79l10.28-19.86c3.45-6.65,2.36-11.12-4.49-14.67l-28.7-14.86.1,7.1-30.24,58.39-5.86,4.02,15.79,8.18-.1-7.1ZM866.99,73.89l9.73,5.04c4.17,2.16,4.72,5.47,2.67,9.44l-5.91,11.42c-2.01,3.87-5.08,5.43-9.25,3.27l-9.73-5.04,12.5-24.13Z" style="stroke-width: 0px;"/>
  <polygon points="935.99 182.57 923.62 180.73 911.88 172.16 927.32 151.03 937.79 158.68 941.31 164.86 949.89 153.12 942.94 151.64 932.46 143.99 947.9 122.86 959.63 131.44 965.14 142.66 973.65 131.01 941.33 107.4 940.34 114.43 901.56 167.53 895.16 170.6 927.48 194.22 935.99 182.57" style="stroke-width: 0px;"/>
  <path d="M1010.72,202.63c-3.49-3.5-9.15-3.5-12.65-.01-3.5,3.49-3.5,9.15-.01,12.65,108.18,108.36,167.75,252.37,167.75,405.5s-59.58,297.14-167.75,405.5c-3.49,3.5-3.49,9.16.01,12.65,1.75,1.74,4.03,2.61,6.32,2.61s4.58-.88,6.33-2.63c111.55-111.74,172.98-260.24,172.98-418.14s-61.43-306.4-172.98-418.14Z" style="stroke-width: 0px;"/>
  <path d="M185.64,1026.28c-108.18-108.36-167.75-252.37-167.75-405.5s59.57-297.14,167.75-405.5c3.49-3.5,3.49-9.16-.01-12.65-3.5-3.49-9.16-3.48-12.65.01C61.43,314.37,0,462.87,0,620.77s61.43,306.4,172.98,418.14c1.75,1.75,4.04,2.63,6.33,2.63s4.57-.87,6.32-2.61c3.5-3.49,3.5-9.16.01-12.65Z" style="stroke-width: 0px;"/>
  <path d="M228.73,449.34c-.32-3.12-.81-6.25-1.5-9.37-1.4-5.96-3.27-11.92-7.01-17.87-3.74,5.96-5.61,11.92-7.01,17.87-.69,3.12-1.17,6.23-1.49,9.35-3.12.31-6.25.79-9.37,1.49-5.96,1.4-11.92,3.28-17.87,7.03,5.96,3.76,11.92,5.64,17.87,7.03,3.12.71,6.23,1.19,9.35,1.49.31,3.12.79,6.23,1.49,9.35,1.4,5.96,3.28,11.92,7.03,17.87,3.76-5.96,5.64-11.92,7.03-17.87.71-3.12,1.19-6.25,1.49-9.37,3.12-.32,6.23-.81,9.35-1.49,5.96-1.4,11.92-3.27,17.87-7.01-5.96-3.74-11.92-5.61-17.87-7.01-3.12-.69-6.25-1.18-9.37-1.5Z" style="stroke-width: 0px;"/>
  <path d="M382.62,449.34c-.32-3.12-.81-6.25-1.5-9.37-1.4-5.96-3.27-11.92-7.01-17.87-3.74,5.96-5.61,11.92-7.01,17.87-.69,3.12-1.17,6.23-1.49,9.35-3.12.31-6.25.79-9.37,1.49-5.96,1.4-11.92,3.28-17.87,7.03,5.96,3.76,11.92,5.64,17.87,7.03,3.12.71,6.23,1.19,9.35,1.49.31,3.12.79,6.23,1.49,9.35,1.4,5.96,3.28,11.92,7.03,17.87,3.76-5.96,5.64-11.92,7.03-17.87.71-3.12,1.19-6.25,1.49-9.37,3.12-.32,6.23-.81,9.35-1.49,5.96-1.4,11.92-3.27,17.87-7.01-5.96-3.74-11.92-5.61-17.87-7.01-3.12-.69-6.25-1.18-9.37-1.5Z" style="stroke-width: 0px;"/>
  <path d="M382.62,272.86c-.32-3.12-.81-6.25-1.5-9.37-1.4-5.96-3.27-11.92-7.01-17.87-3.74,5.96-5.61,11.92-7.01,17.87-.69,3.12-1.17,6.23-1.49,9.35-3.12.31-6.25.79-9.37,1.49-5.96,1.4-11.92,3.28-17.87,7.03,5.96,3.76,11.92,5.64,17.87,7.03,3.12.71,6.23,1.19,9.35,1.49.31,3.12.79,6.23,1.49,9.35,1.4,5.96,3.28,11.92,7.03,17.87,3.76-5.96,5.64-11.92,7.03-17.87.71-3.12,1.19-6.25,1.49-9.37,3.12-.32,6.23-.81,9.35-1.49,5.96-1.4,11.92-3.27,17.87-7.01-5.96-3.74-11.92-5.61-17.87-7.01-3.12-.69-6.25-1.18-9.37-1.5Z" style="stroke-width: 0px;"/>
  <path d="M947.62,466.35c.31,3.12.79,6.25,1.49,9.37,1.4,5.96,3.28,11.92,7.03,17.87,3.76-5.96,5.64-11.92,7.03-17.87.71-3.12,1.19-6.23,1.49-9.35,3.12-.31,6.23-.79,9.35-1.49,5.96-1.4,11.92-3.28,17.87-7.03-5.96-3.76-11.92-5.64-17.87-7.03-3.12-.71-6.25-1.19-9.37-1.49-.32-3.12-.81-6.23-1.49-9.35-1.4-5.96-3.27-11.92-7.01-17.87-3.74,5.96-5.61,11.92-7.01,17.87-.69,3.12-1.18,6.25-1.5,9.37-3.12.32-6.25.81-9.37,1.5-5.96,1.4-11.92,3.27-17.87,7.01,5.96,3.74,11.92,5.61,17.87,7.01,3.11.69,6.23,1.17,9.35,1.49Z" style="stroke-width: 0px;"/>
  <path d="M810.77,449.32c-.32-3.12-.81-6.23-1.49-9.35-1.4-5.96-3.27-11.92-7.01-17.87-3.74,5.96-5.61,11.92-7.01,17.87-.69,3.12-1.18,6.25-1.5,9.37-3.12.32-6.25.81-9.37,1.5-5.96,1.4-11.92,3.27-17.87,7.01,5.96,3.74,11.92,5.61,17.87,7.01,3.11.69,6.23,1.17,9.35,1.49.31,3.12.79,6.25,1.49,9.37,1.4,5.96,3.28,11.92,7.03,17.87,3.76-5.96,5.64-11.92,7.03-17.87.71-3.12,1.19-6.23,1.49-9.35,3.12-.31,6.23-.79,9.35-1.49,5.96-1.4,11.92-3.28,17.87-7.03-5.96-3.76-11.92-5.64-17.87-7.03-3.12-.71-6.25-1.19-9.37-1.49Z" style="stroke-width: 0px;"/>
  <path d="M810.77,272.84c-.32-3.12-.81-6.23-1.49-9.35-1.4-5.96-3.27-11.92-7.01-17.87-3.74,5.96-5.61,11.92-7.01,17.87-.69,3.12-1.18,6.25-1.5,9.37-3.12.32-6.25.81-9.37,1.5-5.96,1.4-11.92,3.27-17.87,7.01,5.96,3.74,11.92,5.61,17.87,7.01,3.11.69,6.23,1.17,9.35,1.49.31,3.12.79,6.25,1.49,9.37,1.4,5.96,3.28,11.92,7.03,17.87,3.76-5.96,5.64-11.92,7.03-17.87.71-3.12,1.19-6.23,1.49-9.35,3.12-.31,6.23-.79,9.35-1.49,5.96-1.4,11.92-3.28,17.87-7.03-5.96-3.76-11.92-5.64-17.87-7.03-3.12-.71-6.25-1.19-9.37-1.49Z" style="stroke-width: 0px;"/>
  <path d="M481.46,684.56c9.1-6.98,14.16-15.67,11.29-19.4-2.87-3.74-12.57-1.11-21.67,5.87-9.1,6.98-14.16,15.67-11.29,19.4,2.87,3.74,12.57,1.11,21.67-5.87Z" style="stroke-width: 0px;"/>
</svg>