<?xml version="1.0" encoding="UTF-8"?>
<svg id="Layer_1" data-name="Layer 1" xmlns="http://www.w3.org/2000/svg" viewBox="0 0 1243.6 1316.88">
  <path d="M517.67,285.99c0,27.2,22.13,49.32,49.32,49.32s49.32-22.13,49.32-49.32c0-15.76-7.45-29.78-18.99-38.81,6.78.05,13.6.56,20.42,1.51,16.43,2.16,32.86,6.42,49.23,11.58,16.41,5.17,32.73,11.2,49.56,17.52-12.67-12.91-27.85-22.98-44.01-31.17-16.22-8.07-33.79-14.09-52.29-16.56-18.38-2.63-38.04-1.14-55.78,5.92-.66.28-1.29.61-1.94.91-25.1,2.28-44.84,23.41-44.84,49.09ZM566.99,316.52c-16.83,0-30.52-13.69-30.52-30.53s13.69-30.53,30.52-30.53,30.53,13.69,30.53,30.53-13.69,30.53-30.53,30.53Z" style="fill: #1d1d1b; stroke-width: 0px;"/>
  <path d="M676.61,299.32c-27.2,0-49.32,22.13-49.32,49.32,0,15.76,7.45,29.78,18.99,38.81-6.78-.05-13.6-.56-20.42-1.51-16.43-2.16-32.86-6.42-49.23-11.58-16.41-5.17-32.73-11.2-49.56-17.52,12.67,12.91,27.85,22.98,44.01,31.17,16.22,8.07,33.79,14.09,52.29,16.56,18.38,2.63,38.04,1.14,55.78-5.92.66-.28,1.29-.61,1.94-.91,25.1-2.28,44.84-23.41,44.84-49.09,0-27.2-22.13-49.32-49.32-49.32ZM676.61,318.12c16.83,0,30.53,13.69,30.53,30.53s-13.69,30.53-30.53,30.53-30.53-13.69-30.53-30.53,13.69-30.53,30.53-30.53Z" style="fill: #1d1d1b; stroke-width: 0px;"/>
  <path d="M976.75,1010.1c1.44-1.42,2.86-2.86,4.3-4.32l.23-.23c15.39-15.66,29.83-32.41,43.05-49.91l.11.13,6.97-9.71c21.6-30.07,39.86-62.47,54.28-96.3,1.62-3.81,3.2-7.64,4.73-11.49,2.46-6.19,4.76-12.44,6.97-18.72,4.67-13.27,8.81-26.72,12.34-40.32,2.08-8.02,3.96-16.08,5.64-24.17l2.42-11.67h-.16c3.24-17.72,5.56-35.82,6.88-53.95.31-4.12.54-7.92.69-11.5.45-8.31.67-16.97.67-25.74,0-25.32-1.89-50.7-5.63-75.45-17.73-118.13-77.43-226.55-168.09-305.28-91.58-79.53-208.9-123.33-330.35-123.33s-238.77,43.8-330.35,123.33c-90.66,78.74-150.36,187.15-168.09,305.28-3.73,24.76-5.63,50.15-5.63,75.46,0,8.76.23,17.42.67,25.64.16,3.65.39,7.44.7,11.58,1.32,18.16,3.65,36.26,6.88,53.98h-.16s2.42,11.66,2.42,11.66c6.7,32.37,16.68,64.24,29.67,94.7,1.8,4.23,3.66,8.43,5.58,12.62,2.9,6.32,5.98,12.56,9.15,18.76,2.77,5.43,5.63,10.82,8.6,16.15,1.26,2.25,2.55,4.49,3.84,6.72,2.1,3.63,4.24,7.24,6.43,10.82,6.51,10.65,13.39,21.09,20.68,31.24,0,.01.02.02.02.03l6.95,9.67.11-.13c13.22,17.5,27.66,34.26,43.05,49.91,1.52,1.54,3.01,3.06,4.5,4.53,22.59,22.4,47.27,42.67,73.35,60.23,83.29,56.23,180.68,85.96,281.63,85.96,2.6,0,5.22-.02,7.73-.07,2.23-.03,4.46-.07,6.65-.14,95.72-2.67,188.14-32.32,267.24-85.74,26.08-17.57,50.76-37.83,73.33-60.2ZM784.66,1105.96c.94-20.58,7.96-40.54,20.31-57.22,31.17-42.13,87.32-54.17,132.35-30.11-21.07,17.86-43.76,33.96-67.6,47.96-26.88,15.78-55.44,29-85.06,39.38ZM1063.32,853.86c-.57,1.25-1.18,2.5-1.76,3.75-1.19,2.54-2.39,5.09-3.62,7.61-.72,1.47-1.47,2.94-2.2,4.4-1.15,2.29-2.31,4.58-3.5,6.85-.8,1.53-1.61,3.05-2.43,4.57-1.18,2.2-2.38,4.4-3.59,6.59-.85,1.52-1.7,3.04-2.56,4.55-1.25,2.2-2.53,4.38-3.82,6.56-.86,1.45-1.71,2.91-2.59,4.35-1.39,2.3-2.82,4.59-4.25,6.87-.81,1.28-1.6,2.58-2.42,3.85-1.8,2.8-3.63,5.57-5.48,8.34-.49.73-.96,1.47-1.45,2.19-.06.09-.13.19-.2.28-11.48-17.1-17.7-37.32-17.7-58.07,0-52.41,37.97-95.48,88.47-102.93-.82,3.5-1.68,7-2.58,10.48-.25.96-.52,1.91-.77,2.86-.71,2.66-1.42,5.32-2.17,7.97-.38,1.36-.79,2.71-1.19,4.06-.66,2.25-1.33,4.49-2.02,6.73-.45,1.46-.92,2.91-1.38,4.37-.68,2.14-1.38,4.28-2.1,6.42-.49,1.46-.98,2.92-1.49,4.38-.75,2.16-1.51,4.3-2.29,6.45-.5,1.4-1.01,2.79-1.52,4.18-.86,2.32-1.76,4.64-2.66,6.95-.46,1.18-.91,2.37-1.38,3.54-1.38,3.47-2.8,6.93-4.27,10.36-1.64,3.84-3.34,7.67-5.08,11.47ZM768.05,317.32c0,80.64-65.61,146.25-146.25,146.25s-146.25-65.61-146.25-146.25,65.61-146.25,146.25-146.25,146.25,65.61,146.25,146.25ZM220.16,924.63c-.06-.09-.13-.19-.2-.28-.49-.72-.96-1.46-1.45-2.19-1.86-2.77-3.69-5.55-5.49-8.35-.81-1.27-1.6-2.55-2.4-3.82-1.44-2.29-2.87-4.59-4.28-6.91-.87-1.43-1.71-2.87-2.56-4.31-1.3-2.2-2.58-4.4-3.85-6.61-.85-1.5-1.7-3-2.54-4.51-1.22-2.2-2.43-4.41-3.62-6.63-.81-1.51-1.62-3.02-2.41-4.54-1.19-2.29-2.36-4.59-3.52-6.89-.73-1.46-1.47-2.91-2.19-4.37-1.24-2.53-2.44-5.08-3.64-7.64-.58-1.24-1.18-2.48-1.75-3.73-1.74-3.81-3.44-7.63-5.08-11.47-1.47-3.44-2.89-6.9-4.27-10.38-.46-1.14-.89-2.3-1.34-3.44-.92-2.35-1.82-4.7-2.7-7.06-.51-1.36-1-2.73-1.49-4.09-.79-2.18-1.56-4.36-2.32-6.55-.49-1.43-.98-2.86-1.46-4.3-.73-2.17-1.44-4.34-2.13-6.52-.46-1.43-.91-2.85-1.35-4.28-.7-2.26-1.37-4.53-2.04-6.81-.39-1.34-.79-2.67-1.17-4.01-.75-2.65-1.47-5.31-2.17-7.97-.25-.96-.53-1.92-.78-2.88-.9-3.48-1.76-6.98-2.58-10.48,50.5,7.45,88.47,50.52,88.47,102.93,0,20.76-6.22,40.98-17.7,58.07ZM373.88,1066.58c-23.84-14-46.53-30.1-67.6-47.96,45.02-24.06,101.17-12.02,132.35,30.11,12.35,16.69,19.37,36.64,20.31,57.22-29.62-10.38-58.18-23.6-85.06-39.38ZM635.61,1137.25c-2.09.07-4.18.11-6.35.14-2.48.05-4.98.07-7.46.07-44.66,0-88.59-6.05-130.81-17.84-7.61-2.12-12.92-8.9-13.42-16.78-1.5-23.49-9.71-46.19-23.83-65.28-35.94-48.57-99.99-63.25-152.48-37.48-7.05,3.46-15.53,2.26-21.11-3.26-.04-.04-.08-.08-.12-.12-1.44-1.42-2.86-2.87-4.31-4.33-10.14-10.31-19.85-21.12-29.05-32.32-8.65-10.53-9.86-25.2-3.63-37.32,8.88-17.26,13.62-36.5,13.62-56.17,0-56.97-38.02-104.57-90.58-118.63-13.24-3.54-22.95-14.74-24.86-28.32-1.47-10.46-2.61-21.01-3.38-31.6-.3-3.96-.51-7.56-.67-11.1-.43-7.98-.64-16.3-.64-24.73,0-24.38,1.82-48.82,5.42-72.66,29.78-198.43,181.25-355.67,370.92-400.01,5.83-1.36,9.5,6.06,4.86,9.84-37.92,30.88-61.92,78.22-60.95,131.04,1.67,90.78,75.01,162.39,165.81,161.96,90.65-.43,164.26-74.3,164.26-165.05,0-51.56-23.78-97.65-60.94-127.93-4.66-3.79-1.02-11.24,4.83-9.87,189.67,44.35,341.13,201.59,370.91,400.02,3.6,23.83,5.42,48.27,5.42,72.66,0,8.43-.22,16.75-.65,24.82-.15,3.48-.37,7.08-.67,11.03-.77,10.57-1.91,21.12-3.38,31.58-1.91,13.58-11.61,24.77-24.86,28.32-52.57,14.06-90.58,61.66-90.58,118.63,0,19.66,4.74,38.91,13.62,56.17,6.23,12.12,5.02,26.79-3.63,37.32-9.2,11.2-18.91,22-29.05,32.32l-.23.23c-1.37,1.39-2.71,2.76-4.11,4.13-.03.03-.07.07-.1.1-5.58,5.52-14.06,6.72-21.11,3.26-52.49-25.77-116.54-11.09-152.48,37.48-14.12,19.08-22.32,41.77-23.83,65.25-.5,7.87-5.78,14.64-13.37,16.76-37.89,10.58-77.16,16.57-117.05,17.68Z" style="fill: #1d1d1b; stroke-width: 0px;"/>
  <path d="M283,1091.24l-20.58-16.72c-8.56-6.95-15.03-5.83-21.78,2.48l-50.77,62.5c-6.75,8.31-6.52,14.87,2.03,21.82l20.59,16.72c8.56,6.95,15.15,5.93,21.9-2.38l21.46-26.41-17.14-3.22-13.3,16.37c-3.12,3.85-6.9,4.69-10.87,1.47l-8.93-7.25c-3.97-3.22-3.79-6.99-.67-10.83l44.93-55.31c3.12-3.85,6.77-4.79,10.74-1.57l8.93,7.25c3.97,3.22,3.91,7.09.79,10.94l-16.12,19.84,17.14,3.22,13.8-16.99c6.75-8.31,6.4-14.97-2.16-21.92Z" style="fill: #1d1d1b; stroke-width: 0px;"/>
  <path d="M388.71,1158.01l-60.14,85.98-8.71,5.95,23.27,10.19-.07-9.8,8.11-12.15,23.71,10.38-3.28,14.26-7.25,6.59,23.56,10.32-1.39-10.37,22.38-102.51-20.2-8.84ZM378.05,1236.53l-20.19-8.84,34.83-52.07-14.63,60.91Z" style="fill: #1d1d1b; stroke-width: 0px;"/>
  <polygon points="559.97 1213 550.96 1279.65 539.87 1210.28 542.96 1201.68 513.52 1197.69 517.23 1207.22 504.64 1300.31 498.53 1308.52 522.6 1311.77 519.05 1302.26 529.45 1225.32 544.76 1314.77 560.44 1316.88 574.22 1214.93 580.33 1206.73 556.42 1203.5 559.97 1213" style="fill: #1d1d1b; stroke-width: 0px;"/>
  <path d="M737.71,1258.49l-14.01,10.38,2.97,20.88c.7,4.9-1.25,8.25-6.31,8.97l-11.39,1.62c-5.06.72-7.7-1.97-8.4-6.87l-10.02-70.55c-.7-4.9,1.09-8.22,6.15-8.94l11.39-1.62c5.06-.72,7.86,1.95,8.56,6.85l3.6,25.31,14.02-10.38-3.08-21.67c-1.51-10.6-6.63-14.87-17.55-13.32l-26.26,3.73c-10.91,1.55-14.49,7.06-12.98,17.66l11.33,79.72c1.51,10.6,6.47,14.89,17.39,13.34l26.26-3.73c10.91-1.55,14.65-7.08,13.14-17.68l-4.79-33.69Z" style="fill: #1d1d1b; stroke-width: 0px;"/>
  <polygon points="893.9 1249.63 874.84 1257.88 859.98 1223.58 876.99 1216.22 887.14 1216.34 878.89 1197.29 872.04 1204.78 855.03 1212.15 840.17 1177.84 859.23 1169.59 877.05 1170.93 868.85 1152.01 816.38 1174.75 824.33 1181.05 861.66 1267.25 860.82 1277.36 913.3 1254.63 905.11 1235.72 893.9 1249.63" style="fill: #1d1d1b; stroke-width: 0px;"/>
  <path d="M1023.04,1119.8c4.98-6.29,4.16-12.63-1.97-20.2l-18.2-22.47c-6.74-8.32-13.21-9.45-21.77-2.51l-36.25,29.36,9.36,3.93,59.13,73,1.91,9.97,19.74-15.99-9.35-3.94-25.74-31.78,4.59-3.72c5.46-4.43,9.38-3.9,15.2.23l26.44,18.68,3.89,8.36,20.48-16.59-11.09-2.53-36.35-23.81ZM1004.57,1119.33l-12.54,10.16-23.43-28.93,12.54-10.16c5.22-4.22,9.86-3.05,13.89,1.91l10.56,13.04c4.02,4.97,4.2,9.75-1.01,13.98Z" style="fill: #1d1d1b; stroke-width: 0px;"/>
  <polygon points="265.27 198.74 266.3 206.13 281.39 195.12 274.67 191.88 257.01 167.68 272.39 156.47 290.04 180.67 291.07 188.06 306.16 177.05 299.34 173.88 258.64 118.09 257.7 110.62 242.61 121.63 249.33 124.87 267.06 149.16 251.68 160.38 233.96 136.08 232.93 128.69 217.84 139.7 224.57 142.94 265.27 198.74" style="fill: #1d1d1b; stroke-width: 0px;"/>
  <path d="M340.52,142.86c3.56,7.02,8.03,8.84,15.26,5.17l17.71-8.97c7.23-3.66,8.52-8.4,4.96-15.42l-26.76-52.81c-3.56-7.02-8.14-8.78-15.37-5.12l-17.71,8.97c-7.23,3.66-8.41,8.35-4.86,15.37l26.76,52.81ZM327.73,80.2l7.55-3.82c3.35-1.7,5.93-.5,7.58,2.74l23.68,46.74c1.65,3.25,1.08,6.04-2.27,7.74l-7.55,3.82c-3.35,1.7-5.83.45-7.47-2.8l-23.68-46.74c-1.65-3.25-1.19-5.98,2.17-7.68Z" style="fill: #1d1d1b; stroke-width: 0px;"/>
  <path d="M427.64,108.91l-1.37,7.34,17.81-5.64-5.35-5.21-9.09-28.67,4.14-1.31c4.93-1.56,7.47-.15,10.34,4.24l13.08,19.89.42,6.77,18.48-5.86-6.92-4.71-18.49-26.06c5.1-2.97,6.24-7.52,4.08-14.36l-6.42-20.27c-2.38-7.5-6.5-10.02-14.23-7.57l-32.7,10.36,5.35,5.21,20.87,65.85ZM429.92,38.31c4.7-1.49,7.57.56,8.99,5.04l3.73,11.76c1.42,4.48.26,7.81-4.45,9.3l-11.31,3.59-8.27-26.1,11.31-3.59Z" style="fill: #1d1d1b; stroke-width: 0px;"/>
  <path d="M514.66,80.31c1.16,7.79,4.83,10.92,12.85,9.73l19.64-2.92c8.02-1.19,10.73-5.28,9.58-13.06l-8.71-58.56c-1.16-7.79-4.95-10.9-12.96-9.71l-19.64,2.92c-8.02,1.19-10.62,5.26-9.46,13.05l8.71,58.56ZM522.32,16.82l8.37-1.24c3.72-.55,5.79,1.4,6.32,5l7.71,51.82c.54,3.6-.88,6.07-4.6,6.62l-8.37,1.24c-3.72.55-5.67-1.41-6.21-5.01l-7.71-51.82c-.54-3.6.76-6.05,4.48-6.6Z" style="fill: #1d1d1b; stroke-width: 0px;"/>
  <path d="M616.91,82.21l19.85.32c8.1.13,11.45-3.46,11.58-11.33l.3-18.32c.07-4.58-1.87-8.14-6.06-10.44l-19.21-10.88c-3.96-2.18-4.99-3.96-4.91-8.77l.13-7.87c.06-3.64,1.86-5.84,5.61-5.78l7.4.12c3.76.06,5.37,2.32,5.31,5.96l-.14,8.81,11.18,6.17.29-18.2c.13-7.87-3.1-11.56-11.21-11.69L618.59,0c-8.1-.13-11.33,3.46-11.46,11.33l-.27,16.68c-.07,4.58,1.63,8.13,5.82,10.55l19.33,10.77c3.96,2.3,4.98,4.07,4.91,8.89l-.15,9.4c-.06,3.64-1.86,5.84-5.61,5.78l-8.69-.14c-3.64-.06-5.37-2.32-5.31-5.96l.18-11.04-11.18-6.17-.33,20.44c-.13,7.87,2.99,11.56,11.09,11.69Z" style="fill: #1d1d1b; stroke-width: 0px;"/>
  <path d="M704.68,88.26l19.25,3.13c8,1.3,11.83-1.76,13.09-9.53l4.02-24.7-12.11,4.22-2.49,15.3c-.58,3.59-2.68,5.51-6.39,4.91l-8.35-1.36c-3.71-.6-4.97-3.07-4.39-6.66l8.41-51.71c.59-3.59,2.57-5.53,6.28-4.93l8.35,1.36c3.71.6,5.09,3.09,4.51,6.68l-3.02,18.55,12.11-4.22,2.58-15.88c1.26-7.77-1.4-11.89-9.4-13.19l-19.25-3.13c-8-1.3-11.72,1.78-12.98,9.55l-9.5,58.44c-1.26,7.77,1.28,11.87,9.28,13.17Z" style="fill: #1d1d1b; stroke-width: 0px;"/>
  <path d="M791.76,108.05l18.84,6.25c7.69,2.55,11.96.13,14.44-7.34l18.63-56.19c2.48-7.47.5-11.96-7.19-14.51l-18.84-6.25c-7.69-2.55-11.85-.09-14.33,7.38l-18.63,56.19c-2.48,7.47-.61,11.93,7.08,14.48ZM796.67,93.97l16.49-49.73c1.14-3.46,3.41-5.06,6.98-3.88l8.03,2.66c3.57,1.18,4.54,3.86,3.39,7.31l-16.49,49.73c-1.14,3.46-3.52,5.02-7.09,3.84l-8.03-2.66c-3.57-1.18-4.43-3.82-3.28-7.28Z" style="fill: #1d1d1b; stroke-width: 0px;"/>
  <path d="M880.23,136.78l13.4-25.87,16.69,8.64c7.2,3.73,11.69,1.95,15.31-5.04l10.8-20.87c3.62-6.99,2.48-11.68-4.72-15.41l-30.15-15.61.11,7.46-31.77,61.34-6.16,4.22,16.59,8.59-.11-7.46ZM910.87,77.63l10.22,5.3c4.38,2.27,4.96,5.75,2.8,9.92l-6.21,12c-2.11,4.07-5.34,5.7-9.72,3.44l-10.22-5.3,13.13-25.35Z" style="fill: #1d1d1b; stroke-width: 0px;"/>
  <polygon points="983.36 191.81 970.36 189.88 958.03 180.87 974.25 158.67 985.25 166.71 988.95 173.2 997.96 160.87 990.66 159.31 979.65 151.28 995.87 129.08 1008.2 138.09 1013.99 149.88 1022.93 137.64 988.97 112.83 987.93 120.22 947.18 176 940.46 179.24 974.42 204.05 983.36 191.81" style="fill: #1d1d1b; stroke-width: 0px;"/>
  <path d="M1061.87,212.89c-3.67-3.67-9.62-3.68-13.29-.01-3.67,3.67-3.68,9.62-.01,13.29,113.65,113.84,176.24,265.14,176.24,426.02,0,12.13-.36,24.23-1.06,35.99-3.08,52.79-13.1,104.91-29.77,154.92-18.38,55.08-44.65,107.2-78.1,154.9-14.15,20.16-29.62,39.58-45.99,57.72-3.48,3.85-3.17,9.8.68,13.27,1.8,1.62,4.05,2.42,6.29,2.42,2.57,0,5.12-1.05,6.98-3.1,16.88-18.7,32.84-38.73,47.43-59.52,34.49-49.19,61.59-102.94,80.54-159.75,17.19-51.58,27.52-105.33,30.7-159.75.73-12.11,1.1-24.6,1.1-37.1,0-165.9-64.54-321.91-181.73-439.3Z" style="fill: #1d1d1b; stroke-width: 0px;"/>
  <path d="M18.8,652.19c0-160.88,62.59-312.18,176.24-426.02,3.67-3.67,3.66-9.62-.01-13.29-3.67-3.67-9.63-3.66-13.29.01C64.54,330.28,0,486.29,0,652.19c0,154.06,56.74,301.83,159.76,416.12,1.85,2.06,4.41,3.1,6.98,3.1,2.24,0,4.49-.8,6.29-2.42,3.86-3.47,4.16-9.42.69-13.27-99.91-110.82-154.93-254.13-154.93-403.53Z" style="fill: #1d1d1b; stroke-width: 0px;"/>
  <path d="M250.15,473.65c-3.28-.72-6.56-1.24-9.84-1.57-.33-3.28-.85-6.56-1.57-9.84-1.47-6.26-3.44-12.52-7.36-18.78-3.93,6.26-5.89,12.52-7.36,18.78-.72,3.27-1.23,6.55-1.57,9.82-3.28.32-6.56.83-9.84,1.57-6.26,1.47-12.52,3.44-18.78,7.39,6.26,3.95,12.52,5.92,18.78,7.39,3.27.74,6.55,1.25,9.82,1.57.32,3.27.83,6.55,1.57,9.82,1.47,6.26,3.44,12.52,7.39,18.78,3.95-6.26,5.92-12.52,7.39-18.78.74-3.28,1.25-6.56,1.57-9.84,3.27-.33,6.55-.85,9.82-1.57,6.26-1.47,12.52-3.44,18.78-7.36-6.26-3.93-12.52-5.89-18.78-7.36Z" style="fill: #1d1d1b; stroke-width: 0px;"/>
  <path d="M384.09,489.97c.32,3.27.83,6.55,1.57,9.82,1.47,6.26,3.44,12.52,7.39,18.78,3.95-6.26,5.92-12.52,7.39-18.78.74-3.28,1.25-6.56,1.57-9.84,3.27-.33,6.55-.85,9.82-1.57,6.26-1.47,12.52-3.44,18.78-7.36-6.26-3.93-12.52-5.89-18.78-7.36-3.28-.72-6.56-1.24-9.84-1.57-.33-3.28-.85-6.56-1.57-9.84-1.47-6.26-3.44-12.52-7.36-18.78-3.93,6.26-5.89,12.52-7.36,18.78-.72,3.27-1.23,6.55-1.57,9.82-3.28.32-6.56.83-9.84,1.57-6.26,1.47-12.52,3.44-18.78,7.39,6.26,3.95,12.52,5.92,18.78,7.39,3.27.74,6.55,1.25,9.82,1.57Z" style="fill: #1d1d1b; stroke-width: 0px;"/>
  <path d="M384.09,304.57c.32,3.27.83,6.55,1.57,9.82,1.47,6.26,3.44,12.52,7.39,18.78,3.95-6.26,5.92-12.52,7.39-18.78.74-3.28,1.25-6.56,1.57-9.84,3.27-.33,6.55-.85,9.82-1.57,6.26-1.47,12.52-3.44,18.78-7.36-6.26-3.93-12.52-5.89-18.78-7.36-3.28-.72-6.56-1.24-9.84-1.57-.33-3.28-.85-6.56-1.57-9.84-1.47-6.26-3.44-12.52-7.36-18.78-3.93,6.26-5.89,12.52-7.36,18.78-.72,3.27-1.23,6.55-1.57,9.82-3.28.32-6.56.83-9.84,1.57-6.26,1.47-12.52,3.44-18.78,7.39,6.26,3.95,12.52,5.92,18.78,7.39,3.27.74,6.55,1.25,9.82,1.57Z" style="fill: #1d1d1b; stroke-width: 0px;"/>
  <path d="M995.58,489.95c.32,3.28.83,6.56,1.57,9.84,1.47,6.26,3.44,12.52,7.39,18.78,3.95-6.26,5.92-12.52,7.39-18.78.74-3.27,1.25-6.55,1.57-9.82,3.27-.32,6.55-.83,9.82-1.57,6.26-1.47,12.52-3.44,18.78-7.39-6.26-3.95-12.52-5.92-18.78-7.39-3.28-.74-6.56-1.25-9.84-1.57-.33-3.27-.85-6.55-1.57-9.82-1.47-6.26-3.44-12.52-7.36-18.78-3.93,6.26-5.89,12.52-7.36,18.78-.72,3.28-1.24,6.56-1.57,9.84-3.28.33-6.56.85-9.84,1.57-6.26,1.47-12.52,3.44-18.78,7.36,6.26,3.93,12.52,5.89,18.78,7.36,3.27.72,6.55,1.23,9.82,1.57Z" style="fill: #1d1d1b; stroke-width: 0px;"/>
  <path d="M833.9,489.95c.32,3.28.83,6.56,1.57,9.84,1.47,6.26,3.44,12.52,7.39,18.78,3.95-6.26,5.92-12.52,7.39-18.78.74-3.27,1.25-6.55,1.57-9.82,3.27-.32,6.55-.83,9.82-1.57,6.26-1.47,12.52-3.44,18.78-7.39-6.26-3.95-12.52-5.92-18.78-7.39-3.28-.74-6.56-1.25-9.84-1.57-.33-3.27-.85-6.55-1.57-9.82-1.47-6.26-3.44-12.52-7.36-18.78-3.93,6.26-5.89,12.52-7.36,18.78-.72,3.28-1.24,6.56-1.57,9.84-3.28.33-6.56.85-9.84,1.57-6.26,1.47-12.52,3.44-18.78,7.36,6.26,3.93,12.52,5.89,18.78,7.36,3.27.72,6.55,1.23,9.82,1.57Z" style="fill: #1d1d1b; stroke-width: 0px;"/>
  <path d="M833.9,304.54c.32,3.28.83,6.56,1.57,9.84,1.47,6.26,3.44,12.52,7.39,18.78,3.95-6.26,5.92-12.52,7.39-18.78.74-3.27,1.25-6.55,1.57-9.82,3.27-.32,6.55-.83,9.82-1.57,6.26-1.47,12.52-3.44,18.78-7.39-6.26-3.95-12.52-5.92-18.78-7.39-3.28-.74-6.56-1.25-9.84-1.57-.33-3.27-.85-6.55-1.57-9.82-1.47-6.26-3.44-12.52-7.36-18.78-3.93,6.26-5.89,12.52-7.36,18.78-.72,3.28-1.24,6.56-1.57,9.84-3.28.33-6.56.85-9.84,1.57-6.26,1.47-12.52,3.44-18.78,7.36,6.26,3.93,12.52,5.89,18.78,7.36,3.27.72,6.55,1.23,9.82,1.57Z" style="fill: #1d1d1b; stroke-width: 0px;"/>
  <path d="M774.9,984.27c4.58-1.78,6.82-7,5.48-11.72l-7.96-28.21c-1.69-5.97-5.41-11.21-10.49-14.76l-25.88-18.12c-4.55-3.19-9.9-4.88-15.46-4.88h-6.56c11.91-9.08,22.05-19.39,30.67-30.23.45.07.91.14,1.38.14h43.85c1.78,0,3.52.59,4.94,1.67l40.72,30.99c1.44,1.1,2.48,2.65,2.95,4.4l9.56,35.96c1.12,4.21,4.92,6.98,9.07,6.98.8,0,1.61-.1,2.42-.32,5.02-1.33,8-6.48,6.67-11.5l-9.56-35.96c-1.54-5.79-4.96-10.9-9.73-14.53l-40.72-30.99c-4.66-3.55-10.46-5.51-16.33-5.51h-16.56c-6.8,0-11.08-7.24-7.9-13.24,2.86-5.39,5.43-10.75,7.74-16,.18,0,.35.03.53.01l81.2-6.5c2.27-.18,4.53.6,6.2,2.15l53.9,49.88c1.81,1.67,4.1,2.5,6.38,2.5,2.68,0,5.35-1.14,7.23-3.39,3.25-3.9,2.54-9.77-1.18-13.22l-53.56-49.56c-5.52-5.1-12.98-7.69-20.46-7.09l-59.32,4.75c-6.26.5-11.09-5.43-9.34-11.46,3.02-10.36,4.93-19.22,6.09-25.57.05-.28.08-.56.12-.84l117.1-23.98c2.01-.41,4.08-.06,5.84,1l51.91,31.14c1.51.91,3.18,1.34,4.83,1.34,3.36,0,6.62-1.8,8.32-5.02,2.37-4.48.47-10.06-3.87-12.67l-51.51-30.91c-5.8-3.48-12.64-4.65-19.28-3.3l-117.02,23.96c-.41-.68-.85-1.33-1.32-1.97-3.57-4.84-4.01-11.32-.68-16.33,20.52-30.84,39.45-81.94-9.23-131.8-.55-.56-1.17-1.01-1.81-1.41,8.4-10.75,12.88-24.7,11.24-39.7-2.88-26.35-24.92-47.1-51.4-48.52-8.12-.43-16.03.91-23.49,3.92-.04.01-.08.02-.12.03-.03.01-.06.03-.1.05-.09.04-.18.06-.26.09-.23.1-.43.24-.65.35-.29.15-.59.29-.86.46-.26.17-.48.36-.72.55-.25.19-.5.38-.72.6-.22.22-.41.45-.61.69-.19.23-.39.45-.56.69-.18.25-.32.53-.47.8-.14.26-.29.51-.41.77-.12.28-.21.57-.31.87-.09.28-.19.55-.26.84-.07.3-.1.61-.14.92-.04.29-.08.58-.09.88,0,.32.02.63.05.95.02.29.03.59.08.88.06.32.16.64.25.96.07.24.1.47.18.71l10.94,29.88-30.4,1.54s0,0,0,0c0,0,0,0,0,0h-.02c-.24.01-.46.08-.69.11-.4.05-.8.08-1.18.18-.25.06-.48.18-.73.26-.34.12-.69.22-1.01.37-.24.11-.45.27-.67.41-.3.18-.61.33-.88.54-.21.16-.39.36-.59.53-.25.22-.52.43-.75.68-.19.21-.33.45-.5.67-.19.26-.41.5-.57.77-.16.26-.26.54-.39.81-.13.27-.29.54-.39.82-.12.33-.18.69-.27,1.03-.06.25-.15.49-.19.75-.07.44-.07.9-.07,1.36,0,.18-.04.35-.03.53,0,0,0,0,0,.01,0,0,0,.01,0,.02l.57,3.96c3.78,26.34,25.51,47.11,52.1,48.04,11.76.41,22.72-2.92,31.82-8.87.42.83.93,1.63,1.62,2.34,38.21,39.14,27.55,78.75,6.72,108.98-4.08,5.93-12.03,7.75-18.39,4.38l-74.74-39.6c-6.17-3.27-13.05-4.98-20.03-4.98h-68.73c-6.96,0-13.88,1.72-20.03,4.98l-74.74,39.6c-6.36,3.37-14.31,1.54-18.39-4.38-20.83-30.23-31.49-69.84,6.72-108.98.69-.7,1.2-1.5,1.62-2.34,8.59,5.62,18.85,8.91,29.86,8.91,29.24,0,53.24-22.87,54.63-52.07.02-.39-.03-.76-.06-1.14-.02-.25,0-.5-.04-.75-.06-.36-.17-.7-.27-1.04-.07-.25-.11-.51-.19-.75-.12-.33-.3-.64-.46-.96-.11-.23-.2-.47-.33-.68-.18-.3-.41-.57-.63-.85-.15-.2-.28-.42-.45-.6-.24-.27-.52-.49-.79-.72-.18-.16-.34-.34-.54-.49-.29-.22-.61-.38-.92-.56-.21-.12-.41-.27-.63-.38-.33-.16-.69-.26-1.04-.38-.23-.08-.45-.19-.7-.25-.38-.1-.78-.13-1.18-.18-.23-.03-.45-.09-.69-.1h-.02s0,0,0,0c0,0,0,0,0,0l-30.4-1.54,10.95-29.88c.09-.24.12-.48.18-.72.09-.32.19-.63.24-.95.05-.3.06-.6.08-.9.02-.31.06-.63.05-.94,0-.3-.06-.6-.09-.9-.04-.3-.07-.6-.13-.9-.07-.29-.17-.57-.26-.86-.09-.29-.18-.57-.3-.85-.12-.27-.27-.52-.42-.78-.15-.27-.29-.54-.46-.79-.17-.24-.37-.46-.56-.69-.2-.24-.39-.48-.61-.69-.22-.21-.47-.39-.71-.59-.24-.19-.47-.39-.73-.56-.26-.17-.56-.31-.84-.45-.23-.12-.43-.26-.67-.36-.09-.04-.18-.06-.27-.1-.03-.01-.06-.03-.09-.04-.04-.01-.07-.02-.11-.03-7.47-3.01-15.4-4.36-23.53-3.92-26.47,1.43-48.51,22.19-51.37,48.55-1.63,14.99,2.86,28.92,11.25,39.67-.64.4-1.26.85-1.81,1.41-48.68,49.86-29.75,100.96-9.23,131.8,3.33,5.01,2.89,11.49-.68,16.33-.47.64-.91,1.3-1.33,1.97l-117.02-23.96c-6.63-1.36-13.48-.19-19.28,3.3l-51.91,31.14c-4.45,2.67-5.89,8.44-3.22,12.89,1.76,2.94,4.88,4.57,8.07,4.57,1.65,0,3.31-.43,4.83-1.34l51.91-31.15c1.76-1.05,3.83-1.41,5.84-1l117.1,23.98c.04.28.07.56.12.84,1.16,6.36,3.07,15.21,6.09,25.57,1.76,6.03-3.08,11.96-9.34,11.46l-59.32-4.75c-7.49-.6-14.95,1.98-20.47,7.09l-53.9,49.88c-3.81,3.52-4.04,9.47-.52,13.28,1.85,2,4.37,3.01,6.9,3.01,2.28,0,4.57-.83,6.38-2.5l53.9-49.87c1.67-1.55,3.92-2.33,6.2-2.15l81.21,6.5c.18.01.35-.01.53,0,2.3,5.25,4.87,10.61,7.74,16,3.19,6-1.1,13.24-7.9,13.24h-16.56c-5.9,0-11.63,1.93-16.33,5.51l-40.71,30.98c-4.77,3.63-8.19,8.74-9.73,14.52l-9.46,35.57c-1.25,4.7,1.02,9.82,5.56,11.56,1.14.44,2.29.65,3.43.65,4.16,0,7.96-2.78,9.08-6.98l9.56-35.96c.47-1.75,1.5-3.3,2.95-4.4l40.71-30.98c1.42-1.08,3.16-1.67,4.95-1.67h43.85c.47,0,.92-.07,1.38-.14,8.62,10.84,18.76,21.15,30.67,30.23h-6.56c-5.56,0-10.91,1.69-15.46,4.87l-25.88,18.12c-5.1,3.57-8.8,8.79-10.49,14.78l-7.95,28.2c-1.33,4.73.91,9.94,5.48,11.72,1.14.45,2.31.65,3.45.65,4.1,0,7.87-2.71,9.04-6.85l8.08-28.63c.51-1.81,1.63-3.39,3.18-4.47l25.88-18.12c1.37-.96,3.01-1.48,4.69-1.48h38.02s.06,0,.09,0c17.19,7.76,37.01,13.16,59.89,15.09.26.02.51.03.76.03,0,0,0,0,.01,0,0,0,0,0,.01,0s0,0,.01,0c0,0,0,0,.01,0,.25,0,.51-.01.76-.03,22.88-1.93,42.7-7.32,59.89-15.09.03,0,.06,0,.09,0h38.01c1.68,0,3.3.51,4.68,1.48l25.89,18.12c1.54,1.08,2.67,2.67,3.18,4.47l8.08,28.63c1.17,4.14,4.94,6.85,9.04,6.85,1.14,0,2.3-.21,3.45-.65ZM731.13,602.46c-15.95,0-29.49-10.38-34.15-24.87l21.49-1.09c5.63-.29,10.64-3.15,13.75-7.85,3.11-4.7,3.78-10.43,1.84-15.73l-8.02-21.88c1.67-.24,3.36-.4,5.07-.4,19.8,0,35.91,16.11,35.91,35.91s-16.11,35.91-35.91,35.91ZM512.47,530.65c1.71,0,3.4.16,5.08.4l-8.02,21.88c-1.94,5.29-1.27,11.03,1.84,15.73,3.11,4.7,8.12,7.56,13.75,7.85l21.49,1.09c-4.66,14.49-18.2,24.87-34.15,24.87-19.8,0-35.91-16.11-35.91-35.91s16.11-35.91,35.91-35.91ZM471.22,767.56c-.68-3.75,1.11-7.47,4.46-9.24l8.47-4.49c.09-.05.19-.09.28-.15l91.77-48.63c3.45-1.82,7.33-2.79,11.23-2.79h68.73c3.9,0,7.78.97,11.23,2.79l91.78,48.63c.08.05.17.09.26.14l8.49,4.5c3.35,1.77,5.14,5.49,4.46,9.24-7.85,43.07-38.23,144.13-150.58,154.07-112.35-9.94-142.73-111-150.58-154.07Z" style="fill: #1d1d1b; stroke-width: 0px;"/>
  <path d="M646.43,895.36c1.59,0,3.21-.41,4.69-1.26,37.35-21.56,65.29-50.29,83.03-85.39,2.34-4.63.48-10.29-4.15-12.63-4.63-2.34-10.29-.48-12.63,4.15-16.06,31.78-41.51,57.89-75.65,77.59-4.49,2.59-6.03,8.34-3.44,12.84,1.74,3.01,4.9,4.7,8.15,4.7Z" style="fill: #1d1d1b; stroke-width: 0px;"/>
  <path d="M660.65,743.61l44.38,26.48c1.51.9,3.17,1.33,4.8,1.33,3.2,0,6.32-1.64,8.08-4.59,2.66-4.46,1.2-10.23-3.26-12.89l-44.38-26.48c-4.45-2.66-10.23-1.2-12.89,3.26-2.66,4.46-1.2,10.23,3.26,12.89Z" style="fill: #1d1d1b; stroke-width: 0px;"/>
  <path d="M607.57,877.82c-40.3-23.26-68.38-55.42-83.57-95.65l64.64-38.56c4.46-2.66,5.92-8.43,3.26-12.89-2.66-4.46-8.43-5.92-12.89-3.26l-77.75,46.38,2.38,7.17c15.98,48.06,47.78,86.11,94.52,113.09,1.48.86,3.1,1.26,4.69,1.26,3.25,0,6.41-1.69,8.15-4.7,2.6-4.49,1.05-10.24-3.44-12.84Z" style="fill: #1d1d1b; stroke-width: 0px;"/>
</svg>