<?xml version="1.0" encoding="UTF-8"?>
<svg id="Layer_1" data-name="Layer 1" xmlns="http://www.w3.org/2000/svg" viewBox="0 0 1229.78 1311.62">
  <path d="M538.44,229.64c.06,0,5.92-.65,9.66,2.67,2.71,2.41,4.08,6.76,4.08,12.94v123.13c0,4.85,3.55,9.19,8.38,9.65,5.54.53,10.21-3.82,10.21-9.25v-123.53c0-.95-.06-1.84-.11-2.75,9.39-4.42,30.53-12.23,41.35-6.83,2.26,1.13,5.37,3.43,6.69,10.39v118.09c-10.29,17.6-23.24,29.63-23.42,29.79-3.78,3.46-4.05,9.33-.6,13.12,1.83,2.01,4.35,3.03,6.87,3.03,2.24,0,4.48-.8,6.26-2.43.37-.33,4.18-3.86,9.36-9.8,2.24-2.57,6.38-2.42,8.31.4,8.29,12.16,22.8,19.75,38.94,18.09,19.3-1.99,34.98-17.51,37.13-36.79,2.82-25.2-16.91-46.61-41.55-46.61-5.82,0-11.36,1.21-16.4,3.37-3,1.29-6.32-1.02-6.32-4.28v-87.56l-.12-.75c-2.41-14.67-10.49-21.53-16.84-24.7-17.82-8.9-43.26.26-54.84,5.38-1.47-2.33-3.21-4.42-5.28-6.23-10.05-8.71-22.86-7.18-24.28-6.97-5.08.73-8.67,5.44-7.94,10.52.73,5.08,5.37,8.62,10.46,7.89ZM660.02,351.54c12.81,0,23.23,10.42,23.23,23.23s-10.42,23.23-23.23,23.23-23.23-10.42-23.23-23.23c0-2.34.35-4.59,1-6.73,1.12-2.13,2.19-4.31,3.21-6.57,4.2-6,11.16-9.94,19.02-9.94Z" style="stroke-width: 0px;"/>
  <path d="M893.38,1058.41c25.8-17.38,50.21-37.42,72.51-59.53,1.33-1.31,2.64-2.64,3.97-3.98l.52-.53c2.56-2.6,5.09-5.23,7.59-7.9,14.97-15.88,29.09-33.01,41.98-50.92,12.29-17.09,23.58-35.13,33.57-53.6,7.39-13.66,14.16-27.67,20.11-41.64,5.44-12.81,10.36-25.85,14.63-38.74,5.88-17.72,10.83-36.19,14.71-54.89,3.27-15.75,5.77-31.68,7.43-47.32.66-5.97,1.2-11.9,1.61-17.58.3-4.08.53-7.83.69-11.37.44-8.22.66-16.78.66-25.45,0-25.03-1.87-50.14-5.56-74.61-1.51-10.13-3.35-20.26-5.47-30.1-7.7-36.02-19.47-71.25-34.98-104.71-9.19-19.8-19.77-39.16-31.44-57.55-92.11-144.95-249.49-231.49-421.01-231.49s-328.91,86.54-421.02,231.5c-11.67,18.39-22.25,37.75-31.44,57.55-15.51,33.46-27.27,68.69-34.97,104.7-2.12,9.85-3.96,19.98-5.47,30.1-3.69,24.48-5.56,49.59-5.56,74.62,0,8.67.22,17.23.66,25.36.16,3.61.38,7.36.69,11.44.41,5.68.95,11.61,1.61,17.58,1.67,15.69,4.17,31.62,7.44,47.35,3.88,18.71,8.83,37.17,14.7,54.89,4.26,12.89,9.19,25.93,14.63,38.76,5.94,13.95,12.7,27.95,20.1,41.62,9.99,18.47,21.28,36.51,33.58,53.61,12.89,17.91,27.01,35.04,41.96,50.91,2.51,2.68,5.05,5.31,7.61,7.92l.22.22c1.42,1.45,2.83,2.87,4.23,4.25,22.33,22.14,46.74,42.18,72.53,59.56,18.58,12.55,38.22,23.95,58.39,33.88,68.75,33.92,142.81,51.12,220.12,51.12,2.57,0,5.16-.02,7.65-.07,2.2-.02,4.41-.07,6.57-.14,72.23-2.02,141.5-19.14,205.87-50.88,20.13-9.91,39.78-21.32,58.4-33.9ZM759.51,313.79c0,79.75-64.88,144.63-144.63,144.63s-144.63-64.88-144.63-144.63,64.88-144.63,144.63-144.63,144.63,64.88,144.63,144.63ZM628.56,1124.61c-2.07.07-4.14.11-6.29.14-2.45.05-4.92.07-7.37.07-74.43,0-145.72-16.55-211.9-49.21-16.8-8.28-33.22-17.62-48.94-27.83-2.14-1.39-3.17-3.99-2.6-6.48,2-8.69,5.59-17.13,10.92-24.87,6.22-9.12,14.65-17.14,23.96-24.14-10.8,4.31-21.42,9.89-30.81,17.87-5.91,4.96-11.2,10.92-15.67,17.55.16-11.98,1.22-23.96,3.31-35.82,2.75-15.7,7.28-31.17,13.43-46.09,12.28-29.9,31-57.29,52.41-82.22-11.84,11.43-23.11,23.53-33.4,36.52-10.29,12.99-19.6,26.9-27.42,41.74-7.83,14.83-14.14,30.6-18.62,46.97-.81,2.95-1.54,5.93-2.24,8.91-.09-.21-.16-.42-.25-.63-4.86-11.32-11.87-21.05-19.62-29.73,5.21,10.41,9.19,21.35,10.68,32.29.49,3.49.72,6.95.7,10.38-.03,5.09-6.03,7.8-9.95,4.55-11.06-9.16-21.75-18.84-31.98-28.98-1.36-1.33-2.69-2.69-4.04-4.06l-.21-.21c-2.46-2.5-4.9-5.03-7.32-7.62-3.44-3.66-6.82-7.4-10.16-11.2-1.5-1.71-1.98-4.16-1.05-6.24.12-.27.23-.54.32-.82,3.28-9.91,8.65-19.26,16.25-27.29,7.55-8.05,17.12-14.68,27.39-20.16-11.34,2.59-22.69,6.47-33.2,12.9-4.32,2.61-8.43,5.7-12.29,9.15.52-7.87,1.45-15.73,2.82-23.54,2.75-15.7,7.28-31.17,13.43-46.09,12.28-29.9,31-57.29,52.41-82.22-11.84,11.43-23.11,23.53-33.4,36.52-10.29,12.99-19.6,26.9-27.42,41.74-7.83,14.83-14.14,30.6-18.62,46.97-.59,2.16-1.15,4.32-1.68,6.5-.38-2.14-.8-4.25-1.34-6.33-3.05-11.94-8.48-22.63-14.79-32.4,3.54,11.09,5.78,22.51,5.57,33.55-.04,2.5-.2,4.97-.49,7.41-8.52,2.07-2.52.61-11.04,2.68-9.19-13.49-17.72-27.5-25.44-41.78-1.59-2.93-3.13-5.88-4.65-8.85-.78-1.53-.87-3.31-.25-4.91.43-1.11.66-2.33.61-3.6v-.02c-.09-2.41-.12-4.82-.13-7.23,4.84-8.47,11.37-16.12,19.63-22.28,8.81-6.65,19.38-11.54,30.44-15.18-11.61.61-23.46,2.5-34.91,7.03-4.86,1.9-9.6,4.34-14.13,7.21.54-5.69,1.3-11.37,2.29-17.02,2.75-15.7,7.28-31.17,13.43-46.09,12.28-29.9,31-57.29,52.41-82.22-11.84,11.43-23.11,23.53-33.4,36.52-10.29,12.99-19.6,26.9-27.42,41.74-6.4,12.12-11.76,24.88-15.96,38.07-1-12.17-4.49-23.55-9.01-34.17,1.59,11.53,1.85,23.17-.24,34.01-.01.06-.02.13-.04.19-1.15,6.04-9.71,6.52-11.66.69-.15-.44-.29-.87-.43-1.31-5.65-17.04-10.41-34.81-14.15-52.82-3.14-15.14-5.55-30.46-7.16-45.57-.63-5.77-1.15-11.46-1.55-16.94-.29-3.91-.51-7.47-.66-10.97-.42-7.89-.64-16.12-.64-24.46,0-24.11,1.8-48.28,5.36-71.86,1.46-9.75,3.23-19.49,5.26-28.96,7.41-34.67,18.73-68.57,33.66-100.77,8.85-19.06,19.04-37.71,30.27-55.41,74.06-116.56,191.98-193.84,325.04-216.16-50.23,28.51-83.96,82.85-82.9,144.86,1.54,89.91,74.04,160.79,163.97,160.37,89.64-.42,162.44-73.48,162.44-163.21,0-60.82-33.46-113.94-82.92-142.01,133.05,22.32,250.97,99.6,325.03,216.16,11.24,17.71,21.42,36.35,30.27,55.41,14.93,32.2,26.25,66.11,33.66,100.79,2.04,9.47,3.8,19.21,5.26,28.96,3.56,23.56,5.36,47.74,5.36,71.85,0,8.34-.22,16.56-.64,24.55-.15,3.44-.37,7-.66,10.91-.4,5.48-.92,11.17-1.55,16.95-1.6,15.07-4.01,30.39-7.15,45.54-3.74,18.01-8.5,35.78-14.16,52.83-.14.43-.29.86-.43,1.29-1.95,5.84-10.51,5.36-11.66-.69-.01-.06-.02-.12-.04-.19-2.09-10.84-1.84-22.48-.24-34.01-4.52,10.62-8.01,21.99-9.01,34.17-4.2-13.19-9.57-25.95-15.96-38.07-7.82-14.84-17.13-28.75-27.42-41.74-10.3-13-21.57-25.1-33.4-36.52,21.41,24.93,40.13,52.32,52.41,82.22,6.15,14.92,10.69,30.38,13.43,46.09.99,5.65,1.75,11.33,2.29,17.02-4.53-2.87-9.26-5.32-14.13-7.21-11.46-4.53-23.3-6.42-34.91-7.03,11.06,3.64,21.62,8.53,30.44,15.18,8.26,6.16,14.8,13.81,19.63,22.28-.01,2.41-.05,4.82-.13,7.23v.03c-.01.28,0,.57,0,.86.06.99.27,1.93.62,2.8.62,1.57.49,3.34-.28,4.85-1.52,2.96-3.06,5.91-4.65,8.83-7.72,14.28-16.25,28.29-25.44,41.77-8.52-2.07-2.52-.61-11.04-2.68-.29-2.43-.46-4.9-.49-7.4-.21-11.04,2.03-22.46,5.57-33.55-6.32,9.77-11.74,20.46-14.79,32.4-.54,2.07-.97,4.19-1.34,6.33-.53-2.17-1.09-4.34-1.68-6.5-4.48-16.37-10.79-32.13-18.62-46.97-7.82-14.84-17.13-28.75-27.42-41.74-10.3-13-21.57-25.1-33.4-36.52,21.41,24.93,40.13,52.32,52.41,82.22,6.15,14.92,10.69,30.38,13.43,46.09,1.37,7.8,2.3,15.66,2.82,23.54-3.86-3.45-7.97-6.55-12.29-9.15-10.51-6.42-21.86-10.31-33.2-12.9,10.27,5.48,19.85,12.1,27.4,20.16,7.59,8.02,12.97,17.38,16.25,27.29.26.76.63,1.55,1.1,2.25.34.51.73.98,1.15,1.4-4.31,4.97-8.67,9.87-13.15,14.62-2.42,2.57-4.85,5.1-7.3,7.59l-.51.52c-1.25,1.27-2.49,2.53-3.78,3.8-10.22,10.13-20.9,19.8-31.95,28.96-3.92,3.24-9.92.53-9.95-4.55-.02-3.43.21-6.89.7-10.38,1.5-10.94,5.47-21.88,10.68-32.29-7.75,8.67-14.76,18.4-19.62,29.73-.09.21-.16.42-.25.63-.69-2.99-1.42-5.96-2.24-8.91-4.48-16.37-10.79-32.13-18.62-46.97-7.82-14.84-17.13-28.75-27.42-41.74-10.3-13-21.57-25.1-33.4-36.52,21.41,24.93,40.13,52.32,52.41,82.22,6.15,14.92,10.69,30.38,13.43,46.09,2.08,11.86,3.15,23.84,3.31,35.82-4.46-6.64-9.76-12.59-15.67-17.55-9.39-7.97-20.01-13.56-30.81-17.87,9.3,7,17.74,15.02,23.96,24.14,5.33,7.74,8.92,16.18,10.92,24.87.57,2.49-.46,5.09-2.6,6.48-15.76,10.23-32.19,19.59-48.97,27.85-61.96,30.56-128.63,47.04-198.2,48.98Z" style="stroke-width: 0px;"/>
  <path d="M228.22,1118.14l14.39,3.04,11.96-14.07c5.85-6.88,5.68-12.51-1.41-18.53l-17.04-14.49c-7.08-6.02-12.56-5.2-18.41,1.68l-43.99,51.75c-5.85,6.88-5.78,12.42,1.3,18.44l17.04,14.49c7.08,6.02,12.67,5.28,18.51-1.6l18.59-21.87-14.4-3.04-11.52,13.55c-2.71,3.18-5.9,3.82-9.19,1.03l-7.39-6.28c-3.29-2.79-3.06-5.97-.36-9.15l38.93-45.79c2.71-3.18,5.8-3.91,9.09-1.12l7.39,6.28c3.29,2.79,3.17,6.05.46,9.23l-13.97,16.43Z" style="stroke-width: 0px;"/>
  <path d="M320.15,1137.26l-58.48,66.44-7.86,4.17,18.55,10.72.86-8.22,7.94-9.42,18.9,10.92-4.09,11.65-6.69,4.85,18.78,10.86-.19-8.83,28.37-83.84-16.1-9.31ZM303.85,1202.08l-16.1-9.31,34.08-40.38-17.98,49.69Z" style="stroke-width: 0px;"/>
  <path d="M434.85,1190.02l-36.68-13.08,1.27,8.47-26.62,74.63-6.34,5.75,20.18,7.2-1.27-8.47,11.23-31.48,20.31,7.24c8.76,3.12,13.59.41,16.62-8.09l9.05-25.38c3.03-8.5,1.01-13.66-7.75-16.79ZM428.21,1207.82l-5.21,14.6c-1.77,4.95-5.18,7.31-10.51,5.4l-12.44-4.44,11-30.84,12.44,4.44c5.33,1.9,6.53,5.76,4.72,10.84Z" style="stroke-width: 0px;"/>
  <path d="M536.78,1212.4l-38.87-6.12,2.82,8.08-12.32,78.28-5.17,6.83,21.17,3.33-2.82-8.08,5.36-34.08,4.93.78c5.86.92,7.74,3.67,8.44,9.65l3.24,27.11-3.04,7.16,21.97,3.46-4.68-8.38-5.62-36.22c6.75-.44,10.26-4.52,11.54-12.64l3.79-24.1c1.4-8.92-1.54-13.61-10.73-15.06ZM533.56,1231.13l-2.2,13.98c-.84,5.32-3.74,8.14-9.33,7.26l-13.45-2.12,4.88-31.02,13.45,2.12c5.59.88,7.48,4.45,6.65,9.78Z" style="stroke-width: 0px;"/>
  <polygon points="622.21 1217.29 600.79 1217.18 604.79 1224.74 604.35 1303.98 600.27 1311.5 621.69 1311.62 617.69 1304.05 618.13 1224.82 622.21 1217.29" style="stroke-width: 0px;"/>
  <path d="M727.06,1260.06l-11.83,8.74,2.48,17.62c.58,4.14-1.06,6.95-5.33,7.56l-9.61,1.36c-4.27.6-6.5-1.67-7.08-5.81l-8.4-59.52c-.58-4.14.93-6.93,5.2-7.54l9.61-1.35c4.27-.6,6.63,1.65,7.21,5.79l3.01,21.35,11.83-8.74-2.58-18.28c-1.26-8.94-5.58-12.55-14.79-11.25l-22.15,3.13c-9.21,1.3-12.23,5.94-10.97,14.88l9.49,67.25c1.26,8.94,5.45,12.57,14.66,11.27l22.15-3.12c9.21-1.3,12.36-5.96,11.1-14.9l-4.01-28.42Z" style="stroke-width: 0px;"/>
  <path d="M825.3,1193.56c-2.88-8.56-7.79-11.32-16.6-8.35l-21.59,7.26c-8.81,2.96-10.93,8.08-8.05,16.64l21.65,64.38c2.88,8.56,7.66,11.36,16.47,8.39l21.59-7.26c8.81-2.97,11.06-8.13,8.18-16.69l-21.66-64.38ZM829.21,1266.9l-9.2,3.09c-4.09,1.38-6.69-.45-8.03-4.41l-19.16-56.97c-1.33-3.96-.36-6.99,3.73-8.36l9.2-3.09c4.09-1.38,6.82.41,8.15,4.37l19.16,56.97c1.33,3.96.23,7.03-3.85,8.41Z" style="stroke-width: 0px;"/>
  <path d="M934.79,1182.78c5.02-4.54,5.24-9.92,1.2-17.08l-11.98-21.25c-4.44-7.86-9.66-9.72-17.76-5.15l-34.27,19.33,7.23,4.59,38.92,69.02.18,8.56,18.66-10.53-7.23-4.59-16.94-30.05,4.34-2.45c5.17-2.91,8.35-1.92,12.61,2.33l19.36,19.25,2.06,7.5,19.37-10.92-8.87-3.66-26.88-24.91ZM919.5,1179.8l-11.86,6.68-15.42-27.35,11.86-6.68c4.93-2.78,8.63-1.15,11.28,3.54l6.95,12.32c2.65,4.7,2.12,8.7-2.81,11.49Z" style="stroke-width: 0px;"/>
  <polygon points="1006.87 1062.87 991.36 1076.05 999.33 1079.18 1036.06 1122.42 986.28 1090.26 982.63 1083.46 963.53 1099.69 971.6 1102.73 1022.9 1163.13 1024.6 1171.58 1040.21 1158.32 1032.25 1155.19 989.84 1105.27 1054.59 1146.11 1064.76 1137.47 1008.57 1071.33 1006.87 1062.87" style="stroke-width: 0px;"/>
  <polygon points="262.32 196.53 263.34 203.84 278.26 192.95 271.61 189.75 254.16 165.82 269.36 154.73 286.82 178.66 287.83 185.97 302.76 175.08 296.01 171.95 255.76 116.77 254.84 109.39 239.91 120.28 246.56 123.48 264.09 147.5 248.89 158.59 231.36 134.57 230.34 127.26 215.42 138.15 222.07 141.35 262.32 196.53" style="stroke-width: 0px;"/>
  <path d="M336.73,141.28c3.52,6.94,7.94,8.74,15.09,5.12l17.51-8.87c7.15-3.62,8.42-8.31,4.91-15.25l-26.46-52.23c-3.52-6.94-8.05-8.69-15.2-5.06l-17.51,8.87c-7.15,3.62-8.32,8.25-4.8,15.2l26.46,52.23ZM324.09,79.31l7.46-3.78c3.32-1.68,5.87-.5,7.5,2.71l23.42,46.22c1.63,3.21,1.07,5.97-2.25,7.65l-7.46,3.78c-3.32,1.68-5.76.45-7.39-2.77l-23.42-46.22c-1.63-3.21-1.17-5.92,2.14-7.6Z" style="stroke-width: 0px;"/>
  <path d="M422.89,107.7l-1.36,7.25,17.61-5.58-5.29-5.15-8.98-28.35,4.1-1.3c4.87-1.55,7.39-.15,10.23,4.19l12.94,19.67.42,6.69,18.27-5.79-6.84-4.66-18.28-25.77c5.04-2.94,6.17-7.44,4.03-14.2l-6.35-20.05c-2.35-7.42-6.43-9.91-14.07-7.48l-32.34,10.25,5.29,5.15,20.64,65.12ZM425.14,37.88c4.65-1.47,7.49.55,8.89,4.98l3.69,11.63c1.4,4.43.25,7.72-4.4,9.19l-11.19,3.55-8.18-25.81,11.19-3.55Z" style="stroke-width: 0px;"/>
  <path d="M508.94,79.42c1.14,7.7,4.78,10.8,12.7,9.62l19.42-2.89c7.93-1.18,10.62-5.22,9.47-12.92l-8.61-57.91c-1.14-7.7-4.89-10.78-12.82-9.6l-19.42,2.89c-7.93,1.18-10.5,5.2-9.35,12.9l8.61,57.91ZM516.51,16.63l8.27-1.23c3.68-.55,5.72,1.38,6.25,4.94l7.62,51.25c.53,3.56-.87,6-4.55,6.55l-8.27,1.23c-3.68.55-5.61-1.4-6.14-4.96l-7.62-51.25c-.53-3.56.75-5.98,4.43-6.53Z" style="stroke-width: 0px;"/>
  <path d="M610.05,81.3l19.63.32c8.01.13,11.32-3.42,11.45-11.2l.29-18.12c.07-4.53-1.84-8.05-5.99-10.32l-18.99-10.76c-3.92-2.15-4.93-3.91-4.86-8.68l.13-7.78c.06-3.6,1.84-5.78,5.55-5.72l7.32.12c3.72.06,5.31,2.29,5.25,5.89l-.14,8.71,11.05,6.1.29-18c.13-7.78-3.07-11.43-11.08-11.56L611.71,0c-8.01-.13-11.21,3.42-11.33,11.2l-.27,16.49c-.07,4.53,1.61,8.04,5.76,10.43l19.11,10.65c3.91,2.27,4.93,4.03,4.85,8.79l-.15,9.29c-.06,3.6-1.84,5.78-5.55,5.72l-8.59-.14c-3.6-.06-5.31-2.29-5.25-5.89l.18-10.92-11.05-6.1-.33,20.21c-.13,7.78,2.95,11.43,10.97,11.56Z" style="stroke-width: 0px;"/>
  <path d="M696.84,87.28l19.03,3.09c7.91,1.29,11.7-1.74,12.95-9.43l3.97-24.42-11.98,4.17-2.46,15.13c-.58,3.55-2.65,5.45-6.32,4.86l-8.25-1.34c-3.67-.6-4.92-3.04-4.34-6.59l8.32-51.14c.58-3.55,2.54-5.47,6.21-4.87l8.26,1.34c3.67.6,5.03,3.06,4.46,6.61l-2.98,18.34,11.98-4.17,2.55-15.71c1.25-7.68-1.38-11.76-9.29-13.05l-19.03-3.09c-7.91-1.29-11.59,1.76-12.84,9.45l-9.4,57.79c-1.25,7.68,1.27,11.74,9.18,13.03Z" style="stroke-width: 0px;"/>
  <path d="M782.95,106.85l18.63,6.18c7.61,2.52,11.83.13,14.28-7.26l18.42-55.57c2.45-7.39.49-11.83-7.11-14.35l-18.63-6.18c-7.61-2.52-11.72-.09-14.17,7.3l-18.42,55.57c-2.45,7.39-.61,11.79,7,14.31ZM787.82,92.92l16.3-49.17c1.13-3.42,3.37-5,6.9-3.83l7.94,2.63c3.53,1.17,4.49,3.81,3.36,7.23l-16.3,49.17c-1.13,3.42-3.48,4.96-7.01,3.79l-7.94-2.63c-3.53-1.17-4.38-3.78-3.24-7.19Z" style="stroke-width: 0px;"/>
  <path d="M870.45,135.26l13.25-25.58,16.51,8.55c7.12,3.69,11.56,1.93,15.14-4.98l10.68-20.63c3.58-6.91,2.45-11.55-4.67-15.24l-29.82-15.44.1,7.38-31.42,60.66-6.09,4.17,16.4,8.49-.1-7.38ZM900.74,76.76l10.11,5.24c4.33,2.24,4.91,5.68,2.77,9.81l-6.14,11.86c-2.09,4.02-5.28,5.64-9.61,3.4l-10.11-5.24,12.98-25.07Z" style="stroke-width: 0px;"/>
  <polygon points="972.43 189.68 959.57 187.77 947.38 178.86 963.42 156.91 974.3 164.86 977.96 171.27 986.87 159.08 979.64 157.54 968.76 149.59 984.8 127.64 996.99 136.55 1002.72 148.21 1011.56 136.11 977.97 111.58 976.95 118.89 936.65 174.05 930 177.24 963.59 201.78 972.43 189.68" style="stroke-width: 0px;"/>
  <path d="M1050.06,210.52c-3.63-3.63-9.51-3.64-13.14-.01-3.63,3.63-3.64,9.51-.01,13.14,112.39,112.58,174.28,262.19,174.28,421.29,0,11.99-.35,23.96-1.05,35.59-3.05,52.2-12.96,103.75-29.44,153.2-18.17,54.47-44.16,106.01-77.23,153.18-13.99,19.94-29.29,39.14-45.48,57.08-3.44,3.81-3.14,9.69.67,13.13,1.78,1.6,4,2.39,6.22,2.39,2.54,0,5.07-1.03,6.9-3.07,16.69-18.5,32.47-38.3,46.9-58.86,34.11-48.64,60.9-101.79,79.65-157.97,17-51,27.22-104.16,30.36-157.98.72-11.98,1.08-24.33,1.08-36.69,0-164.05-63.82-318.33-179.71-434.42Z" style="stroke-width: 0px;"/>
  <path d="M171.79,1043.99c-98.8-109.59-153.21-251.31-153.21-399.05,0-159.1,61.89-308.71,174.28-421.29,3.63-3.63,3.62-9.52-.01-13.14-3.63-3.63-9.52-3.62-13.14.01C63.82,326.61,0,480.89,0,644.94c0,152.34,56.11,298.48,157.99,411.49,1.83,2.04,4.36,3.07,6.91,3.07,2.22,0,4.44-.79,6.22-2.39,3.81-3.44,4.12-9.31.68-13.13Z" style="stroke-width: 0px;"/>
  <path d="M924.33,395.58c.22,2.22.56,4.43,1.06,6.65.99,4.23,2.32,8.45,4.99,12.68,2.67-4.23,4-8.45,4.99-12.68.5-2.21.84-4.42,1.06-6.63,2.21-.22,4.42-.56,6.63-1.06,4.23-.99,8.45-2.32,12.68-4.99-4.23-2.67-8.45-4-12.68-4.99-2.22-.5-4.43-.84-6.65-1.06-.23-2.21-.57-4.42-1.06-6.63-.99-4.23-2.32-8.45-4.97-12.68-2.65,4.23-3.98,8.45-4.97,12.68-.49,2.22-.83,4.43-1.06,6.65-2.22.23-4.43.57-6.65,1.06-4.23.99-8.45,2.32-12.68,4.97,4.23,2.65,8.45,3.98,12.68,4.97,2.21.49,4.42.83,6.63,1.06Z" style="stroke-width: 0px;"/>
  <path d="M815.17,395.58c.22,2.22.56,4.43,1.06,6.65.99,4.23,2.32,8.45,4.99,12.68,2.67-4.23,4-8.45,4.99-12.68.5-2.21.84-4.42,1.06-6.63,2.21-.22,4.42-.56,6.63-1.06,4.23-.99,8.45-2.32,12.68-4.99-4.23-2.67-8.45-4-12.68-4.99-2.22-.5-4.43-.84-6.65-1.06-.23-2.21-.57-4.42-1.06-6.63-.99-4.23-2.32-8.45-4.97-12.68-2.65,4.23-3.98,8.45-4.97,12.68-.49,2.22-.83,4.43-1.06,6.65-2.22.23-4.43.57-6.65,1.06-4.23.99-8.45,2.32-12.68,4.97,4.23,2.65,8.45,3.98,12.68,4.97,2.21.49,4.42.83,6.63,1.06Z" style="stroke-width: 0px;"/>
  <path d="M815.17,270.4c.22,2.22.56,4.43,1.06,6.65.99,4.23,2.32,8.45,4.99,12.68,2.67-4.23,4-8.45,4.99-12.68.5-2.21.84-4.42,1.06-6.63,2.21-.22,4.42-.56,6.63-1.06,4.23-.99,8.45-2.32,12.68-4.99-4.23-2.67-8.45-4-12.68-4.99-2.22-.5-4.43-.84-6.65-1.06-.23-2.21-.57-4.42-1.06-6.63-.99-4.23-2.32-8.45-4.97-12.68-2.65,4.23-3.98,8.45-4.97,12.68-.49,2.22-.83,4.43-1.06,6.65-2.22.23-4.43.57-6.65,1.06-4.23.99-8.45,2.32-12.68,4.97,4.23,2.65,8.45,3.98,12.68,4.97,2.21.49,4.42.83,6.63,1.06Z" style="stroke-width: 0px;"/>
  <path d="M299.39,414.91c2.67-4.23,4-8.45,4.99-12.68.5-2.22.84-4.43,1.06-6.65,2.21-.23,4.42-.57,6.63-1.06,4.23-.99,8.45-2.32,12.68-4.97-4.23-2.65-8.45-3.98-12.68-4.97-2.22-.49-4.43-.83-6.65-1.06-.23-2.22-.57-4.43-1.06-6.65-.99-4.23-2.32-8.45-4.97-12.68-2.65,4.23-3.98,8.45-4.97,12.68-.49,2.21-.83,4.42-1.06,6.63-2.22.22-4.43.56-6.65,1.06-4.23.99-8.45,2.32-12.68,4.99,4.23,2.67,8.45,4,12.68,4.99,2.21.5,4.42.84,6.63,1.06.22,2.21.56,4.42,1.06,6.63.99,4.23,2.32,8.45,4.99,12.68Z" style="stroke-width: 0px;"/>
  <path d="M402.51,395.6c.22,2.21.56,4.42,1.06,6.63.99,4.23,2.32,8.45,4.99,12.68,2.67-4.23,4-8.45,4.99-12.68.5-2.22.84-4.43,1.06-6.65,2.21-.23,4.42-.57,6.63-1.06,4.23-.99,8.45-2.32,12.68-4.97-4.23-2.65-8.45-3.98-12.68-4.97-2.21-.49-4.43-.83-6.65-1.06-.23-2.22-.57-4.43-1.06-6.65-.99-4.23-2.32-8.45-4.97-12.68-2.65,4.23-3.98,8.45-4.97,12.68-.49,2.21-.83,4.42-1.06,6.63-2.22.22-4.43.56-6.65,1.06-4.23.99-8.45,2.32-12.68,4.99,4.23,2.67,8.45,4,12.68,4.99,2.21.5,4.42.84,6.63,1.06Z" style="stroke-width: 0px;"/>
  <path d="M402.51,270.41c.22,2.21.56,4.42,1.06,6.63.99,4.23,2.32,8.45,4.99,12.68,2.67-4.23,4-8.45,4.99-12.68.5-2.22.84-4.43,1.06-6.65,2.21-.23,4.42-.57,6.63-1.06,4.23-.99,8.45-2.32,12.68-4.97-4.23-2.65-8.45-3.98-12.68-4.97-2.21-.49-4.43-.83-6.65-1.06-.23-2.22-.57-4.43-1.06-6.65-.99-4.23-2.32-8.45-4.97-12.68-2.65,4.23-3.98,8.45-4.97,12.68-.49,2.21-.83,4.42-1.06,6.63-2.22.22-4.43.56-6.65,1.06-4.23.99-8.45,2.32-12.68,4.99,4.23,2.67,8.45,4,12.68,4.99,2.21.5,4.42.84,6.63,1.06Z" style="stroke-width: 0px;"/>
  <path d="M864.15,710.31c5.77-3.65,8.74-10.12,7.76-16.88-.99-6.76-5.69-12.1-12.27-13.95l-120.71-33.87c-1.52-3.58-2.8-6.47-3.75-8.56l-.29-.58c-.21-.39-.42-.74-.63-1.13,7.04-15.06,43.87-80.6,171.03-135.48l25.29-10.91-26.73-6.64c-1.38-.34-34.31-8.28-84.6.15-45.51,7.63-114.6,30.79-186.28,97.54-5.38.15-10.95.08-16.82-.57-.36-.04-.7-.01-1.05-.01-.15,0-.29-.05-.45-.05h-18.52c-71.44-66.26-140.23-89.31-185.6-96.92-50.29-8.43-83.22-.49-84.6-.15l-26.73,6.64,25.28,10.91c126.87,54.76,163.82,120.13,170.98,135.38-.29.61-.58,1.19-.87,1.82-.95,2.09-2.23,4.98-3.75,8.55l-121.43,34.07c-6.46,1.81-11.15,7.05-12.23,13.67-1.08,6.62,1.69,13.08,7.24,16.85l93.88,63.84c-1.14,25.22,2.02,49.99,12.76,70.59,7.98,15.3,15.77,27.56,23.3,39.42,19.02,29.97,34.05,53.64,37.37,106.43,2.83,45.06,17.41,78.23,41.04,93.39,8.58,5.5,17.92,8.3,27.35,8.3,4.93,0,9.87-.81,14.75-2.34,4.88,1.53,9.82,2.34,14.75,2.34,9.43,0,18.77-2.79,27.35-8.3,23.63-15.16,38.21-48.33,41.04-93.39,3.32-52.79,18.35-76.46,37.37-106.43,7.53-11.86,15.31-24.12,23.29-39.42,11.44-21.93,14.27-48.59,12.48-75.48l92.97-58.84ZM776.78,709.08l59.24-2.96-67.05,42.44c-1.16-7.96-2.63-15.83-4.32-23.5-1.75-7.95,4.01-15.56,12.13-15.97ZM821.95,688.21l-66.22,3.31c-.53-1.72-1.07-3.42-1.61-5.09-2.62-8.12,4.83-15.89,13.05-13.59l54.78,15.37ZM821.3,500.97c17.7-3.04,33.14-3.89,45.53-3.74-75.57,37.71-114.69,77.96-134.09,104.66-4.95,6.82-14.95,7.27-20.56.99-17.34-19.42-33.54-23.75-49.82-24.1,8.56-7.21,17.06-13.78,25.44-19.78.23.3.43.61.7.89l21.17,21.98c1.82,1.89,4.26,2.85,6.69,2.85,2.21,0,4.42-.78,6.19-2.36,3.96-3.53,3.85-9.91.16-13.74l-19.41-20.15c9-5.8,17.84-10.97,26.46-15.54l17.74,19.57c1.84,2.02,4.36,3.05,6.89,3.05,2.17,0,4.35-.76,6.11-2.29,3.92-3.43,3.95-9.74.45-13.6l-13.87-15.3c13.86-6.37,27.01-11.26,39.22-15l9.06,13.14c1.8,2.61,4.71,4.02,7.66,4.02,1.96,0,3.95-.62,5.65-1.92,3.99-3.05,4.59-8.88,1.74-13.01l-5.08-7.37c5.6-1.31,10.94-2.39,15.97-3.25ZM362.95,497.23c12.39-.13,27.83.7,45.53,3.74,4.57.79,9.42,1.75,14.48,2.91l-5.32,7.71c-2.86,4.14-2.25,9.97,1.75,13.02,1.7,1.3,3.68,1.92,5.64,1.92,2.95,0,5.86-1.4,7.66-4.02l9.36-13.57c12.25,3.69,25.47,8.53,39.43,14.88l-14.38,15.86c-3.5,3.86-3.47,10.17.46,13.6,1.76,1.53,3.93,2.29,6.11,2.29,2.53,0,5.05-1.03,6.89-3.05l18.3-20.19c8.65,4.54,17.52,9.69,26.56,15.47l-20.06,20.83c-3.68,3.82-3.8,10.2.16,13.74,1.76,1.58,3.98,2.36,6.19,2.36,2.44,0,4.87-.95,6.69-2.85l21.17-21.98c.51-.53.92-1.1,1.28-1.7,8.98,6.38,18.09,13.42,27.28,21.19h-5.7c-1.25,0-23.51.38-45.51,23.56-5.62,5.92-15.32,5.2-20.12-1.39-19.48-26.71-58.6-66.77-133.84-104.32ZM474.05,691.52l-66.22-3.31,54.78-15.37c8.22-2.31,15.67,5.46,13.05,13.59-.54,1.67-1.08,3.37-1.61,5.09ZM391.3,705.99l61.7,3.08c8.1.41,13.88,7.99,12.14,15.91-2,9.07-3.7,18.42-4.93,27.86l-68.91-46.86ZM742.21,836.03c-7.62,14.6-15.19,26.53-22.51,38.06-19.64,30.95-36.61,57.67-40.23,115.23-2.41,38.44-14.27,67.2-32.53,78.91-9.03,5.8-18.89,6.91-28.49,3.22-1.11-.43-2.25-.6-3.37-.6-.07,0-.14-.01-.21-.01-.06,0-.12,0-.18.01-1.13,0-2.27.17-3.39.6-9.6,3.7-19.45,2.58-28.49-3.22-18.25-11.71-30.11-40.47-32.53-78.91-3.62-57.56-20.58-84.28-40.23-115.23-7.32-11.53-14.89-23.46-22.51-38.06-24.84-47.62-2.62-132.8,23.96-191.28,20.68-45.49,49.78-46.75,50.89-46.78h52.23s.02,0,.04,0c11.73,1.24,22.23.57,31.5-.02,27.14-1.73,45.05-2.89,72.2,47.1,26.52,58.48,48.62,143.46,23.83,190.99Z" style="stroke-width: 0px;"/>
  <path d="M683.95,830.2c3.18,4.32,15.98.31,28.59-8.97,12.61-9.28,20.25-20.3,17.07-24.63-3.18-4.32-15.98-.31-28.59,8.97-12.61,9.28-20.25,20.3-17.07,24.63Z" style="stroke-width: 0px;"/>
  <path d="M528.75,805.58c-12.61-9.28-25.41-13.29-28.59-8.97-3.18,4.32,4.46,15.35,17.07,24.63,12.61,9.28,25.41,13.29,28.59,8.97,3.18-4.32-4.46-15.35-17.07-24.63Z" style="stroke-width: 0px;"/>
  <path d="M571.06,626.93c-15.81,2.92-30.52,12.77-40.79,26.22-10.34,13.46-16.12,30.75-16.06,48.02-.03,17.27,5.75,34.55,16.09,48,10.27,13.44,24.96,23.29,40.77,26.23-12.42-10.01-22.05-21.4-28.51-34.1-6.5-12.64-9.75-26.35-9.76-40.13.04-13.78,3.29-27.48,9.78-40.12,6.46-12.7,16.07-24.08,28.49-34.11Z" style="stroke-width: 0px;"/>
  <path d="M699.5,749.18c10.34-13.46,16.12-30.75,16.06-48.02.03-17.27-5.75-34.55-16.09-48-10.27-13.44-24.96-23.29-40.77-26.23,12.42,10.01,22.05,21.4,28.51,34.1,6.5,12.64,9.75,26.35,9.76,40.13-.04,13.78-3.29,27.48-9.78,40.12-6.46,12.7-16.07,24.08-28.49,34.11,15.81-2.92,30.52-12.77,40.79-26.22Z" style="stroke-width: 0px;"/>
</svg>