<?xml version="1.0" encoding="UTF-8"?>
<svg id="Layer_1" data-name="Layer 1" xmlns="http://www.w3.org/2000/svg" viewBox="0 0 1257.42 1334.59">
  <g>
    <path d="M578.11,398.03c-16.16,5.75-31.76,13.24-45.18,24.01,16.71-3.54,32.81-6.92,48.9-9.59,16.06-2.73,32.03-4.63,47.93-5.41,15.9-.69,31.73-.23,47.45,2.19,7.91,1.06,15.68,2.93,23.56,4.99,7.91,2.05,15.59,4.98,23.74,7.82-11.58-12.66-27.1-21.86-43.76-27.33-4.67-1.55-9.44-2.79-14.25-3.79v-140.15c4.81-1,9.57-2.24,14.25-3.79,16.66-5.47,32.17-14.67,43.76-27.33-8.15,2.84-15.82,5.77-23.74,7.82-7.88,2.06-15.65,3.93-23.56,4.99-9.62,1.48-19.29,2.22-28.98,2.42h-10.68c-2.59-.05-5.19-.12-7.79-.23-15.9-.78-31.87-2.68-47.93-5.41-16.1-2.67-32.19-6.05-48.9-9.59,13.42,10.77,29.03,18.27,45.18,24.01,3.02,1.05,6.09,2.01,9.17,2.9v148.57c-3.08.9-6.15,1.85-9.17,2.9ZM606.29,382.56v-128.68h41.2v128.68h-41.2Z" style="stroke-width: 0px;"/>
    <path d="M1112.71,819.58c6.01-18.12,11.07-37.01,15.04-56.13,3.34-16.1,5.9-32.39,7.6-48.38.67-6.11,1.23-12.17,1.65-17.98.31-4.17.54-8,.7-11.63.45-8.41.68-17.16.68-26.02,0-25.6-1.91-51.27-5.69-76.28-1.55-10.36-3.43-20.71-5.59-30.78-7.87-36.83-19.9-72.85-35.76-107.07-9.39-20.23-20.2-40.01-32.12-58.8-.01-.02-.02-.04-.03-.06-94.18-148.2-255.1-236.68-430.47-236.68s-336.29,88.48-430.48,236.69c0,.01-.02.03-.02.04-11.92,18.8-22.73,38.58-32.13,58.82-15.86,34.21-27.89,70.23-35.76,107.05-2.16,10.07-4.05,20.42-5.59,30.77-3.78,25.03-5.69,50.7-5.69,76.3,0,8.86.23,17.62.68,25.93.16,3.69.39,7.52.7,11.7.42,5.81.97,11.87,1.64,17.97,1.71,16.04,4.27,32.33,7.6,48.42,3.97,19.12,9.03,38.01,15.04,56.12,4.36,13.18,9.39,26.51,14.96,39.62,6.07,14.26,12.99,28.58,20.55,42.56,10.21,18.89,21.76,37.33,34.33,54.82,12.41,17.24,25.96,33.74,40.26,49.15v.08s2.64,2.82,2.64,2.82c2.57,2.74,5.16,5.43,7.78,8.09,1.53,1.56,3.04,3.09,4.55,4.58,22.84,22.65,47.8,43.14,74.16,60.89,2.38,1.61,4.77,3.19,7.18,4.76,16.86,10.97,34.49,21.01,52.53,29.89l20.86,10.27-.25-.72c64.41,28.32,133.07,42.71,204.45,42.71,2.63,0,5.28-.02,7.82-.07,2.26-.03,4.51-.07,6.72-.15,66.21-1.85,129.96-16.15,189.87-42.46l-.25.71,20.87-10.28c20.58-10.13,40.67-21.8,59.72-34.66,26.37-17.76,51.33-38.25,74.14-60.87,1.46-1.43,2.89-2.89,4.35-4.37l.24-.24c2.62-2.66,5.21-5.35,7.76-8.08.02-.02.03-.04.05-.05l2.61-2.78v-.08c14.3-15.42,27.85-31.91,40.26-49.15,12.56-17.48,24.11-35.92,34.33-54.81,7.56-13.97,14.48-28.29,20.56-42.58,5.56-13.1,10.59-26.42,14.95-39.61ZM900.41,772.66l196.48-42.59c8.78-1.9,16.65,5.71,15.1,14.56-.87,4.99-1.82,9.98-2.85,14.96-2.7,12.98-5.94,25.82-9.64,38.39-1.59,5.39-6.51,9.11-12.13,9.11h-150.91c-11.97-12.97-24.01-24.39-36.06-34.42ZM1095.61,576.54c7.65-3.95,16.98.73,18.26,9.25,0,.06.02.12.03.19,3.64,24.09,5.48,48.81,5.48,73.46,0,8.52-.22,16.94-.66,25.1-.15,3.52-.37,7.16-.67,11.16-.03.39-.06.78-.09,1.17-.42,5.55-4.47,10.16-9.91,11.34l-227.27,49.27c-22.43-16.04-44.66-27.57-66.07-35.66l280.9-145.27ZM1098.11,553.85l-308.93,159.76c-24.58-6.54-47.65-8.83-68.22-8.71-3.97-9.81-4.25-20.19-.75-30.95,6.97-21.39,32.8-55.13,116.24-94.33,26.06-12.25,50.86-23.68,74.83-34.73,56.56-26.08,106.94-49.32,147.7-71.25,10.58-5.69,23.76-.79,28.06,10.43,6.93,18.11,12.77,36.63,17.49,55.41,1.44,5.71-1.19,11.67-6.43,14.37ZM664.97,712.24c-13.45-22.01-29.89-56.89-20.91-85.19,5.32-16.78,19.45-29.76,42-38.58,11.68-4.58,24.85-9.58,38.79-14.88,89.63-34.05,220.55-83.81,306.46-152.11,9.68-7.7,24.03-4.75,29.88,6.15.07.13.14.26.21.39,5.21,9.73,1.62,21.8-8.08,27.07-40.78,22.17-92.12,45.85-149.98,72.53-24,11.07-48.83,22.52-74.96,34.79-71.92,33.8-114.39,69.34-126.23,105.65-4.81,14.75-3.89,27.55-.96,37.72-7.71.62-15.53,1.53-23.38,2.81-4.49.73-8.78,1.96-12.85,3.65ZM776.59,320.85c0,81.54-66.34,147.88-147.88,147.88s-147.88-66.34-147.88-147.88,66.34-147.88,147.88-147.88,147.88,66.34,147.88,147.88ZM516.9,197.11c-34.46,31.15-55.91,76.44-55.05,126.64,1.57,91.88,75.77,164.41,167.65,163.97,91.66-.43,166.09-75.13,166.09-166.88,0-49.01-21.25-93.14-55.02-123.68-6.23-5.63-.83-15.84,7.32-13.82,112.49,27.94,211.94,95.09,280.61,191.66,6.08,8.55,4.65,20.35-3.44,27.03-83.19,68.73-216.45,119.38-306.98,153.78-13.99,5.31-27.2,10.34-38.97,14.94-25.05,9.8-41.96,24.36-50.41,43.31-8.46-18.95-25.36-33.51-50.41-43.31-11.77-4.61-24.98-9.63-38.97-14.95-90.53-34.4-223.79-85.05-306.98-153.78-8.09-6.68-9.52-18.48-3.44-27.04,68.68-96.58,168.13-163.72,280.61-191.66,8.11-2.01,13.58,8.17,7.38,13.77ZM592.46,712.24c-4.07-1.69-8.36-2.92-12.84-3.65-7.85-1.28-15.67-2.19-23.38-2.81,2.93-10.18,3.85-22.98-.96-37.72-11.84-36.31-54.31-71.85-126.23-105.65-26.12-12.27-50.95-23.72-74.95-34.79-57.86-26.68-109.2-50.36-149.98-72.54-9.69-5.27-13.29-17.34-8.08-27.07.07-.13.14-.26.21-.39,5.85-10.9,20.2-13.85,29.88-6.15,85.91,68.31,216.83,118.06,306.45,152.11,13.94,5.3,27.11,10.3,38.8,14.88,22.55,8.82,36.68,21.8,42,38.58,8.98,28.31-7.46,63.18-20.91,85.2ZM170.37,484.06c4.29-11.22,17.48-16.12,28.06-10.43,40.76,21.94,91.14,45.17,147.7,71.26,23.97,11.06,48.76,22.49,74.83,34.73,83.44,39.21,109.27,72.94,116.24,94.34,3.51,10.75,3.23,21.14-.74,30.95-20.56-.12-43.64,2.18-68.22,8.71l-308.93-159.77c-5.23-2.71-7.86-8.66-6.43-14.37,4.72-18.79,10.57-37.31,17.49-55.41ZM320.95,807.09h-150.91c-5.62,0-10.54-3.72-12.13-9.11-3.7-12.56-6.94-25.4-9.64-38.39-1.03-4.97-1.98-9.96-2.85-14.95-1.54-8.85,6.32-16.47,15.1-14.56l196.48,42.59c-12.04,10.04-24.09,21.45-36.05,34.42ZM376.65,757.47l-227.27-49.27c-5.44-1.18-9.49-5.79-9.91-11.34-.03-.4-.06-.8-.09-1.2-.3-4-.52-7.64-.68-11.22-.43-8.07-.65-16.48-.65-25.01,0-24.65,1.84-49.37,5.48-73.47l.03-.17c1.28-8.51,10.61-13.2,18.26-9.25l280.9,145.27c-21.41,8.09-43.64,19.62-66.07,35.66ZM185.42,826.09h119.01c-9.31,11.32-18.54,23.63-27.65,37.03-.97,1.42-1.9,3-2.81,4.73l-70.78,16.28c-5.7,1.31-11.54-1.47-14.15-6.7-4.25-8.52-8.23-17.1-11.87-25.66-1.16-2.74-2.3-5.48-3.41-8.24-3.36-8.34,2.68-17.44,11.66-17.44ZM219.99,899.77l46.23-10.63c-6.32,24.38-9.28,58.07-10.59,88.9-8.96-10.48-17.57-21.34-25.64-32.56-6.23-8.67-12.19-17.59-17.84-26.68-4.59-7.38-.62-17.08,7.85-19.03ZM283.14,1007.78c-1.46-1.44-2.9-2.9-4.35-4.38-1.16-1.18-2.31-2.39-3.46-3.59-.87-.91-1.34-2.15-1.31-3.4,1.39-55.85,6.76-97.1,15.19-116.46,1.1-2.49,2.2-4.55,3.28-6.13,29.71-43.72,60.66-75.3,91.16-97.85.57-.32,1.09-.72,1.58-1.15,57.79-42.15,113.89-52.06,156.93-50.81,11.17.32,22.74,1.45,34.41,3.35,5.18.84,9.95,2.63,14.2,5.33,10.34,6.52,16.07,17.57,14.95,28.82-3.12,30.82-13.43,86.25-47.52,111.38h0c-2.69,1.98-4.14,5.23-3.82,8.56l4.54,47.11c.33,3.45-2.33,6.64-6.34,7.59-14.24,3.4-27.58,9.67-40.77,19.15-4.39,3.14-7.46,7.69-8.64,12.82-2.61,11.34-13.24,48.71-40.78,53.26-22.36,3.71-44.3-16.91-55.41-29.55-4.33-4.91-11.39-6.56-17.57-4.1-5.99,2.38-9.73,7.96-9.53,14.24.54,16.55,3.27,46.92,9.94,77.01-4.8,3.55-2.18,1.61-6.98,5.15-2.92-1.69-5.82-3.42-8.7-5.17-.84-.51-1.68-1.03-2.52-1.55-2.08-1.28-4.16-2.58-6.22-3.9-.85-.54-1.69-1.07-2.53-1.62-2.72-1.76-5.42-3.53-8.09-5.33-.06-.04-.12-.08-.19-.12-9.52-6.41-18.85-13.19-27.95-20.32-15.17-11.87-29.72-24.7-43.48-38.34ZM642.68,1149.89c-2.11.07-4.23.12-6.42.14-2.51.05-5.03.07-7.54.07-74.79,0-146.46-16.38-213.13-48.63-10.05-30.48-14.66-67.01-16.19-89.94,14.98,15.05,39.18,33.08,66.1,28.6,39.2-6.48,52.93-53.5,56.2-67.74.18-.78.75-1.32,1.21-1.65,11.15-8.02,22.31-13.28,34.1-16.1,13.33-3.18,22.1-14.91,20.84-27.9l-3.07-31.87c-.58-6.02,1.55-11.98,5.8-16.28,29.51-29.79,40.31-78.04,44.06-115.18v-.02c1.53-15.38-4.54-30.37-16.12-40.95,7.72-12.55,15.18-27.03,20.2-42.22,5.02,15.19,12.48,29.67,20.21,42.23-11.58,10.59-17.65,25.57-16.12,40.96,3.75,37.14,14.55,85.39,44.06,115.18,4.26,4.3,6.38,10.26,5.8,16.28l-3.07,31.87c-1.25,12.99,7.51,24.72,20.84,27.9,11.79,2.82,22.95,8.08,34.11,16.11.45.32,1.02.87,1.19,1.63,3.27,14.26,17,61.28,56.19,67.75,26.95,4.47,51.13-13.55,66.11-28.6-1.53,22.95-6.15,59.5-16.22,89.97-62.35,30.14-129.31,46.45-199.14,48.4ZM978.41,1003.62c-1.38,1.41-2.74,2.79-4.16,4.18-22,21.81-46.02,41.54-71.42,58.64-2.74,1.85-5.52,3.67-8.3,5.47-.83.54-1.68,1.07-2.51,1.61-2.05,1.31-4.11,2.6-6.18,3.87-.87.54-1.74,1.08-2.61,1.61-2.65,1.61-5.32,3.21-8,4.77-.19.11-.38.23-.58.34-.03.02-.06.04-.09.06-4.76-3.53-2.19-1.63-6.96-5.16,6.68-30.1,9.41-60.49,9.95-77.05.2-6.27-3.54-11.86-9.53-14.24-1.91-.76-3.9-1.12-5.87-1.12-4.41,0-8.72,1.84-11.71,5.24-11.1,12.63-33.06,33.26-55.41,29.54-27.53-4.55-38.17-41.91-40.78-53.28-1.18-5.11-4.25-9.66-8.63-12.79-13.2-9.49-26.54-15.75-40.78-19.15-4-.96-6.67-4.15-6.33-7.59l4.54-47.11c.32-3.33-1.13-6.58-3.82-8.56h0c-34.09-25.13-44.41-80.58-47.52-111.38-1.12-11.25,4.61-22.3,14.98-28.84,4.22-2.68,8.99-4.47,14.17-5.31,11.66-1.9,23.24-3.03,34.41-3.35,43.05-1.23,99.16,8.67,156.97,50.85.44.39.92.74,1.42,1.03,30.54,22.55,61.53,54.16,91.28,97.94,1.07,1.57,2.17,3.63,3.25,6.07,8.45,19.41,13.82,60.66,15.21,116.51.03,1.26-.44,2.49-1.31,3.4-1.15,1.2-2.3,2.4-3.45,3.58l-.23.23ZM1027.44,945.48c-8.07,11.22-16.68,22.08-25.64,32.56-1.31-30.82-4.28-64.5-10.6-88.9l46.23,10.63c8.47,1.95,12.44,11.65,7.85,19.03-5.66,9.09-11.61,18.01-17.84,26.68ZM1054.24,884.13l-70.78-16.28c-.91-1.72-1.84-3.3-2.81-4.72-9.11-13.41-18.35-25.71-27.66-37.04h119.01c8.99,0,15.02,9.1,11.66,17.44-1.11,2.75-2.24,5.49-3.4,8.22-3.65,8.57-7.63,17.16-11.88,25.68-2.61,5.23-8.45,8.01-14.15,6.7Z" style="stroke-width: 0px;"/>
    <path d="M327.76,1132.6l-22.66-15.22c-9.25-6.22-15.66-4.49-21.7,4.49l-45.4,67.58c-6.04,8.98-5.21,15.57,4.04,21.79l22.66,15.22c9.25,6.22,15.8,4.58,21.83-4.4l17.66-26.28,9.07-4.81-21.32-14.32-1.02,10.21-15.04,22.39c-2.79,4.16-6.52,5.35-10.81,2.47l-9.65-6.48c-4.29-2.88-4.46-6.69-1.66-10.85l40.17-59.8c2.79-4.16,6.38-5.44,10.67-2.56l10.06,6.76c4.29,2.88,4.59,6.78,1.8,10.94l-6.58,9.79,8.19,15.62,13.87-20.65c6.04-8.99,5.07-15.66-4.18-21.88Z" style="stroke-width: 0px;"/>
    <polygon points="415.55 1190.87 383.96 1280.45 376.38 1287.37 430.92 1306.6 437.85 1286.95 419.98 1289.56 400.17 1282.57 412.74 1246.92 430.41 1253.15 437.85 1260.23 444.84 1240.42 434.61 1241.27 416.93 1235.04 429.5 1199.38 449.31 1206.37 461.6 1219.61 468.53 1199.95 413.98 1180.72 415.55 1190.87" style="stroke-width: 0px;"/>
    <polygon points="614.66 1229.06 595.57 1303.48 584.33 1227.54 587.37 1218.64 552.68 1216.9 557.23 1226.18 552.47 1321.06 547.02 1329.84 571.54 1331.07 567.15 1321.79 571.35 1238.05 587.03 1331.85 600.75 1332.53 625.86 1241.27 621.69 1324.52 616.23 1333.31 641.89 1334.59 637.5 1325.32 642.26 1230.45 647.55 1221.65 612.54 1219.9 614.66 1229.06" style="stroke-width: 0px;"/>
    <polygon points="749.31 1216.25 752.27 1206.43 727.09 1211.51 733.63 1219.41 752.41 1312.52 749.45 1322.34 774.62 1317.26 768.09 1309.35 749.31 1216.25" style="stroke-width: 0px;"/>
    <polygon points="888.17 1159.82 865.88 1169.73 873.98 1176.02 901.6 1238.17 855.23 1184.36 853.33 1175.3 825.88 1187.51 834.12 1193.74 872.71 1280.53 871.8 1290.83 894.24 1280.86 886.14 1274.56 854.25 1202.82 914.91 1271.67 929.52 1265.18 887.27 1170.12 888.17 1159.82" style="stroke-width: 0px;"/>
    <polygon points="973.44 1112.96 971.97 1102.81 951.31 1118.08 960.58 1122.47 1017.04 1198.86 1018.52 1209.02 1039.18 1193.75 1029.91 1189.35 973.44 1112.96" style="stroke-width: 0px;"/>
    <polygon points="268.22 200.95 269.26 208.42 284.52 197.29 277.72 194.02 259.87 169.55 275.42 158.21 293.26 182.68 294.31 190.15 309.56 179.02 302.67 175.82 261.51 119.4 260.56 111.85 245.31 122.98 252.11 126.26 270.03 150.82 254.48 162.16 236.56 137.6 235.52 130.12 220.26 141.25 227.06 144.53 268.22 200.95" style="stroke-width: 0px;"/>
    <path d="M344.3,144.45c3.6,7.1,8.12,8.93,15.43,5.23l17.91-9.07c7.31-3.7,8.61-8.49,5.02-15.59l-27.06-53.4c-3.6-7.1-8.23-8.88-15.54-5.18l-17.91,9.07c-7.31,3.7-8.51,8.44-4.91,15.54l27.06,53.4ZM331.38,81.09l7.63-3.86c3.39-1.72,6-.51,7.66,2.77l23.94,47.26c1.66,3.28,1.09,6.1-2.3,7.82l-7.63,3.87c-3.39,1.72-5.89.46-7.56-2.83l-23.94-47.26c-1.66-3.28-1.2-6.05,2.19-7.77Z" style="stroke-width: 0px;"/>
    <path d="M432.39,110.12l-1.39,7.42,18.01-5.71-5.41-5.27-9.19-28.99,4.19-1.33c4.98-1.58,7.55-.15,10.46,4.29l13.23,20.11.42,6.84,18.68-5.92-6.99-4.76-18.69-26.35c5.15-3,6.31-7.61,4.12-14.52l-6.5-20.5c-2.4-7.59-6.57-10.13-14.39-7.65l-33.07,10.48,5.41,5.27,21.1,66.59ZM434.69,38.73c4.76-1.51,7.66.56,9.09,5.09l3.77,11.89c1.43,4.53.26,7.89-4.5,9.4l-11.44,3.62-8.36-26.39,11.44-3.62Z" style="stroke-width: 0px;"/>
    <path d="M520.38,81.2c1.17,7.87,4.88,11.04,12.99,9.84l19.86-2.95c8.11-1.21,10.85-5.34,9.68-13.21l-8.81-59.21c-1.17-7.87-5-11.02-13.11-9.82l-19.86,2.95c-8.11,1.21-10.74,5.32-9.57,13.19l8.81,59.21ZM528.12,17.01l8.46-1.26c3.76-.56,5.85,1.41,6.39,5.05l7.79,52.4c.54,3.64-.89,6.14-4.65,6.7l-8.46,1.26c-3.76.56-5.74-1.43-6.28-5.07l-7.79-52.4c-.54-3.64.77-6.12,4.53-6.68Z" style="stroke-width: 0px;"/>
    <path d="M623.77,83.13l20.07.32c8.19.13,11.58-3.49,11.71-11.45l.3-18.53c.07-4.63-1.89-8.23-6.12-10.55l-19.42-11c-4-2.2-5.04-4-4.96-8.87l.13-7.96c.06-3.68,1.88-5.91,5.68-5.85l7.48.12c3.8.06,5.43,2.34,5.37,6.03l-.14,8.91,11.3,6.24.3-18.41c.13-7.96-3.14-11.69-11.33-11.82L625.47,0c-8.19-.13-11.46,3.5-11.59,11.45l-.27,16.86c-.07,4.63,1.65,8.22,5.89,10.67l19.54,10.89c4,2.32,5.04,4.12,4.96,8.99l-.15,9.5c-.06,3.68-1.88,5.91-5.68,5.85l-8.79-.14c-3.68-.06-5.43-2.34-5.37-6.03l.18-11.16-11.3-6.24-.33,20.66c-.13,7.96,3.02,11.69,11.21,11.82Z" style="stroke-width: 0px;"/>
    <path d="M712.51,89.24l19.46,3.16c8.09,1.32,11.96-1.78,13.24-9.64l4.06-24.97-12.24,4.27-2.52,15.47c-.59,3.63-2.71,5.57-6.46,4.96l-8.44-1.37c-3.75-.61-5.03-3.11-4.44-6.74l8.5-52.28c.59-3.63,2.59-5.59,6.35-4.98l8.44,1.37c3.75.61,5.15,3.12,4.56,6.76l-3.05,18.76,12.24-4.27,2.61-16.06c1.28-7.85-1.41-12.02-9.5-13.34l-19.46-3.16c-8.09-1.32-11.85,1.8-13.12,9.66l-9.61,59.08c-1.28,7.85,1.3,12,9.39,13.32Z" style="stroke-width: 0px;"/>
    <path d="M800.56,109.25l19.05,6.32c7.78,2.58,12.09.13,14.6-7.42l18.84-56.82c2.5-7.55.51-12.09-7.27-14.67l-19.05-6.32c-7.78-2.58-11.98-.09-14.49,7.46l-18.84,56.82c-2.51,7.55-.62,12.06,7.16,14.64ZM805.53,95.01l16.67-50.28c1.16-3.5,3.45-5.11,7.05-3.92l8.12,2.69c3.61,1.2,4.59,3.9,3.43,7.39l-16.67,50.28c-1.16,3.49-3.56,5.08-7.17,3.88l-8.12-2.69c-3.61-1.2-4.48-3.86-3.32-7.36Z" style="stroke-width: 0px;"/>
    <path d="M890.02,138.3l13.55-26.16,16.88,8.74c7.28,3.77,11.82,1.97,15.48-5.09l10.92-21.1c3.66-7.07,2.51-11.81-4.77-15.58l-30.49-15.79.11,7.55-32.12,62.03-6.22,4.27,16.77,8.69-.11-7.55ZM921,78.49l10.34,5.35c4.43,2.29,5.02,5.81,2.83,10.03l-6.28,12.13c-2.13,4.11-5.4,5.77-9.82,3.47l-10.34-5.35,13.27-25.63Z" style="stroke-width: 0px;"/>
    <polygon points="994.29 193.94 981.15 191.99 968.68 182.88 985.08 160.44 996.2 168.57 999.94 175.12 1009.05 162.66 1001.67 161.08 990.54 152.96 1006.94 130.51 1019.41 139.62 1025.26 151.55 1034.3 139.17 999.96 114.09 998.91 121.56 957.71 177.96 950.91 181.23 985.25 206.31 994.29 193.94" style="stroke-width: 0px;"/>
    <path d="M1073.67,215.25c-3.71-3.71-9.72-3.72-13.44-.01-3.71,3.71-3.72,9.73-.01,13.44,114.91,115.11,178.2,268.09,178.2,430.76,0,12.26-.36,24.5-1.08,36.39-3.12,53.38-13.25,106.08-30.1,156.64-18.58,55.7-45.15,108.39-78.97,156.62-14.3,20.39-29.95,40.02-46.5,58.36-3.51,3.9-3.21,9.9.69,13.42,1.82,1.64,4.09,2.45,6.36,2.45,2.59,0,5.18-1.06,7.06-3.14,17.07-18.91,33.2-39.16,47.95-60.18,34.87-49.74,62.27-104.08,81.44-161.53,17.38-52.15,27.83-106.5,31.05-161.53.74-12.25,1.11-24.87,1.11-37.51,0-167.74-65.26-325.49-183.75-444.19Z" style="stroke-width: 0px;"/>
    <path d="M19.01,659.44c0-162.67,63.28-315.65,178.2-430.76,3.71-3.71,3.7-9.73-.01-13.44-3.72-3.71-9.73-3.7-13.44.01C65.26,333.95,0,491.7,0,659.44c0,155.77,57.37,305.19,161.54,420.74,1.88,2.08,4.46,3.14,7.06,3.14,2.27,0,4.54-.81,6.36-2.45,3.9-3.51,4.21-9.52.7-13.42C74.64,955.4,19.01,810.5,19.01,659.44Z" style="stroke-width: 0px;"/>
    <path d="M945.12,404.47c.22,2.27.57,4.53,1.08,6.8,1.01,4.32,2.38,8.64,5.1,12.96,2.73-4.32,4.09-8.64,5.1-12.96.51-2.26.86-4.52,1.08-6.78,2.26-.22,4.52-.57,6.78-1.08,4.32-1.01,8.64-2.38,12.96-5.1-4.32-2.73-8.64-4.09-12.96-5.1-2.27-.51-4.53-.86-6.8-1.08-.23-2.26-.58-4.52-1.08-6.78-1.02-4.32-2.37-8.64-5.08-12.96-2.71,4.32-4.07,8.64-5.08,12.96-.5,2.27-.85,4.53-1.08,6.79-2.26.23-4.53.59-6.79,1.08-4.32,1.02-8.64,2.37-12.96,5.08,4.32,2.71,8.64,4.07,12.96,5.08,2.26.5,4.52.85,6.78,1.08Z" style="stroke-width: 0px;"/>
    <path d="M833.5,404.47c.22,2.27.57,4.53,1.08,6.8,1.01,4.32,2.38,8.64,5.1,12.96,2.73-4.32,4.09-8.64,5.1-12.96.51-2.26.86-4.52,1.08-6.78,2.26-.22,4.52-.57,6.78-1.08,4.32-1.01,8.64-2.38,12.96-5.1-4.32-2.73-8.64-4.09-12.96-5.1-2.27-.51-4.53-.86-6.8-1.08-.23-2.26-.58-4.52-1.08-6.78-1.02-4.32-2.37-8.64-5.08-12.96-2.71,4.32-4.07,8.64-5.08,12.96-.5,2.27-.85,4.53-1.08,6.79-2.26.23-4.53.59-6.79,1.08-4.32,1.02-8.64,2.37-12.96,5.08,4.32,2.71,8.64,4.07,12.96,5.08,2.26.5,4.52.85,6.78,1.08Z" style="stroke-width: 0px;"/>
    <path d="M833.5,276.47c.22,2.27.57,4.53,1.08,6.8,1.01,4.32,2.38,8.64,5.1,12.96,2.73-4.32,4.09-8.64,5.1-12.96.51-2.26.86-4.52,1.08-6.78,2.26-.22,4.52-.57,6.78-1.08,4.32-1.01,8.64-2.38,12.96-5.1-4.32-2.73-8.64-4.09-12.96-5.1-2.27-.51-4.53-.86-6.8-1.08-.23-2.26-.58-4.52-1.08-6.78-1.02-4.32-2.37-8.64-5.08-12.96-2.71,4.32-4.07,8.64-5.08,12.96-.5,2.27-.85,4.53-1.08,6.79-2.26.23-4.53.59-6.79,1.08-4.32,1.02-8.64,2.37-12.96,5.08,4.32,2.71,8.64,4.07,12.96,5.08,2.26.5,4.52.85,6.78,1.08Z" style="stroke-width: 0px;"/>
    <path d="M293.16,403.41c2.26.51,4.52.86,6.78,1.08.22,2.26.57,4.52,1.08,6.78,1.01,4.32,2.38,8.64,5.1,12.96,2.73-4.32,4.09-8.64,5.1-12.96.51-2.27.86-4.53,1.08-6.8,2.26-.23,4.52-.58,6.78-1.08,4.32-1.02,8.64-2.37,12.96-5.08-4.32-2.71-8.64-4.07-12.96-5.08-2.26-.5-4.53-.85-6.79-1.08-.23-2.26-.59-4.53-1.08-6.79-1.02-4.32-2.37-8.64-5.08-12.96-2.71,4.32-4.07,8.64-5.08,12.96-.5,2.26-.85,4.52-1.08,6.78-2.27.22-4.53.57-6.8,1.08-4.32,1.01-8.64,2.38-12.96,5.1,4.32,2.73,8.64,4.09,12.96,5.1Z" style="stroke-width: 0px;"/>
    <path d="M411.55,404.49c.22,2.26.57,4.52,1.08,6.78,1.01,4.32,2.38,8.64,5.1,12.96,2.73-4.32,4.09-8.64,5.1-12.96.51-2.27.86-4.53,1.08-6.8,2.26-.23,4.52-.58,6.78-1.08,4.32-1.02,8.64-2.37,12.96-5.08-4.32-2.71-8.64-4.07-12.96-5.08-2.26-.5-4.53-.85-6.79-1.08-.23-2.26-.59-4.53-1.08-6.79-1.02-4.32-2.37-8.64-5.08-12.96-2.71,4.32-4.07,8.64-5.08,12.96-.5,2.26-.85,4.52-1.08,6.78-2.27.22-4.53.57-6.8,1.08-4.32,1.01-8.64,2.38-12.96,5.1,4.32,2.73,8.64,4.09,12.96,5.1,2.26.51,4.52.86,6.78,1.08Z" style="stroke-width: 0px;"/>
    <path d="M411.55,276.49c.22,2.26.57,4.52,1.08,6.78,1.01,4.32,2.38,8.64,5.1,12.96,2.73-4.32,4.09-8.64,5.1-12.96.51-2.27.86-4.53,1.08-6.8,2.26-.23,4.52-.58,6.78-1.08,4.32-1.02,8.64-2.37,12.96-5.08-4.32-2.71-8.64-4.07-12.96-5.08-2.26-.5-4.53-.85-6.79-1.08-.23-2.27-.59-4.53-1.08-6.79-1.02-4.32-2.37-8.64-5.08-12.96-2.71,4.32-4.07,8.64-5.08,12.96-.5,2.26-.85,4.52-1.08,6.78-2.27.22-4.53.57-6.8,1.08-4.32,1.01-8.64,2.38-12.96,5.1,4.32,2.73,8.64,4.09,12.96,5.1,2.26.51,4.52.86,6.78,1.08Z" style="stroke-width: 0px;"/>
    <path d="M524.61,869.81c.1,0,.2,0,.3,0,5.11,0,9.33-4.06,9.49-9.21.16-5.25-3.96-9.63-9.2-9.79-18.25-.57-30.24-6.7-37.72-19.28-2.68-4.51-8.51-5.99-13.02-3.31-4.51,2.68-5.99,8.51-3.31,13.02,10.81,18.18,28.8,27.78,53.46,28.56Z" style="stroke-width: 0px;"/>
    <path d="M782.97,828.23c-4.51-2.69-10.34-1.2-13.02,3.31-7.48,12.58-19.47,18.71-37.72,19.28-5.25.16-9.37,4.55-9.2,9.79.16,5.15,4.38,9.21,9.49,9.21.1,0,.2,0,.3,0,24.66-.77,42.65-10.38,53.46-28.56,2.68-4.51,1.2-10.34-3.31-13.02Z" style="stroke-width: 0px;"/>
  </g>
  <path d="M666.43,1081.42h0c-6.6-9.48-19.63-11.82-29.11-5.23l-5.63,3.91c-1.79,1.25-4.17,1.25-5.97,0l-5.63-3.91c-9.48-6.6-22.52-4.26-29.11,5.23h0c-6.6,9.48-4.26,22.52,5.23,29.11l32.22,22.41.28.23.28-.23,32.22-22.41c9.48-6.6,11.82-19.63,5.23-29.11Z" style="stroke-width: 0px;"/>
</svg>