<?xml version="1.0" encoding="UTF-8"?>
<svg id="Layer_1" data-name="Layer 1" xmlns="http://www.w3.org/2000/svg" viewBox="0 0 1133.01 1205.59">
  <path d="M503.01,291.67h21.61c-1.19,26.73-9.47,54.65-24.88,84.08-2.19,4.19-.57,9.36,3.62,11.56,1.27.66,2.63.98,3.96.98,3.08,0,6.06-1.67,7.59-4.59,16.61-31.73,25.48-62.46,26.65-92.03h44.3c1.17,29.57,10.04,60.3,26.65,92.03,1.53,2.92,4.51,4.59,7.59,4.59,1.34,0,2.7-.31,3.96-.98,4.19-2.19,5.81-7.37,3.62-11.56-15.41-29.44-23.69-57.36-24.88-84.08h27.2c4.73,0,8.56-3.83,8.56-8.56s-3.83-8.56-8.56-8.56h-26.99c1.78-24.75,9.89-48.5,24.33-71.52,2.51-4.01,1.31-9.29-2.7-11.8s-9.29-1.31-11.8,2.7c-16.1,25.65-25.01,52.58-26.78,80.62h-44.7c-1.77-28.04-10.68-54.97-26.78-80.62-2.51-4.01-7.8-5.21-11.8-2.7-4.01,2.51-5.21,7.8-2.7,11.8,14.45,23.01,22.56,46.76,24.33,71.52h-21.39c-4.73,0-8.56,3.83-8.56,8.56s3.83,8.56,8.56,8.56Z" style="stroke-width: 0px;"/>
  <path d="M1002.62,738.48c5.41-16.33,9.97-33.34,13.55-50.57,3.01-14.51,5.32-29.19,6.85-43.59.61-5.5,1.1-10.96,1.48-16.2.28-3.76.49-7.22.63-10.48.41-7.57.61-15.46.61-23.45,0-23.06-1.72-46.19-5.13-68.74-1.39-9.33-3.09-18.66-5.04-27.73-1.36-6.38-2.91-12.73-4.55-19.05-.06-.35-.16-.7-.27-1.04-6.86-26.19-16.02-51.81-27.41-76.39-8.47-18.24-18.21-36.08-28.97-53.02-84.86-133.55-229.86-213.28-387.89-213.28s-303.03,79.73-387.89,213.28c-10.75,16.94-20.5,34.78-28.96,53.02-11.39,24.58-20.55,50.2-27.41,76.38-.11.34-.2.68-.27,1.04-1.64,6.32-3.18,12.66-4.55,19.03-1.95,9.07-3.65,18.41-5.04,27.73-3.4,22.56-5.13,45.69-5.13,68.75,0,7.99.21,15.88.61,23.36.14,3.32.35,6.77.63,10.54.38,5.24.88,10.7,1.48,16.19,1.54,14.45,3.84,29.13,6.85,43.63,3.58,17.23,8.14,34.25,13.55,50.57,3.93,11.87,8.46,23.89,13.48,35.71,5.48,12.86,11.71,25.76,18.52,38.35,9.21,17.03,19.62,33.65,30.93,49.39,1.72,2.39,3.52,4.73,5.28,7.09.2.32.44.63.69.93,10.23,13.59,21.16,26.66,32.68,38.88,2.31,2.46,4.65,4.89,7.01,7.29,1.38,1.4,2.74,2.78,4.1,4.12,19.67,19.5,41.1,37.21,63.7,52.71.04.03.08.05.12.08,1,.69,2,1.4,3.01,2.08,17.13,11.57,35.23,22.08,53.79,31.21,63.34,31.25,131.57,47.1,202.8,47.1,2.36,0,4.75-.02,7.06-.06,2.03-.03,4.06-.07,6.05-.13,66.55-1.86,130.36-17.63,189.67-46.88,18.54-9.13,36.64-19.64,53.81-31.23.96-.64,1.89-1.32,2.85-1.97.1-.07.21-.14.31-.21,22.6-15.51,44.02-33.2,63.65-52.67,1.31-1.29,2.61-2.6,3.92-3.94l.21-.22c2.36-2.4,4.69-4.82,6.99-7.28,11.46-12.16,22.34-25.15,32.51-38.64.04-.04.08-.08.11-.11.41-.46.76-.95,1.06-1.46,1.67-2.23,3.37-4.44,4.99-6.7,11.31-15.74,21.72-32.36,30.93-49.38,6.81-12.58,13.04-25.48,18.53-38.36,5.01-11.8,9.54-23.81,13.47-35.69ZM699.75,289.1c0,73.47-59.78,133.25-133.25,133.25s-133.25-59.77-133.25-133.25,59.77-133.25,133.25-133.25,133.25,59.77,133.25,133.25ZM165.18,408.46c8.15-17.56,17.54-34.74,27.89-51.05,68.24-107.39,176.87-178.59,299.46-199.15-46.28,26.27-77.35,76.33-76.37,133.46,1.42,82.84,68.22,148.14,151.07,147.75,82.59-.39,149.65-67.69,149.65-150.37,0-56.03-30.83-104.97-76.4-130.84,122.58,20.56,231.22,91.76,299.45,199.15,10.35,16.31,19.74,33.49,27.89,51.05,9.3,20.07,17.05,40.88,23.23,62.12-.15,0-.29,0-.43,0-30.18,0-45.61,16.19-59.22,30.48-12.87,13.51-23.98,25.17-46.82,25.17s-33.96-11.67-46.82-25.17c-13.61-14.29-29.03-30.48-59.2-30.48s-45.61,16.19-59.22,30.48c-12.87,13.51-23.98,25.17-46.82,25.17s-33.95-11.66-46.82-25.17c-13.61-14.29-29.04-30.48-59.22-30.48s-45.59,16.19-59.2,30.48c-12.87,13.51-23.98,25.17-46.82,25.17s-33.96-11.66-46.82-25.17c-13.61-14.29-29.04-30.48-59.22-30.48s-45.61,16.2-59.22,30.49c-12.86,13.5-23.97,25.17-46.8,25.17s-33.96-11.66-46.82-25.17c-13.61-14.29-29.04-30.48-59.22-30.48-.12,0-.24,0-.37,0,6.18-21.24,13.92-42.04,23.22-62.11ZM761.7,990.99c-57.08,28.15-118.51,43.33-182.62,45.12-1.91.06-3.82.1-5.78.13-2.26.04-4.54.06-6.8.06-68.58,0-134.26-15.25-195.23-45.33-7.67-3.78-15.27-7.8-22.74-12.04-10.22-5.8-6.27-21.57,5.48-21.64.12,0,.25,0,.37,0,22.84,0,33.96,11.66,46.82,25.17,13.61,14.29,29.04,30.48,59.22,30.48s45.61-16.2,59.22-30.49c12.86-13.5,23.97-25.17,46.8-25.17s33.96,11.66,46.82,25.17c13.61,14.29,29.04,30.48,59.22,30.48s45.61-16.19,59.22-30.48c12.87-13.51,23.98-25.17,46.82-25.17.15,0,.29,0,.44,0,11.75.08,15.7,15.83,5.48,21.64-7.49,4.25-15.09,8.28-22.77,12.06ZM888.54,897.11c-2.23,2.37-4.47,4.7-6.73,7l-.21.21c-1.25,1.27-2.47,2.51-3.75,3.76-12.3,12.2-25.31,23.67-38.88,34.31-9.22,7.23-21.66,8.32-32.34,3.51-7.59-3.42-16.77-5.74-28.08-5.74-30.18,0-45.61,16.19-59.22,30.48-12.87,13.51-23.98,25.17-46.82,25.17s-33.95-11.66-46.82-25.17c-13.61-14.29-29.04-30.48-59.22-30.48s-45.59,16.19-59.2,30.48c-12.87,13.51-23.98,25.17-46.82,25.17s-33.96-11.66-46.82-25.17c-13.61-14.29-29.04-30.48-59.22-30.48-11.3,0-20.48,2.32-28.07,5.73-10.68,4.8-23.11,3.7-32.32-3.52-13.56-10.63-26.57-22.11-38.88-34.31-1.31-1.29-2.61-2.61-3.92-3.94-2.27-2.31-4.51-4.64-6.75-7.02-.02-.02-.05-.05-.07-.07-2.4-2.55-.51-6.72,2.99-6.67.33,0,.66,0,.99,0,30.17,0,45.59-16.19,59.2-30.48,12.87-13.51,23.98-25.17,46.82-25.17s33.96,11.66,46.82,25.17c13.61,14.29,29.04,30.48,59.22,30.48s45.61-16.2,59.22-30.49c12.86-13.5,23.97-25.17,46.8-25.17s33.96,11.66,46.82,25.17c13.61,14.29,29.04,30.48,59.22,30.48s45.61-16.19,59.22-30.48c12.87-13.51,23.98-25.17,46.82-25.17s33.94,11.66,46.8,25.17c13.61,14.29,29.04,30.49,59.22,30.49.35,0,.71,0,1.06,0,3.51-.05,5.4,4.12,3,6.67-.03.03-.06.06-.08.09ZM973.38,767.48c-5.27,12.38-11.27,24.8-17.83,36.91-8.87,16.39-18.88,32.39-29.77,47.53-1.02,1.41-2.06,2.81-3.11,4.2-1.41,1.87-3,3.59-4.8,5.08-7.91,6.57-17.78,12.02-33.3,12.02-22.84,0-33.96-11.67-46.82-25.17-13.61-14.29-29.03-30.48-59.2-30.48s-45.61,16.19-59.22,30.48c-12.87,13.51-23.98,25.17-46.82,25.17s-33.95-11.66-46.82-25.17c-13.61-14.29-29.04-30.48-59.22-30.48s-45.59,16.19-59.2,30.48c-12.87,13.51-23.98,25.17-46.82,25.17s-33.96-11.66-46.82-25.17c-13.61-14.29-29.04-30.48-59.22-30.48s-45.61,16.2-59.22,30.49c-12.86,13.5-23.97,25.17-46.8,25.17-15.42,0-25.22-5.37-33.08-11.84-1.83-1.5-3.44-3.24-4.87-5.13-1.08-1.44-2.16-2.87-3.2-4.33-10.89-15.15-20.91-31.15-29.77-47.54-6.56-12.12-12.56-24.54-17.82-36.9-4.83-11.38-9.2-22.95-12.98-34.39-5.21-15.7-9.59-32.08-13.04-48.66-2.9-13.95-5.11-28.06-6.59-41.98-.58-5.31-1.06-10.56-1.43-15.61-.27-3.61-.47-6.89-.61-10.11-.39-7.27-.59-14.85-.59-22.53,0-22.21,1.66-44.48,4.94-66.2,1.34-8.98,2.97-17.95,4.85-26.69.63-2.94,1.3-5.88,1.99-8.8.67-2.82,3.21-4.81,6.11-4.81h.05c22.84,0,33.96,11.66,46.82,25.17,13.61,14.29,29.04,30.48,59.22,30.48s45.59-16.19,59.2-30.48c12.87-13.51,23.98-25.17,46.82-25.17s33.96,11.66,46.82,25.17c13.61,14.29,29.04,30.48,59.22,30.48s45.61-16.2,59.22-30.49c12.86-13.5,23.97-25.17,46.8-25.17s33.96,11.66,46.82,25.17c13.61,14.29,29.04,30.48,59.22,30.48s45.61-16.2,59.22-30.48c12.87-13.51,23.98-25.17,46.82-25.17s33.94,11.66,46.8,25.17c13.61,14.29,29.04,30.49,59.22,30.49s45.61-16.2,59.22-30.48c12.87-13.51,23.98-25.17,46.82-25.17h.12c2.9,0,5.44,1.99,6.11,4.81.7,2.93,1.36,5.87,1.99,8.81,1.88,8.73,3.51,17.7,4.85,26.69,3.28,21.71,4.94,43.98,4.94,66.19,0,7.68-.2,15.26-.59,22.62-.14,3.17-.34,6.45-.61,10.05-.37,5.06-.84,10.3-1.43,15.62-1.48,13.88-3.69,27.99-6.59,41.95-3.44,16.59-7.83,32.96-13.04,48.67-3.79,11.44-8.15,23.01-12.98,34.38Z" style="stroke-width: 0px;"/>
  <path d="M265.66,1002.35l-34.56-27.11-1.67,9.51-55.16,70.31-8.84,3.88,19.01,14.92,1.66-9.51,23.26-29.65,19.13,15.01c8.25,6.47,14.39,5.3,20.67-2.71l18.76-23.92c6.28-8.01,5.96-14.25-2.29-20.72ZM252.19,1019.02l-10.79,13.75c-3.66,4.66-8.16,5.97-13.18,2.03l-11.72-9.19,22.8-29.06,11.72,9.19c5.02,3.94,4.92,8.5,1.17,13.28Z" style="stroke-width: 0px;"/>
  <polygon points="347.07 1062.72 310.35 1144.19 302.7 1150.07 324.73 1160 324.07 1150.37 360.79 1068.9 368.44 1063.02 346.41 1053.09 347.07 1062.72" style="stroke-width: 0px;"/>
  <path d="M485.85,1094.72l-23.47-4.32c-10.31-1.9-15.2,1.99-17.04,12.01l-3.9,21.22c-1.07,5.83.34,10.73,5.17,14.71l22.36,17.87c4.56,3.78,5.49,6.26,4.36,12.39l-2.2,11.96c-.85,4.63-3.62,7.06-8.4,6.18l-11.06-2.03c-4.63-.85-6.35-4.11-5.5-8.74l2.58-14.05-12.95-10.26-4.78,26.01c-1.84,10.01,1.34,15.39,11.65,17.29l25.26,4.65c10.31,1.9,15.35-1.97,17.19-11.98l4.29-23.32c1.07-5.83-.64-10.78-5.5-14.61l-22.19-17.99c-4.59-3.62-5.52-6.11-4.39-12.24l1.84-10.02c.85-4.63,3.62-7.06,8.4-6.18l9.42,1.73c4.78.88,6.35,4.11,5.5,8.74l-2.06,11.21,12.95,10.26,4.26-23.17c1.84-10.01-1.49-15.42-11.8-17.31Z" style="stroke-width: 0px;"/>
  <path d="M652.14,1154.32l-13.7,9.35,2.05,19.96c.48,4.69-1.49,7.79-6.33,8.29l-10.89,1.12c-4.84.5-7.25-2.16-7.73-6.84l-6.93-67.43c-.48-4.69,1.34-7.78,6.18-8.27l10.89-1.12c4.84-.5,7.4,2.14,7.88,6.83l2.49,24.19,13.71-9.35-2.13-20.71c-1.04-10.13-5.76-14.38-16.19-13.31l-25.1,2.58c-10.43,1.07-14.03,6.18-12.99,16.31l7.84,76.2c1.04,10.13,5.61,14.4,16.04,13.32l25.1-2.58c10.43-1.07,14.18-6.2,13.14-16.33l-3.31-32.2Z" style="stroke-width: 0px;"/>
  <polygon points="804.59 1149.1 786.28 1156.52 772.91 1123.58 789.24 1116.94 798.89 1117.29 791.46 1098.99 784.78 1105.96 768.45 1112.59 755.07 1079.64 773.38 1072.21 790.29 1073.88 782.92 1055.71 732.51 1076.18 739.93 1082.35 773.54 1165.14 772.52 1174.74 822.93 1154.28 815.56 1136.11 804.59 1149.1" style="stroke-width: 0px;"/>
  <path d="M943.47,1028.73c-3.66-4.66-8.51-6.64-14.6-5.53l-28.17,4.76c-5.75,1.05-8.24.1-12.09-4.8l-6.3-8c-2.91-3.7-2.91-7.38.92-10.39l7.53-5.92c3.82-3.01,7.28-2.05,10.19,1.65l7.05,8.96,16.26-2.93-14.57-18.51c-6.3-8-12.55-9.07-20.8-2.59l-18.75,14.75c-8.24,6.48-8.55,12.72-2.26,20.73l13.34,16.96c3.66,4.66,8.28,6.83,14.46,5.84l28.19-4.97c5.85-.93,8.33.02,12.18,4.92l7.52,9.56c2.91,3.7,2.91,7.38-.92,10.39l-8.84,6.95c-3.7,2.91-7.28,2.05-10.19-1.65l-8.83-11.23-16.26,2.93,16.35,20.78c6.3,8,12.43,9.17,20.68,2.69l20.18-15.88c8.24-6.48,8.68-12.82,2.38-20.82l-14.66-18.63Z" style="stroke-width: 0px;"/>
  <polygon points="241.68 181.06 242.62 187.8 256.37 177.77 250.24 174.82 234.16 152.77 248.16 142.56 264.25 164.6 265.19 171.34 278.93 161.31 272.72 158.42 235.63 107.58 234.78 100.79 221.04 110.81 227.16 113.76 243.31 135.9 229.3 146.12 213.16 123.98 212.22 117.25 198.47 127.28 204.6 130.23 241.68 181.06" style="stroke-width: 0px;"/>
  <path d="M310.24,130.16c3.24,6.4,7.32,8.05,13.91,4.71l16.13-8.18c6.59-3.34,7.76-7.65,4.52-14.05l-24.38-48.12c-3.24-6.4-7.41-8-14-4.66l-16.13,8.17c-6.59,3.34-7.67,7.6-4.43,14l24.38,48.12ZM298.59,73.07l6.87-3.48c3.06-1.55,5.41-.46,6.91,2.5l21.57,42.58c1.5,2.96.99,5.5-2.07,7.05l-6.87,3.48c-3.06,1.55-5.31.41-6.81-2.55l-21.58-42.58c-1.5-2.96-1.08-5.45,1.97-7Z" style="stroke-width: 0px;"/>
  <path d="M389.61,99.22l-1.25,6.68,16.22-5.14-4.87-4.74-8.28-26.12,3.78-1.2c4.49-1.42,6.81-.14,9.42,3.86l11.92,18.12.38,6.17,16.84-5.34-6.3-4.29-16.84-23.74c4.64-2.71,5.69-6.85,3.71-13.08l-5.85-18.47c-2.17-6.84-5.92-9.13-12.96-6.9l-29.79,9.44,4.87,4.74,19.01,60ZM391.68,34.9c4.29-1.36,6.9.51,8.19,4.59l3.4,10.71c1.29,4.08.23,7.11-4.05,8.47l-10.31,3.27-7.53-23.78,10.31-3.27Z" style="stroke-width: 0px;"/>
  <path d="M468.89,73.17c1.05,7.09,4.4,9.95,11.71,8.86l17.89-2.66c7.3-1.09,9.78-4.81,8.73-11.9l-7.94-53.35c-1.05-7.09-4.51-9.93-11.81-8.85l-17.89,2.66c-7.3,1.09-9.67,4.79-8.62,11.89l7.93,53.35ZM475.87,15.32l7.62-1.13c3.39-.5,5.27,1.27,5.76,4.55l7.02,47.21c.49,3.28-.8,5.53-4.19,6.03l-7.62,1.13c-3.39.5-5.17-1.29-5.66-4.57l-7.02-47.21c-.49-3.28.7-5.51,4.08-6.02Z" style="stroke-width: 0px;"/>
  <path d="M562.05,74.9l18.08.29c7.38.12,10.43-3.15,10.55-10.32l.27-16.69c.07-4.17-1.7-7.41-5.52-9.51l-17.5-9.92c-3.61-1.98-4.54-3.6-4.47-7.99l.12-7.17c.05-3.32,1.69-5.32,5.12-5.27l6.74.11c3.42.06,4.89,2.11,4.84,5.43l-.13,8.03,10.18,5.62.27-16.59c.12-7.17-2.83-10.53-10.21-10.65L563.58,0c-7.38-.12-10.33,3.15-10.44,10.32l-.25,15.19c-.07,4.17,1.49,7.41,5.3,9.61l17.61,9.81c3.6,2.09,4.54,3.71,4.47,8.1l-.14,8.56c-.05,3.32-1.69,5.32-5.12,5.27l-7.92-.13c-3.32-.05-4.89-2.11-4.84-5.43l.16-10.06-10.18-5.62-.3,18.62c-.12,7.17,2.72,10.53,10.1,10.65Z" style="stroke-width: 0px;"/>
  <path d="M642.01,80.41l17.53,2.85c7.29,1.19,10.78-1.61,11.93-8.68l3.66-22.5-11.03,3.84-2.27,13.94c-.53,3.27-2.44,5.02-5.82,4.47l-7.6-1.24c-3.38-.55-4.53-2.8-4-6.07l7.66-47.11c.53-3.27,2.34-5.04,5.72-4.49l7.61,1.24c3.38.55,4.64,2.81,4.11,6.09l-2.75,16.9,11.03-3.84,2.35-14.47c1.15-7.08-1.27-10.83-8.56-12.02l-17.53-2.85c-7.29-1.19-10.67,1.63-11.83,8.7l-8.66,53.24c-1.15,7.08,1.17,10.81,8.46,12Z" style="stroke-width: 0px;"/>
  <path d="M721.35,98.44l17.17,5.69c7.01,2.32,10.9.12,13.15-6.69l16.97-51.2c2.26-6.81.46-10.9-6.55-13.22l-17.17-5.69c-7.01-2.32-10.8-.08-13.05,6.72l-16.97,51.2c-2.26,6.81-.56,10.86,6.45,13.19ZM725.83,85.61l15.02-45.3c1.04-3.15,3.11-4.61,6.36-3.53l7.31,2.42c3.25,1.08,4.13,3.51,3.09,6.66l-15.02,45.31c-1.04,3.15-3.21,4.57-6.46,3.5l-7.31-2.42c-3.25-1.08-4.03-3.48-2.99-6.63Z" style="stroke-width: 0px;"/>
  <path d="M801.96,124.62l12.21-23.57,15.21,7.88c6.56,3.4,10.65,1.78,13.95-4.59l9.84-19.01c3.3-6.37,2.26-10.64-4.3-14.04l-27.47-14.23.1,6.8-28.94,55.89-5.61,3.85,15.11,7.83-.1-6.8ZM829.87,70.72l9.31,4.82c3.99,2.07,4.52,5.23,2.55,9.04l-5.66,10.93c-1.92,3.71-4.86,5.2-8.85,3.13l-9.31-4.82,11.96-23.1Z" style="stroke-width: 0px;"/>
  <polygon points="895.91 174.75 884.07 172.99 872.83 164.79 887.61 144.56 897.63 151.89 901 157.8 909.21 146.56 902.56 145.15 892.53 137.82 907.31 117.6 918.54 125.81 923.81 136.55 931.96 125.4 901.02 102.8 900.08 109.53 862.95 160.35 856.82 163.3 887.76 185.9 895.91 174.75" style="stroke-width: 0px;"/>
  <path d="M967.44,193.95c-3.34-3.35-8.76-3.35-12.11,0-3.35,3.34-3.35,8.76-.01,12.11,103.54,103.72,160.57,241.56,160.57,388.14,0,11.05-.33,22.07-.97,32.78-2.81,48.09-11.94,95.58-27.12,141.15-16.75,50.19-40.69,97.67-71.16,141.12-12.89,18.37-26.99,36.06-41.9,52.59-3.17,3.51-2.89,8.92.62,12.09,1.64,1.48,3.69,2.21,5.73,2.21,2.34,0,4.67-.95,6.36-2.83,15.38-17.05,29.92-35.29,43.21-54.23,31.42-44.81,56.11-93.78,73.38-145.54,15.66-46.99,25.08-95.97,27.97-145.55.66-11.04,1-22.41,1-33.8,0-151.14-58.8-293.28-165.57-400.24Z" style="stroke-width: 0px;"/>
  <path d="M17.12,594.19c0-146.58,57.02-284.42,160.57-388.14,3.34-3.35,3.34-8.77-.01-12.11-3.35-3.34-8.77-3.34-12.11.01C58.8,300.91,0,443.05,0,594.19c0,140.35,51.69,274.99,145.56,379.12,1.69,1.88,4.02,2.83,6.36,2.83,2.04,0,4.09-.73,5.73-2.2,3.51-3.16,3.79-8.58.63-12.09-91.02-100.97-141.15-231.54-141.15-367.65Z" style="stroke-width: 0px;"/>
  <path d="M851.6,364.45c.2,2.04.51,4.08.98,6.12.91,3.89,2.14,7.79,4.6,11.68,2.46-3.89,3.68-7.79,4.6-11.68.46-2.04.77-4.07.98-6.11,2.04-.2,4.07-.51,6.11-.98,3.89-.91,7.79-2.14,11.68-4.6-3.89-2.46-7.79-3.68-11.68-4.6-2.04-.46-4.08-.78-6.12-.98-.21-2.04-.53-4.07-.98-6.11-.92-3.89-2.14-7.79-4.58-11.68-2.44,3.89-3.66,7.79-4.58,11.68-.45,2.04-.77,4.08-.98,6.12-2.04.21-4.08.53-6.12.98-3.89.92-7.79,2.14-11.68,4.58,3.89,2.44,7.79,3.66,11.68,4.58,2.04.45,4.07.77,6.11.98Z" style="stroke-width: 0px;"/>
  <path d="M751.03,364.45c.2,2.04.51,4.08.98,6.12.91,3.89,2.14,7.79,4.6,11.68,2.46-3.89,3.68-7.79,4.6-11.68.46-2.04.77-4.07.98-6.11,2.04-.2,4.07-.51,6.11-.98,3.89-.91,7.79-2.14,11.68-4.6-3.89-2.46-7.79-3.68-11.68-4.6-2.04-.46-4.08-.78-6.12-.98-.21-2.04-.53-4.07-.98-6.11-.92-3.89-2.14-7.79-4.58-11.68-2.44,3.89-3.66,7.79-4.58,11.68-.45,2.04-.77,4.08-.98,6.12-2.04.21-4.08.53-6.12.98-3.89.92-7.79,2.14-11.68,4.58,3.89,2.44,7.79,3.66,11.68,4.58,2.04.45,4.07.77,6.11.98Z" style="stroke-width: 0px;"/>
  <path d="M751.03,249.12c.2,2.04.51,4.08.98,6.12.91,3.89,2.14,7.79,4.6,11.68,2.46-3.89,3.68-7.79,4.6-11.68.46-2.04.77-4.07.98-6.11,2.04-.2,4.07-.51,6.11-.98,3.89-.91,7.79-2.14,11.68-4.6-3.89-2.46-7.79-3.68-11.68-4.6-2.04-.46-4.08-.78-6.12-.98-.21-2.04-.53-4.07-.98-6.11-.92-3.89-2.14-7.79-4.58-11.68-2.44,3.89-3.66,7.79-4.58,11.68-.45,2.04-.77,4.08-.98,6.12-2.04.21-4.08.53-6.12.98-3.89.92-7.79,2.14-11.68,4.58,3.89,2.44,7.79,3.66,11.68,4.58,2.04.45,4.07.77,6.11.98Z" style="stroke-width: 0px;"/>
  <path d="M270.26,364.47c.2,2.04.51,4.07.97,6.11.91,3.89,2.14,7.79,4.6,11.68,2.46-3.89,3.68-7.79,4.6-11.68.46-2.04.78-4.08.98-6.12,2.04-.21,4.07-.53,6.11-.98,3.89-.92,7.79-2.14,11.68-4.58-3.89-2.44-7.79-3.66-11.68-4.58-2.04-.45-4.08-.77-6.12-.98-.21-2.04-.53-4.08-.98-6.12-.92-3.89-2.14-7.79-4.58-11.68-2.44,3.89-3.66,7.79-4.58,11.68-.45,2.04-.77,4.07-.98,6.11-2.04.2-4.08.51-6.12.98-3.89.91-7.79,2.14-11.68,4.6,3.89,2.46,7.79,3.68,11.68,4.6,2.04.46,4.07.77,6.11.98Z" style="stroke-width: 0px;"/>
  <path d="M370.83,364.47c.2,2.04.51,4.07.98,6.11.91,3.89,2.14,7.79,4.6,11.68,2.46-3.89,3.68-7.79,4.6-11.68.46-2.04.78-4.08.98-6.12,2.04-.21,4.07-.53,6.11-.98,3.89-.92,7.79-2.14,11.68-4.58-3.89-2.44-7.79-3.66-11.68-4.58-2.04-.45-4.08-.77-6.12-.98-.21-2.04-.53-4.08-.98-6.12-.92-3.89-2.14-7.79-4.58-11.68-2.44,3.89-3.66,7.79-4.58,11.68-.45,2.04-.77,4.07-.98,6.11-2.04.2-4.08.51-6.12.98-3.89.91-7.79,2.14-11.68,4.6,3.89,2.46,7.79,3.68,11.68,4.6,2.04.46,4.07.77,6.11.98Z" style="stroke-width: 0px;"/>
  <path d="M370.83,249.13c.2,2.04.51,4.07.98,6.11.91,3.89,2.14,7.79,4.6,11.68,2.46-3.89,3.68-7.79,4.6-11.68.46-2.04.78-4.08.98-6.12,2.04-.21,4.07-.53,6.11-.98,3.89-.92,7.79-2.14,11.68-4.58-3.89-2.44-7.79-3.66-11.68-4.58-2.04-.45-4.08-.77-6.12-.98-.21-2.04-.53-4.08-.98-6.12-.92-3.89-2.14-7.79-4.58-11.68-2.44,3.89-3.66,7.79-4.58,11.68-.45,2.04-.77,4.07-.98,6.11-2.04.2-4.08.51-6.12.98-3.89.91-7.79,2.14-11.68,4.6,3.89,2.46,7.79,3.68,11.68,4.6,2.04.46,4.07.77,6.11.98Z" style="stroke-width: 0px;"/>
  <path d="M875.55,700.65c-4.71-6.75-4.64-15.74.18-22.41l55.27-76.51c2.77-3.83,1.91-9.19-1.93-11.95-3.83-2.77-9.18-1.91-11.96,1.93l-59.83,82.81-.19-.28c-.15-.22-.34-.39-.51-.59-30.39-39.62-77.13-63.14-127.56-63.53-.43,0-.86,0-1.3,0-54.45,0-104.93,27.02-135.21,72.45h0c-1.89,2.83-1.92,6.52-.07,9.38h0c21.72,33.72,54.48,57.66,91.93,68.34.13.04.26.07.4.11,13.82,3.9,28.26,6.02,43.03,6.14.43,0,.86,0,1.3,0,50.2,0,97-22.97,127.74-62.15,0,0,.02-.01.02-.02l.04-.05c.06-.07.11-.14.17-.21l58.51,83.74c1.67,2.38,4.33,3.66,7.03,3.66,1.69,0,3.4-.5,4.9-1.54,3.88-2.71,4.82-8.05,2.12-11.92l-54.06-77.37ZM613.24,683.09c19.15-24.51,45.31-41.95,74.62-50.29,20.22,37.03,18.76,72.89-4.45,109.28-27.7-9.15-52.23-26.52-70.21-50.29-1.95-2.58-1.95-6.14.04-8.69ZM729.09,749.41c-.38,0-.78,0-1.16,0-9.24-.07-18.35-1.03-27.22-2.78,22.91-38.71,24.42-78.18,4.49-117.63,7.39-1.15,14.91-1.75,22.53-1.75.38,0,.78,0,1.16,0,45.53.36,87.72,21.79,114.89,57.85l.02.03c1.72,2.45,1.69,5.73-.06,8.15l-.59.81c-27.51,34.89-69.26,55.32-114.06,55.32Z" style="stroke-width: 0px;"/>
  <path d="M952.83,604.28c-3.74-2.89-9.12-2.2-12.01,1.54-43.34,56.13-43.32,112.34.07,167.09,1.69,2.13,4.19,3.24,6.72,3.24,1.86,0,3.74-.6,5.31-1.85,3.71-2.94,4.33-8.32,1.39-12.03-38.39-48.45-38.37-96.21.07-145.99,2.89-3.74,2.2-9.12-1.54-12.01Z" style="stroke-width: 0px;"/>
  <circle cx="660.29" cy="673.19" r="10.28" style="stroke-width: 0px;"/>
  <path d="M405.27,610.11c-.43,0-.87,0-1.3,0-50.42.4-97.17,23.92-127.56,63.54-.17.2-.35.37-.5.59l-.19.28-59.83-82.81c-2.77-3.83-8.12-4.69-11.95-1.93-3.83,2.77-4.7,8.12-1.93,11.95l55.27,76.51c4.82,6.67,4.89,15.66.18,22.41l-54.06,77.37c-2.71,3.88-1.76,9.21,2.11,11.92,1.49,1.04,3.2,1.54,4.9,1.54,2.7,0,5.36-1.28,7.03-3.66l58.51-83.74c.06.07.11.14.17.21l.04.05s.01.01.02.02c30.74,39.18,77.54,62.15,127.74,62.15.43,0,.87,0,1.3,0,14.77-.12,29.22-2.23,43.04-6.14.13-.03.25-.06.38-.1,37.45-10.68,70.22-34.62,91.93-68.34h0c1.84-2.87,1.81-6.55-.07-9.39h0c-30.29-45.43-80.76-72.45-135.21-72.45ZM405.07,749.4c-.39,0-.77,0-1.16,0-44.79,0-86.56-20.45-114.06-55.34l-.58-.8c-1.75-2.43-1.78-5.7-.06-8.15h0c27.16-36.07,69.36-57.52,114.91-57.88.39,0,.77,0,1.16,0,7.62,0,15.14.6,22.53,1.75-19.93,39.45-18.42,78.92,4.49,117.63-8.87,1.76-17.97,2.71-27.22,2.78ZM449.59,742.07c-23.21-36.38-24.67-72.24-4.45-109.27,29.32,8.34,55.48,25.78,74.62,50.29,1.99,2.55,1.99,6.11.04,8.69-17.98,23.77-42.51,41.15-70.21,50.29Z" style="stroke-width: 0px;"/>
  <path d="M192.18,605.83c-2.89-3.74-8.27-4.44-12.01-1.54-3.74,2.89-4.43,8.27-1.54,12.01,38.44,49.79,38.46,97.54.07,145.99-2.94,3.71-2.31,9.09,1.39,12.03,1.57,1.25,3.45,1.85,5.31,1.85,2.52,0,5.03-1.11,6.72-3.24,43.38-54.75,43.4-110.97.07-167.09Z" style="stroke-width: 0px;"/>
  <circle cx="472.72" cy="673.19" r="10.28" transform="translate(-37.9 28.28) rotate(-3.29)" style="stroke-width: 0px;"/>
</svg>