<?xml version="1.0" encoding="UTF-8"?>
<svg id="Layer_1" data-name="Layer 1" xmlns="http://www.w3.org/2000/svg" viewBox="0 0 1209.04 1270.71">
  <path d="M1058.58,818.75s.01-.03.02-.05c.01-.03.03-.06.04-.09,4.14-10.2,7.93-20.49,11.26-30.58,5.78-17.43,10.64-35.58,14.46-53.97,2.92-14.09,5.22-28.38,6.84-42.42.17-1.39.33-2.77.47-4.1.65-5.87,1.18-11.7,1.58-17.29.3-4.02.52-7.7.67-11.18.43-8.08.65-16.5.65-25.02,0-23.21-1.65-46.54-4.9-69.35-.11-.93-.25-1.86-.39-2.77l-.18-1.23c-1.49-9.96-3.3-19.92-5.38-29.59-7.57-35.41-19.14-70.05-34.39-102.95-9.04-19.46-19.43-38.49-30.91-56.58-90.55-142.51-245.29-227.59-413.92-227.59s-323.36,85.08-413.92,227.59c-11.47,18.09-21.87,37.12-30.91,56.58-15.25,32.89-26.82,67.53-34.38,102.93-2.08,9.68-3.89,19.64-5.39,29.66l-.17,1.17c-.14.95-.28,1.9-.38,2.69-3.26,22.84-4.91,46.2-4.91,69.43,0,8.52.22,16.94.65,24.93.15,3.54.38,7.23.68,11.25.4,5.59.94,11.41,1.58,17.24.14,1.41.31,2.79.47,4.12,1.62,14.11,3.93,28.4,6.85,42.48,3.82,18.39,8.68,36.54,14.45,53.96,3.34,10.11,7.13,20.41,11.27,30.6.01.03.02.06.04.09,0,.01.01.03.02.04,1.01,2.48,2.02,4.95,3.06,7.38,5.84,13.72,12.49,27.49,19.76,40.92,9.82,18.16,20.93,35.9,33.01,52.7,6.35,8.84,13.06,17.54,19.93,25.85,6.75,8.22,13.93,16.37,21.32,24.21,2.47,2.63,4.96,5.22,7.52,7.83,1.46,1.48,2.9,2.94,4.34,4.36,21.96,21.77,45.95,41.47,71.3,58.55,17.49,11.82,35.93,22.59,54.79,31.99.64.35,1.29.67,1.95.99l.66.33c67.59,33.35,140.4,50.26,216.41,50.26,2.52,0,5.07-.02,7.53-.07,2.17-.03,4.33-.07,6.45-.14,71.01-1.98,139.11-18.81,202.45-50.05l.62-.31c.68-.34,1.37-.68,1.85-.94,18.78-9.37,37.25-20.15,54.89-32.05,25.37-17.09,49.36-36.79,71.29-58.53,1.35-1.32,2.67-2.67,4.01-4.03l.4-.41c2.52-2.56,5.01-5.15,7.46-7.76,7.42-7.86,14.6-16.01,21.31-24.2,6.9-8.34,13.62-17.04,19.96-25.87,12.08-16.8,23.18-34.53,33.01-52.7,7.27-13.42,13.92-27.19,19.75-40.9,1.06-2.45,2.06-4.93,3.07-7.41ZM559.1,367.93c2.15-2.15,5.49-2.5,8.06-.88,15.39,9.72,36.69,16.31,65.94,17.65.14,0,.28,0,.42,0,5.07,0,9.26-4.18,9.13-9.39-.12-4.84-4.28-8.66-9.12-8.89-20.46-.97-37.06-4.53-49.99-10.82-4-1.94-4.84-7.28-1.7-10.42l104.46-104.46c1.86-1.86,5.04-.39,4.82,2.24l-7.25,85.65c-.32,3.77,1.3,7.55,4.48,9.59,1.58,1.02,3.1,1.33,4.55,1.33,4.7,0,8.69-3.6,9.09-8.37l9.1-107.44c.26-3.08,4.19-4.27,6.08-1.82,20.27,26.29,31.58,59.82,29.23,96-4.59,70.79-61.73,127.92-132.53,132.49-39.28,2.53-75.43-11.02-102.58-34.66.02-.02.04-.03.06-.05l47.74-47.74ZM581.16,209.92c-4.75.4-8.7,4.24-8.75,9.01-.06,5.47,4.57,9.67,9.91,9.23l91.38-7.74c2.63-.22,4.1,2.95,2.24,4.82l-108.18,108.18c-2.99,2.99-8.06,2.41-10.17-1.25-6.58-11.4-9.54-25.72-9.04-43.14.15-5.04-3.82-9.25-8.87-9.4-5.04-.11-9.25,3.83-9.4,8.87-.57,19.58,2.87,41.1,15.69,58.84,1.89,2.61,1.67,6.19-.61,8.47l-46.94,46.94s-.08.1-.12.15c-23.24-26.12-37.04-60.83-35.91-98.71,2.21-74.14,62.13-134.74,136.24-137.75,34.2-1.39,65.87,9.4,91.08,28.34,2.49,1.87,1.31,5.84-1.79,6.1l-106.76,9.04ZM137.28,699.68h74.12c4.77,0,9.03-3.49,9.49-8.24.52-5.45-3.75-10.04-9.09-10.04h-76.68c-.43-4.25-.81-8.45-1.11-12.52-.29-3.85-.5-7.35-.65-10.79-.42-7.76-.63-15.85-.63-24.04,0-19.68,1.23-39.44,3.68-59h61.51c4.77,0,9.03-3.49,9.49-8.24.52-5.45-3.75-10.04-9.09-10.04h-59.21c1.21-7.36,2.54-14.69,4.08-21.85,7.28-34.08,18.42-67.42,33.09-99.07,8.7-18.74,18.71-37.07,29.76-54.48,72.82-114.6,188.75-190.58,319.57-212.52-49.39,28.03-82.56,81.45-81.52,142.42,1.51,88.4,72.79,158.09,161.2,157.67,88.13-.41,159.7-72.24,159.7-160.46,0-59.8-32.91-112.03-81.54-139.63,130.82,21.94,246.75,97.92,319.57,212.51,11.05,17.41,21.06,35.74,29.76,54.48,14.67,31.66,25.81,64.99,33.09,99.08,1.54,7.17,2.87,14.5,4.08,21.84h-43.65c-4.77,0-9.03,3.49-9.49,8.24-.52,5.45,3.75,10.04,9.09,10.04h46.73c2.44,19.47,3.68,39.28,3.68,59,0,8.2-.21,16.29-.63,24.13-.15,3.38-.36,6.88-.65,10.73-.29,4.05-.68,8.24-1.1,12.49h-89.6c-4.77,0-9.03,3.49-9.49,8.24-.52,5.45,3.75,10.04,9.09,10.04h87.83c-1.41,10.22-3.19,20.5-5.29,30.67-3.68,17.7-8.36,35.17-13.92,51.94-2.25,6.8-4.72,13.7-7.36,20.59-.73,1.9-2.57,3.15-4.6,3.15h-80.9l28.3-18.9c9.32-1.27,17.84-3.96,25.5-8.11,24.62-13.38,30.72-36.82,30.97-37.81,1.22-4.89-1.75-9.86-6.65-11.08-4.89-1.22-9.85,1.75-11.08,6.65-.04.17-4.61,16.75-21.97,26.19-17.53,9.52-41.96,9.03-72.6-1.48-31.24-10.71-66.07-29.2-102.94-48.78-8.09-4.3-16.31-8.66-24.65-13.02h119.36c4.77,0,9.03-3.49,9.49-8.24.52-5.45-3.75-10.04-9.09-10.04h-155.74c-48.27-23.55-99.41-43.78-150.83-48.16-2.31-.2-4.09-2.1-4.09-4.41v-33.54c0-2.91,3.25-4.64,5.66-3.01l58.25,39.34-73.05-141.5-73.04,141.5,58.24-39.34c2.41-1.63,5.66.1,5.66,3.01v33.54c0,2.32-1.78,4.22-4.09,4.41-51.42,4.38-102.56,24.61-150.83,48.16h-171.7c-4.77,0-9.03,3.49-9.49,8.24-.52,5.45,3.75,10.04,9.09,10.04h136.1c-8.33,4.36-16.55,8.72-24.65,13.02-36.87,19.58-71.7,38.07-102.94,48.78-30.46,10.44-54.79,11-72.3,1.64-17.54-9.37-22.07-25.61-22.28-26.4-1.25-4.86-6.18-7.81-11.07-6.6-4.9,1.22-7.87,6.19-6.65,11.08.25.99,6.35,24.44,30.97,37.81,7.66,4.16,16.2,6.85,25.53,8.12l28.29,18.9h-80.92c-2.04,0-3.87-1.25-4.6-3.15-2.64-6.89-5.11-13.78-7.37-20.6-5.56-16.76-10.24-34.23-13.91-51.93-2.11-10.16-3.88-20.43-5.29-30.67ZM651.14,963.85v-34.49l-37.48-29.42v-198.98c0-2.64,2.29-4.72,4.91-4.43,55.95,6.22,95.86,28.24,134.52,49.61,44.7,24.71,90.54,50.06,159.62,50.06,6.17,0,12.54-.21,19.11-.65,3.24-.21,4.67,4.01,1.97,5.81l-260.75,174.2c-9.36,6.25-21.9-.46-21.9-11.71ZM595.38,1010.48l-19.19,20.73v-92.98l19.19-15.08v87.33ZM284.61,807.6s0,0,0,0h-.01s0-.01,0-.02l-9.31-6.22c-2.7-1.8-1.27-6.02,1.97-5.81,6.56.43,12.92.65,19.08.65,69.07,0,114.93-25.35,159.62-50.07,38.66-21.38,78.57-43.39,134.52-49.61,2.62-.29,4.91,1.79,4.91,4.43v198.96l-37.46,29.45v34.49c0,11.25-12.55,17.96-21.9,11.71l-251.41-167.95ZM595.38,656.12v17.48c0,2.29-1.75,4.19-4.03,4.42-61,6.12-103.28,29.48-144.24,52.12-46.62,25.78-91.21,50.38-161.35,47.59,31.8-11.28,66.24-29.55,102.64-48.89,62.58-33.23,132.98-70.59,202.15-77.17,2.6-.25,4.84,1.83,4.84,4.44ZM820.64,728.84c36.41,19.33,70.85,37.6,102.65,48.89-70.15,2.79-114.74-21.81-161.36-47.59-40.96-22.65-83.24-46-144.24-52.12-2.28-.23-4.03-2.13-4.03-4.42v-17.48c0-2.61,2.24-4.69,4.84-4.44,69.17,6.58,139.57,43.94,202.15,77.17ZM609.65,563.7s-.03-.02-.04-.03l-5.09-3.44-5.09,3.44s-.03.02-.04.03l-18.86,12.74,23.99-46.48,23.99,46.48-18.87-12.74ZM613.66,939.8v-16.64l19.21,15.08v92.99l-19.21-20.74v-70.68ZM189.36,858.36c-4.82-8.9-9.33-17.95-13.51-27.04-1.51-3.27.85-7.01,4.45-7.01h83.46c8.46,0,16.73,2.51,23.76,7.21l148.41,99.15h-195.93c-1.49,0-2.91-.67-3.85-1.84-5.16-6.43-10.21-13.04-15.02-19.74-11.63-16.18-22.32-33.24-31.77-50.73ZM948.16,957.31c-2.37,2.53-4.77,5.02-7.17,7.47l-.39.39c-1.28,1.29-2.53,2.57-3.84,3.85-21.14,20.96-44.24,39.93-68.67,56.39-16.98,11.46-34.76,21.84-53.02,30.95-.54.29-1.09.56-1.64.83l-.62.31c-60.91,30.04-126.46,46.24-194.87,48.15-2.04.07-4.07.11-6.17.14-2.41.04-4.85.07-7.26.07-73.17,0-143.26-16.28-208.29-48.36l-.72-.35c-.48-.24-.96-.47-1.43-.73l-.29-.15c-18.2-9.07-35.97-19.44-52.85-30.85-24.42-16.45-47.52-35.42-68.68-56.41-1.39-1.37-2.77-2.77-4.18-4.2-2.42-2.46-4.81-4.95-7.21-7.5l-.08-.08c-2.95-3.13-.73-8.26,3.57-8.26h185.96c8.46,0,16.73,2.51,23.76,7.21l77.6,51.84c3.91,2.61,6.26,7.01,6.26,11.71v58.17l46.6-50.35,46.62,50.34v-58.16c0-4.7,2.35-9.1,6.26-11.71l77.59-51.84c7.03-4.7,15.3-7.21,23.76-7.21h185.91c4.31,0,6.54,5.16,3.58,8.29l-.07.08ZM1019.68,858.36c-9.46,17.49-20.15,34.55-31.77,50.73-4.8,6.69-9.84,13.29-15.02,19.73-.94,1.16-2.35,1.84-3.85,1.84h-195.91l148.41-99.15c7.03-4.7,15.3-7.21,23.76-7.21h83.44c3.6,0,5.96,3.74,4.45,7.01-4.19,9.09-8.7,18.14-13.52,27.04Z" style="stroke-width: 0px;"/>
  <polygon points="257.9 193.21 258.9 200.4 273.57 189.7 267.03 186.55 249.87 163.02 264.82 152.12 281.98 175.65 282.98 182.83 297.65 172.13 291.02 169.05 251.45 114.8 250.54 107.55 235.87 118.25 242.41 121.4 259.64 145.02 244.69 155.92 227.46 132.3 226.46 125.12 211.79 135.82 218.33 138.97 257.9 193.21" style="stroke-width: 0px;"/>
  <path d="M331.06,138.89c3.46,6.83,7.81,8.59,14.84,5.03l17.22-8.72c7.03-3.56,8.28-8.17,4.82-14.99l-26.02-51.35c-3.46-6.83-7.91-8.54-14.94-4.98l-17.22,8.72c-7.03,3.56-8.18,8.11-4.72,14.94l26.02,51.35ZM318.63,77.97l7.34-3.72c3.26-1.65,5.77-.49,7.37,2.67l23.02,45.44c1.6,3.16,1.05,5.87-2.21,7.52l-7.34,3.72c-3.26,1.65-5.67.44-7.27-2.72l-23.02-45.44c-1.6-3.16-1.15-5.82,2.11-7.47Z" style="stroke-width: 0px;"/>
  <path d="M415.76,105.88l-1.33,7.13,17.31-5.49-5.2-5.06-8.83-27.87,4.03-1.28c4.79-1.52,7.26-.14,10.05,4.12l12.72,19.34.41,6.58,17.97-5.69-6.72-4.58-17.97-25.34c4.96-2.89,6.07-7.31,3.96-13.96l-6.25-19.71c-2.31-7.3-6.32-9.74-13.83-7.36l-31.79,10.08,5.2,5.06,20.29,64.02ZM417.97,37.24c4.57-1.45,7.36.54,8.74,4.9l3.62,11.43c1.38,4.36.25,7.59-4.33,9.04l-11,3.49-8.04-25.37,11-3.49Z" style="stroke-width: 0px;"/>
  <path d="M500.35,78.08c1.13,7.57,4.7,10.62,12.49,9.46l19.09-2.84c7.79-1.16,10.44-5.13,9.31-12.7l-8.47-56.93c-1.13-7.57-4.81-10.6-12.6-9.44l-19.09,2.84c-7.79,1.16-10.32,5.11-9.2,12.68l8.47,56.93ZM507.8,16.35l8.13-1.21c3.61-.54,5.63,1.36,6.15,4.86l7.49,50.38c.52,3.5-.85,5.9-4.47,6.44l-8.13,1.21c-3.61.54-5.52-1.37-6.04-4.88l-7.49-50.38c-.52-3.5.74-5.88,4.36-6.42Z" style="stroke-width: 0px;"/>
  <path d="M599.76,79.93l19.3.31c7.88.13,11.13-3.36,11.26-11.01l.29-17.81c.07-4.45-1.81-7.91-5.89-10.15l-18.67-10.58c-3.85-2.12-4.85-3.85-4.77-8.53l.12-7.65c.06-3.54,1.81-5.68,5.46-5.62l7.19.12c3.65.06,5.22,2.25,5.16,5.79l-.14,8.56,10.87,6,.29-17.7c.12-7.65-3.02-11.24-10.89-11.37L601.4,0c-7.88-.13-11.02,3.36-11.14,11.01l-.26,16.21c-.07,4.45,1.59,7.91,5.66,10.26l18.79,10.47c3.85,2.23,4.84,3.96,4.77,8.64l-.15,9.13c-.06,3.54-1.8,5.68-5.46,5.62l-8.45-.14c-3.54-.06-5.22-2.25-5.16-5.79l.17-10.73-10.87-6-.32,19.87c-.12,7.65,2.9,11.24,10.78,11.37Z" style="stroke-width: 0px;"/>
  <path d="M685.09,85.81l18.71,3.04c7.78,1.26,11.5-1.72,12.73-9.27l3.9-24.01-11.77,4.1-2.42,14.88c-.57,3.49-2.61,5.36-6.21,4.77l-8.12-1.32c-3.61-.59-4.84-2.99-4.27-6.48l8.18-50.27c.57-3.49,2.49-5.38,6.1-4.79l8.12,1.32c3.61.59,4.95,3,4.38,6.5l-2.93,18.04,11.77-4.1,2.51-15.44c1.23-7.55-1.36-11.56-9.14-12.83l-18.71-3.04c-7.78-1.26-11.39,1.73-12.62,9.29l-9.24,56.81c-1.23,7.55,1.25,11.54,9.03,12.81Z" style="stroke-width: 0px;"/>
  <path d="M769.75,105.05l18.32,6.07c7.48,2.48,11.63.12,14.04-7.14l18.11-54.63c2.41-7.26.49-11.63-6.99-14.11l-18.32-6.07c-7.48-2.48-11.52-.09-13.93,7.17l-18.11,54.63c-2.41,7.26-.6,11.59,6.88,14.07ZM774.53,91.36l16.03-48.34c1.11-3.36,3.31-4.92,6.78-3.77l7.8,2.59c3.47,1.15,4.41,3.75,3.3,7.11l-16.03,48.35c-1.11,3.36-3.42,4.88-6.89,3.73l-7.81-2.59c-3.47-1.15-4.3-3.71-3.19-7.07Z" style="stroke-width: 0px;"/>
  <path d="M855.77,132.98l13.03-25.15,16.23,8.4c7,3.62,11.37,1.9,14.89-4.9l10.5-20.29c3.52-6.8,2.41-11.36-4.59-14.98l-29.31-15.18.1,7.26-30.89,59.64-5.98,4.1,16.13,8.35-.1-7.26ZM885.56,75.47l9.94,5.15c4.26,2.21,4.82,5.59,2.73,9.64l-6.04,11.66c-2.05,3.96-5.19,5.55-9.45,3.34l-9.94-5.15,12.76-24.65Z" style="stroke-width: 0px;"/>
  <polygon points="956.03 186.48 943.39 184.6 931.41 175.85 947.17 154.27 957.87 162.08 961.47 168.39 970.22 156.4 963.12 154.89 952.43 147.07 968.19 125.49 980.18 134.25 985.81 145.72 994.5 133.82 961.48 109.7 960.48 116.88 920.86 171.11 914.32 174.26 947.34 198.38 956.03 186.48" style="stroke-width: 0px;"/>
  <path d="M1205.14,564.89c-15.35-134.59-76.71-261.71-172.79-357.92-3.56-3.57-9.35-3.57-12.92-.01-3.57,3.57-3.58,9.35,0,12.92,93.17,93.31,152.68,216.57,167.56,347.07,2.51,22.12,3.78,44.7,3.78,67.11,0,11.79-.35,23.55-1.03,34.98-.42,7.13-.95,14.08-1.57,20.65-3.91,41.67-12.33,82.96-25.02,122.74-.76,2.41-1.54,4.82-2.35,7.23-13.41,40.18-31.27,79.02-53.1,115.44-7.17,11.95-14.86,23.78-22.83,35.16-13.76,19.61-28.8,38.49-44.71,56.12-3.38,3.75-3.09,9.52.66,12.9,1.75,1.58,3.93,2.35,6.12,2.35,2.49,0,4.98-1.02,6.79-3.02,16.41-18.18,31.92-37.65,46.11-57.87,8.22-11.73,16.14-23.93,23.54-36.25,22.51-37.56,40.94-77.62,54.76-119.04.84-2.5,1.66-5.02,2.44-7.51,13.08-41,21.76-83.57,25.79-126.54.65-6.78,1.2-13.95,1.63-21.29.71-11.78,1.07-23.92,1.07-36.07,0-23.1-1.31-46.37-3.9-69.17Z" style="stroke-width: 0px;"/>
  <path d="M101.37,935.1c-23.17-38.63-41.84-79.92-55.48-122.7-12.68-39.75-21.09-81.03-25.01-122.71-1.73-18.31-2.61-37.02-2.61-55.63,0-22.41,1.27-44.99,3.78-67.1,14.88-130.51,74.39-253.77,167.56-347.08,3.57-3.57,3.56-9.36,0-12.92-3.57-3.56-9.35-3.56-12.92.01C80.61,303.18,19.25,430.29,3.89,564.89c-2.58,22.8-3.89,46.07-3.89,69.17,0,19.18.9,38.47,2.69,57.34,4.04,42.98,12.72,85.56,25.79,126.55,14.07,44.13,33.32,86.71,57.22,126.55,20.03,33.42,43.46,65.09,69.62,94.11,1.8,2,4.29,3.02,6.79,3.02,2.18,0,4.37-.78,6.11-2.35,3.75-3.38,4.05-9.15.67-12.9-25.38-28.15-48.09-58.86-67.52-91.28Z" style="stroke-width: 0px;"/>
  <path d="M973.3,467.03c.26,2.64.66,5.28,1.26,7.92,1.18,5.04,2.77,10.07,5.95,15.11,3.18-5.04,4.77-10.07,5.95-15.11.6-2.63,1-5.27,1.26-7.9,2.63-.26,5.27-.66,7.9-1.26,5.04-1.18,10.07-2.77,15.11-5.95-5.04-3.18-10.07-4.77-15.11-5.95-2.64-.6-5.28-1-7.92-1.26-.27-2.63-.68-5.27-1.26-7.9-1.19-5.04-2.77-10.07-5.93-15.11-3.16,5.04-4.74,10.07-5.93,15.11-.58,2.64-.99,5.28-1.26,7.92-2.64.27-5.28.68-7.92,1.26-5.04,1.19-10.07,2.77-15.11,5.93,5.04,3.16,10.07,4.74,15.11,5.93,2.63.58,5.27.99,7.9,1.26Z" style="stroke-width: 0px;"/>
  <path d="M843.2,467.03c.26,2.64.66,5.28,1.26,7.92,1.18,5.04,2.77,10.07,5.95,15.11,3.18-5.04,4.77-10.07,5.95-15.11.6-2.63,1-5.27,1.26-7.9,2.63-.26,5.27-.66,7.9-1.26,5.04-1.18,10.07-2.77,15.11-5.95-5.04-3.18-10.07-4.77-15.11-5.95-2.64-.6-5.28-1-7.92-1.26-.27-2.63-.68-5.27-1.26-7.9-1.18-5.04-2.77-10.07-5.93-15.11-3.16,5.04-4.74,10.07-5.93,15.11-.58,2.64-.99,5.28-1.26,7.92-2.64.27-5.28.68-7.92,1.26-5.04,1.19-10.07,2.77-15.11,5.93,5.04,3.16,10.07,4.74,15.11,5.93,2.63.58,5.27.99,7.9,1.26Z" style="stroke-width: 0px;"/>
  <path d="M843.2,317.85c.26,2.64.66,5.28,1.26,7.92,1.18,5.04,2.77,10.07,5.95,15.11,3.18-5.04,4.77-10.07,5.95-15.11.6-2.63,1-5.27,1.26-7.9,2.63-.26,5.27-.66,7.9-1.26,5.04-1.18,10.07-2.77,15.11-5.95-5.04-3.18-10.07-4.77-15.11-5.95-2.64-.6-5.28-1-7.92-1.26-.27-2.63-.68-5.27-1.26-7.9-1.18-5.04-2.77-10.07-5.93-15.11-3.16,5.04-4.74,10.07-5.93,15.11-.58,2.64-.99,5.28-1.26,7.92-2.64.27-5.28.68-7.92,1.26-5.04,1.19-10.07,2.77-15.11,5.93,5.04,3.16,10.07,4.74,15.11,5.93,2.63.58,5.27.99,7.9,1.26Z" style="stroke-width: 0px;"/>
  <path d="M222.59,474.96c1.18,5.04,2.77,10.07,5.95,15.11,3.18-5.04,4.77-10.07,5.95-15.11.6-2.64,1-5.28,1.26-7.92,2.63-.27,5.27-.68,7.9-1.26,5.04-1.19,10.07-2.77,15.11-5.93-5.04-3.16-10.07-4.74-15.11-5.93-2.64-.58-5.28-.99-7.92-1.26-.27-2.64-.68-5.28-1.26-7.92-1.18-5.04-2.77-10.07-5.93-15.11-3.16,5.04-4.74,10.07-5.93,15.11-.58,2.63-.99,5.27-1.26,7.9-2.64.26-5.28.66-7.92,1.26-5.04,1.18-10.07,2.77-15.11,5.95,5.04,3.18,10.07,4.77,15.11,5.95,2.63.6,5.27,1,7.9,1.26.26,2.63.66,5.27,1.26,7.9Z" style="stroke-width: 0px;"/>
  <path d="M351.42,467.05c.26,2.63.66,5.27,1.26,7.9,1.18,5.04,2.77,10.07,5.95,15.11,3.18-5.04,4.77-10.07,5.95-15.11.6-2.64,1-5.28,1.26-7.92,2.63-.27,5.27-.68,7.9-1.26,5.04-1.19,10.07-2.77,15.11-5.93-5.04-3.16-10.07-4.74-15.11-5.93-2.64-.58-5.28-.99-7.92-1.26-.27-2.64-.68-5.28-1.26-7.92-1.19-5.04-2.77-10.07-5.93-15.11-3.16,5.04-4.74,10.07-5.93,15.11-.58,2.63-.99,5.27-1.26,7.9-2.64.26-5.28.66-7.92,1.26-5.04,1.18-10.07,2.77-15.11,5.95,5.04,3.18,10.07,4.77,15.11,5.95,2.63.6,5.27,1,7.9,1.26Z" style="stroke-width: 0px;"/>
  <path d="M351.42,317.87c.26,2.63.66,5.27,1.26,7.9,1.18,5.04,2.77,10.07,5.95,15.11,3.18-5.04,4.77-10.07,5.95-15.11.6-2.64,1-5.28,1.26-7.92,2.63-.27,5.27-.68,7.9-1.26,5.04-1.19,10.07-2.77,15.11-5.93-5.04-3.16-10.07-4.74-15.11-5.93-2.64-.58-5.28-.99-7.92-1.26-.27-2.64-.68-5.28-1.26-7.92-1.19-5.04-2.77-10.07-5.93-15.11-3.16,5.04-4.74,10.07-5.93,15.11-.58,2.63-.99,5.27-1.26,7.9-2.64.26-5.28.66-7.92,1.26-5.04,1.18-10.07,2.77-15.11,5.95,5.04,3.18,10.07,4.77,15.11,5.95,2.63.6,5.27,1,7.9,1.26Z" style="stroke-width: 0px;"/>
  <path d="M667.03,575.06h75.98c5.05,0,9.14-4.09,9.14-9.14s-4.09-9.14-9.14-9.14h-75.98c-5.05,0-9.14,4.09-9.14,9.14s4.09,9.14,9.14,9.14Z" style="stroke-width: 0px;"/>
  <path d="M805.18,575.06h149.23c5.05,0,9.14-4.09,9.14-9.14s-4.09-9.14-9.14-9.14h-149.23c-5.05,0-9.14,4.09-9.14,9.14s4.09,9.14,9.14,9.14Z" style="stroke-width: 0px;"/>
  <path d="M245.58,565.92c0,5.05,4.09,9.14,9.14,9.14h125.49c5.05,0,9.14-4.09,9.14-9.14s-4.09-9.14-9.14-9.14h-125.49c-5.05,0-9.14,4.09-9.14,9.14Z" style="stroke-width: 0px;"/>
  <path d="M453.19,575.06h85.56c5.05,0,9.14-4.09,9.14-9.14s-4.09-9.14-9.14-9.14h-85.56c-5.05,0-9.14,4.09-9.14,9.14s4.09,9.14,9.14,9.14Z" style="stroke-width: 0px;"/>
  <path d="M258.28,1069.57l-13.85-11.39c-6.09-5.01-10.72-4.23-15.58,1.69l-10.3,12.53c-2.83,3.44-3.68,7.18-1.95,11.56l8.19,19.9c1.62,4.14,1.33,6.12-1.65,9.74l-5.8,7.06c-2.25,2.73-4.95,3.32-7.77,1l-6.53-5.37c-2.74-2.25-2.68-5.01-.43-7.75l6.82-8.3-4.77-11.46-12.62,15.36c-4.86,5.91-4.73,10.61,1.36,15.61l14.91,12.26c6.09,5.01,10.81,4.3,15.67-1.61l11.32-13.77c2.83-3.44,3.5-7.32,1.71-11.61l-8.03-19.91c-1.7-4.06-1.4-6.03,1.57-9.65l4.86-5.91c2.25-2.73,4.95-3.32,7.77-1l5.56,4.57c2.82,2.32,2.68,5.01.43,7.75l-5.44,6.62,4.77,11.46,11.24-13.68c4.86-5.91,4.64-10.68-1.45-15.68Z" style="stroke-width: 0px;"/>
  <path d="M320.15,1112.32l-49.51,56.36-6.66,3.54,15.73,9.07.72-6.97,6.72-7.99,16.03,9.24-3.45,9.88-5.67,4.12,15.93,9.19-.17-7.48,23.98-71.09-13.66-7.87ZM306.39,1167.28l-13.66-7.87,28.85-34.26-15.2,42.13Z" style="stroke-width: 0px;"/>
  <path d="M420.66,1159.34l-18.1-6.7c-7.39-2.73-11.51-.48-14.17,6.69l-19.97,53.98c-2.66,7.18-.99,11.57,6.4,14.3l18.1,6.7c7.39,2.73,11.62.52,14.27-6.65l7.77-20.99,5.43-4.81-17.03-6.3.99,7.19-6.62,17.89c-1.23,3.32-3.59,4.76-7.02,3.49l-7.71-2.86c-3.43-1.27-4.17-3.86-2.95-7.18l17.67-47.77c1.23-3.32,3.48-4.8,6.91-3.53l8.03,2.97c3.43,1.27,4.28,3.9,3.05,7.22l-2.89,7.82,8.22,9.38,6.1-16.5c2.65-7.18.88-11.61-6.51-14.34Z" style="stroke-width: 0px;"/>
  <polygon points="479.2 1182.77 464.96 1248.39 460.25 1253.92 478 1257.77 476.01 1250.79 490.25 1185.17 494.95 1179.65 477.21 1175.79 479.2 1182.77" style="stroke-width: 0px;"/>
  <polygon points="534.72 1201.92 546.72 1195.72 550.24 1196.03 544.66 1261.12 540.7 1267.2 558.8 1268.75 555.93 1262.09 561.51 1196.99 565.04 1197.3 575.69 1205.43 577.01 1190.07 536.04 1186.56 534.72 1201.92" style="stroke-width: 0px;"/>
  <path d="M647.77,1188.77l-15.73.99-10.1,74.32-3.59,6.63,18.12-1.14-3.25-6.2,1.18-10.37,18.46-1.16,2.58,10.14-2.45,6.56,18.35-1.15-4.27-6.14-19.3-72.48ZM635.22,1244.13l5.11-44.49,10.62,43.5-15.73.99Z" style="stroke-width: 0px;"/>
  <path d="M756.9,1214.93c5.15-2.52,6.58-6.86,4.96-13.63l-4.81-20.11c-1.78-7.44-5.6-10.17-13.27-8.34l-32.44,7.76,4.82,5.42,15.62,65.32-1.85,7.02,17.66-4.22-4.82-5.42-6.8-28.44,4.11-.98c4.89-1.17,7.25.38,9.73,4.84l11.29,20.2-.07,6.59,18.33-4.38-6.38-5.05-16.1-26.57ZM745.14,1208.94l-11.22,2.68-6.19-25.88,11.22-2.68c4.67-1.12,7.3,1.07,8.37,5.51l2.79,11.66c1.06,4.44-.3,7.59-4.97,8.7Z" style="stroke-width: 0px;"/>
  <polygon points="817.41 1155.1 818.23 1147.89 801.35 1154.6 806.9 1159.28 831.7 1221.68 830.87 1228.89 847.75 1222.18 842.2 1217.51 817.41 1155.1" style="stroke-width: 0px;"/>
  <path d="M901.39,1112.58l-.2-7.25-15.46,8.85,6.15,3.85,29.34,51.25c1.76,3.07,1.35,5.81-1.82,7.62l-6.64,3.8c-3.17,1.82-5.74.79-7.5-2.29l-29.34-51.25-.21-7.25-15.76,9.02,6.25,3.79,30.98,54.12c3.8,6.64,8.24,8.18,15.08,4.27l16.06-9.19c6.84-3.92,7.86-8.58,4.06-15.22l-30.98-54.12Z" style="stroke-width: 0px;"/>
  <path d="M1006.18,1089.95c-2.83-3.44-6.51-4.85-11.06-3.92l-21.09,4.04c-4.31.88-6.19.21-9.16-3.41l-4.86-5.91c-2.25-2.73-2.3-5.5.52-7.82l5.56-4.57c2.82-2.32,5.44-1.66,7.69,1.07l5.44,6.62,12.17-2.47-11.25-13.67c-4.86-5.91-9.58-6.61-15.67-1.61l-13.85,11.39c-6.09,5.01-6.22,9.7-1.36,15.61l10.3,12.53c2.83,3.44,6.33,5,10.96,4.15l21.1-4.19c4.38-.79,6.26-.12,9.24,3.5l5.8,7.06c2.25,2.73,2.31,5.5-.52,7.82l-6.53,5.37c-2.73,2.25-5.44,1.66-7.69-1.07l-6.82-8.29-12.17,2.47,12.63,15.35c4.86,5.91,9.49,6.69,15.58,1.68l14.91-12.26c6.09-5.01,6.31-9.77,1.45-15.68l-11.32-13.76Z" style="stroke-width: 0px;"/>
</svg>