<?xml version="1.0" encoding="UTF-8"?>
<svg id="Layer_1" data-name="Layer 1" xmlns="http://www.w3.org/2000/svg" viewBox="0 0 1174.48 1248.88">
  <path d="M503.16,225.18c.06,0,5.55-.61,9.05,2.5,2.54,2.26,3.82,6.34,3.82,12.14v116.63c0,4.9,3.97,8.88,8.88,8.88s8.88-3.97,8.88-8.88v-116.63c0-1.45-.06-2.85-.17-4.21,7.47-4.21,17.99-8.09,23.27-5.7,2.73,1.23,4.51,4.76,5.3,10.49v116.05c0,4.9,3.97,8.88,8.88,8.88s8.88-3.97,8.88-8.88v-116.63l-.07-1.11c-.25-1.98-.59-3.82-1.01-5.52,6.5-3.25,14.54-5.76,18.92-3.78,3.44,1.55,4.87,6.72,5.47,10.99v115.91c-.37,12.13,2.78,21.92,9.14,28.32,4.79,4.83,11.02,7.36,18.05,7.36.25,0,.51,0,.76,0,11.66-.3,22.03-7.77,26.42-19.04,4.08-10.48,7.3-22.78,9.81-37.37l13.93,2.3-16.88-44.9-30.44,37.07,15.88,2.63c-2.3,13.34-5.21,24.48-8.84,33.82-1.76,4.51-5.91,7.62-10.33,7.74-2.41.07-4.28-.63-5.75-2.11-2.77-2.79-4.22-8.39-3.99-15.37v-116.93s-.07-1.11-.07-1.11c-2.02-16.08-9.76-22.74-15.89-25.5-11.94-5.36-26.3.06-34.83,4.47-2.02-1.82-4.12-3.09-6.06-3.96-12.23-5.51-27.29.18-36.39,4.87-1.17-1.6-2.49-3.08-4-4.39-9.52-8.26-21.65-6.8-23.01-6.61-4.85.69-8.28,5.2-7.58,10.05.69,4.85,5.13,8.23,9.99,7.54Z" style="fill: #1d1d1b; stroke-width: 0px;"/>
  <path d="M258.41,1032.67l-17.48-14.4c-7.68-6.33-13.53-5.35-19.68,2.11l-13.02,15.81c-3.58,4.34-4.66,9.06-2.49,14.59l10.32,25.13c2.04,5.23,1.67,7.73-2.09,12.29l-7.34,8.91c-2.84,3.45-6.26,4.19-9.82,1.25l-8.24-6.79c-3.45-2.84-3.38-6.33-.54-9.79l8.62-10.46-6.01-14.48-15.96,19.37c-6.15,7.46-5.98,13.39,1.7,19.71l18.81,15.5c7.68,6.33,13.64,5.45,19.79-2.01l14.31-17.37c3.58-4.34,4.44-9.24,2.17-14.66l-10.11-25.15c-2.13-5.12-1.76-7.62,2-12.18l6.15-7.46c2.84-3.45,6.26-4.19,9.82-1.26l7.01,5.78c3.56,2.94,3.38,6.33.54,9.79l-6.88,8.35,6.01,14.48,14.22-17.26c6.15-7.46,5.87-13.48-1.81-19.81Z" style="fill: #1d1d1b; stroke-width: 0px;"/>
  <path d="M366.39,1100.93l-21.54-10.44c-8.95-4.34-14.41-2.02-18.62,6.68l-31.71,65.41c-4.21,8.7-2.66,14.42,6.29,18.76l21.54,10.44c8.95,4.34,14.54,2.08,18.75-6.62l13.4-27.64-15.73.71-8.3,17.13c-1.95,4.02-5.09,5.55-9.25,3.53l-9.34-4.53c-4.15-2.01-4.77-5.36-2.82-9.38l28.06-57.88c1.95-4.02,4.96-5.61,9.12-3.59l9.34,4.53c4.15,2.01,4.9,5.42,2.95,9.45l-10.07,20.76,15.73-.71,8.62-17.78c4.21-8.7,2.53-14.48-6.42-18.82Z" style="fill: #1d1d1b; stroke-width: 0px;"/>
  <path d="M489.05,1139.61l-23.85-5.02c-9.74-2.05-14.47,1.53-16.46,10.98l-14.97,71.14c-1.99,9.46.9,14.64,10.64,16.68l23.86,5.02c9.74,2.05,14.61-1.5,16.6-10.95l14.97-71.14c1.99-9.46-1.04-14.67-10.78-16.71ZM485,1157.47l-13.24,62.96c-.92,4.38-3.6,6.61-8.12,5.66l-10.16-2.14c-4.52-.95-5.93-4.05-5.01-8.42l13.24-62.96c.92-4.38,3.46-6.64,7.98-5.69l10.16,2.14c4.52.95,6.07,4.08,5.15,8.45Z" style="fill: #1d1d1b; stroke-width: 0px;"/>
  <path d="M625.89,1201.71c7-1.86,9.84-6.88,9.5-15.67l-1.01-26.09c-.37-9.66-4.44-13.98-14.38-13.59l-42.09,1.62,4.64,7.9,3.26,84.75-4.01,8.24,22.92-.88-4.64-7.9-1.42-36.9,5.33-.21c6.34-.24,8.89,2.26,10.86,8.39l9.01,27.8-1.71,8.15,23.78-.92-6.65-7.83-13.4-36.87ZM612.79,1191.39l-14.56.56-1.29-33.59,14.56-.56c6.05-.23,8.78,3.12,9,8.89l.58,15.13c.22,5.77-2.24,9.32-8.29,9.56Z" style="fill: #1d1d1b; stroke-width: 0px;"/>
  <path d="M766.88,1133.28c-2.69-9.28-7.68-12.49-17.23-9.72l-40.03,11.61,6.41,6.55,23.61,81.45-1.91,8.96,22.02-6.38-6.41-6.55-9.96-34.35,22.16-6.42c9.56-2.77,12.05-8.15,9.36-17.43l-8.03-27.7ZM753.91,1170.38l-13.58,3.94-9.76-33.66,13.57-3.94c5.82-1.69,9.27.92,10.88,6.46l4.62,15.93c1.57,5.4.08,9.59-5.74,11.27Z" style="fill: #1d1d1b; stroke-width: 0px;"/>
  <polygon points="844.18 1091.86 844.26 1082.7 823.95 1093.34 831.53 1098.49 870.91 1173.6 870.82 1182.77 891.14 1172.12 883.55 1166.97 844.18 1091.86" style="fill: #1d1d1b; stroke-width: 0px;"/>
  <path d="M951.71,1021.81c-6.11-7.49-12.06-8.4-19.77-2.11l-18.89,15.4c-7.71,6.29-7.91,12.22-1.8,19.7l45.94,56.33c6.11,7.49,11.95,8.49,19.66,2.2l18.89-15.4c7.71-6.29,8.02-12.31,1.91-19.79l-45.94-56.33ZM983.24,1093.8l-8.05,6.56c-3.58,2.92-6.87,2.07-9.7-1.4l-40.65-49.85c-2.83-3.46-2.99-6.86.58-9.78l8.05-6.56c3.58-2.92,6.99-2.16,9.81,1.3l40.65,49.85c2.83,3.46,2.88,6.96-.7,9.87Z" style="fill: #1d1d1b; stroke-width: 0px;"/>
  <polygon points="250.53 187.69 251.5 194.67 265.75 184.28 259.4 181.22 242.73 158.36 257.25 147.77 273.92 170.63 274.89 177.61 289.14 167.21 282.7 164.22 244.26 111.52 243.38 104.48 229.13 114.87 235.48 117.93 252.21 140.87 237.7 151.46 220.96 128.52 219.98 121.54 205.74 131.94 212.09 134.99 250.53 187.69" style="fill: #1d1d1b; stroke-width: 0px;"/>
  <path d="M321.59,134.92c3.36,6.63,7.59,8.34,14.42,4.89l16.73-8.47c6.83-3.46,8.04-7.93,4.68-14.56l-25.27-49.88c-3.36-6.63-7.69-8.3-14.51-4.83l-16.73,8.47c-6.83,3.46-7.95,7.88-4.59,14.51l25.27,49.88ZM309.52,75.74l7.13-3.61c3.17-1.6,5.6-.48,7.16,2.59l22.36,44.14c1.55,3.07,1.02,5.7-2.14,7.31l-7.13,3.61c-3.17,1.6-5.51.43-7.06-2.64l-22.36-44.14c-1.55-3.07-1.12-5.65,2.05-7.25Z" style="fill: #1d1d1b; stroke-width: 0px;"/>
  <path d="M403.87,102.85l-1.3,6.93,16.82-5.33-5.05-4.92-8.58-27.08,3.91-1.24c4.65-1.48,7.06-.14,9.77,4l12.35,18.78.4,6.39,17.45-5.53-6.53-4.45-17.46-24.61c4.81-2.81,5.9-7.11,3.85-13.56l-6.07-19.14c-2.25-7.09-6.14-9.46-13.44-7.15l-30.89,9.79,5.05,4.92,19.71,62.19ZM406.02,36.18c4.44-1.41,7.15.53,8.49,4.76l3.52,11.11c1.34,4.23.24,7.37-4.2,8.78l-10.68,3.39-7.81-24.65,10.68-3.39Z" style="fill: #1d1d1b; stroke-width: 0px;"/>
  <path d="M486.05,75.85c1.09,7.35,4.56,10.31,12.13,9.19l18.55-2.76c7.57-1.13,10.14-4.99,9.04-12.34l-8.23-55.31c-1.09-7.35-4.67-10.3-12.24-9.17l-18.55,2.76c-7.57,1.13-10.03,4.97-8.93,12.32l8.22,55.31ZM493.29,15.88l7.9-1.17c3.51-.52,5.47,1.32,5.97,4.72l7.28,48.94c.51,3.4-.83,5.73-4.34,6.25l-7.9,1.18c-3.51.52-5.36-1.33-5.86-4.74l-7.28-48.94c-.51-3.4.72-5.72,4.23-6.24Z" style="fill: #1d1d1b; stroke-width: 0px;"/>
  <path d="M582.62,77.64l18.74.3c7.65.12,10.82-3.26,10.94-10.7l.28-17.3c.07-4.33-1.76-7.68-5.72-9.86l-18.14-10.28c-3.74-2.06-4.71-3.74-4.64-8.29l.12-7.43c.06-3.44,1.75-5.52,5.3-5.46l6.99.11c3.55.06,5.07,2.19,5.01,5.63l-.13,8.32,10.56,5.83.28-17.19c.12-7.43-2.93-10.92-10.58-11.04L584.21,0c-7.65-.12-10.7,3.27-10.82,10.7l-.26,15.75c-.07,4.33,1.54,7.68,5.5,9.96l18.25,10.17c3.74,2.17,4.71,3.85,4.63,8.4l-.14,8.87c-.05,3.44-1.75,5.52-5.3,5.46l-8.21-.13c-3.44-.06-5.07-2.19-5.01-5.63l.17-10.43-10.56-5.83-.31,19.3c-.12,7.43,2.82,10.92,10.47,11.04Z" style="fill: #1d1d1b; stroke-width: 0px;"/>
  <path d="M665.51,83.35l18.18,2.96c7.56,1.23,11.17-1.67,12.37-9l3.79-23.32-11.44,3.98-2.35,14.45c-.55,3.39-2.53,5.21-6.04,4.64l-7.88-1.28c-3.5-.57-4.7-2.9-4.15-6.29l7.94-48.84c.55-3.39,2.42-5.23,5.93-4.66l7.89,1.28c3.5.57,4.81,2.92,4.26,6.31l-2.85,17.52,11.44-3.98,2.44-15c1.19-7.34-1.32-11.23-8.88-12.46l-18.18-2.96c-7.56-1.23-11.06,1.68-12.26,9.02l-8.98,55.19c-1.19,7.34,1.21,11.21,8.77,12.44Z" style="fill: #1d1d1b; stroke-width: 0px;"/>
  <path d="M747.75,102.05l17.79,5.9c7.27,2.41,11.3.12,13.64-6.93l17.59-53.07c2.34-7.05.47-11.3-6.79-13.7l-17.79-5.9c-7.27-2.41-11.19-.09-13.53,6.97l-17.59,53.07c-2.34,7.06-.58,11.26,6.69,13.67ZM752.39,88.74l15.57-46.96c1.08-3.26,3.22-4.78,6.59-3.66l7.58,2.51c3.37,1.12,4.29,3.64,3.2,6.91l-15.57,46.96c-1.08,3.26-3.32,4.74-6.69,3.62l-7.58-2.51c-3.37-1.12-4.18-3.61-3.1-6.87Z" style="fill: #1d1d1b; stroke-width: 0px;"/>
  <path d="M831.31,129.18l12.65-24.43,15.76,8.16c6.8,3.52,11.04,1.84,14.46-4.76l10.2-19.71c3.42-6.6,2.34-11.03-4.46-14.55l-28.48-14.75.1,7.05-30,57.93-5.81,3.99,15.67,8.11-.1-7.05ZM860.24,73.31l9.65,5c4.14,2.14,4.69,5.43,2.65,9.37l-5.87,11.33c-1.99,3.84-5.04,5.39-9.18,3.24l-9.66-5,12.4-23.94Z" style="fill: #1d1d1b; stroke-width: 0px;"/>
  <polygon points="928.7 181.15 916.43 179.33 904.78 170.82 920.1 149.86 930.49 157.45 933.98 163.57 942.49 151.93 935.59 150.46 925.2 142.87 940.52 121.9 952.16 130.41 957.63 141.55 966.07 129.99 934 106.56 933.02 113.54 894.54 166.22 888.19 169.27 920.26 192.7 928.7 181.15" style="fill: #1d1d1b; stroke-width: 0px;"/>
  <path d="M1002.85,201.05c-3.46-3.47-9.08-3.48-12.55,0-3.47,3.46-3.47,9.08-.01,12.55,107.33,107.52,166.45,250.41,166.45,402.35,0,11.45-.34,22.88-1.01,33.98-2.91,49.85-12.37,99.08-28.12,146.31-17.36,52.02-42.17,101.25-73.76,146.29-13.36,19.04-27.98,37.38-43.44,54.52-3.28,3.64-3,9.25.64,12.54,1.7,1.53,3.82,2.29,5.94,2.29,2.42,0,4.84-.99,6.59-2.93,15.94-17.67,31.01-36.58,44.79-56.21,32.57-46.45,58.16-97.21,76.07-150.87,16.24-48.71,25.99-99.48,29-150.88.69-11.44,1.04-23.23,1.04-35.04,0-156.68-60.95-304.02-171.63-414.89Z" style="fill: #1d1d1b; stroke-width: 0px;"/>
  <path d="M17.75,615.94c0-151.94,59.11-294.83,166.44-402.35,3.46-3.47,3.46-9.09-.01-12.55-3.47-3.46-9.09-3.46-12.55.01C60.95,311.92,0,459.26,0,615.94c0,145.49,53.58,285.06,150.88,392.99,1.75,1.94,4.17,2.93,6.6,2.93,2.12,0,4.24-.75,5.94-2.28,3.64-3.28,3.93-8.89.65-12.54-94.36-104.66-146.32-240.01-146.32-381.1Z" style="fill: #1d1d1b; stroke-width: 0px;"/>
  <path d="M183.05,454.28c5.91,3.73,11.82,5.59,17.73,6.98,3.09.7,6.18,1.18,9.27,1.48.3,3.09.78,6.18,1.48,9.27,1.39,5.91,3.25,11.82,6.98,17.73,3.73-5.91,5.59-11.82,6.98-17.73.7-3.1,1.18-6.2,1.48-9.3,3.09-.32,6.18-.8,9.27-1.48,5.91-1.39,11.82-3.25,17.73-6.96-5.91-3.71-11.82-5.56-17.73-6.95-3.1-.68-6.2-1.17-9.3-1.48-.32-3.1-.8-6.2-1.48-9.3-1.39-5.91-3.25-11.82-6.95-17.73-3.71,5.91-5.56,11.82-6.95,17.73-.68,3.09-1.17,6.18-1.48,9.27-3.1.3-6.2.78-9.3,1.48-5.91,1.39-11.82,3.25-17.73,6.98Z" style="fill: #1d1d1b; stroke-width: 0px;"/>
  <path d="M362.74,462.74c.3,3.09.78,6.18,1.48,9.27,1.39,5.91,3.25,11.82,6.98,17.73,3.73-5.91,5.59-11.82,6.98-17.73.7-3.1,1.18-6.2,1.48-9.3,3.09-.32,6.18-.8,9.27-1.48,5.91-1.39,11.82-3.25,17.73-6.96-5.91-3.71-11.82-5.56-17.73-6.95-3.1-.68-6.2-1.17-9.3-1.48-.32-3.1-.8-6.2-1.48-9.3-1.39-5.91-3.25-11.82-6.95-17.73-3.71,5.91-5.56,11.82-6.95,17.73-.68,3.09-1.17,6.18-1.48,9.27-3.1.3-6.2.78-9.3,1.48-5.91,1.39-11.82,3.25-17.73,6.98,5.91,3.73,11.82,5.59,17.73,6.98,3.09.7,6.18,1.18,9.27,1.48Z" style="fill: #1d1d1b; stroke-width: 0px;"/>
  <path d="M362.74,287.64c.3,3.09.78,6.18,1.48,9.27,1.39,5.91,3.25,11.82,6.98,17.73,3.73-5.91,5.59-11.82,6.98-17.73.7-3.1,1.18-6.2,1.48-9.3,3.09-.32,6.18-.8,9.27-1.48,5.91-1.39,11.82-3.25,17.73-6.95-5.91-3.71-11.82-5.56-17.73-6.95-3.1-.68-6.2-1.17-9.3-1.48-.32-3.1-.8-6.2-1.48-9.3-1.39-5.91-3.25-11.82-6.95-17.73-3.71,5.91-5.56,11.82-6.95,17.73-.68,3.09-1.17,6.18-1.48,9.27-3.1.3-6.2.78-9.3,1.48-5.91,1.39-11.82,3.25-17.73,6.98,5.91,3.73,11.82,5.59,17.73,6.98,3.09.7,6.18,1.18,9.27,1.48Z" style="fill: #1d1d1b; stroke-width: 0px;"/>
  <path d="M940.24,462.71c.3,3.1.78,6.2,1.48,9.3,1.39,5.91,3.25,11.82,6.98,17.73,3.73-5.91,5.59-11.82,6.98-17.73.7-3.09,1.18-6.18,1.48-9.27,3.09-.3,6.18-.78,9.27-1.48,5.91-1.38,11.82-3.25,17.73-6.98-5.91-3.73-11.82-5.59-17.73-6.98-3.1-.7-6.2-1.18-9.3-1.48-.32-3.09-.8-6.18-1.48-9.27-1.39-5.91-3.25-11.82-6.95-17.73-3.71,5.91-5.56,11.82-6.95,17.73-.68,3.1-1.17,6.2-1.48,9.3-3.1.32-6.2.8-9.3,1.48-5.91,1.39-11.82,3.25-17.73,6.95,5.91,3.71,11.82,5.56,17.73,6.96,3.09.68,6.18,1.17,9.27,1.48Z" style="fill: #1d1d1b; stroke-width: 0px;"/>
  <path d="M787.56,462.71c.3,3.1.78,6.2,1.48,9.3,1.38,5.91,3.25,11.82,6.98,17.73,3.73-5.91,5.59-11.82,6.98-17.73.7-3.09,1.18-6.18,1.48-9.27,3.09-.3,6.18-.78,9.27-1.48,5.91-1.38,11.82-3.25,17.73-6.98-5.91-3.73-11.82-5.59-17.73-6.98-3.1-.7-6.2-1.18-9.3-1.48-.32-3.09-.8-6.18-1.48-9.27-1.39-5.91-3.25-11.82-6.96-17.73-3.71,5.91-5.56,11.82-6.95,17.73-.68,3.1-1.17,6.2-1.48,9.3-3.1.32-6.2.8-9.3,1.48-5.91,1.39-11.82,3.25-17.73,6.95,5.91,3.71,11.82,5.56,17.73,6.96,3.09.68,6.18,1.17,9.27,1.48Z" style="fill: #1d1d1b; stroke-width: 0px;"/>
  <path d="M787.56,287.61c.3,3.1.78,6.2,1.48,9.3,1.38,5.91,3.25,11.82,6.98,17.73,3.73-5.91,5.59-11.82,6.98-17.73.7-3.09,1.18-6.18,1.48-9.27,3.09-.3,6.18-.78,9.27-1.48,5.91-1.38,11.82-3.25,17.73-6.98-5.91-3.73-11.82-5.59-17.73-6.98-3.1-.7-6.2-1.18-9.3-1.48-.32-3.09-.8-6.18-1.48-9.27-1.39-5.91-3.25-11.82-6.96-17.73-3.71,5.91-5.56,11.82-6.95,17.73-.68,3.1-1.17,6.2-1.48,9.3-3.1.32-6.2.8-9.3,1.48-5.91,1.39-11.82,3.25-17.73,6.95,5.91,3.71,11.82,5.56,17.73,6.96,3.09.68,6.18,1.17,9.27,1.48Z" style="fill: #1d1d1b; stroke-width: 0px;"/>
  <path d="M1063.2,606.97c-.06-3.14-.15-6.27-.27-9.4-.68-17.78-2.34-35.5-4.96-52.89,0-.04-.01-.07-.02-.11l-1.12-7.45h-.08c-18.12-108.62-73.84-208.08-157.53-280.76-86.49-75.11-197.29-116.47-311.99-116.47s-225.5,41.36-311.99,116.47c-83.69,72.68-139.41,172.14-157.53,280.76h-.08l-1.14,7.55c-3.53,23.38-5.31,47.36-5.31,71.26,0,5.2.09,10.34.26,15.38h-.01s.05,1.19.05,1.19c.09,2.58.2,5.14.33,7.64.15,3.44.37,7.02.66,10.94,1.25,17.15,3.44,34.24,6.5,50.98h-.15s2.28,11.02,2.28,11.02c6.33,30.57,15.75,60.66,28.02,89.44,1.7,3.99,3.46,7.97,5.27,11.92,2.74,5.97,5.65,11.86,8.64,17.72,2.62,5.13,5.31,10.21,8.12,15.25,8.85,15.87,18.6,31.27,29.22,46.07,0,.01.02.02.02.03l6.56,9.13.1-.12c12.49,16.53,26.12,32.35,40.66,47.14l6.34,6.45.08-.08c20.75,20.31,43.3,38.75,67.11,54.78.02.01.04.03.06.04l6.25,4.21.04-.05c77.25,50.38,166.84,76.97,259.62,76.97,2.45,0,4.92-.02,7.32-.06,2.1-.03,4.21-.07,6.27-.14,87.85-2.44,172.76-28.97,246.04-76.77l.04.04,6.3-4.25c23.82-16.05,46.39-34.49,67.11-54.79l.08.08,6.34-6.45c14.54-14.79,28.17-30.61,40.66-47.14l.1.12,6.59-9.17c20.4-28.4,37.64-59,51.26-90.94,1.53-3.6,3.02-7.22,4.47-10.85,7.22-18.19,13.32-36.84,18.23-55.76.36-1.39.68-2.8,1.03-4.2.6-2.39,1.21-4.79,1.77-7.19.89-3.81,1.73-7.62,2.52-11.44l2.28-11.02h-.15c3.06-16.74,5.25-33.83,6.5-50.96.29-3.9.51-7.48.65-10.86,0,0,0,0,0-.01,0-.02,0-.05,0-.07l.39-8.84h-.04c.17-5.06.28-10.18.28-15.38,0-2.99-.03-5.98-.08-8.97ZM932.08,818.4c0,25.35,8.34,49.96,23.58,70.09-1.45,1.96-2.88,3.92-4.36,5.86-.43.56-.85,1.11-1.27,1.67-2.73,3.53-5.52,7.02-8.36,10.48-.53.64-1.06,1.28-1.59,1.92-2.87,3.46-5.79,6.89-8.77,10.27-.41.46-.82.92-1.23,1.38-3.04,3.42-6.11,6.8-9.25,10.13-.1.11-.21.22-.31.34-27.33-31.02-42.27-70.49-42.27-112.12,0-92.41,74.18-167.82,166.13-169.82-.03.42-.05.8-.08,1.22-1.3,17.88-3.71,35.69-7.06,53.08-59.52,5.44-105.16,54.86-105.16,115.52ZM900.11,950.8c-1.73,1.62-3.46,3.23-5.22,4.82-.98.89-1.97,1.76-2.96,2.64-1.6,1.43-3.21,2.85-4.83,4.26-1.06.92-2.14,1.83-3.21,2.74-1.56,1.33-3.13,2.65-4.71,3.96-1.13.93-2.26,1.85-3.39,2.77-1.55,1.26-3.11,2.51-4.68,3.75-1.17.92-2.33,1.84-3.51,2.74-1.56,1.21-3.13,2.41-4.71,3.6-1.19.9-2.38,1.79-3.57,2.67-1.59,1.17-3.19,2.33-4.79,3.48-1.2.86-2.4,1.73-3.61,2.58-.43.3-.86.59-1.29.89-42-48.04-65.04-109.28-65.04-173.32,0-143.09,114.65-259.92,256.91-263.44.02.13.04.25.05.38.13.97.24,1.95.37,2.93.22,1.72.43,3.43.63,5.16.12,1.09.24,2.19.35,3.29.17,1.62.34,3.23.5,4.86.11,1.13.21,2.27.31,3.4.14,1.59.28,3.19.4,4.79.09,1.14.17,2.28.25,3.42.11,1.61.22,3.22.32,4.84.07,1.12.14,2.24.19,3.36.09,1.67.16,3.35.23,5.02.04,1.06.09,2.11.13,3.17.06,1.85.11,3.69.15,5.54.02.89.05,1.77.07,2.66.05,2.73.08,5.46.08,8.19,0,5.03-.11,10-.28,14.92-102.14,1.53-184.76,85.04-184.76,187.54,0,46.42,16.83,90.39,47.55,124.8-1.84,1.8-3.67,3.6-5.54,5.36-.8.76-1.61,1.49-2.41,2.24ZM725.36,299.68c0,76.16-61.96,138.12-138.12,138.12s-138.12-61.96-138.12-138.12,61.96-138.12,138.12-138.12,138.12,61.96,138.12,138.12ZM488.38,179.3c-35.48,29.17-57.9,73.67-56.99,123.29,1.57,85.74,70.84,153.36,156.59,152.96,85.61-.4,155.13-70.17,155.13-155.87,0-48.43-22.21-91.74-56.97-120.34-4.52-3.72-.99-10.97,4.71-9.63,165.67,39.03,300.34,169.27,341.56,337.07,3.81,15.52-6.86,30.8-22.69,32.97-137,18.78-242.89,136.57-242.89,278.64,0,57.73,17.55,113.33,50.02,160.1,9.17,13.22,5.05,31.51-9.05,39.26-59.01,32.46-124.51,51.45-192.21,55.59-2.04.12-3.36-2.15-2.23-3.85.19-.29.38-.59.56-.89l37.57-64.26-20.9-33.45,12.84-6.86-46.25-38.03,5.93,59.59,11.8-6.31,15.85,25.37-32.15,55c-.46.79-1.16.98-1.66,1-.49.02-1.21-.11-1.74-.85l-40.02-56.45c-1.04-1.46-1.27-3.34-.6-5.01l39.29-99.39c1.07-2.7,1.61-5.57,1.61-8.48v-63.03l56.07,12.43-8.91,72.71,19.07-75.61,1.01-3.99-4.45-1.59-60.27-21.54c-.33-.12-.72-.23-1.07-.31-.49-.11-.97-.15-1.46-.17v-42.1l8.97-14.27c.24,0,.48.04.73.03l76.81-4.68,37.95,52.32-32.53-58.71-.96-1.74-2.48-.15-68.75-4.19,3.11-4.95c3.11-4.94,5.88-10.15,8.24-15.46l14.3-32.18c.56.07,1.13.11,1.71.07l79.93-4.6,2.56-.15,1.03-1.79,36.95-64.56-42.6,57.84-72.8-4.19c2.21-7.44,3.58-15.11,4.07-22.91.65-10.46,1.12-23.28.66-35.08l40.31-1.48,4.47-.16,1.85-3.48,58.29-109.62,1.03-1.94-1.45-1.37-54.48-51.17,49.09,53.41-62.73,99.58-38.07-1.4c-.19-1.06-.39-2.09-.6-3.07-2.64-11.88-13.88-23.92-25.91-33.83.05-.05.11-.09.15-.14l9.11-10.32,4.2-4.75-2.51-3.76-30.78-46.09,15.97,46.41-7.69,5.15c-.61.41-1.22.93-1.73,1.51-.37.42-.68.87-.95,1.33-9.3-6.39-17.06-10.77-19.06-11.88-.04-.02-.08-.03-.12-.05-.32-.17-.65-.29-.98-.42-.22-.08-.42-.19-.64-.25-.31-.09-.62-.13-.94-.19-.25-.05-.5-.12-.75-.14-.33-.03-.66-.01-.99,0-.24,0-.47-.02-.71,0-.32.03-.64.11-.96.18-.24.05-.49.08-.73.15-.26.08-.5.2-.75.3-.3.12-.6.23-.88.38-.04.02-.09.03-.13.05-1.94,1.07-9.28,5.21-18.19,11.28-.61-.85-1.35-1.62-2.27-2.24l-7.69-5.15,15.97-46.41-30.78,46.09-2.51,3.76,4.2,4.75,8.71,9.86c-12.3,10.02-23.94,22.31-26.64,34.43-.22,1-.42,2.05-.61,3.12l-36.77,1.35-62.73-99.58,49.09-53.41-54.48,51.17-1.45,1.37,1.03,1.94,58.29,109.62,1.85,3.48,4.47.16,39.02,1.43c-.47,11.81,0,24.66.66,35.13.49,7.83,1.87,15.52,4.09,22.98l-71.54,4.12-42.6-57.84,36.95,64.56,1.03,1.79,2.56.15,79.93,4.6c.15,0,.3,0,.46,0l14.27,32.11c2.37,5.34,5.13,10.51,8.24,15.46l3.16,5.02-67.52,4.11-2.48.15-.96,1.74-32.53,58.71,37.95-52.32,76.25,4.64,8.98,14.27v42.27c-.41.08-.83.16-1.24.31l-60.27,21.54-4.45,1.59,1.01,3.99,19.07,75.61-8.91-72.71,54.79-12.15v62.75c0,.67-.13,1.33-.37,1.95l-39.29,99.39c-2.88,7.27-1.89,15.43,2.63,21.8l40.02,56.45s.02.03.03.05c1.21,1.7.08,4.07-2.01,4.03-74.82-1.36-147.28-20.7-212.15-56.43-14.06-7.74-18.12-26.02-8.97-39.21,32.47-46.78,50.02-102.38,50.02-160.12,0-142.07-105.89-259.87-242.89-278.64-15.83-2.17-26.5-17.45-22.69-32.97,41.22-167.81,175.91-298.06,341.59-337.08,5.67-1.34,9.23,5.9,4.73,9.6ZM539.2,641.9c-1.42-22.74-.98-40.79,1.25-50.82,2.87-12.9,28.22-31.66,46.14-42.23,17.92,10.57,43.28,29.33,46.15,42.23,2.23,10.04,2.67,28.09,1.25,50.82-.64,10.17-3.07,20.06-7.22,29.4l-16.43,36.97c-2.02,4.54-4.39,8.99-7.05,13.22l-16.7,26.55-16.7-26.55c-2.65-4.21-5.02-8.66-7.05-13.22l-16.43-36.97c-4.15-9.34-6.58-19.24-7.22-29.4ZM323.48,990.77c-1.14-.81-2.28-1.63-3.42-2.44-1.66-1.19-3.31-2.39-4.96-3.61-1.16-.86-2.32-1.73-3.47-2.6-1.6-1.21-3.2-2.43-4.79-3.66-1.16-.9-2.31-1.8-3.46-2.71-1.58-1.25-3.15-2.51-4.71-3.78-1.13-.91-2.25-1.83-3.37-2.76-1.58-1.31-3.15-2.63-4.71-3.96-1.08-.92-2.16-1.83-3.23-2.76-1.62-1.4-3.22-2.83-4.82-4.25-.99-.88-1.98-1.75-2.96-2.64-1.75-1.59-3.48-3.2-5.21-4.82-.81-.75-1.62-1.49-2.42-2.25-1.86-1.76-3.69-3.55-5.52-5.35,30.73-34.41,47.55-78.39,47.55-124.8,0-102.49-82.63-186-184.76-187.54-.16-4.91-.27-9.87-.27-14.92,0-2.73.03-5.46.08-8.19.02-.88.04-1.76.07-2.65.04-1.85.09-3.7.16-5.56.04-1.04.09-2.08.13-3.13.07-1.69.15-3.39.24-5.08.06-1.1.12-2.19.19-3.28.1-1.65.21-3.3.32-4.95.08-1.1.16-2.2.25-3.3.13-1.66.27-3.31.42-4.96.1-1.08.19-2.15.29-3.22.16-1.71.34-3.41.53-5.12.11-1.01.21-2.02.33-3.02.21-1.86.44-3.72.68-5.57.11-.84.2-1.69.32-2.53.02-.14.04-.29.06-.43,142.26,3.52,256.91,120.34,256.91,263.44,0,64.04-23.04,125.28-65.04,173.32-.46-.32-.92-.63-1.37-.95ZM253.55,930.09c-3.08-3.27-6.11-6.6-9.1-9.96-.44-.49-.88-.98-1.32-1.48-2.95-3.35-5.84-6.75-8.7-10.18-.56-.67-1.11-1.34-1.67-2.02-2.82-3.43-5.59-6.89-8.3-10.4-.45-.58-.89-1.17-1.34-1.75-1.47-1.92-2.89-3.87-4.32-5.81,15.24-20.12,23.58-44.74,23.58-70.09,0-60.66-45.64-110.07-105.16-115.52-3.34-17.39-5.75-35.2-7.06-53.1-.03-.41-.06-.8-.09-1.2,91.94,1.99,166.13,77.4,166.13,169.82,0,41.63-14.95,81.1-42.27,112.12-.13-.14-.27-.29-.4-.43ZM207.74,872.97c-.45-.67-.89-1.35-1.34-2.02-1.76-2.63-3.51-5.27-5.22-7.94-.76-1.18-1.49-2.37-2.23-3.56-1.37-2.18-2.74-4.37-4.07-6.57-.81-1.34-1.6-2.69-2.4-4.03-1.24-2.09-2.46-4.18-3.66-6.29-.8-1.4-1.59-2.81-2.37-4.21-1.17-2.1-2.31-4.2-3.45-6.31-.76-1.41-1.51-2.82-2.25-4.24-1.14-2.18-2.25-4.37-3.35-6.57-.68-1.35-1.37-2.71-2.03-4.07-1.18-2.42-2.33-4.85-3.47-7.28-.54-1.15-1.1-2.3-1.63-3.46-1.65-3.6-3.25-7.21-4.8-10.84-1.39-3.25-2.73-6.53-4.04-9.81-.42-1.06-.82-2.13-1.24-3.19-.87-2.24-1.74-4.48-2.58-6.73-.47-1.27-.93-2.54-1.39-3.81-.75-2.08-1.49-4.16-2.22-6.25-.46-1.33-.91-2.67-1.36-4-.69-2.07-1.37-4.14-2.03-6.21-.43-1.33-.85-2.66-1.26-4-.67-2.16-1.31-4.32-1.94-6.48-.36-1.25-.74-2.49-1.09-3.74-.71-2.5-1.39-5.02-2.06-7.53-.24-.91-.5-1.82-.73-2.73-.85-3.29-1.66-6.58-2.44-9.89,47.69,7.04,83.55,47.71,83.55,97.21,0,19.61-5.87,38.7-16.72,54.85-.06-.09-.13-.18-.19-.27ZM1004.21,806.42c-.53,1.15-1.08,2.29-1.61,3.43-1.14,2.45-2.29,4.89-3.48,7.31-.66,1.35-1.34,2.69-2.02,4.03-1.11,2.22-2.23,4.43-3.38,6.63-.73,1.39-1.47,2.78-2.21,4.17-1.15,2.15-2.31,4.28-3.5,6.41-.77,1.38-1.54,2.75-2.32,4.12-1.22,2.15-2.47,4.29-3.73,6.42-.77,1.3-1.54,2.61-2.32,3.91-1.36,2.25-2.76,4.49-4.16,6.72-.72,1.15-1.43,2.3-2.16,3.44-1.74,2.72-3.53,5.42-5.33,8.11-.41.62-.81,1.24-1.23,1.86-.06.1-.13.19-.2.28-10.84-16.15-16.72-35.24-16.72-54.85,0-49.5,35.86-90.17,83.55-97.21-.78,3.32-1.59,6.63-2.45,9.94-.21.8-.43,1.6-.65,2.4-.69,2.62-1.4,5.24-2.14,7.85-.35,1.22-.71,2.43-1.07,3.64-.64,2.19-1.29,4.38-1.96,6.56-.41,1.33-.84,2.66-1.26,3.99-.66,2.07-1.33,4.13-2.02,6.19-.45,1.35-.91,2.7-1.37,4.04-.71,2.06-1.45,4.12-2.19,6.17-.47,1.3-.93,2.6-1.42,3.89-.82,2.21-1.67,4.4-2.53,6.6-.43,1.11-.85,2.22-1.29,3.33-1.31,3.28-2.64,6.54-4.03,9.79-1.55,3.64-3.16,7.25-4.8,10.85Z" style="fill: #1d1d1b; stroke-width: 0px;"/>
</svg>