<?xml version="1.0" encoding="UTF-8"?>
<svg id="Layer_1" data-name="Layer 1" xmlns="http://www.w3.org/2000/svg" viewBox="0 0 1192.91 1270.16">
  <path d="M628.75,256.61c-.09-.01-.16-.02-.21-.01l.16.02s.04,0,.05,0Z" style="stroke-width: 0px;"/>
  <path d="M564.38,256.62c-.05,0-.12,0-.21.01.02,0,.04,0,.05,0l.16-.02Z" style="stroke-width: 0px;"/>
  <path d="M504.19,223.34c3.02,1.2,5.45,3.34,7.5,5.87.54.58.98,1.31,1.47,1.97l1.51,2.16c1.08,1.58,2.2,3.13,3.37,4.62,2.31,3.02,4.75,5.9,7.29,8.7,5.08,5.61,10.53,10.85,16.57,15.73,3.05,2.43,6.23,4.72,9.88,6.86,1.84,1.07,3.78,2.07,6.14,2.93.45.16.92.3,1.4.45-11.33,12.21-18.5,30.1-18.5,50.01,0,36.71,24.34,66.57,54.26,66.57s54.26-29.86,54.26-66.57c0-19.6-6.94-37.24-17.97-49.44,1.39-.26,2.57-.62,3.66-1,2.36-.87,4.31-1.86,6.15-2.93,3.65-2.14,6.83-4.44,9.88-6.86,6.03-4.88,11.49-10.12,16.57-15.73,2.54-2.8,4.98-5.68,7.29-8.7,1.17-1.49,2.29-3.03,3.37-4.62l1.5-2.17c.48-.66.93-1.39,1.47-1.97,2.05-2.53,4.47-4.67,7.48-5.87,2.99-1.08,6.67-1.19,10.09.34-2.55-2.73-6.6-4.34-10.79-4.11-4.19.24-8.23,2.05-11.51,4.48-.89.57-1.61,1.25-2.39,1.92l-2.16,1.91-4.01,3.48c-2.73,2.28-5.51,4.51-8.33,6.68-5.65,4.32-11.44,8.47-17.29,12.1-2.92,1.79-5.86,3.52-8.68,4.78-1.4.62-2.77,1.18-3.88,1.48-.41.1-.76.17-1.02.19.08,0,.15.02.26.04l-.31-.04c-.05,0-.14.02-.17.02-.18.02-.16-.03.01-.04l-1.53-.18c-10.18-.35-20.37-.47-30.55-.5l-15.28.13c-5.09.13-10.18.17-15.28.38l-1.53.18c.17,0,.18.06,0,.04-.04,0-.12-.01-.17-.02l-.31.04c.11-.03.18-.03.26-.04-.26-.03-.61-.09-1.03-.2-1.11-.3-2.48-.86-3.88-1.48-2.83-1.26-5.76-3-8.68-4.78-5.85-3.64-11.64-7.79-17.29-12.1-2.82-2.17-5.61-4.4-8.33-6.68l-4.01-3.49-2.16-1.91c-.77-.67-1.5-1.35-2.39-1.92-3.27-2.44-7.31-4.24-11.5-4.49-4.18-.23-8.23,1.38-10.79,4.1,3.42-1.54,7.09-1.43,10.09-.35ZM595.06,274.1c19.98,0,36.23,21.78,36.23,48.54s-16.25,48.54-36.23,48.54-36.23-21.78-36.23-48.54,16.25-48.54,36.23-48.54Z" style="stroke-width: 0px;"/>
  <path d="M1041.44,815.12c20.83-48.9,33.36-100.65,37.23-153.8.87-11.74,1.31-23.75,1.31-35.71,0-129.16-50.29-250.58-141.62-341.9-91.32-91.32-212.75-141.62-341.9-141.62s-250.58,50.29-341.9,141.62c-91.32,91.32-141.62,212.75-141.62,341.9,0,11.97.44,23.99,1.31,35.7,3.87,53.16,16.4,104.91,37.23,153.82,24.61,57.7,59.75,109.44,104.46,153.78,91.15,90.43,212.08,140.23,340.51,140.23s249.37-49.8,340.51-140.23c44.71-44.34,79.86-96.08,104.47-153.78ZM1009.31,802.57h-247.44l-5.31-4.95c47.93-14.6,81.48-35.91,99.68-63.43,12.66-19.15,17.82-40.81,15.42-64.53h158.71c16,0,28.23,14.31,25.7,30.11-4.67,29.19-12.12,57.79-22.26,85.55-3.77,10.32-13.51,17.24-24.5,17.24ZM715.06,807.65c-3.04,5.38-5.1,11.26-6.16,17.48-1.33,7.96-2.91,15.58-4.69,22.61-.51,1.99-1.07,4.02-1.65,6.08l-.32.47s.11.06.16.1c-6.4,22.25-17.56,47.49-36.18,54.73-9.05,3.53-15.17,12.25-15.6,22.24-.3,7.27-1.22,18.3-3.89,29.57-5.78,24.57-16.76,38.66-32.62,41.89h-35.3c-15.87-3.23-26.84-17.32-32.63-41.9-2.67-11.25-3.59-22.28-3.89-29.57-.43-9.98-6.56-18.7-15.61-22.23-26.68-10.39-38.19-57.07-42.68-83.99-1.05-6.2-3.12-12.08-6.15-17.46l-15.71,8.85c2.01,3.56,3.38,7.47,4.08,11.59.68,4.1,1.47,8.33,2.37,12.61l-.91-1.35c-15.57,10.46-45.17,6.98-65.17,2.47l37.67-35.12c3.99-3.72,10.14-3.81,14.24-.23,3.06,2.67,5.67,5.87,7.71,9.51l15.73-8.81c-1.86-3.32-4.05-6.37-6.49-9.18,9.4-5.58,20.98-16.44,30.31-35.55,1.91-3.9.99-8.76-2.49-11.37-4.7-3.53-11.17-1.79-13.6,3.23-10.89,22.45-24.16,29.46-28.37,30.55-1.21-.34-2.48-.42-3.72-.24-2.48-1.15-5.04-2.19-7.72-2.97-16.16-4.7-30.5-10.16-43.06-16.32,5.68-4.69,11.53-11.73,16.4-21.68,1.91-3.9.97-8.76-2.51-11.36-4.7-3.52-11.16-1.77-13.59,3.24-6.42,13.24-14.09,18.07-16.97,19.17-.76-.13-1.53-.14-2.3-.07-35.61-23.35-50.45-54.58-43.22-92.26.37-1.94.8-3.84,1.26-5.7.76,2.61,1.69,5.15,2.78,7.62,22.62,51.41,106.84,55.02,155.01,52.59,11.62-.57,23.29-4.7,33.77-11.92,12.34-8.5,42.61-13.36,53.88-14.59h18.46c11.26,1.23,41.54,6.09,53.87,14.59,10.48,7.23,22.16,11.35,33.76,11.93,48.2,2.41,132.4-1.18,155.02-52.58,1.09-2.47,2.02-5.01,2.78-7.63.46,1.86.88,3.76,1.26,5.7,7.23,37.67-7.59,68.89-43.18,92.24-.63-.03-1.27,0-1.9.1-2.86-1.08-10.4-5.83-16.78-18.76-2.08-4.21-6.93-6.56-11.35-4.96-5.12,1.85-7.39,7.65-5.07,12.42,4.84,9.99,10.68,17.08,16.36,21.81-12.63,6.22-27.08,11.73-43.37,16.46-2.56.76-5.02,1.69-7.36,2.76-5.52-2.1-17.22-9.9-26.95-29.75-2.06-4.2-6.94-6.5-11.34-4.89-5.1,1.86-7.36,7.66-5.05,12.42,8.03,16.56,17.99,27.41,27.05,33.74-3.26,3.36-6.1,7.13-8.4,11.26l15.75,8.77s.04-.08.06-.11c3.31-5.89,11.4-6.91,16.35-2.31l30.32,28.26c-15.75,3.53-37.73,6.49-53.94,2.33,1.14-5.16,2.19-10.51,3.11-16.02.7-4.14,2.07-8.05,4.08-11.61l-15.71-8.85ZM369.52,669.67h453.87c-28.27,30.48-97.95,30.77-129.18,29.2-8.26-.41-16.71-3.44-24.43-8.76-18.53-12.77-58.21-17.25-62.68-17.72l-20.37-.05-.94.05c-4.46.47-44.15,4.96-62.68,17.73-7.71,5.32-16.16,8.35-24.43,8.76-31.22,1.57-100.89,1.29-129.16-29.2ZM736.75,304.38c0,77.36-62.94,140.29-140.29,140.29s-140.29-62.93-140.29-140.29,62.93-140.29,140.29-140.29,140.29,62.93,140.29,140.29ZM130.97,625.61c0-215.26,146.87-396.82,345.66-449.82,9.33-2.49,15.87,8.95,8.98,15.71-29.9,29.34-48.24,70.41-47.45,115.69,1.52,87.14,71.9,155.92,159.05,155.52,86.95-.41,157.57-71.27,157.57-158.32,0-44.22-18.23-84.24-47.57-112.98-6.83-6.7-.14-18.08,9.1-15.61,198.77,53.01,345.63,234.57,345.63,449.81v.26c0,14.27-11.74,25.77-26.01,25.77h-167.51c-6.56-25.88-19.38-44.21-19.97-45.04l-30.05-42.35,14.01,50c4.01,14.3,4.43,26.84,1.33,37.39h-474.6c-3.09-10.55-2.67-23.08,1.33-37.39l14.01-50-30.05,42.35c-.59.83-13.4,19.15-19.97,45.04h-167.51c-14.27,0-26-11.5-26.01-25.77v-.26ZM162.55,669.67h158.71c-2.41,23.72,2.75,45.38,15.42,64.53,16.96,25.65,47.27,45.9,90.1,60.35l-8.6,8.02h-234.57c-10.98,0-20.73-6.92-24.5-17.24-10.14-27.76-17.58-56.36-22.26-85.55-2.53-15.8,9.71-30.11,25.7-30.11ZM216.49,820.6h182.34l-31.58,29.44,14.42,4.79c1.7.57,28.64,9.36,56,9.35,12.31,0,24.69-1.81,34.91-6.92,8.25,29.78,22.6,58.93,47.56,68.64,2.35.92,4.02,3.42,4.14,6.2.05,1.23.12,2.56.21,3.98.6,9.44-6.96,17.4-16.42,17.4h-230.97c-7.16,0-14.01-2.95-18.94-8.16-24.74-26.14-46.19-54.77-64.14-85.59-10.1-17.35,2.39-39.14,22.48-39.14ZM596.46,1091.1c-89.19,0-174.61-24.95-248.23-71.52-22.07-13.96-12.29-48.06,13.83-48.06h158.12c5.89,0,11.12,3.68,13.24,9.18,8.77,22.75,23.41,36.49,42.94,40.01l.79.14h38.62l.79-.14c19.53-3.52,34.17-17.26,42.94-40.01,2.12-5.5,7.35-9.18,13.24-9.18h158.12c26.11,0,35.89,34.1,13.83,48.06-73.62,46.58-159.04,71.52-248.23,71.52ZM684.85,953.48c-9.46,0-17.02-7.96-16.42-17.4.09-1.41.16-2.74.21-3.96.12-2.8,1.78-5.29,4.13-6.21,20.4-7.94,35.95-29.58,46.31-64.35,7.35,1.88,15.27,2.65,23.17,2.65,27.42,0,54.53-8.86,56.13-9.39l14.42-4.79-31.58-29.43h195.21c20.08,0,32.58,21.78,22.48,39.14-17.95,30.82-39.4,59.45-64.14,85.59-4.92,5.2-11.77,8.16-18.94,8.16h-230.97Z" style="stroke-width: 0px;"/>
  <polygon points="218.28 1035.08 236.77 1037.55 240.52 1040.68 182.73 1109.98 173.43 1113.74 192.7 1129.8 194.72 1119.99 252.51 1050.69 256.27 1053.82 261.9 1071.45 275.54 1055.1 231.92 1018.72 218.28 1035.08" style="stroke-width: 0px;"/>
  <path d="M358.68,1105.5l-61.73,83.23-8.76,5.64,22.69,10.7.2-9.68,8.34-11.77,23.12,10.9-3.63,13.99-7.33,6.31,22.98,10.83-1.09-10.28,24.91-100.58-19.7-9.28ZM346.01,1182.73l-19.7-9.28,35.81-50.45-16.12,59.73Z" style="stroke-width: 0px;"/>
  <path d="M523.67,1165.12l-12.75,80.56c-.76,4.83-3.57,7.42-8.56,6.63l-10.44-1.65c-4.99-.79-6.85-4.12-6.09-8.95l12.75-80.56,6.06-7.99-24.78-3.92,3.45,9.49-13.46,85.08c-1.65,10.44,1.79,15.93,12.54,17.64l25.24,3.99c10.75,1.7,15.88-2.44,17.53-12.88l13.46-85.08,6.05-7.99-24.31-3.84,3.29,9.46Z" style="stroke-width: 0px;"/>
  <path d="M691.62,1214.39c7.44-2.72,10.03-8.47,8.79-18.01l-3.7-28.32c-1.37-10.48-6.23-14.78-17.02-13.37l-45.68,5.96,5.84,8.15,12.01,91.99-3.55,9.37,24.87-3.25-5.84-8.15-5.23-40.05,5.79-.75c6.88-.9,9.91,1.57,12.67,8.05l12.59,29.38-1.05,9.05,25.81-3.37-8.03-7.86-18.27-38.82ZM676.32,1204.45l-15.8,2.06-4.76-36.45,15.8-2.06c6.57-.86,9.88,2.53,10.69,8.79l2.15,16.43c.82,6.26-1.51,10.38-8.08,11.24Z" style="stroke-width: 0px;"/>
  <path d="M843.73,1111.31l.72-10-22.48,10.03,7.92,6.14,33.23,74.49c1.99,4.47,1.05,8.17-3.56,10.23l-9.65,4.31c-4.61,2.06-7.99.28-9.99-4.18l-33.23-74.5.72-10-22.91,10.22,8.07,6.08,35.09,78.67c4.31,9.66,10.19,12.39,20.13,7.95l23.34-10.41c9.94-4.43,11.99-10.7,7.68-20.36l-35.09-78.67Z" style="stroke-width: 0px;"/>
  <path d="M1009.21,1069.86c-3.97-4.7-9.07-6.59-15.35-5.21l-29.05,5.96c-5.93,1.29-8.54.4-12.72-4.54l-6.82-8.07c-3.16-3.74-3.28-7.55.57-10.81l7.59-6.42c3.86-3.26,7.48-2.39,10.63,1.34l7.64,9.04,16.76-3.63-15.78-18.68c-6.82-8.07-13.35-8.96-21.67-1.93l-18.92,15.99c-8.31,7.03-8.41,13.51-1.59,21.58l14.46,17.11c3.97,4.7,8.83,6.79,15.21,5.53l29.07-6.18c6.03-1.17,8.64-.28,12.82,4.66l8.15,9.64c3.16,3.74,3.28,7.55-.57,10.81l-8.92,7.54c-3.73,3.16-7.48,2.39-10.63-1.34l-9.57-11.33-16.76,3.63,17.72,20.97c6.82,8.07,13.23,9.06,21.55,2.03l20.37-17.21c8.32-7.03,8.53-13.61,1.71-21.69l-15.88-18.8Z" style="stroke-width: 0px;"/>
  <polygon points="254.46 190.64 255.45 197.73 269.92 187.17 263.47 184.06 246.54 160.85 261.29 150.09 278.22 173.3 279.21 180.39 293.68 169.84 287.14 166.8 248.09 113.27 247.2 106.12 232.72 116.67 239.17 119.78 256.17 143.08 241.43 153.84 224.43 130.54 223.44 123.45 208.96 134.01 215.41 137.11 254.46 190.64" style="stroke-width: 0px;"/>
  <path d="M326.64,137.04c3.41,6.73,7.71,8.48,14.64,4.96l16.99-8.61c6.94-3.51,8.17-8.06,4.76-14.79l-25.67-50.66c-3.41-6.73-7.81-8.43-14.74-4.91l-16.99,8.61c-6.94,3.51-8.07,8.01-4.66,14.74l25.67,50.66ZM314.38,76.93l7.24-3.67c3.22-1.63,5.69-.48,7.27,2.63l22.71,44.83c1.58,3.12,1.04,5.79-2.18,7.42l-7.24,3.67c-3.22,1.63-5.59.43-7.17-2.68l-22.72-44.83c-1.58-3.12-1.14-5.74,2.08-7.37Z" style="stroke-width: 0px;"/>
  <path d="M410.21,104.47l-1.32,7.04,17.08-5.41-5.13-4.99-8.72-27.5,3.97-1.26c4.73-1.5,7.17-.14,9.92,4.07l12.55,19.08.4,6.49,17.73-5.62-6.63-4.52-17.73-25c4.89-2.85,5.99-7.22,3.91-13.77l-6.16-19.45c-2.28-7.2-6.24-9.61-13.65-7.26l-31.37,9.94,5.13,4.99,20.02,63.17ZM412.39,36.74c4.51-1.43,7.26.54,8.62,4.83l3.58,11.28c1.36,4.3.25,7.49-4.27,8.92l-10.85,3.44-7.93-25.03,10.85-3.44Z" style="stroke-width: 0px;"/>
  <path d="M493.68,77.04c1.11,7.47,4.63,10.48,12.32,9.33l18.84-2.8c7.69-1.14,10.3-5.06,9.19-12.53l-8.35-56.17c-1.11-7.47-4.75-10.46-12.44-9.32l-18.84,2.8c-7.69,1.14-10.19,5.05-9.07,12.51l8.35,56.17ZM501.03,16.13l8.02-1.19c3.57-.53,5.55,1.34,6.07,4.79l7.39,49.71c.51,3.46-.84,5.82-4.41,6.35l-8.02,1.19c-3.57.53-5.44-1.36-5.96-4.81l-7.39-49.71c-.51-3.45.73-5.8,4.3-6.34Z" style="stroke-width: 0px;"/>
  <path d="M591.76,78.86l19.04.31c7.77.13,10.98-3.32,11.11-10.86l.28-17.58c.07-4.39-1.79-7.8-5.81-10.01l-18.43-10.44c-3.8-2.09-4.78-3.8-4.71-8.42l.12-7.55c.06-3.49,1.78-5.61,5.39-5.55l7.1.12c3.61.06,5.15,2.22,5.09,5.72l-.14,8.45,10.72,5.92.28-17.46c.12-7.55-2.98-11.09-10.75-11.22L593.38,0c-7.77-.13-10.87,3.32-10.99,10.87l-.26,16c-.07,4.39,1.56,7.8,5.58,10.12l18.54,10.33c3.79,2.2,4.78,3.91,4.71,8.53l-.15,9.01c-.05,3.49-1.78,5.61-5.39,5.55l-8.34-.14c-3.49-.06-5.15-2.22-5.09-5.72l.17-10.59-10.72-5.92-.32,19.6c-.12,7.55,2.86,11.09,10.64,11.22Z" style="stroke-width: 0px;"/>
  <path d="M675.95,84.66l18.46,3c7.67,1.25,11.35-1.69,12.56-9.14l3.85-23.69-11.62,4.05-2.39,14.68c-.56,3.45-2.57,5.29-6.13,4.71l-8.01-1.3c-3.56-.58-4.77-2.95-4.21-6.39l8.07-49.6c.56-3.45,2.46-5.31,6.02-4.73l8.01,1.3c3.56.58,4.88,2.96,4.32,6.41l-2.89,17.79,11.62-4.05,2.48-15.24c1.21-7.45-1.34-11.41-9.01-12.65l-18.46-3c-7.67-1.25-11.24,1.71-12.45,9.16l-9.12,56.05c-1.21,7.45,1.23,11.39,8.91,12.64Z" style="stroke-width: 0px;"/>
  <path d="M759.49,103.65l18.07,5.99c7.38,2.45,11.47.12,13.85-7.04l17.87-53.9c2.37-7.17.48-11.47-6.9-13.92l-18.07-5.99c-7.38-2.45-11.37-.09-13.74,7.08l-17.87,53.9c-2.38,7.17-.59,11.44,6.79,13.89ZM764.2,90.14l15.81-47.7c1.1-3.32,3.27-4.85,6.69-3.72l7.7,2.55c3.42,1.13,4.35,3.7,3.26,7.01l-15.81,47.7c-1.1,3.31-3.38,4.82-6.8,3.68l-7.7-2.55c-3.42-1.13-4.25-3.66-3.15-6.98Z" style="stroke-width: 0px;"/>
  <path d="M844.36,131.21l12.85-24.82,16.01,8.29c6.9,3.58,11.21,1.87,14.69-4.83l10.36-20.02c3.47-6.71,2.38-11.21-4.53-14.78l-28.92-14.98.1,7.16-30.47,58.84-5.91,4.05,15.91,8.24-.1-7.16ZM873.74,74.46l9.81,5.08c4.2,2.18,4.76,5.51,2.69,9.51l-5.96,11.51c-2.02,3.9-5.12,5.47-9.32,3.3l-9.81-5.08,12.59-24.32Z" style="stroke-width: 0px;"/>
  <polygon points="943.28 183.99 930.81 182.14 918.98 173.5 934.54 152.21 945.09 159.92 948.64 166.14 957.28 154.31 950.28 152.82 939.72 145.11 955.28 123.82 967.11 132.46 972.66 143.77 981.23 132.03 948.66 108.24 947.66 115.32 908.58 168.83 902.13 171.93 934.7 195.73 943.28 183.99" style="stroke-width: 0px;"/>
  <path d="M1018.59,204.21c-3.52-3.52-9.22-3.53-12.75-.01-3.52,3.52-3.53,9.23-.01,12.75,109.02,109.2,169.06,254.33,169.06,408.66,0,11.63-.34,23.24-1.02,34.52-2.96,50.64-12.57,100.64-28.56,148.61-17.63,52.84-42.83,102.83-74.92,148.59-13.57,19.34-28.42,37.97-44.12,55.37-3.33,3.7-3.04,9.4.65,12.73,1.72,1.56,3.88,2.32,6.04,2.32,2.46,0,4.91-1,6.7-2.98,16.19-17.94,31.5-37.15,45.49-57.09,33.08-47.19,59.08-98.74,77.26-153.24,16.49-49.47,26.4-101.04,29.45-153.24.7-11.62,1.05-23.59,1.05-35.59,0-159.13-61.91-308.79-174.33-421.4Z" style="stroke-width: 0px;"/>
  <path d="M18.03,625.61c0-154.33,60.04-299.46,169.06-408.66,3.52-3.52,3.51-9.23-.01-12.75-3.52-3.52-9.23-3.51-12.75.01C61.91,316.82,0,466.47,0,625.61c0,147.78,54.43,289.53,153.25,399.16,1.78,1.97,4.23,2.98,6.7,2.98,2.15,0,4.31-.77,6.03-2.32,3.7-3.33,3.99-9.03.66-12.73-95.84-106.31-148.61-243.78-148.61-387.08Z" style="stroke-width: 0px;"/>
  <path d="M230.51,452.84c-.32-3.15-.81-6.29-1.51-9.44-1.41-6-3.3-12.01-7.06-18.01-3.77,6-5.65,12.01-7.06,18.01-.69,3.14-1.18,6.28-1.5,9.42-3.15.31-6.3.79-9.44,1.51-6,1.41-12.01,3.3-18.01,7.09,6,3.79,12.01,5.68,18.01,7.09,3.14.71,6.28,1.19,9.42,1.5.31,3.14.79,6.28,1.5,9.42,1.41,6,3.3,12.01,7.09,18.01,3.79-6,5.68-12.01,7.09-18.01.71-3.15,1.2-6.3,1.51-9.44,3.14-.32,6.28-.81,9.42-1.5,6-1.41,12.01-3.3,18.01-7.06-6-3.77-12.01-5.65-18.01-7.06-3.15-.69-6.29-1.19-9.44-1.51Z" style="stroke-width: 0px;"/>
  <path d="M368.43,470c.31,3.14.79,6.28,1.5,9.42,1.41,6,3.3,12.01,7.09,18.01,3.79-6,5.68-12.01,7.09-18.01.71-3.15,1.2-6.3,1.51-9.44,3.14-.32,6.28-.81,9.42-1.5,6-1.41,12.01-3.3,18.01-7.06-6-3.77-12.01-5.65-18.01-7.06-3.15-.69-6.29-1.19-9.44-1.51-.32-3.15-.81-6.29-1.51-9.44-1.41-6-3.3-12.01-7.06-18.01-3.77,6-5.65,12.01-7.06,18.01-.69,3.14-1.18,6.28-1.51,9.42-3.15.31-6.3.79-9.44,1.51-6,1.41-12.01,3.3-18.01,7.09,6,3.79,12.01,5.68,18.01,7.09,3.14.71,6.28,1.19,9.42,1.5Z" style="stroke-width: 0px;"/>
  <path d="M368.43,292.15c.31,3.14.79,6.28,1.5,9.42,1.41,6,3.3,12.01,7.09,18.01,3.79-6,5.68-12.01,7.09-18.01.71-3.15,1.2-6.3,1.51-9.44,3.14-.32,6.28-.81,9.42-1.51,6-1.41,12.01-3.3,18.01-7.06-6-3.77-12.01-5.65-18.01-7.06-3.15-.69-6.29-1.19-9.44-1.51-.32-3.15-.81-6.29-1.51-9.44-1.41-6-3.3-12.01-7.06-18.01-3.77,6-5.65,12.01-7.06,18.01-.69,3.14-1.18,6.28-1.5,9.42-3.15.31-6.3.79-9.44,1.51-6,1.41-12.01,3.3-18.01,7.09,6,3.79,12.01,5.68,18.01,7.09,3.14.71,6.28,1.19,9.42,1.5Z" style="stroke-width: 0px;"/>
  <path d="M955,469.98c.31,3.15.79,6.3,1.51,9.44,1.41,6,3.3,12.01,7.09,18.01,3.79-6,5.68-12.01,7.09-18.01.71-3.14,1.19-6.28,1.5-9.42,3.14-.31,6.28-.79,9.42-1.5,6-1.41,12.01-3.3,18.01-7.09-6-3.79-12.01-5.68-18.01-7.09-3.15-.71-6.3-1.2-9.44-1.51-.32-3.14-.81-6.28-1.51-9.42-1.41-6-3.3-12.01-7.06-18.01-3.77,6-5.65,12.01-7.06,18.01-.69,3.15-1.19,6.29-1.51,9.44-3.15.32-6.29.81-9.44,1.51-6,1.41-12.01,3.3-18.01,7.06,6,3.77,12.01,5.65,18.01,7.06,3.14.69,6.28,1.18,9.42,1.5Z" style="stroke-width: 0px;"/>
  <path d="M799.92,469.98c.31,3.15.79,6.3,1.51,9.44,1.41,6,3.3,12.01,7.09,18.01,3.79-6,5.68-12.01,7.09-18.01.71-3.14,1.19-6.28,1.5-9.42,3.14-.31,6.28-.79,9.42-1.5,6-1.41,12.01-3.3,18.01-7.09-6-3.79-12.01-5.68-18.01-7.09-3.15-.71-6.3-1.2-9.44-1.51-.32-3.14-.81-6.28-1.51-9.42-1.41-6-3.3-12.01-7.06-18.01-3.77,6-5.65,12.01-7.06,18.01-.69,3.15-1.19,6.29-1.51,9.44-3.15.32-6.29.81-9.44,1.51-6,1.41-12.01,3.3-18.01,7.06,6,3.77,12.01,5.65,18.01,7.06,3.14.69,6.28,1.18,9.42,1.5Z" style="stroke-width: 0px;"/>
  <path d="M799.92,292.13c.31,3.15.79,6.3,1.51,9.44,1.41,6,3.3,12.01,7.09,18.01,3.79-6,5.68-12.01,7.09-18.01.71-3.14,1.19-6.28,1.5-9.42,3.14-.31,6.28-.79,9.42-1.5,6-1.41,12.01-3.3,18.01-7.09-6-3.79-12.01-5.68-18.01-7.09-3.15-.71-6.3-1.2-9.44-1.51-.32-3.14-.81-6.28-1.51-9.42-1.41-6-3.3-12.01-7.06-18.01-3.77,6-5.65,12.01-7.06,18.01-.69,3.15-1.19,6.29-1.51,9.44-3.15.32-6.29.81-9.44,1.51-6,1.41-12.01,3.3-18.01,7.06,6,3.77,12.01,5.65,18.01,7.06,3.14.69,6.28,1.18,9.42,1.5Z" style="stroke-width: 0px;"/>
  <path d="M687.17,812.08h-10.14c-3.43,1.01-7.26,2.79-11.07,5.23-9.78,6.29-15.62,14.65-13.03,18.71,2.61,4.06,12.64,2.23,22.45-4.06,9.78-6.29,15.6-14.65,13-18.71-.29-.47-.72-.88-1.22-1.17Z" style="stroke-width: 0px;"/>
  <path d="M522.67,817.31c-3.81-2.43-7.64-4.21-11.07-5.23h-10.14c-.5.29-.92.7-1.22,1.17-2.59,4.06,3.22,12.42,13,18.71,9.8,6.29,19.83,8.11,22.45,4.06,2.59-4.06-3.22-12.42-13.03-18.71Z" style="stroke-width: 0px;"/>
  <path d="M566.62,969.48c-4.66,0-8.44,3.78-8.44,8.44s3.78,8.44,8.44,8.44,8.44-3.78,8.44-8.44-3.78-8.44-8.44-8.44Z" style="stroke-width: 0px;"/>
  <path d="M627.2,969.48c-4.66,0-8.44,3.78-8.44,8.44s3.78,8.44,8.44,8.44,8.44-3.78,8.44-8.44-3.78-8.44-8.44-8.44Z" style="stroke-width: 0px;"/>
</svg>