<?xml version="1.0" encoding="UTF-8"?>
<svg id="Layer_1" data-name="Layer 1" xmlns="http://www.w3.org/2000/svg" viewBox="0 0 1165.26 1229.14">
  <path d="M474.25,241.1c-2.27,3.72-1.14,8.61,2.15,11.47l51.89,45.33c2.25,1.97,5.61,1.97,7.86,0l42.55-37.17c2.25-1.97,5.6-1.97,7.85,0l42.56,37.17c2.25,1.96,5.6,1.96,7.85,0l52.28-45.66c3.66-3.2,4.04-8.76.84-12.43-3.2-3.66-8.76-4.04-12.43-.84l-39.88,34.83c-2.71,2.37-6.76,2.37-9.48,0l-40.74-35.59c-2.82-2.47-7.04-2.47-9.86,0l-40.73,35.58c-2.71,2.37-6.76,2.37-9.48,0l-39.87-34.83c-4.05-3.54-10.43-2.7-13.36,2.12Z" style="fill: #1d1d1b; stroke-width: 0px;"/>
  <path d="M677.65,298.38l-39.88,34.83c-2.71,2.37-6.76,2.37-9.48,0l-40.74-35.59c-2.82-2.47-7.04-2.47-9.86,0l-40.73,35.58c-2.71,2.37-6.76,2.37-9.48,0l-39.87-34.83c-4.05-3.54-10.43-2.7-13.36,2.12-2.27,3.72-1.14,8.61,2.15,11.47l51.89,45.33c2.25,1.97,5.61,1.97,7.86,0l42.55-37.17c2.25-1.97,5.6-1.97,7.85,0l42.56,37.17c2.25,1.96,5.6,1.96,7.85,0l52.28-45.66c3.66-3.2,4.04-8.76.84-12.43-3.2-3.66-8.76-4.04-12.43-.84Z" style="fill: #1d1d1b; stroke-width: 0px;"/>
  <path d="M916.6,945.08c1.44-1.44,2.85-2.91,4.27-4.37.42-.35.8-.74,1.14-1.17,75.79-78.25,121.41-178.18,130.99-285.65,0-.07.02-.14.02-.21,1.25-14.07,1.91-28.27,1.91-42.57,0-126.16-49.13-244.76-138.33-333.97-89.21-89.21-207.81-138.34-333.97-138.34s-244.76,49.13-333.97,138.34c-89.21,89.21-138.34,207.81-138.34,333.97,0,14.3.66,28.49,1.91,42.56,0,.06.01.13.02.19,9.59,107.54,55.25,207.53,131.13,285.81.29.34.59.65.92.94,1.45,1.49,2.89,2.99,4.36,4.47,85.25,85.26,197.37,133.87,317.26,138.01.2.02.38.06.58.07h.13c.1,0,.2-.03.3-.03,5.22.17,10.45.29,15.7.29,126.16,0,244.76-49.13,333.97-138.33ZM576.06,1058.87c2.66-40.24,13.13-79.1,27.2-114.65,25.19,3.77,40.48,14.38,56.57,25.57,21.34,14.84,43.4,30.19,87.29,30.19s65.96-15.35,87.3-30.2c9.38-6.53,18.52-12.88,29.54-17.79,6.76-3.01,12.34,6.02,6.62,10.71-78.47,64.39-178.77,103.1-287.96,103.1h-.07c-3.75,0-6.75-3.19-6.5-6.93ZM538.1,990.47c-4.47-1.06-8.99,1.74-10.46,6.09-6.24,18.52-10.88,37.02-13.86,55.22-.79,4.81-5.38,7.98-10.18,7.13-13.79-2.43-27.36-5.49-40.7-9.14-4.65-1.27-7.47-6.03-6.21-10.68.55-2.02,1.12-4.03,1.71-6.04,1.37-4.58-.75-9.72-5.25-11.35-4.8-1.74-10,.91-11.45,5.73-.56,1.86-1.11,3.73-1.63,5.61-1.37,4.92-6.61,7.65-11.41,5.91-3.79-1.37-7.55-2.79-11.29-4.26-3.62-1.42-5.45-5.44-4.29-9.15,3.28-10.51,7.15-20.71,11.55-30.6.08-.18.17-.35.24-.53,42.18-94.35,131.25-160.67,190.79-196.55.18.6.35,1.21.55,1.78-2.91,2.21-5.81,4.45-8.7,6.72-3.8,2.99-4.81,8.83-1.83,12.63,1.74,2.21,4.32,3.37,6.93,3.37,1.91,0,3.83-.62,5.44-1.89,2.8-2.2,5.62-4.38,8.44-6.53,3.73,2.62,7.64,3.98,10.87,5.08l.13.04c5.56,1.9,7.82,8.53,4.6,13.45-36.68,56.12-77.82,137.32-83.61,225.35-.27,4.07-3.89,7.11-7.95,6.82-3.81-.27-7.6-.59-11.38-.95-5.06-.49-8.65-5.15-7.81-10.16,2.85-17.02,7.24-34.33,13.1-51.68,1.65-4.87-1.22-10.18-6.34-11.4ZM294.73,962.76c-5.72-4.69-.12-13.72,6.63-10.7,10.96,4.9,20.06,11.23,29.4,17.72,18.86,13.12,38.33,26.6,72.92,29.56-2.44,6.14-4.68,12.39-6.71,18.74-1.2,3.74-5.46,5.58-9.01,3.89-33.53-15.95-64.81-35.9-93.23-59.22ZM131.15,665.11c-.35-2.94,1.42-5.74,4.21-6.73,16.55-5.88,28.92-14.47,40.95-22.83,19.99-13.9,38.87-27.03,77.24-27.03s57.23,13.13,77.22,27.04c21.34,14.85,43.4,30.2,87.3,30.2s65.96-15.35,87.3-30.2c19.99-13.91,38.87-27.04,77.24-27.04s57.24,13.14,77.23,27.05c5.67,3.95,11.47,7.98,17.77,11.75,2.29,1.37,2.98,4.35,1.66,6.67-5.07,8.89-12.48,15.5-25.7,22.53-17.37,9.23-22.38,4.78-30.67-2.59-6.48-5.76-15.35-13.65-30.11-11.97-6.43.73-14.03,4.47-18.92,9.3-7.11,7.03-13.5,24.3-10.56,33.68,1.37,4.37,4.71,7.41,8.96,8.14,2.21.37,4.49.76,5.91,1.51,17.52,9.29,16.53,12.87,14.56,20.01-1.41,5.12-3.29,11.92-.52,19.9.64,1.83-.75,3.75-2.69,3.67-2.26-.09-4.56-.14-6.92-.14-43.9,0-65.96,15.35-87.3,30.2-19.99,13.91-38.87,27.04-77.24,27.04s-57.26-13.14-77.24-27.05c-21.33-14.84-43.39-30.19-87.28-30.19-31.8,0-52.15,8.06-69.06,18.14-12.78-4.67-16.84-6.16-29.61-10.83-11.54-31.91-19.6-65.47-23.73-100.22ZM732.91,557.03c4.16-3.97,11.1-.85,10.82,4.9-.27,5.58-2.1,11-4.17,17.12-4.16,12.29-9.34,27.6.57,46.35,9.91,18.75,25.47,23.08,37.97,26.57,11.6,3.24,20.77,5.79,27.14,17.85,6.37,12.05,3.32,21.05-.54,32.46-4.16,12.3-9.35,27.6.57,46.35,9.91,18.75,25.47,23.08,37.97,26.57,11.6,3.23,20.77,5.79,27.14,17.85.07.12.13.25.2.37,1.86,3.63-.27,8.01-4.21,9.03-9.96,2.58-18.99,2.96-26.36.67-17.61-5.48-31.19-10.7-43.17-15.3-33.17-12.74-51.44-19.76-85.39-1.92-28.25,14.84-26.03,32.06-24.41,44.64,1.06,8.26,1.42,12.81-2.95,17.86-1.67,1.94-5.5,4.05-8.39,4.61-1.74.34-4.26.13-6.83-.37-3.78-.74-6.13-4.39-5.67-8.21,0-.05.01-.1.02-.15.65-5.85.79-10.83.51-15.08,0-.41-.05-.81-.1-1.22-1.55-17.42-10.55-22.2-20.55-25.62-3.98-1.36-6.73-2.3-8.65-5.12-.04-.05-.06-.11-.09-.15,0,0-.01-.01-.02-.02-1.11-1.7-1.93-4.05-2.54-7.54-1.08-6.15-1.9-11.73-2.45-16.6-.02-.2-.09-.37-.12-.56-.06-.33-.11-.66-.21-.99-.08-.26-.19-.51-.29-.76-.11-.28-.22-.55-.36-.82-.14-.26-.31-.5-.47-.75-.15-.23-.29-.46-.47-.67-.22-.27-.46-.51-.71-.75-.13-.13-.24-.28-.38-.4-3.86-3.32-8.01-7.14-12.33-11.36-6.95-6.77-6.04-10.05-4.24-16.57,3.54-12.83,4.42-25.57-23.32-40.27-.02-.01-.04-.02-.06-.03-3.42-1.78-5.13-5.78-3.62-9.32,1.03-2.41,2.28-4.62,3.54-5.87,2.07-2.05,5.97-4.03,8.52-4.32,6.62-.74,10.18,2.1,16.41,7.63,9.48,8.43,22.46,19.96,50.64,4.98,33.86-18.01,38.35-37.06,46.51-71.64,2.95-12.49,6.29-26.65,11.67-44.28,2-6.55,6.48-13,12.89-19.1ZM1011.14,763.22c-13.14,4.83-19.16,7.04-32.3,11.86-6.71-3.87-14.01-7.4-22.38-10.24,11.71-11.8,22.28-24.6,30.87-37.6,16.83-25.47,20.41-57.19,10.35-85.65,9.45,6.32,19.63,12.36,32.25,16.83,2.78.98,4.53,3.78,4.18,6.71-4.04,33.98-11.84,66.82-22.97,98.1ZM913.03,923.17c-1.19,1.26-2.87,1.97-4.6,2-41.75.74-63.26,15.69-84.06,30.16-19.99,13.91-38.87,27.04-77.24,27.04s-57.25-13.13-77.23-27.04c-16.26-11.31-33.01-22.95-59.66-27.83,9.71-22.13,20.62-42.75,31.64-61.35,1.67-2.82,5.37-3.79,8.13-2.03,6.43,4.12,16.21,6.6,23.91,6.6,1.87,0,3.61-.14,5.15-.45,6.74-1.31,14.11-5.49,18.34-10.38,7.46-8.64,8.29-17.61,7.77-25.2,3.3-2.72,3.7-3.04,7-5.76,10.73,2.65,22.19,3.93,34.96,3.93,31.67,0,52.18-8.32,67.81-17.43,1.42-.83,3.11-1.01,4.66-.48,4.75,1.63,9.78,3.3,15.16,4.97,14.45,4.49,31.71,2.11,49.67-4.99,1.21-.22,2.33-.67,3.31-1.33,18.04-7.67,36.65-19.97,53.75-34.77,19.89,4.7,33.26,14,47.35,23.8l.15.1c2.57,1.79,3.47,5.19,2.1,8-20.31,41.39-46.71,79.27-78.06,112.44ZM719.82,812.6c-5.1-1.09-6.14-7.88-1.56-10.39.44-.24.89-.48,1.36-.73,26.89-14.13,38.87-9.53,70.88,2.77,1.44.55,2.92,1.12,4.45,1.71-12.09,5.4-27.05,9.3-47.82,9.3-9.93,0-18.92-.87-27.31-2.66ZM952.69,591.85s0,0,0,0l23.68,44.81c13.63,25.78,12.19,56.77-3.74,80.87-5.23,7.91-11.07,15.56-17.34,22.81-2.53,2.93-7.09,2.95-9.62.02-9.48-10.95-21.5-14.31-31.56-17.11-11.59-3.23-20.75-5.79-27.12-17.83-6.37-12.06-3.32-21.07.54-32.48,4.16-12.29,9.34-27.59-.57-46.33-9.92-18.76-25.48-23.1-37.98-26.58-11.59-3.23-20.76-5.78-27.12-17.83-6.37-12.06-3.33-21.07.53-32.48,2.67-7.91,5.57-16.52,5.1-26.36-.16-3.34,2.26-6.23,5.58-6.67,10.75-1.41,21.64-2.12,32.37-1.97,28.89.41,55.3,16.68,68.92,42.46l18.33,34.67ZM801.64,522.91c4.38-1.17,8.61,2.51,7.97,7-.64,4.54-2.18,9.1-3.89,14.17-4.16,12.29-9.34,27.59.58,46.35,9.91,18.75,25.47,23.08,37.97,26.57,11.6,3.23,20.77,5.79,27.14,17.85,6.37,12.05,3.32,21.05-.54,32.46-4.16,12.3-9.34,27.6.57,46.36,9.91,18.75,25.46,23.08,37.96,26.57,10.31,2.87,18.7,5.21,24.91,14.16-.38,3.16-.63,5.18-1.01,8.35-.01.01-.03.02-.04.03-.17.15-.34.29-.49.45-11.98,10.67-24.58,19.77-36.84,26.71-3.25,1.84-7.31.4-8.91-2.97-.34-.71-.69-1.42-1.07-2.14-9.92-18.76-25.48-23.1-37.98-26.58-11.6-3.23-20.76-5.79-27.13-17.83-6.37-12.06-3.32-21.07.54-32.47,4.16-12.29,9.34-27.59-.57-46.34-9.92-18.76-25.48-23.1-37.98-26.58-11.59-3.23-20.76-5.79-27.12-17.83-6.37-12.06-3.32-21.07.54-32.48,3.63-10.71,7.99-23.71,2.5-39.28-1.07-3.03.31-6.38,3.19-7.8,11.77-5.84,25.29-10.86,39.71-14.7ZM176.29,802.67c19.99-13.91,38.87-27.05,77.26-27.05s57.23,13.13,77.22,27.04c21.34,14.85,43.4,30.2,87.3,30.2s65.96-15.35,87.3-30.2c19.99-13.91,38.87-27.04,77.24-27.04,8.1,0,15.54.58,22.51,1.74.54,2.78.55,2.82,1.09,5.6-60.48,36.51-150.25,103.47-195.11,199.21-33.75-1.49-51.54-13.82-70.28-26.86-20.8-14.47-42.29-29.41-84-30.15-1.73-.03-3.39-.73-4.58-1.99-31.36-33.18-57.77-71.07-78.09-112.48-1.38-2.81-.47-6.21,2.09-7.99l.04-.03ZM719.67,297.33c0,75.56-61.48,137.04-137.04,137.04s-137.04-61.48-137.04-137.04,61.48-137.04,137.04-137.04,137.04,61.48,137.04,137.04ZM476.2,185.28c-30.29,28.77-48.98,69.64-48.19,114.8,1.49,85.12,70.23,152.3,155.37,151.9,84.94-.4,153.91-69.62,153.91-154.65,0-44.04-18.51-83.81-48.16-111.99-6.31-5.99-.52-16.5,7.9-14.31,195.52,50.86,340.29,228.87,340.29,440.09,0,1.51,0,3.02-.02,4.52-.14,13.18-14.71,21.04-25.82,13.94-4.24-2.71-8.36-5.57-12.54-8.48-5.33-3.71-10.85-7.52-16.75-11.11l-8.56-16.2s0,0,0,0l-23.69-44.82c-16.64-31.47-48.92-51.34-84.24-51.84-16.57-.24-34.19,1.49-51.52,4.9-.27.04-.53.1-.8.17-26.33,5.27-51.89,14.46-71.97,26.63-.73.28-1.45.62-2.12,1.11-.25.18-.45.4-.67.61-17.71,11.29-30.72,25-35.45,40.46-5.55,18.18-9.11,33.27-11.97,45.38-.81,3.42-1.56,6.63-2.3,9.63-.8,3.27-4.59,4.8-7.42,2.97-3.88-2.51-7.69-5.16-11.59-7.87-21.34-14.85-43.4-30.21-87.28-30.21s-65.96,15.35-87.3,30.2c-19.99,13.91-38.87,27.04-77.24,27.04s-57.25-13.14-77.24-27.05c-21.33-14.84-43.39-30.19-87.28-30.19s-65.96,15.35-87.29,30.19c-4.16,2.9-8.26,5.74-12.48,8.44-11.1,7.1-25.68-.77-25.81-13.94-.02-1.49-.02-2.98-.02-4.47,0-211.21,144.77-389.22,340.28-440.08,8.37-2.18,14.25,8.3,7.98,14.25Z" style="fill: #1d1d1b; stroke-width: 0px;"/>
  <path d="M178.71,1069.94l-7.57,2.58,14.93,12.15,1.93-7.17,8.38-7.23,15.22,12.38-5.28,9.75-6.63,3.35,15.12,12.3,1.09-7.86,37.1-70.35-12.96-10.55-61.33,50.63ZM216.36,1074.51l-12.96-10.55,35.98-30.98-23.02,41.53Z" style="fill: #1d1d1b; stroke-width: 0px;"/>
  <path d="M345.19,1088.33l-18.14-9.47c-7.41-3.87-12.04-2.05-15.8,5.14l-28.24,54.11c-3.75,7.19-2.59,12.04,4.82,15.9l33.39,17.43,5.94-11.38-6.18.06,29.14-55.83c3.75-7.19,2.49-12.09-4.92-15.96ZM337.86,1101.85l-24.99,47.88c-1.74,3.33-4.41,4.53-7.85,2.73l-7.73-4.04c-3.44-1.79-3.87-4.62-2.14-7.95l24.99-47.88c1.74-3.33,4.3-4.58,7.74-2.79l7.73,4.04c3.44,1.79,3.98,4.67,2.24,8Z" style="fill: #1d1d1b; stroke-width: 0px;"/>
  <path d="M446.32,1133.44l-16.9,60.28c-1.01,3.61-3.38,5.34-7.12,4.29l-7.81-2.19c-3.73-1.04-4.86-3.75-3.85-7.37l16.9-60.28,5.33-5.55-18.54-5.2,1.78,7.54-17.85,63.66c-2.19,7.81-.05,12.31,7.99,14.56l18.89,5.3c8.05,2.26,12.32-.44,14.51-8.26l17.85-63.66,5.33-5.55-18.19-5.1,1.67,7.51Z" style="fill: #1d1d1b; stroke-width: 0px;"/>
  <path d="M552.79,1143.2l-16.67-1.18-21.1,76.67-4.71,6.46,19.2,1.36-2.54-6.98,2.7-10.73,19.56,1.39,1.28,11.01-3.5,6.55,19.44,1.38-3.63-7.05-10.06-78.88ZM531.79,1199.61l11.64-46.02,5.03,47.21-16.67-1.18Z" style="fill: #1d1d1b; stroke-width: 0px;"/>
  <path d="M673.06,1183.7c5.71-2.1,7.68-6.52,6.71-13.84l-2.89-21.72c-1.07-8.04-4.81-11.33-13.09-10.23l-35.05,4.67,4.5,6.24,9.4,70.58-2.7,7.2,19.08-2.54-4.5-6.24-4.09-30.73,4.44-.59c5.28-.7,7.61,1.18,9.74,6.15l9.72,22.53-.78,6.94,19.8-2.64-6.18-6.02-14.1-29.76ZM661.3,1176.1l-12.12,1.61-3.73-27.97,12.12-1.61c5.04-.67,7.58,1.92,8.22,6.72l1.68,12.6c.64,4.8-1.14,7.97-6.18,8.64Z" style="fill: #1d1d1b; stroke-width: 0px;"/>
  <polygon points="751.16 1123.9 752.57 1116.34 734.22 1122.15 739.72 1127.52 761.2 1195.41 759.78 1202.97 778.13 1197.16 772.63 1191.79 751.16 1123.9" style="fill: #1d1d1b; stroke-width: 0px;"/>
  <path d="M850.13,1080.37l.1-7.69-16.77,8.7,6.35,4.34,28.83,55.56c1.73,3.33,1.18,6.21-2.26,7.99l-7.2,3.74c-3.44,1.78-6.11.58-7.84-2.75l-28.83-55.56.1-7.69-17.09,8.87,6.45,4.29,30.45,58.67c3.74,7.2,8.37,9.03,15.78,5.18l17.41-9.03c7.42-3.85,8.69-8.74,4.96-15.94l-30.45-58.68Z" style="fill: #1d1d1b; stroke-width: 0px;"/>
  <path d="M969.13,1053.26c-2.97-3.67-6.86-5.19-11.7-4.24l-22.38,4.12c-4.57.9-6.56.17-9.69-3.68l-5.11-6.3c-2.36-2.92-2.4-5.85.61-8.29l5.93-4.81c3.01-2.44,5.78-1.72,8.14,1.2l5.72,7.05,12.92-2.52-11.82-14.58c-5.11-6.3-10.11-7.08-16.6-1.82l-14.77,11.97c-6.49,5.26-6.66,10.24-1.56,16.54l10.83,13.36c2.97,3.67,6.67,5.35,11.58,4.48l22.4-4.29c4.65-.81,6.64-.08,9.76,3.78l6.1,7.52c2.36,2.92,2.4,5.85-.61,8.29l-6.96,5.64c-2.92,2.36-5.77,1.72-8.14-1.2l-7.17-8.84-12.92,2.52,13.27,16.37c5.11,6.3,10.01,7.16,16.5,1.9l15.9-12.89c6.49-5.26,6.76-10.31,1.65-16.61l-11.9-14.67Z" style="fill: #1d1d1b; stroke-width: 0px;"/>
  <polygon points="248.56 186.22 249.53 193.14 263.67 182.83 257.37 179.8 240.82 157.12 255.23 146.61 271.77 169.29 272.74 176.21 286.87 165.9 280.48 162.93 242.34 110.65 241.47 103.66 227.33 113.97 233.63 117 250.23 139.77 235.83 150.28 219.22 127.51 218.26 120.59 204.12 130.9 210.42 133.93 248.56 186.22" style="fill: #1d1d1b; stroke-width: 0px;"/>
  <path d="M319.07,133.86c3.33,6.58,7.53,8.28,14.3,4.85l16.59-8.41c6.77-3.43,7.98-7.87,4.65-14.45l-25.07-49.49c-3.33-6.58-7.62-8.23-14.4-4.8l-16.59,8.41c-6.78,3.43-7.88,7.82-4.55,14.4l25.07,49.49ZM307.09,75.15l7.07-3.58c3.14-1.59,5.56-.47,7.1,2.57l22.19,43.79c1.54,3.04,1.01,5.66-2.13,7.25l-7.07,3.58c-3.14,1.59-5.46.42-7-2.62l-22.19-43.79c-1.54-3.04-1.11-5.61,2.03-7.2Z" style="fill: #1d1d1b; stroke-width: 0px;"/>
  <path d="M400.7,102.05l-1.29,6.87,16.69-5.29-5.01-4.88-8.51-26.87,3.88-1.23c4.62-1.46,7-.14,9.69,3.97l12.26,18.64.39,6.34,17.32-5.49-6.48-4.41-17.32-24.42c4.78-2.78,5.85-7.05,3.82-13.45l-6.02-18.99c-2.23-7.03-6.09-9.39-13.33-7.09l-30.64,9.71,5.01,4.88,19.55,61.71ZM402.83,35.89c4.41-1.4,7.09.52,8.42,4.72l3.49,11.02c1.33,4.2.24,7.32-4.17,8.71l-10.6,3.36-7.75-24.45,10.6-3.36Z" style="fill: #1d1d1b; stroke-width: 0px;"/>
  <path d="M482.24,75.25c1.08,7.29,4.53,10.23,12.04,9.12l18.4-2.74c7.51-1.12,10.06-4.95,8.97-12.24l-8.16-54.87c-1.08-7.29-4.64-10.22-12.15-9.1l-18.4,2.74c-7.51,1.12-9.95,4.93-8.86,12.22l8.16,54.87ZM489.42,15.76l7.84-1.17c3.48-.52,5.42,1.31,5.93,4.68l7.22,48.56c.5,3.38-.82,5.69-4.31,6.2l-7.84,1.17c-3.48.52-5.32-1.32-5.82-4.7l-7.22-48.56c-.5-3.37.71-5.67,4.2-6.19Z" style="fill: #1d1d1b; stroke-width: 0px;"/>
  <path d="M578.05,77.03l18.6.3c7.59.12,10.73-3.24,10.85-10.61l.28-17.17c.07-4.29-1.75-7.62-5.68-9.78l-18-10.2c-3.71-2.04-4.67-3.71-4.6-8.22l.12-7.37c.06-3.41,1.74-5.48,5.26-5.42l6.93.11c3.52.06,5.03,2.17,4.97,5.58l-.13,8.25,10.47,5.78.28-17.06c.12-7.37-2.91-10.83-10.5-10.96L579.62,0c-7.59-.12-10.62,3.24-10.74,10.61l-.25,15.63c-.07,4.29,1.53,7.62,5.45,9.89l18.11,10.09c3.71,2.15,4.67,3.82,4.6,8.33l-.14,8.8c-.05,3.41-1.74,5.48-5.26,5.42l-8.14-.13c-3.41-.05-5.03-2.17-4.97-5.58l.17-10.34-10.47-5.78-.31,19.15c-.12,7.37,2.8,10.83,10.39,10.96Z" style="fill: #1d1d1b; stroke-width: 0px;"/>
  <path d="M660.29,82.7l18.03,2.93c7.5,1.22,11.09-1.65,12.27-8.93l3.76-23.14-11.35,3.95-2.33,14.34c-.55,3.37-2.51,5.17-5.99,4.6l-7.82-1.27c-3.48-.57-4.66-2.88-4.11-6.24l7.88-48.45c.55-3.37,2.4-5.18,5.88-4.62l7.82,1.27c3.48.57,4.77,2.89,4.22,6.26l-2.83,17.38,11.35-3.95,2.42-14.88c1.18-7.28-1.31-11.14-8.81-12.36l-18.03-2.93c-7.5-1.22-10.98,1.67-12.16,8.95l-8.91,54.75c-1.18,7.28,1.2,11.12,8.7,12.34Z" style="fill: #1d1d1b; stroke-width: 0px;"/>
  <path d="M741.88,101.25l17.66,5.85c7.21,2.39,11.21.12,13.53-6.88l17.46-52.65c2.32-7,.47-11.21-6.74-13.6l-17.66-5.85c-7.21-2.39-11.1-.09-13.42,6.91l-17.46,52.65c-2.32,7-.57,11.17,6.63,13.56ZM746.49,88.05l15.45-46.59c1.07-3.24,3.19-4.74,6.54-3.63l7.52,2.49c3.34,1.11,4.25,3.61,3.18,6.85l-15.45,46.6c-1.07,3.24-3.3,4.7-6.64,3.6l-7.52-2.49c-3.34-1.11-4.15-3.58-3.07-6.82Z" style="fill: #1d1d1b; stroke-width: 0px;"/>
  <path d="M824.79,128.16l12.56-24.24,15.64,8.1c6.74,3.49,10.95,1.83,14.35-4.72l10.12-19.55c3.39-6.55,2.32-10.95-4.42-14.44l-28.25-14.63.1,6.99-29.77,57.48-5.77,3.95,15.54,8.05-.1-6.99ZM853.49,72.74l9.58,4.96c4.11,2.13,4.65,5.38,2.63,9.29l-5.82,11.24c-1.98,3.81-5,5.34-9.1,3.22l-9.58-4.96,12.3-23.75Z" style="fill: #1d1d1b; stroke-width: 0px;"/>
  <polygon points="921.41 179.73 909.24 177.92 897.68 169.48 912.88 148.68 923.19 156.21 926.66 162.29 935.1 150.73 928.25 149.28 917.94 141.75 933.14 120.95 944.69 129.39 950.12 140.44 958.49 128.97 926.67 105.73 925.7 112.65 887.52 164.92 881.22 167.95 913.04 191.19 921.41 179.73" style="fill: #1d1d1b; stroke-width: 0px;"/>
  <path d="M994.98,199.48c-3.44-3.44-9.01-3.45-12.45-.01-3.44,3.44-3.45,9.01-.01,12.45,106.49,106.67,165.14,248.44,165.14,399.19,0,139.99-51.56,274.27-145.17,378.11-3.26,3.61-2.97,9.18.64,12.44,1.69,1.52,3.79,2.27,5.9,2.27,2.41,0,4.81-.98,6.54-2.91,96.54-107.08,149.7-245.56,149.7-389.91,0-155.45-60.48-301.63-170.29-411.63Z" style="fill: #1d1d1b; stroke-width: 0px;"/>
  <path d="M17.61,611.11c0-150.75,58.65-292.52,165.14-399.19,3.44-3.44,3.43-9.02-.01-12.45-3.44-3.44-9.02-3.43-12.45.01C60.48,309.47,0,455.66,0,611.11c0,144.35,53.16,282.82,149.7,389.91,1.74,1.93,4.14,2.91,6.54,2.91,2.1,0,4.21-.75,5.89-2.27,3.61-3.25,3.9-8.82.64-12.44-93.61-103.84-145.17-238.13-145.17-378.11Z" style="fill: #1d1d1b; stroke-width: 0px;"/>
  <path d="M201.76,458.17c3.84.72,6.86,3.75,7.58,7.58.16.85.34,1.71.53,2.56,1.37,5.86,3.22,11.73,6.92,17.59,3.7-5.86,5.55-11.73,6.92-17.59.2-.86.37-1.73.54-2.59.72-3.85,3.76-6.87,7.61-7.59.84-.16,1.68-.33,2.52-.51,5.86-1.38,11.73-3.22,17.59-6.9-5.86-3.68-11.73-5.52-17.59-6.9-.85-.19-1.7-.36-2.55-.52-3.86-.72-6.9-3.76-7.62-7.62-.16-.85-.33-1.7-.52-2.55-1.38-5.86-3.22-11.73-6.9-17.59-3.68,5.86-5.52,11.73-6.9,17.59-.19.84-.36,1.68-.51,2.52-.72,3.85-3.74,6.89-7.59,7.61-.86.16-1.73.34-2.59.54-5.86,1.37-11.73,3.22-17.59,6.92,5.86,3.7,11.73,5.55,17.59,6.92.85.19,1.71.37,2.56.53Z" style="fill: #1d1d1b; stroke-width: 0px;"/>
  <path d="M353.25,458.17c3.84.72,6.86,3.75,7.58,7.58.16.85.34,1.71.53,2.56,1.37,5.86,3.22,11.73,6.92,17.59,3.7-5.86,5.55-11.73,6.92-17.59.2-.86.37-1.73.54-2.59.72-3.85,3.76-6.87,7.61-7.59.84-.16,1.68-.33,2.52-.51,5.86-1.38,11.73-3.22,17.59-6.9-5.86-3.68-11.73-5.52-17.59-6.9-.85-.19-1.7-.36-2.55-.52-3.86-.72-6.9-3.76-7.62-7.62-.16-.85-.33-1.7-.52-2.55-1.38-5.86-3.22-11.73-6.9-17.59-3.68,5.86-5.52,11.73-6.9,17.59-.19.84-.36,1.68-.51,2.52-.72,3.85-3.74,6.89-7.59,7.61-.86.16-1.73.34-2.59.54-5.86,1.37-11.73,3.22-17.59,6.92,5.86,3.7,11.73,5.55,17.59,6.92.85.19,1.71.37,2.56.53Z" style="fill: #1d1d1b; stroke-width: 0px;"/>
  <path d="M353.25,284.44c3.84.72,6.86,3.75,7.58,7.58.16.85.34,1.71.53,2.56,1.37,5.86,3.22,11.73,6.92,17.59,3.7-5.86,5.55-11.73,6.92-17.59.2-.86.37-1.73.54-2.59.72-3.85,3.76-6.87,7.61-7.59.84-.16,1.68-.33,2.52-.51,5.86-1.38,11.73-3.22,17.59-6.9-5.86-3.68-11.73-5.52-17.59-6.9-.85-.19-1.7-.36-2.55-.52-3.86-.72-6.9-3.76-7.62-7.62-.16-.85-.33-1.7-.52-2.55-1.38-5.86-3.22-11.73-6.9-17.59-3.68,5.86-5.52,11.73-6.9,17.59-.19.84-.36,1.68-.51,2.52-.72,3.85-3.74,6.89-7.59,7.61-.86.16-1.73.34-2.59.54-5.86,1.37-11.73,3.22-17.59,6.92,5.86,3.7,11.73,5.55,17.59,6.92.85.19,1.71.37,2.56.53Z" style="fill: #1d1d1b; stroke-width: 0px;"/>
  <path d="M926.19,458.13c3.85.72,6.89,3.74,7.61,7.59.16.86.34,1.73.54,2.59,1.37,5.86,3.22,11.73,6.92,17.59,3.7-5.86,5.55-11.73,6.92-17.59.19-.85.37-1.71.53-2.56.72-3.84,3.75-6.86,7.58-7.58.85-.16,1.71-.34,2.56-.53,5.86-1.37,11.73-3.22,17.59-6.92-5.86-3.7-11.73-5.55-17.59-6.92-.86-.2-1.73-.37-2.59-.54-3.85-.72-6.87-3.76-7.59-7.61-.16-.84-.33-1.68-.51-2.52-1.38-5.86-3.22-11.73-6.9-17.59-3.68,5.86-5.52,11.73-6.9,17.59-.19.85-.36,1.7-.52,2.55-.72,3.86-3.76,6.9-7.62,7.62-.85.16-1.7.33-2.55.52-5.86,1.38-11.73,3.22-17.59,6.9,5.86,3.68,11.73,5.52,17.59,6.9.84.19,1.68.36,2.52.51Z" style="fill: #1d1d1b; stroke-width: 0px;"/>
  <path d="M774.7,458.13c3.85.72,6.89,3.74,7.61,7.59.16.86.34,1.73.54,2.59,1.37,5.86,3.22,11.73,6.92,17.59,3.7-5.86,5.55-11.73,6.92-17.59.19-.85.37-1.71.53-2.56.72-3.84,3.75-6.86,7.58-7.58.85-.16,1.71-.34,2.56-.53,5.86-1.37,11.73-3.22,17.59-6.92-5.86-3.7-11.73-5.55-17.59-6.92-.86-.2-1.73-.37-2.59-.54-3.85-.72-6.87-3.76-7.59-7.61-.16-.84-.33-1.68-.51-2.52-1.38-5.86-3.22-11.73-6.9-17.59-3.68,5.86-5.52,11.73-6.9,17.59-.19.85-.36,1.7-.52,2.55-.72,3.86-3.76,6.9-7.62,7.62-.85.16-1.7.33-2.55.52-5.86,1.38-11.73,3.22-17.59,6.9,5.86,3.68,11.73,5.52,17.59,6.9.84.19,1.68.36,2.52.51Z" style="fill: #1d1d1b; stroke-width: 0px;"/>
  <path d="M774.7,284.4c3.85.72,6.89,3.74,7.61,7.59.16.86.34,1.73.54,2.59,1.37,5.86,3.22,11.73,6.92,17.59,3.7-5.86,5.55-11.73,6.92-17.59.19-.85.37-1.71.53-2.56.72-3.84,3.75-6.86,7.58-7.58.85-.16,1.71-.34,2.56-.53,5.86-1.37,11.73-3.22,17.59-6.92-5.86-3.7-11.73-5.55-17.59-6.92-.86-.2-1.73-.37-2.59-.54-3.85-.72-6.87-3.76-7.59-7.61-.16-.84-.33-1.68-.51-2.52-1.38-5.86-3.22-11.73-6.9-17.59-3.68,5.86-5.52,11.73-6.9,17.59-.19.85-.36,1.7-.52,2.55-.72,3.86-3.76,6.9-7.62,7.62-.85.16-1.7.33-2.55.52-5.86,1.38-11.73,3.22-17.59,6.9,5.86,3.68,11.73,5.52,17.59,6.9.84.19,1.68.36,2.52.51Z" style="fill: #1d1d1b; stroke-width: 0px;"/>
  <path d="M594.28,840.09c3.67-3.19,4.07-8.75.88-12.42-3.18-3.67-8.75-4.07-12.42-.88-17.86,15.49-34.55,31.68-49.6,48.11-3.29,3.59-3.04,9.16.54,12.44,1.69,1.55,3.82,2.31,5.95,2.31,2.38,0,4.76-.96,6.49-2.86,14.6-15.93,30.8-31.64,48.16-46.7Z" style="fill: #1d1d1b; stroke-width: 0px;"/>
  <path d="M502.21,926.67c-4.01-2.74-9.49-1.72-12.24,2.29-11.23,16.42-21.05,33.22-29.19,49.96-2.13,4.37-.3,9.64,4.07,11.77,1.24.6,2.55.89,3.84.89,3.27,0,6.4-1.83,7.93-4.96,7.75-15.95,17.14-32.01,27.88-47.71,2.75-4.01,1.72-9.49-2.29-12.24Z" style="fill: #1d1d1b; stroke-width: 0px;"/>
  <path d="M592.21,888.07c1.53,1.06,3.28,1.57,5.02,1.57,2.79,0,5.53-1.32,7.24-3.78,6.6-9.5,13.66-19.06,20.99-28.41,3-3.83,2.33-9.36-1.5-12.36-3.82-3-9.36-2.33-12.36,1.5-7.54,9.61-14.8,19.44-21.6,29.22-2.78,3.99-1.79,9.48,2.21,12.26Z" style="fill: #1d1d1b; stroke-width: 0px;"/>
  <path d="M549.61,973.3c3.37,0,6.59-1.95,8.05-5.24,6.66-15,14.49-30.26,23.29-45.37,2.45-4.2,1.02-9.59-3.18-12.04-4.2-2.45-9.59-1.03-12.04,3.18-9.12,15.66-17.25,31.5-24.17,47.09-1.97,4.45.03,9.65,4.48,11.62,1.16.52,2.37.76,3.57.76Z" style="fill: #1d1d1b; stroke-width: 0px;"/>
</svg>