<?xml version="1.0" encoding="UTF-8"?>
<svg id="Layer_1" data-name="Layer 1" xmlns="http://www.w3.org/2000/svg" viewBox="0 0 1238.99 1334.65">
  <path d="M539.29,244.38c.06,0,5.37-.58,8.72,2.4,2.44,2.17,3.67,6.15,3.67,11.83v117.01c0,5.17,4.19,9.36,9.36,9.36s9.36-4.19,9.36-9.36v-117.01c0-1.36-.06-2.68-.15-3.96,7.37-4.12,17.57-7.87,22.67-5.55,3.17,1.43,4.5,6.19,5.05,10.14v116.39c0,5.17,4.19,9.36,9.36,9.36s9.36-4.19,9.36-9.36v-117.01l-.07-1.17c-.23-1.86-.55-3.59-.93-5.21,6.13-3.01,13.96-5.58,18.25-3.65,3.26,1.47,4.65,6.48,5.23,10.64v111.07l-14.77,6.4c-4.75,2.06-6.93,7.57-4.87,12.31,1.53,3.53,4.98,5.64,8.6,5.64,1.24,0,2.51-.25,3.72-.77l16.62-7.2,28.93,18.52c1.56,1,3.31,1.48,5.04,1.48,3.09,0,6.11-1.52,7.9-4.32,2.79-4.35,1.52-10.15-2.84-12.93l-18.5-11.84c26.2-15.77,44.02-48.63,40.93-70.5-1.98-13.97-11.92-22.26-26.46-22.14-12.11.09-20.13,8.49-25.56,20.27v-46.61l-.07-1.17c-2.05-16.35-9.95-23.13-16.21-25.94-12.01-5.39-26.38-.08-35.05,4.35-2-1.75-4.06-2.98-5.96-3.84-12.29-5.53-27.33.02-36.56,4.73-1.14-1.51-2.4-2.92-3.84-4.18-9.7-8.42-22.07-6.94-23.45-6.74-5.12.73-8.73,5.48-8,10.6.73,5.12,5.41,8.68,10.53,7.95ZM683.59,303.67c.06,0,.11,0,.17,0,5.68,0,7.07,2.13,7.62,6.04,1.74,12.33-9.08,34.59-25.99,47.77,5.29-46.52,13.59-53.77,18.21-53.81Z" style="stroke-width: 0px;"/>
  <path d="M1096.4,807.56c5.92-17.85,10.91-36.46,14.82-55.3,3.29-15.87,5.81-31.92,7.49-47.67.66-6.01,1.21-11.98,1.62-17.71.31-4.11.53-7.89.69-11.46.44-8.28.67-16.91.67-25.64,0-25.22-1.89-50.52-5.61-75.17-1.52-10.2-3.38-20.41-5.51-30.33-7.76-36.29-19.61-71.78-35.24-105.5-9.26-19.94-19.92-39.45-31.68-57.98-92.8-146.04-251.36-233.23-424.17-233.23s-331.37,87.19-424.17,233.23c-11.76,18.53-22.41,38.04-31.67,57.98-15.62,33.71-27.48,69.2-35.23,105.48-2.13,9.92-3.99,20.13-5.51,30.32-3.72,24.67-5.61,49.96-5.61,75.18,0,8.73.23,17.36.67,25.54.16,3.63.39,7.41.69,11.53.41,5.73.96,11.7,1.62,17.71,1.68,15.8,4.2,31.85,7.49,47.71,3.91,18.84,8.9,37.45,14.82,55.3,4.3,12.98,9.25,26.12,14.74,39.05,5.99,14.06,12.8,28.17,20.25,41.94,10.07,18.62,21.45,36.79,33.83,54.01,12.98,18.04,27.21,35.3,42.28,51.29,2.53,2.7,5.08,5.35,7.67,7.98,1.51,1.54,3,3.04,4.48,4.51,2.01,2,4.06,3.96,6.11,5.92.07.06.13.13.19.19,20.77,19.89,43.19,38.02,66.77,53.9,18.74,12.66,38.53,24.14,58.82,34.13,69.27,34.18,143.88,51.5,221.77,51.5,2.59,0,5.19-.02,7.72-.07,2.22-.03,4.44-.07,6.61-.15,72.78-2.03,142.56-19.28,207.41-51.26,20.27-9.98,40.07-21.47,58.84-34.15,25.99-17.51,50.58-37.7,73.05-59.98,1.44-1.41,2.85-2.85,4.29-4.3l.23-.24c2.58-2.62,5.13-5.27,7.65-7.96,15.08-16.01,29.31-33.27,42.29-51.31,12.37-17.21,23.75-35.38,33.82-54,7.45-13.75,14.26-27.86,20.26-41.95,5.48-12.91,10.44-26.04,14.73-39.03ZM765.21,316.14c0,80.35-65.37,145.71-145.71,145.71s-145.71-65.37-145.71-145.71,65.37-145.71,145.71-145.71,145.71,65.37,145.71,145.71ZM137.33,685.47c-.3-3.95-.51-7.54-.67-11.06-.43-7.95-.64-16.24-.64-24.64,0-24.29,1.82-48.64,5.4-72.4,1.47-9.82,3.25-19.63,5.3-29.18,7.46-34.93,18.87-69.09,33.91-101.52,8.92-19.21,19.18-37.99,30.5-55.83,67.65-106.46,171.61-180.4,290.33-210.04,8.14-2.03,13.63,8.17,7.42,13.82-33.7,30.68-54.64,75.13-53.8,124.39,1.55,90.53,74.66,161.99,165.2,161.57,90.31-.42,163.65-74.03,163.65-164.44,0-48.08-20.75-91.38-53.76-121.46-6.24-5.68-.82-15.92,7.37-13.88,118.71,29.64,222.67,103.58,290.32,210.03,11.32,17.84,21.58,36.63,30.5,55.83,15.04,32.44,26.45,66.6,33.91,101.54,2.05,9.54,3.84,19.36,5.3,29.18,3.58,23.74,5.4,48.1,5.4,72.39,0,8.4-.22,16.69-.65,24.73-.15,3.47-.37,7.05-.66,11-.4,5.53-.92,11.26-1.56,17.08-1.61,15.18-4.04,30.61-7.21,45.88-1.45,6.99-3.07,13.93-4.83,20.81-1.23,4.8-7.86,5.27-9.71.67h0l-.44-.71c-2.2-3.51-55.16-86.08-171.92-105.42-72.16-11.95-100.65-33.63-125.78-52.76-13.95-10.61-27.12-20.64-45.69-27.66-46.06-17.43-99.92,2.83-115.02,9.29-15.1-6.46-68.95-26.72-115.02-9.29-18.57,7.02-31.74,17.05-45.68,27.66-25.14,19.13-53.63,40.8-125.78,52.76-116.76,19.34-169.72,101.92-171.92,105.42l-.75,1.31c-2.29,3.97-8.26,3.16-9.4-1.28-1.76-6.88-3.38-13.81-4.83-20.8-3.17-15.25-5.59-30.69-7.21-45.91-.64-5.81-1.16-11.54-1.56-17.07ZM627.56,780.85c18.16,18.88,56.73,51.63,115.38,64.67,8.4,1.87,13.81,10.07,12.18,18.52-15.54,80.49-48.57,127.72-74.78,153.75-31.01,30.8-59.4,39.39-59.84,39.52-.36.1-.68.26-1.01.4-.34-.14-.66-.3-1.01-.41-.3-.09-30.13-8.97-60.37-39.93-29.74-30.45-49.92-72.07-59.59-122.13.03-1.25-.2-2.51-.69-3.71-1.84-10.16-3.24-20.66-4.21-31.48-.69-7.72,4.2-14.84,11.68-16.83,53.53-14.27,89.03-44.6,106.19-62.45,4.39-4.57,11.68-4.49,16.07.07ZM745.89,1116.6c-8.87,2.39-17.82,4.51-26.83,6.39-.86-.92-1.91-1.68-3.15-2.2-23.72-10.07-17.18-71.95-12.23-97.75.45-2.32,1.51-4.45,3.04-6.26,18.16-21.39,37.44-51.73,52.03-93.76,1.82-5.25,8.77-6.42,12.07-1.95,13.78,18.73,27.46,52.47,9.27,103.89-11.12,31.45-15.87,56.66-17.9,72.71-1.14,9.02-7.53,16.56-16.31,18.92ZM529.34,1012.78c1.48,1.9,2.32,4.15,2.82,6.51,0,.01,0,.02,0,.03,4.95,22.96,13.47,90.87-11.47,101.47-1.04.44-1.94,1.08-2.72,1.81-5.5-1.17-10.98-2.44-16.43-3.81-8.96-2.24-15.54-9.87-16.62-19.05-1.88-15.92-6.54-41.95-18.15-74.78-17.34-49.02-5.7-81.99,7.36-101.19,3.3-4.85,10.76-3.69,12.36,1.96,10.79,38.05,26.79,66.38,42.85,87.04ZM633.25,1133.04c-2.09.07-4.17.11-6.32.14-2.47.04-4.97.07-7.44.07-17.24,0-34.31-.9-51.2-2.67-11.63-1.22-19.43-12.53-16.19-23.76,6.09-21.13,4.74-47.73,2.39-66.97,30.3,27.17,57.6,35.13,58.86,35.48.85.24,1.71.36,2.55.36,1.25,0,2.46-.28,3.59-.75,1.13.47,2.34.75,3.59.75.85,0,1.71-.12,2.56-.36,1.17-.33,26.3-7.71,56.23-33.46-2.2,19.06-3.25,44.57,2.63,64.97,3.23,11.23-4.29,22.77-15.91,23.94-11.69,1.18-23.47,1.94-35.34,2.27ZM1044.94,879.64c-9.69,17.93-20.65,35.42-32.56,51.98-10.6,14.73-22.06,28.92-34.17,42.3-5.12-2.27-.64-.29-5.76-2.56h0c.59-5.35,13.84-131.55-33.15-180.78-13.72-14.37-31.08-21.01-51.56-19.71-91.45,5.8-195.04-77.96-196.08-78.8-4-3.27-9.9-2.68-13.17,1.32-3.27,4-2.68,9.9,1.32,13.17,4.46,3.65,110.29,89.23,209.11,83,14.92-.93,26.97,3.62,36.83,13.94,40.99,42.92,28.22,164.59,28.08,165.87l-.95,9.22c-1.61,15.58-9.05,30.04-21,40.17-13.55,11.49-27.68,22.21-42.28,32.05-18.08,12.21-37.13,23.27-56.65,32.88-4.69,2.31-9.4,4.54-14.15,6.69-17.13,7.76-35.77-7.51-31.18-25.74,2.52-10.02,5.82-21.23,10.13-33.42,17.98-50.85,7.75-87.17-4-108.69-8.61-15.77-19.22-26.02-25.53-31.25,3.16-12.49,5.91-25.8,8.13-40.03,75.33,19.1,60.75,163.58,60.59,165.09-.55,5.14,3.17,9.76,8.3,10.31.34.04.68.05,1.01.05,4.72,0,8.78-3.56,9.3-8.36.78-7.16,17.77-175.39-85.77-187.31-.01,0-.03,0-.04-.01-.01,0-.03,0-.04,0-.06,0-.11-.02-.17-.02-90.25-10.14-138.41-74.49-138.89-75.14-.52-.71-1.13-1.28-1.79-1.8v-109.07c0-4.89-3.57-9.26-8.44-9.72-5.58-.53-10.28,3.84-10.28,9.32v109.47s0,0,0,0c-.65.51-1.27,1.09-1.79,1.79-.48.65-48.64,65-138.89,75.14-22.23,2.5-40.38,12.71-53.94,30.34-40.34,52.46-25.84,153.63-25.2,157.91.69,4.65,4.69,7.98,9.25,7.98.46,0,.92-.03,1.39-.1,5.11-.76,8.64-5.52,7.89-10.63-.14-.97-13.96-97.63,21.54-143.76,10.49-13.63,23.96-21.19,41.17-23.13.83-.09,1.62-.22,2.44-.32.89,14.93,2.52,28.88,4.74,41.92-6.3,5.2-16.96,15.49-25.61,31.32-11.75,21.52-21.99,57.84-4,108.69,4.92,13.9,8.51,26.53,11.15,37.57,4.25,17.83-13.69,33-30.54,25.79-7.97-3.41-15.88-7.05-23.71-10.91-19.54-9.62-38.59-20.67-56.63-32.86-14.71-9.91-28.96-20.72-42.62-32.32-12.39-10.52-19.89-25.7-21.07-41.91l-.51-6.92-.03-.34c-.13-1.22-12.95-122.82,28.08-165.8,9.86-10.33,21.9-14.89,36.84-13.95,3.48.22,6.96.32,10.45.32,95.72,0,194.37-79.8,198.67-83.32,4-3.28,4.59-9.17,1.32-13.17-3.27-4-9.17-4.59-13.18-1.32-1.03.85-104.6,84.56-196.08,78.8-20.5-1.3-37.85,5.34-51.56,19.71-46.56,48.78-33.97,173.17-33.16,180.6l.02.26c.23,3.15-3.65,4.79-5.77,2.46-12.1-13.37-23.56-27.56-34.16-42.29-11.91-16.57-22.87-34.06-32.56-51.98-7.17-13.26-13.73-26.84-19.49-40.35-4.42-10.41-8.46-20.97-12.09-31.46-.49-1.41-.33-2.95.41-4.24l14.13-24.51c2.25-3.45,52.85-79.19,159.05-96.79,76.74-12.71,108.52-36.9,134.06-56.33,13.39-10.19,24.95-18.99,40.97-25.05,45.42-17.18,103.67,10.15,104.35,10.47.17.08.34.11.51.18.27.11.54.21.81.29.33.1.65.18.98.24.26.05.51.09.78.11.34.04.68.06,1.03.05.26,0,.52-.02.79-.04.34-.03.67-.08,1-.15.26-.05.52-.12.79-.19.33-.1.66-.22.98-.35.14-.06.29-.09.43-.16.58-.28,58.9-27.67,104.35-10.48,16.02,6.06,27.58,14.86,40.97,25.05,25.54,19.43,57.32,43.62,134.06,56.33,103,17.06,153.7,88.84,158.7,96.28l12.7,31.65c.47,1.17.5,2.47.07,3.65-3.07,8.5-6.4,17.01-9.97,25.42-5.77,13.54-12.33,27.12-19.5,40.37Z" style="stroke-width: 0px;"/>
  <polygon points="340.49 1131.87 267.82 1213.3 309.3 1112.39 319.14 1105.55 292.29 1088.77 292.3 1101.76 246.21 1222.28 268.89 1236.45 357 1142.18 368.67 1136.49 342.32 1120.03 340.49 1131.87" style="stroke-width: 0px;"/>
  <polygon points="438.16 1179.59 402.69 1289.62 393.7 1298.28 423.45 1307.88 421.21 1295.59 456.69 1185.56 465.68 1176.89 435.92 1167.3 438.16 1179.59" style="stroke-width: 0px;"/>
  <path d="M605.18,1271.37c9.75-1.6,14.26-8.03,14.95-20.01l2.07-35.53c.77-13.15-4.18-19.54-17.73-20.34l-57.32-3.34,5.25,11.34-6.72,115.43-6.53,10.65,31.21,1.82-5.25-11.34,2.93-50.25,7.26.42c8.64.5,11.77,4.23,13.63,12.81l8.57,38.91-3.39,10.83,32.39,1.89-8-11.5-13.33-51.79ZM601.27,1243.76c-.46,7.85-4.26,12.36-12.51,11.88l-19.83-1.15,2.66-45.74,19.83,1.15c8.25.48,11.5,5.4,11.05,13.25l-1.2,20.61Z" style="stroke-width: 0px;"/>
  <path d="M807.55,1247.48l3.03-12.12-30.31,7.64,8.41,9.24,8.03,31.84c1.49,5.91-.46,10.25-6.56,11.79l-13.73,3.46c-6.1,1.54-9.68-1.41-11.17-7.32l-21.44-85.04c-1.49-5.91.27-10.2,6.37-11.74l14.3-3.61c6.1-1.54,9.88,1.36,11.37,7.27l3.51,13.92,20.8,5.3-7.4-29.36c-3.22-12.77-10.05-17.34-23.2-14.02l-32.22,8.12c-13.16,3.32-16.81,10.53-13.59,23.3l24.23,96.09c3.22,12.77,9.86,17.38,23.01,14.07l32.22-8.12c13.16-3.32,17-10.57,13.78-23.35l-9.42-37.37Z" style="stroke-width: 0px;"/>
  <path d="M947.43,1111.19c-6.94-11.2-14.83-13.48-26.37-6.33l-28.24,17.51c-11.53,7.15-12.83,15.13-5.89,26.33l52.22,84.23c6.94,11.2,14.67,13.58,26.2,6.43l28.25-17.51c11.53-7.15,13-15.23,6.06-26.43l-52.22-84.23ZM977.42,1214.06l-12.03,7.46c-5.35,3.31-9.66,1.59-12.87-3.59l-46.21-74.54c-3.21-5.18-2.84-9.81,2.51-13.12l12.03-7.46c5.35-3.31,9.82-1.69,13.04,3.49l46.21,74.54c3.21,5.18,2.67,9.91-2.67,13.23Z" style="stroke-width: 0px;"/>
  <polygon points="264.29 198 265.32 205.36 280.35 194.4 273.65 191.17 256.06 167.06 271.38 155.89 288.97 180 289.99 187.36 305.02 176.4 298.23 173.24 257.68 117.65 256.75 110.21 241.71 121.18 248.41 124.41 266.07 148.61 250.75 159.78 233.09 135.58 232.07 128.22 217.04 139.18 223.73 142.41 264.29 198" style="stroke-width: 0px;"/>
  <path d="M339.26,142.33c3.54,6.99,8,8.8,15.21,5.15l17.64-8.94c7.2-3.65,8.49-8.37,4.94-15.36l-26.66-52.62c-3.54-6.99-8.11-8.75-15.31-5.1l-17.64,8.94c-7.2,3.65-8.38,8.32-4.84,15.31l26.66,52.62ZM326.52,79.91l7.52-3.81c3.34-1.69,5.91-.5,7.55,2.73l23.59,46.56c1.64,3.24,1.08,6.01-2.26,7.71l-7.52,3.81c-3.34,1.69-5.81.45-7.45-2.79l-23.59-46.56c-1.64-3.24-1.18-5.96,2.16-7.65Z" style="stroke-width: 0px;"/>
  <path d="M426.06,108.5l-1.37,7.31,17.74-5.62-5.33-5.19-9.05-28.57,4.13-1.31c4.91-1.56,7.44-.15,10.3,4.22l13.03,19.81.42,6.74,18.41-5.83-6.89-4.69-18.42-25.96c5.08-2.96,6.22-7.5,4.06-14.3l-6.4-20.2c-2.37-7.48-6.48-9.98-14.18-7.54l-32.58,10.33,5.33,5.19,20.79,65.61ZM428.32,38.16c4.69-1.48,7.54.56,8.96,5.02l3.71,11.72c1.41,4.46.25,7.78-4.43,9.26l-11.27,3.57-8.24-26,11.27-3.57Z" style="stroke-width: 0px;"/>
  <path d="M512.75,80.01c1.15,7.76,4.81,10.88,12.8,9.69l19.56-2.91c7.99-1.19,10.69-5.26,9.54-13.01l-8.68-58.34c-1.15-7.76-4.93-10.86-12.92-9.68l-19.56,2.91c-7.99,1.19-10.58,5.24-9.42,13l8.68,58.34ZM520.38,16.76l8.33-1.24c3.7-.55,5.77,1.39,6.3,4.98l7.68,51.63c.53,3.59-.88,6.05-4.58,6.6l-8.33,1.24c-3.7.55-5.65-1.41-6.19-5l-7.68-51.63c-.53-3.59.76-6.03,4.46-6.58Z" style="stroke-width: 0px;"/>
  <path d="M614.62,81.91l19.77.32c8.07.13,11.41-3.44,11.54-11.28l.29-18.25c.07-4.56-1.86-8.11-6.03-10.4l-19.14-10.84c-3.94-2.17-4.97-3.94-4.89-8.74l.13-7.84c.06-3.63,1.85-5.82,5.59-5.76l7.37.12c3.74.06,5.35,2.31,5.29,5.94l-.14,8.78,11.14,6.15.29-18.14c.13-7.84-3.09-11.52-11.16-11.65L616.3,0c-8.07-.13-11.29,3.45-11.42,11.29l-.27,16.62c-.07,4.56,1.63,8.1,5.8,10.51l19.26,10.73c3.94,2.29,4.97,4.06,4.89,8.86l-.15,9.36c-.06,3.63-1.85,5.82-5.59,5.76l-8.66-.14c-3.63-.06-5.35-2.31-5.29-5.94l.18-11-11.14-6.15-.33,20.36c-.13,7.84,2.97,11.52,11.05,11.65Z" style="stroke-width: 0px;"/>
  <path d="M702.06,87.93l19.17,3.12c7.97,1.3,11.79-1.76,13.05-9.5l4-24.6-12.07,4.2-2.48,15.25c-.58,3.58-2.67,5.49-6.37,4.89l-8.32-1.35c-3.7-.6-4.96-3.06-4.37-6.64l8.38-51.52c.58-3.58,2.56-5.51,6.25-4.91l8.32,1.35c3.7.6,5.07,3.08,4.49,6.66l-3.01,18.48,12.07-4.2,2.57-15.83c1.26-7.74-1.39-11.85-9.36-13.14l-19.17-3.12c-7.97-1.3-11.67,1.78-12.93,9.52l-9.47,58.22c-1.26,7.74,1.28,11.83,9.25,13.12Z" style="stroke-width: 0px;"/>
  <path d="M788.82,107.65l18.77,6.22c7.66,2.54,11.92.13,14.39-7.31l18.56-55.99c2.47-7.44.5-11.92-7.17-14.46l-18.77-6.22c-7.66-2.54-11.81-.09-14.27,7.35l-18.56,55.99c-2.47,7.44-.61,11.88,7.05,14.42ZM793.72,93.62l16.42-49.54c1.14-3.44,3.4-5.04,6.95-3.86l8,2.65c3.55,1.18,4.52,3.84,3.38,7.29l-16.42,49.54c-1.14,3.44-3.51,5-7.06,3.82l-8-2.65c-3.55-1.18-4.41-3.81-3.27-7.25Z" style="stroke-width: 0px;"/>
  <path d="M876.97,136.27l13.35-25.78,16.63,8.61c7.17,3.71,11.65,1.94,15.25-5.02l10.76-20.79c3.61-6.96,2.47-11.64-4.7-15.35l-30.04-15.56.11,7.44-31.65,61.12-6.13,4.2,16.53,8.56-.11-7.44ZM907.5,77.34l10.18,5.28c4.37,2.26,4.94,5.72,2.79,9.88l-6.19,11.95c-2.1,4.05-5.32,5.68-9.68,3.42l-10.19-5.28,13.08-25.26Z" style="stroke-width: 0px;"/>
  <polygon points="979.71 191.1 966.77 189.18 954.48 180.2 970.64 158.09 981.6 166.1 985.29 172.56 994.26 160.27 986.98 158.72 976.02 150.71 992.18 128.6 1004.46 137.58 1010.23 149.33 1019.14 137.13 985.3 112.42 984.27 119.78 943.67 175.35 936.97 178.57 970.81 203.29 979.71 191.1" style="stroke-width: 0px;"/>
  <path d="M1057.93,212.1c-3.65-3.66-9.58-3.67-13.24-.01-3.66,3.65-3.66,9.58-.01,13.24,113.23,113.42,175.59,264.16,175.59,424.45,0,12.08-.36,24.14-1.06,35.85-3.07,52.59-13.05,104.52-29.66,154.35-18.31,54.88-44.49,106.81-77.81,154.32-14.09,20.08-29.51,39.43-45.82,57.51-3.46,3.84-3.16,9.76.68,13.22,1.79,1.62,4.03,2.41,6.27,2.41,2.56,0,5.1-1.04,6.95-3.09,16.82-18.64,32.72-38.59,47.25-59.3,34.36-49.01,61.36-102.55,80.24-159.16,17.13-51.39,27.42-104.94,30.59-159.16.72-12.07,1.09-24.51,1.09-36.96,0-165.28-64.3-320.72-181.06-437.68Z" style="stroke-width: 0px;"/>
  <path d="M18.73,649.77c0-160.29,62.36-311.02,175.59-424.45,3.65-3.66,3.65-9.59-.01-13.24-3.66-3.65-9.59-3.65-13.24.01C64.3,329.05,0,484.49,0,649.77c0,153.48,56.53,300.72,159.17,414.58,1.85,2.05,4.4,3.09,6.96,3.09,2.23,0,4.48-.8,6.27-2.41,3.84-3.46,4.15-9.38.69-13.22-99.54-110.41-154.36-253.19-154.36-402.04Z" style="stroke-width: 0px;"/>
  <path d="M993.47,503.57c.26,2.68.67,5.36,1.28,8.03,1.2,5.11,2.81,10.21,6.03,15.32,3.22-5.11,4.83-10.21,6.03-15.32.61-2.67,1.02-5.34,1.28-8.01,2.67-.26,5.34-.67,8.01-1.28,5.11-1.2,10.21-2.81,15.32-6.03-5.11-3.22-10.21-4.83-15.32-6.03-2.68-.61-5.36-1.02-8.03-1.28-.27-2.67-.69-5.34-1.28-8.01-1.2-5.11-2.81-10.21-6.01-15.32-3.2,5.11-4.81,10.21-6.01,15.32-.59,2.68-1.01,5.35-1.28,8.03-2.68.27-5.35.69-8.03,1.28-5.11,1.2-10.21,2.81-15.32,6.01,5.11,3.2,10.21,4.81,15.32,6.01,2.67.59,5.34,1.01,8.01,1.28Z" style="stroke-width: 0px;"/>
  <path d="M861.54,503.57c.26,2.68.67,5.36,1.28,8.03,1.2,5.11,2.81,10.21,6.03,15.32,3.22-5.11,4.83-10.21,6.03-15.32.6-2.67,1.02-5.34,1.28-8.01,2.67-.26,5.34-.67,8.01-1.28,5.11-1.2,10.21-2.81,15.32-6.03-5.11-3.22-10.21-4.83-15.32-6.03-2.68-.61-5.36-1.02-8.03-1.28-.27-2.67-.69-5.34-1.28-8.01-1.2-5.11-2.81-10.21-6.01-15.32-3.2,5.11-4.81,10.21-6.01,15.32-.59,2.68-1.01,5.35-1.28,8.03-2.68.27-5.35.69-8.03,1.28-5.11,1.2-10.21,2.81-15.32,6.01,5.11,3.2,10.21,4.81,15.32,6.01,2.67.59,5.34,1.01,8.01,1.28Z" style="stroke-width: 0px;"/>
  <path d="M861.54,352.28c.26,2.68.67,5.36,1.28,8.03,1.2,5.11,2.81,10.21,6.03,15.32,3.22-5.11,4.83-10.21,6.03-15.32.6-2.67,1.02-5.34,1.28-8.01,2.67-.26,5.34-.67,8.01-1.28,5.11-1.2,10.21-2.81,15.32-6.03-5.11-3.22-10.21-4.83-15.32-6.03-2.68-.61-5.35-1.02-8.03-1.28-.27-2.67-.69-5.34-1.28-8.01-1.2-5.11-2.81-10.21-6.01-15.32-3.2,5.11-4.81,10.21-6.01,15.32-.59,2.68-1.01,5.35-1.28,8.03-2.68.27-5.35.69-8.03,1.28-5.11,1.2-10.21,2.81-15.32,6.01,5.11,3.2,10.21,4.81,15.32,6.01,2.67.59,5.34,1.01,8.01,1.28Z" style="stroke-width: 0px;"/>
  <path d="M230.9,503.59c.26,2.67.67,5.34,1.28,8.01,1.2,5.11,2.81,10.21,6.03,15.32,3.22-5.11,4.83-10.21,6.03-15.32.61-2.68,1.02-5.36,1.28-8.03,2.67-.27,5.34-.69,8.01-1.28,5.11-1.2,10.21-2.81,15.32-6.01-5.11-3.2-10.21-4.81-15.32-6.01-2.68-.59-5.35-1.01-8.03-1.28-.27-2.68-.69-5.35-1.28-8.03-1.2-5.11-2.81-10.21-6.01-15.32-3.2,5.11-4.81,10.21-6.01,15.32-.59,2.67-1.01,5.34-1.28,8.01-2.68.26-5.36.67-8.03,1.28-5.11,1.2-10.21,2.81-15.32,6.03,5.11,3.22,10.21,4.83,15.32,6.03,2.67.61,5.34,1.02,8.01,1.28Z" style="stroke-width: 0px;"/>
  <path d="M362.83,503.59c.26,2.67.67,5.34,1.28,8.01,1.2,5.11,2.81,10.21,6.03,15.32,3.22-5.11,4.83-10.21,6.03-15.32.61-2.68,1.02-5.36,1.28-8.03,2.67-.27,5.34-.69,8.01-1.28,5.11-1.2,10.21-2.81,15.32-6.01-5.11-3.2-10.21-4.81-15.32-6.01-2.68-.59-5.35-1.01-8.03-1.28-.27-2.68-.69-5.35-1.28-8.03-1.2-5.11-2.81-10.21-6.01-15.32-3.2,5.11-4.81,10.21-6.01,15.32-.59,2.67-1.01,5.34-1.28,8.01-2.68.26-5.36.67-8.03,1.28-5.11,1.2-10.21,2.81-15.32,6.03,5.11,3.22,10.21,4.83,15.32,6.03,2.67.61,5.34,1.02,8.01,1.28Z" style="stroke-width: 0px;"/>
  <path d="M362.83,352.3c.26,2.67.67,5.34,1.28,8.01,1.2,5.11,2.81,10.21,6.03,15.32,3.22-5.11,4.83-10.21,6.03-15.32.61-2.68,1.02-5.36,1.28-8.03,2.67-.27,5.34-.69,8.01-1.28,5.11-1.2,10.21-2.81,15.32-6.01-5.11-3.2-10.21-4.81-15.32-6.01-2.68-.59-5.35-1.01-8.03-1.28-.27-2.68-.69-5.35-1.28-8.03-1.2-5.11-2.81-10.21-6.01-15.32-3.2,5.11-4.81,10.21-6.01,15.32-.59,2.67-1.01,5.34-1.28,8.01-2.68.26-5.36.67-8.03,1.28-5.11,1.2-10.21,2.81-15.32,6.03,5.11,3.22,10.21,4.83,15.32,6.03,2.67.61,5.34,1.02,8.01,1.28Z" style="stroke-width: 0px;"/>
  <path d="M575.47,873.05c-14.1,12.19-27.24,12.19-41.34,0-2.44-2.11-6.14-1.84-8.25.6-2.11,2.44-1.85,6.14.6,8.25,9.26,8.01,18.79,12.01,28.32,12.01s19.06-4,28.32-12.01c2.44-2.11,2.71-5.81.6-8.25-2.11-2.45-5.81-2.72-8.25-.6Z" style="stroke-width: 0px;"/>
  <path d="M684.19,893.92c9.53,0,19.06-4,28.32-12.01,2.45-2.11,2.71-5.81.6-8.25-2.11-2.45-5.81-2.72-8.25-.6-14.1,12.19-27.24,12.19-41.34,0-2.45-2.11-6.14-1.84-8.25.6-2.11,2.45-1.84,6.14.6,8.25,9.26,8.01,18.79,12.01,28.32,12.01Z" style="stroke-width: 0px;"/>
  <path d="M620.67,1002.87c-.33.18-.72.19-1.07.03l-3.5-1.63c-1.52-.7-3.25-.9-4.88-.55l-13.7,2.92c-1.9.4-3.11,2.27-2.7,4.17.4,1.9,2.27,3.1,4.17,2.7l13.7-2.92c.15-.03.31,0,.46.05l3.5,1.62c2.34,1.09,5.1,1,7.37-.23l2.3-1.25c.17-.09.37-.11.75,0l12.84,3.13c.28.07.56.1.83.1,1.58,0,3.02-1.08,3.41-2.68.46-1.88-.69-3.78-2.58-4.24l-12.66-3.08c-1.96-.59-4.12-.37-5.93.6l-2.31,1.25Z" style="stroke-width: 0px;"/>
  <path d="M597.59,863.55c-2.15-.91-4.35-.36-5.62,1.37-1.14,1.57-.79,3.77.78,4.9.79.58,1.75.77,2.65.62,3.44,3.28,15.58,23.24,8.28,66.28-2.41,14.19-.85,22.9,4.76,26.62,1.95,1.3,4.08,1.77,6.14,1.77,5.05,0,9.69-2.83,10.38-3.27,1.63-1.04,2.11-3.2,1.08-4.83-1.03-1.63-3.2-2.12-4.84-1.1-1.89,1.19-6.55,3.14-8.89,1.58-1.36-.91-4.25-4.64-1.71-19.59,7.61-44.88-4.94-70.96-13.02-74.35Z" style="stroke-width: 0px;"/>
</svg>