<?xml version="1.0" encoding="UTF-8"?>
<svg id="Calque_2" data-name="Calque 2" xmlns="http://www.w3.org/2000/svg" viewBox="0 0 478.72 517.51">
  <g id="Layer_1" data-name="Layer 1">
    <g>
      <path d="M219.4,158.33c10.94,0,19.84-8.9,19.84-19.84,0-7.53-4.22-14.09-10.41-17.45,1.01-1.84,1.92-3.63,2.71-5.38h5.93s-5.92-.01-5.92-.01c1.92-4.25,3.21-8.27,3.9-12.16.56-3.12,2.02-5.75,4.12-7.43,2.13-1.7,4.69-2.67,7.43-2.83,3.47-.23,6.78,1.44,8.75,4.32,1.85,2.71,2.23,6.01,1.04,9.06-7.05,18.11-6.41,32.61-4.34,37.49,2.49,5.9,7.75,9.63,13.17,9.63.87,0,1.75-.1,2.62-.3,2.8-.64,11.85-4.17,10.85-22.53-.11-2-1.83-3.52-3.81-3.42-2,.11-3.52,1.81-3.42,3.81.55,10.11-2.35,14.42-5.25,15.09-2.74.63-6.03-1.6-7.49-5.09-.83-1.97-2.66-13.87,4.42-32.05,2.04-5.23,1.36-11.12-1.81-15.77-3.21-4.69-8.49-7.49-14.14-7.49-.35,0-.7.01-1.02.03-4.21.24-8.19,1.76-11.49,4.39-3.49,2.77-5.88,6.97-6.75,11.83-.89,5.06-3.04,10.49-6.53,16.58-.79-.09-1.58-.15-2.39-.15-10.94,0-19.84,8.9-19.84,19.84s8.9,19.84,19.84,19.84ZM219.4,125.88c6.95,0,12.61,5.66,12.61,12.61s-5.66,12.61-12.61,12.61-12.61-5.66-12.61-12.61,5.66-12.61,12.61-12.61Z" style="fill: #1d1d1b; stroke-width: 0px;"/>
      <path d="M423.62,312.02c2.29-6.9,4.21-14.09,5.73-21.37,1.27-6.13,2.25-12.33,2.89-18.42.26-2.32.47-4.63.63-6.84.12-1.59.21-3.05.27-4.43.17-3.2.26-6.53.26-9.91,0-9.75-.73-19.52-2.17-29.04-.59-3.94-1.31-7.88-2.13-11.72-3-14.02-7.58-27.73-13.61-40.76-3.58-7.71-7.7-15.24-12.24-22.4-35.85-56.43-97.12-90.11-163.89-90.11s-128.03,33.69-163.89,90.11c-4.54,7.16-8.66,14.7-12.24,22.4-6.04,13.02-10.62,26.74-13.61,40.76-.82,3.83-1.54,7.78-2.13,11.72-1.44,9.53-2.17,19.3-2.17,29.05,0,3.37.09,6.71.26,9.87.06,1.4.15,2.86.27,4.45.16,2.21.37,4.52.63,6.84.65,6.11,1.62,12.31,2.9,18.43,1.51,7.28,3.44,14.47,5.72,21.37,1.66,5.02,3.58,10.09,5.7,15.09,2.31,5.43,4.95,10.89,7.82,16.2,3.89,7.2,8.29,14.22,13.07,20.87,5.01,6.97,10.51,13.64,16.33,19.82.98,1.04,1.96,2.07,2.96,3.08.58.59,1.16,1.18,1.73,1.74,8.7,8.62,18.2,16.42,28.23,23.18,7.24,4.89,14.89,9.33,22.73,13.19,1.04.51,2.09,1,3.14,1.5.04.02.09.04.14.07,25.83,12.16,53.53,18.34,82.41,18.34,1,0,2.01,0,2.98-.03.86-.01,1.72-.03,2.55-.06,28.12-.79,55.08-7.45,80.14-19.81,7.83-3.86,15.48-8.3,22.74-13.2,10.04-6.76,19.54-14.57,28.23-23.18.56-.55,1.1-1.1,1.66-1.66l.09-.09c1-1.01,1.98-2.04,2.96-3.07,5.83-6.18,11.33-12.85,16.34-19.82,4.78-6.65,9.18-13.67,13.07-20.87,2.88-5.31,5.51-10.77,7.83-16.21,2.12-4.99,4.03-10.06,5.69-15.08ZM295.66,122.15c0,31.04-25.26,56.3-56.3,56.3s-56.3-25.26-56.3-56.3,25.26-56.3,56.3-56.3,56.3,25.26,56.3,56.3ZM136.58,292.1c-14.31-5.61-26.41-13.95-36-24.81,7.62-.19,32.91-2.04,56.63-17.61,12.35-8.1,22.59-10.76,30.42-7.89,8.96,3.28,12,13.09,12.06,13.27.19.66.57,1.21,1.04,1.65-.63.49-1.27,1.01-1.91,1.57-.01,0-.02.02-.03.03-2.04,1.81-4.93,2.28-7.42,1.16-8.46-3.81-20.12-8.16-30.81-9.03-1.66-.14-3.2.88-3.72,2.46-.03.09-1.08,3.4-1.07,8.44-.55,1.86-5.9,18.95-18.62,31.05-.18-.11-.37-.21-.57-.29ZM128.23,255.04l-15.5-11.3c-9.42-6.87-4.98-20.08.82-34.17.07-.17.14-.33.2-.49,1.48,2.95,3.75,6.01,7.22,8.61,8.18,6.11,20.49,7.71,36.6,4.76,37.89-6.94,52.51,11.87,57.75,23.01,1.07,2.27-.24,4.94-2.7,5.46-1.95.41-3.95,1.09-6,2.08-.29-.97-4.21-13.44-16.42-17.96-10.12-3.75-22.56-.85-36.97,8.6-8.39,5.5-16.97,9.17-24.79,11.61-.08-.07-.14-.14-.23-.2ZM244.42,232.87c-2.19,4.14-8.16,4.14-10.35,0-5.07-9.55-12.35-20.89-21.96-30.15-1-.96-2.04-1.88-3.1-2.74,13.06-4.77,36.02-9.81,59,1.24-.55.49-1.1.98-1.64,1.5-9.61,9.27-16.89,20.6-21.96,30.15ZM207.1,207.93c16.44,15.85,25.91,39.02,28.34,45.5-.3,1.73.69,3.47,2.4,4.04.38.13.77.19,1.15.19.09,0,.17-.01.26-.02.09,0,.17.02.26.02.38,0,.77-.06,1.15-.19,1.72-.57,2.7-2.31,2.4-4.04,2.43-6.49,11.9-29.65,28.34-45.5,13.21-12.73,33.59-15.09,49.57-5.73l23.21,13.6c-5.87,1.29-13.21,1.13-21.97-.47-30.47-5.58-47.57,4.47-56.54,13.89-9.77,10.26-12.16,21.82-12.25,22.3-.02.09-.01.17-.02.26-4.48,1.58-8.06,4.26-10.28,6.68-1.19,1.3-1.36,3.3-.29,4.7,1.41,1.85,4.07,1.89,5.56.26,1.21-1.32,12.23-12.5,26.71.28,8.04,7.1,17.94,20.9,21.58,38.34,2.87,13.76,2.57,34.58-15.18,55.61-.55.65-.85,1.47-.85,2.32,0,2.14-.12,4.4-.33,6.62-.37.74-.47,1.61-.28,2.44-.79,5.93-2.28,11.05-4.14,11.97-2.47,1.22-3.98,2.58-5.07,3.58-1.8,1.63-2.79,2.52-10.9,1.02-5.51-1.02-9.7-1.99-12.73-2.79-2.7-.71-4.58-3.14-4.58-5.92v-8.73c0-1.58.66-3.1,1.82-4.18l7.07-6.59c1.43-1.33,1.72-3.6.46-5.1-1.34-1.6-3.73-1.74-5.24-.33l-3.83,3.57c-2.19,2.04-5.6,2.04-7.79,0l-3.83-3.57c-1.51-1.41-3.9-1.27-5.24.33-1.26,1.5-.97,3.77.46,5.1l7.07,6.59c1.16,1.08,1.82,2.59,1.82,4.18v8.92c0,2.8-1.89,5.24-4.6,5.93-2.96.76-6.91,1.65-11.97,2.59-8.11,1.5-9.1.61-10.9-1.02-1.1-.99-2.6-2.35-5.07-3.58-1.96-.97-3.51-6.6-4.26-12.93,0-.16-.03-.31-.05-.46-.28-2.53-.44-5.16-.44-7.64,0-.85-.3-1.67-.85-2.32-17.75-21.03-18.06-41.85-15.18-55.61,3.64-17.44,13.53-31.24,21.58-38.34,14.48-12.77,25.49-1.61,26.7-.28,1.49,1.64,4.14,1.6,5.56-.24,1.07-1.38.93-3.37-.25-4.66-2.25-2.48-5.94-5.24-10.55-6.81,0-.06,0-.12-.02-.18-.1-.49-2.48-12.04-12.25-22.3-8.97-9.42-26.06-19.48-56.54-13.89-8.76,1.6-16.1,1.76-21.97.47l23.21-13.6c15.98-9.36,36.37-7.01,49.57,5.73ZM332.96,330.71c-12.76-14.4-25.69-20.55-26.24-20.8-.54-.25-1.11-.34-1.67-.32-.26-3.23-.72-6.25-1.3-9.02-.05-.23-.1-.45-.14-.67-.61-2.78.46-5.64,2.71-7.38.81-.62,1.58-1.25,2.31-1.89.29.32.63.59,1.04.8.2.1,20.1,10.42,38.49,47.34,5.41,10.88,11.85,16.61,19.13,17.03,3.79.22,7.2-1.06,10.04-2.84-2.7,7.34-8.8,16.47-22.52,20.53-4.43-19.43-13.63-33.5-21.85-42.77ZM316.79,421.1c-5.05,2.31-10.17,4.38-15.37,6.21-2.95,1.04-5.92-1.4-5.49-4.5,3.82-27.54-5.58-49.06-8.46-54.85.26-2.6.36-4.95.39-6.66,2.74-3.35,5.09-6.69,7.09-10,1.74-2.89,5.92-2.95,7.67-.06,8.34,13.75,20.79,40.53,14.17,69.87ZM270.46,435.29c-2.62.44-5-1.71-4.78-4.36.94-11.78-1.27-21.73-1.4-22.27-.09-.39-.25-.73-.44-1.05,1.69-1.29,3.39-2.73,5.14-4.32,3.68-3.34,5.57-7.58,5.54-12.37.38-.31.76-.64,1.15-.99.95-.86,1.86-1.68,3.43-2.46,2.53-1.25,4.34-3.86,5.62-7.01,3.7,11.1,7.61,29.95,2.07,51.32-5.38,1.41-10.82,2.58-16.32,3.5ZM240.15,406.68c-.27-.05-.53-.06-.79-.05-.26-.01-.53,0-.8.05-10.11,1.83-16-1.51-23.96-8.75-1.42-1.29-2.35-2.75-2.81-4.37.18,0,.36.01.54.01,2.04,0,4.56-.27,7.79-.87,7.83-1.45,13.15-2.82,16.39-3.77,1.86-.55,3.83-.55,5.7,0,3.25.96,8.56,2.32,16.39,3.77,3.23.6,5.75.87,7.79.87.19,0,.36,0,.54-.01-.47,1.63-1.39,3.08-2.81,4.37-7.96,7.24-13.86,10.58-23.96,8.75ZM208.03,435.26c-5.5-.92-10.95-2.09-16.33-3.5-5.58-21.55-1.56-40.52,2.17-51.58,1.29,3.29,3.13,6.01,5.74,7.3,1.57.78,2.47,1.59,3.43,2.46.38.35.76.68,1.14.98-.03,4.78,1.86,9.02,5.54,12.37,1.7,1.54,3.35,2.94,4.99,4.2-.23.35-.41.74-.51,1.17-.12.53-2.34,10.47-1.4,22.24.21,2.65-2.16,4.8-4.79,4.36ZM161.68,420.99c-6.6-29.43,5.98-56.27,14.31-69.95,1.76-2.88,5.93-2.82,7.66.08,2.02,3.37,4.4,6.77,7.2,10.18.03,1.64.12,3.85.35,6.3-2.65,5.22-12.53,27.07-8.64,55.18.43,3.08-2.56,5.49-5.49,4.45-5.2-1.84-10.33-3.91-15.38-6.23ZM162.92,262.41c.02-.25.02-.5-.02-.75-.01-1.41.09-2.65.22-3.64,9.8,1.43,20.27,5.67,27.52,9.08-4.46,5.69-8.77,12.83-11.97,21.05-12.69-8.93-15.51-19.08-15.75-25.74ZM315.7,263.09s.03.1.05.19c-.45,6.65-3.56,16.32-15.71,24.87-3.2-8.22-7.51-15.36-11.97-21.05,7.25-3.41,17.72-7.65,27.52-9.08.11.81.19,1.77.22,2.85-.26.69-.32,1.46-.11,2.23ZM351.29,329.12c-16.56-30.38-33.39-41.35-37.49-43.69,3.01-3.55,5.07-7.13,6.47-10.56,4.34,9.13,12.07,21.5,24.5,29.39,7.03,4.46,23.42,3.85,33.4,2.97-6.69,9.05-17.94,21.62-26.89,21.89ZM341.35,292.39c-11.76-11.19-17.22-26.63-18.42-30.38.11-5.41-1.03-9.02-1.06-9.11-.53-1.58-2.07-2.59-3.72-2.46-10.69.87-22.35,5.22-30.81,9.03-2.49,1.12-5.37.64-7.42-1.16-.01,0-.02-.02-.03-.03-.68-.6-1.35-1.14-2.03-1.67.43-.42.77-.94.95-1.56.03-.1,2.95-9.89,11.99-13.23,7.85-2.9,18.1-.26,30.49,7.87,23.73,15.57,49.02,17.42,56.64,17.61-9.59,10.86-21.7,19.2-36,24.81-.2.08-.39.18-.57.29ZM350.04,255.24c-7.81-2.44-16.4-6.1-24.79-11.6-14.41-9.45-26.85-12.35-36.97-8.6-11.91,4.41-15.94,16.4-16.39,17.87-2.04-.97-4.04-1.63-5.98-2.02-2.48-.5-3.81-3.18-2.73-5.47,5.25-11.14,19.88-29.9,57.73-22.97,16.11,2.95,28.42,1.35,36.6-4.76,3.48-2.6,5.74-5.66,7.22-8.61.07.16.13.33.2.49,5.81,14.09,10.24,27.3.82,34.16l-15.5,11.3c-.08.06-.15.13-.22.2ZM158.34,274.62c1.39,3.48,3.46,7.12,6.5,10.72-3.84,2.16-20.89,13.04-37.64,43.77-8.93-.26-20.19-12.84-26.88-21.89,9.99.88,26.37,1.49,33.4-2.97,12.54-7.96,20.3-20.48,24.62-29.63ZM130.34,338.76c18.35-36.87,38.22-47.21,38.48-47.34.45-.23.84-.54,1.15-.9.77.67,1.58,1.33,2.43,1.99,2.25,1.74,3.32,4.6,2.7,7.38-.05.22-.1.45-.14.67-.58,2.77-1.04,5.8-1.3,9.03-.63-.06-1.27.02-1.89.31-.54.26-13.48,6.41-26.24,20.8-8.22,9.27-17.42,23.34-21.85,42.77-13.72-4.06-19.83-13.19-22.52-20.53,2.84,1.78,6.25,3.05,10.04,2.84,7.28-.43,13.72-6.16,19.13-17.03ZM128.31,401.28c-.78-25.68,6.76-47.72,22.43-65.53,5.85-6.65,11.8-11.43,16.33-14.57,2.76-1.92,6.54-.24,6.99,3.09.55,4.04,1.5,8.25,2.95,12.58-.02.03-.05.05-.08.08-1.22,1.47-26.75,32.8-24.21,72.46.21,3.27-3.32,5.47-6.16,3.84-3.95-2.26-7.82-4.67-11.57-7.21-2.26-1.52-4.48-3.1-6.68-4.73ZM244.67,437.78c-.81.03-1.61.04-2.44.05-.95.02-1.92.03-2.87.03-6.2,0-12.33-.31-18.41-.9-2.19-10.86-.58-21.82.08-25.44,3.75,1.88,7.7,2.91,12.3,2.91,1.89,0,3.9-.18,6.04-.55,2.14.36,4.15.55,6.04.55,4.51,0,8.41-1,12.1-2.82.67,3.71,2.24,14.59.06,25.36-4.26.41-8.55.69-12.88.81ZM343.72,406.01c-3.83,2.59-7.77,5.04-11.8,7.34-2.85,1.63-6.38-.58-6.16-3.85,2.56-39.07-22.16-70.09-24.12-72.48,1.48-4.34,2.44-8.57,2.99-12.62.46-3.33,4.24-5,7-3.07,4.5,3.14,10.36,7.89,16.12,14.43,15.69,17.83,23.24,39.91,22.43,65.63,0,.02,0,.04,0,.06-2.13,1.57-4.29,3.1-6.47,4.58ZM411.27,324.27c-2.23,5.23-4.76,10.48-7.53,15.6-3.75,6.93-7.98,13.68-12.58,20.08-4.83,6.71-10.12,13.13-15.74,19.09-.94,1-1.89,1.99-2.84,2.96l-.09.09c-.53.54-1.04,1.06-1.58,1.59-2.29,2.27-4.63,4.48-7.03,6.62-2.53,2.26-6.55.63-6.85-2.75-.21-2.38-.5-4.7-.84-6.95,30.15-8.47,30.53-37.95,30.53-38.26,0-1.75-1.26-3.27-3.03-3.57-1.43-.24-2.86.47-3.67,1.67-1.65,2.45-6.9,8.43-12.31,8.11-5.48-.33-9.99-6.98-12.87-12.66,16.31-3.58,31.93-28.12,33.86-31.24.74-1.19.72-2.7-.05-3.88-.77-1.17-2.15-1.8-3.53-1.61-11.04,1.54-30.7,2.62-36.46-1.03-.31-.2-.61-.41-.92-.61,14.37-6.15,26.59-14.98,36.35-26.31,1.64-1.31,3.7-4.16,2.92-7.08-.42-1.55-1.94-4.17-7.18-4.07-1.57.02-9.77,0-20.83-2.45l11.03-8.04c14.79-10.78,6.54-30.81,1.6-42.77-1.35-3.28-2.52-6.11-2.95-7.98-.48-2.07-2.37-3.49-4.48-3.35-2.12.13-3.82,1.76-4.05,3.87-.32,2.98-1.65,8.56-6.97,12.54-.34.25-.69.48-1.04.72-.3-.5-.72-.95-1.26-1.27l-26.25-15.38c-15.73-9.22-35.11-8.75-50.12.47-29.62-16.13-59.61-6.98-72.83-1.32-14.65-7.91-32.87-7.9-47.81.86l-26.25,15.38c-.54.32-.96.76-1.26,1.27-.36-.23-.71-.46-1.04-.72-5.21-3.89-6.59-9.32-6.95-12.34-.23-1.99-1.67-3.71-3.65-4.02-2.27-.35-4.39,1.1-4.9,3.3-.43,1.87-1.6,4.7-2.95,7.98-4.93,11.96-13.19,31.99,1.6,42.77l11.03,8.04c-11.07,2.45-19.27,2.47-20.84,2.45-5.28-.08-6.76,2.52-7.18,4.07-.78,2.92,1.28,5.77,2.92,7.08,9.76,11.32,21.98,20.16,36.35,26.3-.3.2-.6.41-.92.61-5.75,3.65-25.42,2.57-36.46,1.03-1.38-.19-2.76.43-3.53,1.61-.77,1.17-.79,2.68-.05,3.88,1.93,3.12,17.54,27.67,33.86,31.24-2.88,5.68-7.39,12.32-12.87,12.66-5.5.33-10.79-5.8-12.37-8.19-.88-1.34-2.53-1.94-4.06-1.49-1.53.46-2.59,1.87-2.59,3.47,0,.3.38,29.79,30.53,38.26-.34,2.19-.62,4.45-.83,6.77-.31,3.4-4.34,5-6.88,2.72-2.32-2.08-4.59-4.23-6.81-6.43-.56-.55-1.1-1.1-1.66-1.67-.96-.98-1.91-1.96-2.85-2.97-5.61-5.95-10.9-12.38-15.73-19.08-4.6-6.4-8.83-13.16-12.58-20.09-2.77-5.12-5.31-10.37-7.53-15.59-2.04-4.81-3.89-9.7-5.49-14.53-2.2-6.63-4.05-13.55-5.51-20.56-1.22-5.89-2.16-11.86-2.79-17.74-.25-2.25-.45-4.46-.6-6.6-.11-1.53-.2-2.91-.26-4.27-.16-3.07-.25-6.27-.25-9.52,0-9.38.7-18.79,2.09-27.97.57-3.79,1.26-7.59,2.05-11.27,2.88-13.49,7.29-26.69,13.1-39.23,3.45-7.42,7.41-14.68,11.78-21.57,25.08-39.47,63.09-67.38,106.65-79.68,4.47-1.26,7.85,4.14,4.68,7.54-10.82,11.6-17.37,27.24-17.07,44.39.6,34.98,28.85,62.59,63.83,62.43,34.89-.16,63.23-28.6,63.23-63.53,0-16.69-6.47-31.89-17.04-43.24-3.19-3.43.13-8.86,4.63-7.58,43.57,12.31,81.57,40.21,106.65,79.68,4.37,6.89,8.34,14.15,11.78,21.57,5.81,12.54,10.22,25.73,13.1,39.23.79,3.69,1.48,7.48,2.05,11.28,1.38,9.17,2.09,18.58,2.09,27.97,0,3.25-.08,6.45-.25,9.56-.06,1.34-.14,2.72-.26,4.25-.15,2.14-.36,4.35-.6,6.6-.62,5.86-1.56,11.83-2.78,17.73-1.46,7.01-3.31,13.93-5.51,20.56-1.6,4.83-3.44,9.72-5.48,14.52Z" style="fill: #1d1d1b; stroke-width: 0px;"/>
      <polygon points="121.36 426.14 95.31 469.42 90.62 472.22 115.65 487.28 121.37 477.78 111.7 477.18 103.53 472.26 128.65 430.53 133.34 427.73 121.63 420.69 121.36 426.14" style="fill: #1d1d1b; stroke-width: 0px;"/>
      <polygon points="221.61 461.56 220.48 512.07 217.79 516.82 248.54 517.51 248.79 506.43 240.19 510.7 229.02 510.45 229.47 490.36 239.43 490.58 244.37 492.92 244.62 481.76 239.58 483.88 229.62 483.66 230.07 463.56 241.24 463.81 249.64 468.46 249.89 457.38 219.14 456.69 221.61 461.56" style="fill: #1d1d1b; stroke-width: 0px;"/>
      <path d="M359.37,429.47c-2.86-5-6.27-6.11-11.42-3.17l-12.6,7.21c-5.15,2.95-5.84,6.41-2.98,11.41l21.51,37.58c2.86,5,6.2,6.15,11.34,3.21l12.6-7.21c5.14-2.94,5.91-6.45,3.05-11.45l-21.51-37.58ZM370.9,474.85l-5.37,3.07c-2.39,1.37-4.24.55-5.56-1.76l-19.04-33.26c-1.32-2.31-1.09-4.33,1.3-5.69l5.37-3.07c2.39-1.37,4.32-.59,5.64,1.72l19.04,33.26c1.32,2.31,1.02,4.37-1.37,5.73Z" style="fill: #1d1d1b; stroke-width: 0px;"/>
      <polygon points="102.11 76.5 102.51 79.35 108.32 75.11 105.73 73.86 98.94 64.55 104.85 60.23 111.65 69.55 112.05 72.39 117.85 68.16 115.23 66.94 99.56 45.46 99.2 42.58 93.39 46.82 95.98 48.07 102.8 57.42 96.88 61.74 90.06 52.38 89.67 49.54 83.86 53.78 86.45 55.02 102.11 76.5" style="fill: #1d1d1b; stroke-width: 0px;"/>
      <path d="M131.08,54.99c1.37,2.7,3.09,3.4,5.88,1.99l6.82-3.45c2.78-1.41,3.28-3.23,1.91-5.94l-10.3-20.33c-1.37-2.7-3.13-3.38-5.92-1.97l-6.82,3.45c-2.78,1.41-3.24,3.21-1.87,5.92l10.3,20.33ZM126.16,30.87l2.9-1.47c1.29-.65,2.28-.19,2.92,1.06l9.12,17.99c.63,1.25.42,2.32-.87,2.98l-2.9,1.47c-1.29.65-2.24.17-2.88-1.08l-9.12-17.99c-.63-1.25-.46-2.3.83-2.96Z" style="fill: #1d1d1b; stroke-width: 0px;"/>
      <path d="M164.62,41.92l-.53,2.82,6.86-2.17-2.06-2-3.5-11.04,1.6-.51c1.9-.6,2.88-.06,3.98,1.63l5.04,7.66.16,2.61,7.11-2.25-2.66-1.81-7.12-10.03c1.96-1.14,2.4-2.9,1.57-5.53l-2.47-7.8c-.92-2.89-2.5-3.86-5.48-2.91l-12.59,3.99,2.06,2,8.03,25.35ZM165.49,14.75c1.81-.57,2.91.22,3.46,1.94l1.43,4.53c.55,1.72.1,3.01-1.71,3.58l-4.35,1.38-3.18-10.05,4.35-1.38Z" style="fill: #1d1d1b; stroke-width: 0px;"/>
      <path d="M198.11,30.91c.45,3,1.86,4.2,4.95,3.74l7.56-1.12c3.09-.46,4.13-2.03,3.69-5.03l-3.35-22.54c-.45-3-1.9-4.2-4.99-3.74l-7.56,1.12c-3.09.46-4.09,2.02-3.64,5.02l3.35,22.54ZM201.06,6.47l3.22-.48c1.43-.21,2.23.54,2.43,1.92l2.97,19.95c.21,1.39-.34,2.34-1.77,2.55l-3.22.48c-1.43.21-2.18-.54-2.39-1.93l-2.97-19.95c-.21-1.39.29-2.33,1.72-2.54Z" style="fill: #1d1d1b; stroke-width: 0px;"/>
      <path d="M237.47,31.65l7.64.12c3.12.05,4.41-1.33,4.46-4.36l.11-7.05c.03-1.76-.72-3.13-2.33-4.02l-7.39-4.19c-1.52-.84-1.92-1.52-1.89-3.38l.05-3.03c.02-1.4.71-2.25,2.16-2.23l2.85.05c1.45.02,2.07.89,2.04,2.29l-.05,3.39,4.3,2.38.11-7.01c.05-3.03-1.19-4.45-4.31-4.5L238.12,0c-3.12-.05-4.36,1.33-4.41,4.36l-.1,6.42c-.03,1.76.63,3.13,2.24,4.06l7.44,4.15c1.52.88,1.92,1.57,1.89,3.42l-.06,3.62c-.02,1.4-.71,2.25-2.16,2.23l-3.35-.05c-1.4-.02-2.07-.89-2.04-2.29l.07-4.25-4.3-2.38-.13,7.87c-.05,3.03,1.15,4.45,4.27,4.5Z" style="fill: #1d1d1b; stroke-width: 0px;"/>
      <path d="M271.26,33.97l7.41,1.2c3.08.5,4.55-.68,5.04-3.67l1.55-9.51-4.66,1.62-.96,5.89c-.23,1.38-1.03,2.12-2.46,1.89l-3.21-.52c-1.43-.23-1.91-1.18-1.69-2.57l3.24-19.91c.23-1.38.99-2.13,2.42-1.9l3.21.52c1.43.23,1.96,1.19,1.73,2.57l-1.16,7.14,4.66-1.62.99-6.11c.49-2.99-.54-4.58-3.62-5.08l-7.41-1.2c-3.08-.5-4.51.69-5,3.68l-3.66,22.49c-.49,2.99.49,4.57,3.57,5.07Z" style="fill: #1d1d1b; stroke-width: 0px;"/>
      <path d="M304.78,41.59l7.25,2.4c2.96.98,4.6.05,5.56-2.83l7.17-21.63c.95-2.88.19-4.6-2.77-5.59l-7.25-2.4c-2.96-.98-4.56-.04-5.51,2.84l-7.17,21.63c-.95,2.88-.24,4.59,2.73,5.57ZM306.67,36.17l6.35-19.14c.44-1.33,1.31-1.95,2.69-1.49l3.09,1.02c1.37.46,1.75,1.48,1.31,2.81l-6.35,19.14c-.44,1.33-1.35,1.93-2.73,1.48l-3.09-1.02c-1.37-.46-1.7-1.47-1.26-2.8Z" style="fill: #1d1d1b; stroke-width: 0px;"/>
      <path d="M338.84,52.65l5.16-9.96,6.43,3.33c2.77,1.43,4.5.75,5.89-1.94l4.16-8.03c1.39-2.69.95-4.5-1.82-5.93l-11.61-6.01.04,2.87-12.23,23.61-2.37,1.62,6.39,3.31-.04-2.87ZM350.63,29.88l3.93,2.04c1.69.87,1.91,2.21,1.08,3.82l-2.39,4.62c-.81,1.57-2.05,2.2-3.74,1.32l-3.94-2.04,5.05-9.76Z" style="fill: #1d1d1b; stroke-width: 0px;"/>
      <polygon points="378.54 73.84 373.53 73.09 368.79 69.63 375.03 61.08 379.27 64.18 380.69 66.67 384.16 61.92 381.35 61.33 377.11 58.23 383.35 49.69 388.1 53.16 390.33 57.7 393.77 52.98 380.7 43.43 380.3 46.28 364.61 67.75 362.02 69 375.1 78.55 378.54 73.84" style="fill: #1d1d1b; stroke-width: 0px;"/>
      <path d="M408.76,81.95c-1.41-1.41-3.7-1.42-5.12,0-1.41,1.41-1.42,3.7,0,5.12,43.75,43.82,67.84,102.06,67.84,164,0,4.67-.14,9.33-.41,13.85-1.19,20.32-5.04,40.39-11.46,59.64-7.08,21.2-17.19,41.27-30.06,59.63-5.45,7.76-11.4,15.24-17.7,22.22-1.34,1.48-1.22,3.77.26,5.11.69.62,1.56.93,2.42.93.99,0,1.97-.4,2.69-1.19,6.5-7.2,12.64-14.91,18.26-22.91,13.28-18.93,23.71-39.62,31-61.49,6.62-19.86,10.6-40.55,11.82-61.5.28-4.66.42-9.47.42-14.28,0-63.86-24.84-123.92-69.96-169.11Z" style="fill: #1d1d1b; stroke-width: 0px;"/>
      <path d="M7.24,251.06c0-61.93,24.09-120.17,67.84-164,1.41-1.41,1.41-3.7,0-5.12-1.42-1.41-3.71-1.41-5.12,0C24.84,127.14,0,187.2,0,251.06c0,59.3,21.84,116.19,61.5,160.18.71.79,1.7,1.2,2.69,1.2.86,0,1.73-.31,2.42-.93,1.48-1.34,1.6-3.62.26-5.11C28.42,363.73,7.24,308.57,7.24,251.06Z" style="fill: #1d1d1b; stroke-width: 0px;"/>
      <path d="M378.32,162.93c-.1-.96-.25-1.91-.46-2.87-.43-1.83-1-3.65-2.15-5.48-1.15,1.83-1.72,3.65-2.15,5.48-.21.96-.36,1.91-.46,2.87-.96.1-1.91.25-2.87.46-1.83.43-3.65,1-5.48,2.15,1.83,1.15,3.65,1.72,5.48,2.15.96.21,1.91.36,2.87.46.09.96.24,1.92.46,2.87.43,1.83,1,3.65,2.16,5.48,1.15-1.83,1.73-3.65,2.16-5.48.22-.96.36-1.91.46-2.87.96-.09,1.91-.24,2.87-.46,1.83-.43,3.65-1,5.48-2.16-1.83-1.15-3.65-1.73-5.48-2.16-.96-.22-1.92-.36-2.87-.46Z" style="fill: #1d1d1b; stroke-width: 0px;"/>
      <path d="M331.14,162.93c-.1-.96-.25-1.91-.46-2.87-.43-1.83-1-3.65-2.15-5.48-1.15,1.83-1.72,3.65-2.15,5.48-.21.96-.36,1.91-.46,2.87-.96.1-1.91.25-2.87.46-1.83.43-3.65,1-5.48,2.15,1.83,1.15,3.65,1.72,5.48,2.15.96.21,1.91.36,2.87.46.09.96.24,1.92.46,2.87.43,1.83,1,3.65,2.16,5.48,1.15-1.83,1.73-3.65,2.16-5.48.22-.96.36-1.91.46-2.87.96-.09,1.91-.24,2.87-.46,1.83-.43,3.65-1,5.48-2.16-1.83-1.15-3.65-1.73-5.48-2.16-.96-.22-1.92-.36-2.87-.46Z" style="fill: #1d1d1b; stroke-width: 0px;"/>
      <path d="M331.14,108.82c-.1-.96-.25-1.91-.46-2.87-.43-1.83-1-3.65-2.15-5.48-1.15,1.83-1.72,3.65-2.15,5.48-.21.96-.36,1.91-.46,2.87-.96.1-1.91.25-2.87.46-1.83.43-3.65,1-5.48,2.15,1.83,1.15,3.65,1.72,5.48,2.15.96.21,1.91.36,2.87.46.09.96.24,1.92.46,2.87.43,1.83,1,3.65,2.16,5.48,1.15-1.83,1.73-3.65,2.16-5.48.22-.96.36-1.91.46-2.87.96-.09,1.91-.24,2.87-.46,1.83-.43,3.65-1,5.48-2.16-1.83-1.15-3.65-1.73-5.48-2.16-.96-.22-1.92-.36-2.87-.46Z" style="fill: #1d1d1b; stroke-width: 0px;"/>
      <path d="M105.61,162.93c-.1-.96-.25-1.91-.46-2.87-.43-1.83-1-3.65-2.15-5.48-1.15,1.83-1.72,3.65-2.15,5.48-.21.96-.36,1.91-.46,2.87-.96.09-1.92.24-2.87.46-1.83.43-3.65,1-5.48,2.16,1.83,1.15,3.65,1.73,5.48,2.16.96.22,1.91.36,2.87.46.09.96.24,1.91.46,2.87.43,1.83,1,3.65,2.16,5.48,1.15-1.83,1.73-3.65,2.16-5.48.22-.96.36-1.92.46-2.87.95-.1,1.91-.25,2.87-.46,1.83-.43,3.65-1,5.48-2.15-1.83-1.15-3.65-1.72-5.48-2.15-.96-.21-1.91-.36-2.87-.46Z" style="fill: #1d1d1b; stroke-width: 0px;"/>
      <path d="M152.79,162.93c-.1-.96-.25-1.91-.46-2.87-.43-1.83-1-3.65-2.15-5.48-1.15,1.83-1.72,3.65-2.15,5.48-.21.96-.36,1.91-.46,2.87-.96.09-1.92.24-2.87.46-1.83.43-3.65,1-5.48,2.16,1.83,1.15,3.65,1.73,5.48,2.16.96.22,1.91.36,2.87.46.09.96.24,1.91.46,2.87.43,1.83,1,3.65,2.16,5.48,1.15-1.83,1.73-3.65,2.16-5.48.22-.96.36-1.92.46-2.87.95-.1,1.91-.25,2.87-.46,1.83-.43,3.65-1,5.48-2.15-1.83-1.15-3.65-1.72-5.48-2.15-.96-.21-1.91-.36-2.87-.46Z" style="fill: #1d1d1b; stroke-width: 0px;"/>
      <path d="M152.79,108.83c-.1-.96-.25-1.91-.46-2.87-.43-1.83-1-3.65-2.15-5.48-1.15,1.83-1.72,3.65-2.15,5.48-.21.96-.36,1.91-.46,2.87-.96.09-1.92.24-2.87.46-1.83.43-3.65,1-5.48,2.16,1.83,1.15,3.65,1.73,5.48,2.16.96.22,1.91.36,2.87.46.09.96.24,1.91.46,2.87.43,1.83,1,3.65,2.16,5.48,1.15-1.83,1.73-3.65,2.16-5.48.22-.96.36-1.92.46-2.87.95-.1,1.91-.25,2.87-.46,1.83-.43,3.65-1,5.48-2.15-1.83-1.15-3.65-1.72-5.48-2.15-.96-.21-1.91-.36-2.87-.46Z" style="fill: #1d1d1b; stroke-width: 0px;"/>
      <path d="M225.16,316.32c-.78-2.25-1.79-4.43-2.98-6.5-.6-1.03-1.24-2.05-1.94-3.04-.52-.75-1.05-1.46-1.66-2.19.01,0,.04-.02.04-.02-6.95-8.34-26.39-5.56-26.39-5.56,0,0,8.68,7.9,13.2,9.2,2.7.78,6.87-.67,9.8-1.97.06.07.11.13.18.19l.04.04c.75.65,1.58,1.47,2.31,2.28.75.82,1.46,1.68,2.15,2.56,1.36,1.78,2.56,3.69,3.57,5.7,1.04,2.01,1.78,4.16,2.31,6.37l.35,1.68.19,1.71.09.86v.86s0,1.74,0,1.74l.23-1.73.11-.87.02-.87.04-1.76-.13-1.76c-.25-2.34-.72-4.69-1.53-6.92Z" style="fill: #1d1d1b; stroke-width: 0px;"/>
      <path d="M251.95,327.64l.11.87.23,1.73v-1.74s0-.86,0-.86l.09-.86.19-1.71.35-1.68c.53-2.21,1.27-4.36,2.31-6.37,1.01-2.01,2.21-3.92,3.57-5.7.69-.88,1.4-1.75,2.15-2.56.73-.81,1.56-1.63,2.31-2.28l.05-.04c.06-.05.11-.1.16-.16,0,0,.01-.02.02-.02,2.93,1.3,7.1,2.75,9.8,1.97,4.51-1.3,13.2-9.2,13.2-9.2,0,0-19.45-2.78-26.39,5.56,0,0,.03.02.04.02-.6.73-1.13,1.43-1.66,2.19-.7.99-1.33,2-1.94,3.04-1.2,2.08-2.2,4.26-2.98,6.5-.81,2.24-1.29,4.59-1.53,6.92l-.13,1.76.04,1.76.02.87Z" style="fill: #1d1d1b; stroke-width: 0px;"/>
    </g>
  </g>
</svg>